G04 #@! TF.GenerationSoftware,KiCad,Pcbnew,7.0.1*
G04 #@! TF.CreationDate,2023-08-25T11:55:28+10:00*
G04 #@! TF.ProjectId,Firetruck,46697265-7472-4756-936b-2e6b69636164,rev?*
G04 #@! TF.SameCoordinates,Original*
G04 #@! TF.FileFunction,Copper,L2,Bot*
G04 #@! TF.FilePolarity,Positive*
%FSLAX46Y46*%
G04 Gerber Fmt 4.6, Leading zero omitted, Abs format (unit mm)*
G04 Created by KiCad (PCBNEW 7.0.1) date 2023-08-25 11:55:28*
%MOMM*%
%LPD*%
G01*
G04 APERTURE LIST*
G04 Aperture macros list*
%AMRoundRect*
0 Rectangle with rounded corners*
0 $1 Rounding radius*
0 $2 $3 $4 $5 $6 $7 $8 $9 X,Y pos of 4 corners*
0 Add a 4 corners polygon primitive as box body*
4,1,4,$2,$3,$4,$5,$6,$7,$8,$9,$2,$3,0*
0 Add four circle primitives for the rounded corners*
1,1,$1+$1,$2,$3*
1,1,$1+$1,$4,$5*
1,1,$1+$1,$6,$7*
1,1,$1+$1,$8,$9*
0 Add four rect primitives between the rounded corners*
20,1,$1+$1,$2,$3,$4,$5,0*
20,1,$1+$1,$4,$5,$6,$7,0*
20,1,$1+$1,$6,$7,$8,$9,0*
20,1,$1+$1,$8,$9,$2,$3,0*%
G04 Aperture macros list end*
G04 #@! TA.AperFunction,ComponentPad*
%ADD10RoundRect,0.250001X-1.099999X-1.099999X1.099999X-1.099999X1.099999X1.099999X-1.099999X1.099999X0*%
G04 #@! TD*
G04 #@! TA.AperFunction,ComponentPad*
%ADD11C,2.700000*%
G04 #@! TD*
G04 #@! TA.AperFunction,ComponentPad*
%ADD12RoundRect,0.250000X-0.350000X-0.625000X0.350000X-0.625000X0.350000X0.625000X-0.350000X0.625000X0*%
G04 #@! TD*
G04 #@! TA.AperFunction,ComponentPad*
%ADD13O,1.200000X1.750000*%
G04 #@! TD*
G04 #@! TA.AperFunction,ComponentPad*
%ADD14R,1.800000X1.800000*%
G04 #@! TD*
G04 #@! TA.AperFunction,ComponentPad*
%ADD15C,1.800000*%
G04 #@! TD*
G04 #@! TA.AperFunction,ComponentPad*
%ADD16C,3.400000*%
G04 #@! TD*
G04 #@! TA.AperFunction,ComponentPad*
%ADD17C,1.500000*%
G04 #@! TD*
G04 #@! TA.AperFunction,ComponentPad*
%ADD18C,0.500000*%
G04 #@! TD*
G04 #@! TA.AperFunction,HeatsinkPad*
%ADD19C,0.500000*%
G04 #@! TD*
G04 #@! TA.AperFunction,ViaPad*
%ADD20C,0.800000*%
G04 #@! TD*
G04 #@! TA.AperFunction,Conductor*
%ADD21C,0.250000*%
G04 #@! TD*
G04 #@! TA.AperFunction,Conductor*
%ADD22C,0.300000*%
G04 #@! TD*
G04 APERTURE END LIST*
D10*
X172480000Y-96645000D03*
D11*
X176440000Y-96645000D03*
D12*
X124860000Y-105450000D03*
D13*
X126860000Y-105450000D03*
D14*
X129620000Y-70930000D03*
D15*
X132160000Y-70930000D03*
X134700000Y-70930000D03*
X137240000Y-70930000D03*
X139780000Y-70930000D03*
X142320000Y-70930000D03*
X144860000Y-70930000D03*
X147400000Y-70930000D03*
X149940000Y-70930000D03*
X152480000Y-70930000D03*
X155020000Y-70930000D03*
X157560000Y-70930000D03*
X160100000Y-70930000D03*
X162640000Y-70930000D03*
X165180000Y-70930000D03*
X165180000Y-55690000D03*
X162640000Y-55690000D03*
X160100000Y-55690000D03*
X157560000Y-55690000D03*
X155020000Y-55690000D03*
X152480000Y-55690000D03*
X149940000Y-55690000D03*
X147400000Y-55690000D03*
X144860000Y-55690000D03*
X142320000Y-55690000D03*
X139780000Y-55690000D03*
X137240000Y-55690000D03*
X134700000Y-55690000D03*
X132160000Y-55690000D03*
X129620000Y-55690000D03*
D16*
X176290000Y-78840000D03*
X176290000Y-91980000D03*
D17*
X173580000Y-81910000D03*
X173580000Y-84410000D03*
X173580000Y-86410000D03*
X173580000Y-88910000D03*
D18*
X143915000Y-94125000D03*
X144905000Y-94125000D03*
D19*
X143915000Y-93125000D03*
D18*
X144905000Y-93125000D03*
D12*
X134770000Y-105370000D03*
D13*
X136770000Y-105370000D03*
X138770000Y-105370000D03*
X140770000Y-105370000D03*
D12*
X147640000Y-105270000D03*
D13*
X149640000Y-105270000D03*
X151640000Y-105270000D03*
X153640000Y-105270000D03*
D12*
X160180000Y-105290000D03*
D13*
X162180000Y-105290000D03*
X164180000Y-105290000D03*
X166180000Y-105290000D03*
D18*
X159580000Y-94210000D03*
X160570000Y-94210000D03*
X159580000Y-93210000D03*
X160570000Y-93210000D03*
D20*
X137160000Y-87990000D03*
X162540000Y-75540000D03*
X135430000Y-93500000D03*
X135380000Y-80500000D03*
X146420000Y-84870000D03*
X133660000Y-85600000D03*
X158870000Y-89810000D03*
X168250000Y-85540000D03*
X158530000Y-85740000D03*
X150280000Y-75620000D03*
X156090000Y-79000000D03*
X139015759Y-95345759D03*
X147120000Y-90410000D03*
X150310000Y-62260000D03*
X143900000Y-78640000D03*
X163900000Y-98490000D03*
X151870000Y-96810000D03*
X158240000Y-90710000D03*
X161410000Y-90930000D03*
X141480000Y-90750000D03*
X143629500Y-90985205D03*
X138865000Y-93385000D03*
X139370000Y-74690000D03*
X162190000Y-91880000D03*
X142570000Y-88810000D03*
X145695500Y-83300000D03*
X143000000Y-83130000D03*
X132320000Y-67960000D03*
X127910000Y-90310000D03*
X126630000Y-75700000D03*
X131800000Y-97940000D03*
X170780000Y-76530000D03*
X152840000Y-83030000D03*
X146940000Y-93160500D03*
X156050000Y-84390000D03*
X156650000Y-94600000D03*
X156630000Y-93100000D03*
X146820000Y-92000000D03*
X160100000Y-75280000D03*
D21*
X134770000Y-85600000D02*
X133660000Y-85600000D01*
X137160000Y-87990000D02*
X134770000Y-85600000D01*
X162190000Y-75890000D02*
X162540000Y-75540000D01*
X162190000Y-81510000D02*
X162190000Y-75890000D01*
X162190000Y-91880000D02*
X162190000Y-81510000D01*
D22*
X158870000Y-89810000D02*
X158870000Y-86080000D01*
D21*
X146770000Y-85220000D02*
X146420000Y-84870000D01*
D22*
X158870000Y-86080000D02*
X158530000Y-85740000D01*
D21*
X171880000Y-81910000D02*
X173580000Y-81910000D01*
X135380000Y-80500000D02*
X133660000Y-82220000D01*
X133660000Y-82220000D02*
X133660000Y-85600000D01*
X168250000Y-85540000D02*
X171880000Y-81910000D01*
X158870000Y-89655402D02*
X158870000Y-89810000D01*
X153660000Y-79000000D02*
X156090000Y-79000000D01*
X150280000Y-75620000D02*
X153660000Y-79000000D01*
X154710000Y-99650000D02*
X151870000Y-96810000D01*
X139015759Y-95345759D02*
X140755000Y-93606518D01*
X149257588Y-62260000D02*
X141095000Y-70422588D01*
X141095000Y-73439695D02*
X143900000Y-76244695D01*
X161940000Y-99650000D02*
X154710000Y-99650000D01*
X141184695Y-90020000D02*
X143680000Y-90020000D01*
X140755000Y-90449695D02*
X141184695Y-90020000D01*
X143680000Y-90020000D02*
X143900000Y-90240000D01*
X162740000Y-99650000D02*
X163900000Y-98490000D01*
X144070000Y-90410000D02*
X143900000Y-90240000D01*
X143900000Y-90240000D02*
X143900000Y-78640000D01*
X161940000Y-99650000D02*
X162740000Y-99650000D01*
X150310000Y-62260000D02*
X149257588Y-62260000D01*
X143900000Y-76244695D02*
X143900000Y-78640000D01*
X147120000Y-90410000D02*
X144070000Y-90410000D01*
X140755000Y-93606518D02*
X140755000Y-90449695D01*
X141095000Y-70422588D02*
X141095000Y-73439695D01*
X158240000Y-90710000D02*
X161190000Y-90710000D01*
X161190000Y-90710000D02*
X161410000Y-90930000D01*
X141715205Y-90985205D02*
X141480000Y-90750000D01*
X143629500Y-90985205D02*
X141715205Y-90985205D01*
X139370000Y-74690000D02*
X139370000Y-92880000D01*
X139370000Y-92880000D02*
X138865000Y-93385000D01*
X142570000Y-88810000D02*
X142570000Y-83560000D01*
X142570000Y-83560000D02*
X143000000Y-83130000D01*
X147400000Y-81595500D02*
X147400000Y-79210000D01*
X147400000Y-70930000D02*
X147400000Y-79210000D01*
X145695500Y-83300000D02*
X147400000Y-81595500D01*
X127910000Y-95830000D02*
X130020000Y-97940000D01*
X130140000Y-67960000D02*
X132320000Y-67960000D01*
X126630000Y-71470000D02*
X130140000Y-67960000D01*
X127910000Y-95830000D02*
X127910000Y-90310000D01*
X126630000Y-75700000D02*
X126630000Y-71470000D01*
X130020000Y-97940000D02*
X131800000Y-97940000D01*
X152897412Y-56915000D02*
X146085000Y-56915000D01*
X146085000Y-56915000D02*
X144860000Y-55690000D01*
X170780000Y-74797588D02*
X152897412Y-56915000D01*
X170780000Y-76530000D02*
X170780000Y-74797588D01*
X134700000Y-55690000D02*
X134700000Y-70930000D01*
X149040000Y-71830000D02*
X149040000Y-79230000D01*
X156050000Y-84390000D02*
X147279500Y-93160500D01*
X149040000Y-79230000D02*
X152840000Y-83030000D01*
X147279500Y-93160500D02*
X146940000Y-93160500D01*
X149940000Y-70930000D02*
X149040000Y-71830000D01*
X160980000Y-74350000D02*
X157560000Y-70930000D01*
X160980000Y-80600000D02*
X160980000Y-74350000D01*
X153762299Y-91712299D02*
X153762299Y-87817701D01*
X156650000Y-94600000D02*
X153762299Y-91712299D01*
X153762299Y-87817701D02*
X160980000Y-80600000D01*
X156630000Y-93100000D02*
X156630000Y-86614695D01*
X161430000Y-72260000D02*
X160100000Y-70930000D01*
X161430000Y-81814695D02*
X161430000Y-72260000D01*
X156630000Y-86614695D02*
X161430000Y-81814695D01*
X146820000Y-92000000D02*
X160100000Y-78720000D01*
X160100000Y-78720000D02*
X160100000Y-75280000D01*
G04 #@! TA.AperFunction,Conductor*
G36*
X161513385Y-82763830D02*
G01*
X161550985Y-82807853D01*
X161564500Y-82864148D01*
X161564500Y-89905500D01*
X161547887Y-89967500D01*
X161502500Y-90012887D01*
X161440500Y-90029500D01*
X161315352Y-90029500D01*
X161130198Y-90068854D01*
X161119137Y-90073780D01*
X161068702Y-90084500D01*
X158943747Y-90084500D01*
X158893312Y-90073780D01*
X158851598Y-90043473D01*
X158845871Y-90037112D01*
X158692730Y-89925849D01*
X158692729Y-89925848D01*
X158692727Y-89925847D01*
X158519802Y-89848855D01*
X158334648Y-89809500D01*
X158334646Y-89809500D01*
X158145354Y-89809500D01*
X158145352Y-89809500D01*
X157960197Y-89848855D01*
X157787269Y-89925848D01*
X157634129Y-90037110D01*
X157507466Y-90177783D01*
X157486887Y-90213429D01*
X157441500Y-90258816D01*
X157379500Y-90275429D01*
X157317500Y-90258816D01*
X157272113Y-90213429D01*
X157255500Y-90151429D01*
X157255500Y-86925147D01*
X157264939Y-86877694D01*
X157291819Y-86837466D01*
X161352819Y-82776467D01*
X161402182Y-82746217D01*
X161459898Y-82741675D01*
X161513385Y-82763830D01*
G37*
G04 #@! TD.AperFunction*
G04 #@! TA.AperFunction,Conductor*
G36*
X156349018Y-71664349D02*
G01*
X156393808Y-71705582D01*
X156451021Y-71793153D01*
X156608216Y-71963913D01*
X156791374Y-72106470D01*
X156995497Y-72216936D01*
X157082430Y-72246780D01*
X157215015Y-72292297D01*
X157215017Y-72292297D01*
X157215019Y-72292298D01*
X157443951Y-72330500D01*
X157676048Y-72330500D01*
X157676049Y-72330500D01*
X157904981Y-72292298D01*
X157930576Y-72283510D01*
X157998788Y-72279983D01*
X158058521Y-72313111D01*
X159942462Y-74197053D01*
X159974966Y-74254211D01*
X159973675Y-74319952D01*
X159938953Y-74375790D01*
X159880563Y-74406024D01*
X159820196Y-74418855D01*
X159647269Y-74495848D01*
X159494129Y-74607110D01*
X159367466Y-74747783D01*
X159272820Y-74911715D01*
X159214326Y-75091742D01*
X159194540Y-75279999D01*
X159214326Y-75468257D01*
X159272820Y-75648284D01*
X159367464Y-75812213D01*
X159367467Y-75812216D01*
X159442652Y-75895717D01*
X159466264Y-75934249D01*
X159474500Y-75978687D01*
X159474500Y-78409548D01*
X159465061Y-78457001D01*
X159438181Y-78497229D01*
X148041870Y-89893537D01*
X147994054Y-89923273D01*
X147938017Y-89928797D01*
X147885315Y-89908969D01*
X147863378Y-89885556D01*
X147861254Y-89887469D01*
X147725870Y-89737110D01*
X147572730Y-89625848D01*
X147399802Y-89548855D01*
X147214648Y-89509500D01*
X147214646Y-89509500D01*
X147025354Y-89509500D01*
X147025352Y-89509500D01*
X146840197Y-89548855D01*
X146667272Y-89625847D01*
X146565175Y-89700024D01*
X146514129Y-89737112D01*
X146508401Y-89743473D01*
X146466688Y-89773780D01*
X146416253Y-89784500D01*
X144649500Y-89784500D01*
X144587500Y-89767887D01*
X144542113Y-89722500D01*
X144525500Y-89660500D01*
X144525500Y-79338687D01*
X144533736Y-79294249D01*
X144557347Y-79255717D01*
X144632533Y-79172216D01*
X144633428Y-79170667D01*
X144727179Y-79008284D01*
X144740593Y-78967000D01*
X144785674Y-78828256D01*
X144805460Y-78640000D01*
X144785674Y-78451744D01*
X144727179Y-78271716D01*
X144727179Y-78271715D01*
X144632535Y-78107786D01*
X144619427Y-78093229D01*
X144557347Y-78024282D01*
X144533736Y-77985751D01*
X144525500Y-77941313D01*
X144525500Y-76327436D01*
X144527763Y-76306932D01*
X144525561Y-76236840D01*
X144525500Y-76232946D01*
X144525500Y-76205352D01*
X144525500Y-76205345D01*
X144524995Y-76201348D01*
X144524080Y-76189718D01*
X144522709Y-76146068D01*
X144517120Y-76126835D01*
X144513174Y-76107777D01*
X144510664Y-76087901D01*
X144494588Y-76047299D01*
X144490804Y-76036248D01*
X144479629Y-75997786D01*
X144478618Y-75994305D01*
X144468414Y-75977050D01*
X144459861Y-75959590D01*
X144452486Y-75940964D01*
X144452486Y-75940963D01*
X144426808Y-75905620D01*
X144420401Y-75895866D01*
X144415901Y-75888257D01*
X144398170Y-75858275D01*
X144384006Y-75844111D01*
X144371367Y-75829312D01*
X144359595Y-75813108D01*
X144325941Y-75785268D01*
X144317299Y-75777404D01*
X141756819Y-73216923D01*
X141729939Y-73176695D01*
X141720500Y-73129242D01*
X141720500Y-72378594D01*
X141734249Y-72321843D01*
X141772447Y-72277676D01*
X141826623Y-72255889D01*
X141884762Y-72261312D01*
X141921122Y-72273795D01*
X141975018Y-72292298D01*
X142089485Y-72311399D01*
X142203951Y-72330500D01*
X142436048Y-72330500D01*
X142436049Y-72330500D01*
X142664981Y-72292298D01*
X142884503Y-72216936D01*
X143088626Y-72106470D01*
X143271784Y-71963913D01*
X143428979Y-71793153D01*
X143486191Y-71705582D01*
X143530982Y-71664349D01*
X143590000Y-71649404D01*
X143649018Y-71664349D01*
X143693808Y-71705582D01*
X143751021Y-71793153D01*
X143908216Y-71963913D01*
X144091374Y-72106470D01*
X144295497Y-72216936D01*
X144382430Y-72246780D01*
X144515015Y-72292297D01*
X144515017Y-72292297D01*
X144515019Y-72292298D01*
X144743951Y-72330500D01*
X144976048Y-72330500D01*
X144976049Y-72330500D01*
X145204981Y-72292298D01*
X145424503Y-72216936D01*
X145628626Y-72106470D01*
X145811784Y-71963913D01*
X145968979Y-71793153D01*
X146026191Y-71705582D01*
X146070982Y-71664349D01*
X146130000Y-71649404D01*
X146189018Y-71664349D01*
X146233808Y-71705582D01*
X146291021Y-71793153D01*
X146448216Y-71963913D01*
X146631374Y-72106470D01*
X146673355Y-72129189D01*
X146709518Y-72148760D01*
X146757023Y-72194341D01*
X146774500Y-72257814D01*
X146774500Y-81285048D01*
X146765061Y-81332501D01*
X146738181Y-81372729D01*
X145747728Y-82363181D01*
X145707500Y-82390061D01*
X145660047Y-82399500D01*
X145600852Y-82399500D01*
X145415697Y-82438855D01*
X145242769Y-82515848D01*
X145089629Y-82627110D01*
X144962966Y-82767783D01*
X144868320Y-82931715D01*
X144809826Y-83111742D01*
X144791128Y-83289644D01*
X144790040Y-83300000D01*
X144796946Y-83365711D01*
X144809826Y-83488257D01*
X144868320Y-83668284D01*
X144962966Y-83832216D01*
X145089629Y-83972889D01*
X145242769Y-84084151D01*
X145415697Y-84161144D01*
X145600852Y-84200500D01*
X145600854Y-84200500D01*
X145790146Y-84200500D01*
X145790148Y-84200500D01*
X145913583Y-84174262D01*
X145975303Y-84161144D01*
X146148230Y-84084151D01*
X146251580Y-84009063D01*
X146301370Y-83972889D01*
X146428033Y-83832216D01*
X146522679Y-83668284D01*
X146543851Y-83603123D01*
X146581174Y-83488256D01*
X146598822Y-83320341D01*
X146610220Y-83279927D01*
X146634457Y-83245632D01*
X147783789Y-82096300D01*
X147799885Y-82083406D01*
X147801873Y-82081287D01*
X147801877Y-82081286D01*
X147847948Y-82032223D01*
X147850566Y-82029523D01*
X147870120Y-82009971D01*
X147872581Y-82006798D01*
X147880156Y-81997927D01*
X147910062Y-81966082D01*
X147919712Y-81948527D01*
X147930400Y-81932257D01*
X147942671Y-81916438D01*
X147942673Y-81916436D01*
X147960026Y-81876332D01*
X147965157Y-81865862D01*
X147986197Y-81827592D01*
X147991175Y-81808199D01*
X147997481Y-81789782D01*
X147999018Y-81786228D01*
X148005438Y-81771396D01*
X148012272Y-81728245D01*
X148014635Y-81716831D01*
X148025500Y-81674519D01*
X148025500Y-81654484D01*
X148027027Y-81635085D01*
X148030160Y-81615304D01*
X148026050Y-81571825D01*
X148025500Y-81560156D01*
X148025500Y-72257814D01*
X148042977Y-72194341D01*
X148090482Y-72148760D01*
X148126644Y-72129189D01*
X148168626Y-72106470D01*
X148214339Y-72070890D01*
X148277708Y-72045406D01*
X148344960Y-72057343D01*
X148395688Y-72103082D01*
X148414500Y-72168744D01*
X148414500Y-79147256D01*
X148412235Y-79167762D01*
X148414439Y-79237873D01*
X148414500Y-79241768D01*
X148414500Y-79269349D01*
X148415003Y-79273334D01*
X148415918Y-79284967D01*
X148417290Y-79328626D01*
X148422879Y-79347860D01*
X148426825Y-79366916D01*
X148429335Y-79386792D01*
X148445414Y-79427404D01*
X148449197Y-79438451D01*
X148461382Y-79480391D01*
X148471580Y-79497635D01*
X148480136Y-79515100D01*
X148487514Y-79533732D01*
X148487515Y-79533733D01*
X148513180Y-79569059D01*
X148519593Y-79578822D01*
X148541826Y-79616416D01*
X148541829Y-79616419D01*
X148541830Y-79616420D01*
X148555995Y-79630585D01*
X148568627Y-79645375D01*
X148580406Y-79661587D01*
X148614058Y-79689426D01*
X148622699Y-79697289D01*
X151901038Y-82975628D01*
X151925277Y-83009925D01*
X151936678Y-83050347D01*
X151954326Y-83218257D01*
X152012820Y-83398284D01*
X152107466Y-83562216D01*
X152234129Y-83702889D01*
X152387269Y-83814151D01*
X152560197Y-83891144D01*
X152745352Y-83930500D01*
X152745354Y-83930500D01*
X152934646Y-83930500D01*
X152934648Y-83930500D01*
X153058083Y-83904262D01*
X153119803Y-83891144D01*
X153292730Y-83814151D01*
X153336485Y-83782361D01*
X153445870Y-83702889D01*
X153572533Y-83562216D01*
X153667179Y-83398284D01*
X153683742Y-83347309D01*
X153725674Y-83218256D01*
X153745460Y-83030000D01*
X153725674Y-82841744D01*
X153667179Y-82661716D01*
X153667179Y-82661715D01*
X153572533Y-82497783D01*
X153445870Y-82357110D01*
X153292730Y-82245848D01*
X153119802Y-82168855D01*
X152934648Y-82129500D01*
X152934646Y-82129500D01*
X152875452Y-82129500D01*
X152827999Y-82120061D01*
X152787771Y-82093181D01*
X149701819Y-79007228D01*
X149674939Y-78967000D01*
X149665500Y-78919547D01*
X149665500Y-76523070D01*
X149680527Y-76463902D01*
X149721965Y-76419075D01*
X149779771Y-76399452D01*
X149839936Y-76409791D01*
X150000197Y-76481144D01*
X150185352Y-76520500D01*
X150185354Y-76520500D01*
X150244548Y-76520500D01*
X150292001Y-76529939D01*
X150332229Y-76556819D01*
X153159196Y-79383787D01*
X153172096Y-79399888D01*
X153223223Y-79447900D01*
X153226020Y-79450611D01*
X153245529Y-79470120D01*
X153248711Y-79472588D01*
X153257571Y-79480155D01*
X153289418Y-79510062D01*
X153306972Y-79519712D01*
X153323236Y-79530396D01*
X153334972Y-79539499D01*
X153339064Y-79542673D01*
X153353997Y-79549135D01*
X153379152Y-79560021D01*
X153389631Y-79565154D01*
X153427908Y-79586197D01*
X153447306Y-79591177D01*
X153465708Y-79597477D01*
X153484104Y-79605438D01*
X153527261Y-79612273D01*
X153538664Y-79614634D01*
X153580981Y-79625500D01*
X153601016Y-79625500D01*
X153620413Y-79627026D01*
X153640196Y-79630160D01*
X153683674Y-79626050D01*
X153695344Y-79625500D01*
X155386253Y-79625500D01*
X155436688Y-79636220D01*
X155478401Y-79666526D01*
X155484129Y-79672888D01*
X155637270Y-79784151D01*
X155637271Y-79784151D01*
X155637272Y-79784152D01*
X155810197Y-79861144D01*
X155995352Y-79900500D01*
X155995354Y-79900500D01*
X156184646Y-79900500D01*
X156184648Y-79900500D01*
X156308083Y-79874262D01*
X156369803Y-79861144D01*
X156542730Y-79784151D01*
X156667980Y-79693152D01*
X156695870Y-79672889D01*
X156701598Y-79666528D01*
X156822533Y-79532216D01*
X156917179Y-79368284D01*
X156975674Y-79188256D01*
X156995460Y-79000000D01*
X156975674Y-78811744D01*
X156919871Y-78640000D01*
X156917179Y-78631715D01*
X156822533Y-78467783D01*
X156695870Y-78327110D01*
X156542730Y-78215848D01*
X156369802Y-78138855D01*
X156184648Y-78099500D01*
X156184646Y-78099500D01*
X155995354Y-78099500D01*
X155995352Y-78099500D01*
X155810197Y-78138855D01*
X155637272Y-78215847D01*
X155563771Y-78269249D01*
X155484129Y-78327112D01*
X155478401Y-78333473D01*
X155436688Y-78363780D01*
X155386253Y-78374500D01*
X153970452Y-78374500D01*
X153922999Y-78365061D01*
X153882771Y-78338181D01*
X151218960Y-75674369D01*
X151194720Y-75640071D01*
X151183321Y-75599655D01*
X151165674Y-75431744D01*
X151107179Y-75251716D01*
X151107179Y-75251715D01*
X151012533Y-75087783D01*
X150885870Y-74947110D01*
X150732730Y-74835848D01*
X150559802Y-74758855D01*
X150374648Y-74719500D01*
X150374646Y-74719500D01*
X150185354Y-74719500D01*
X150185352Y-74719500D01*
X150000197Y-74758855D01*
X149839936Y-74830209D01*
X149779771Y-74840548D01*
X149721965Y-74820925D01*
X149680527Y-74776098D01*
X149665500Y-74716930D01*
X149665500Y-72450466D01*
X149676998Y-72398320D01*
X149709358Y-72355844D01*
X149756581Y-72330915D01*
X149809908Y-72328157D01*
X149823950Y-72330500D01*
X149823951Y-72330500D01*
X150056048Y-72330500D01*
X150056049Y-72330500D01*
X150284981Y-72292298D01*
X150504503Y-72216936D01*
X150708626Y-72106470D01*
X150891784Y-71963913D01*
X151048979Y-71793153D01*
X151106191Y-71705582D01*
X151150982Y-71664349D01*
X151210000Y-71649404D01*
X151269018Y-71664349D01*
X151313808Y-71705582D01*
X151371021Y-71793153D01*
X151528216Y-71963913D01*
X151711374Y-72106470D01*
X151915497Y-72216936D01*
X152002430Y-72246780D01*
X152135015Y-72292297D01*
X152135017Y-72292297D01*
X152135019Y-72292298D01*
X152363951Y-72330500D01*
X152596048Y-72330500D01*
X152596049Y-72330500D01*
X152824981Y-72292298D01*
X153044503Y-72216936D01*
X153248626Y-72106470D01*
X153431784Y-71963913D01*
X153588979Y-71793153D01*
X153646191Y-71705582D01*
X153690982Y-71664349D01*
X153750000Y-71649404D01*
X153809018Y-71664349D01*
X153853808Y-71705582D01*
X153911021Y-71793153D01*
X154068216Y-71963913D01*
X154251374Y-72106470D01*
X154455497Y-72216936D01*
X154542430Y-72246780D01*
X154675015Y-72292297D01*
X154675017Y-72292297D01*
X154675019Y-72292298D01*
X154903951Y-72330500D01*
X155136048Y-72330500D01*
X155136049Y-72330500D01*
X155364981Y-72292298D01*
X155584503Y-72216936D01*
X155788626Y-72106470D01*
X155971784Y-71963913D01*
X156128979Y-71793153D01*
X156186191Y-71705582D01*
X156230982Y-71664349D01*
X156290000Y-71649404D01*
X156349018Y-71664349D01*
G37*
G04 #@! TD.AperFunction*
G04 #@! TA.AperFunction,Conductor*
G36*
X187058000Y-52456613D02*
G01*
X187103387Y-52502000D01*
X187120000Y-52564000D01*
X187120000Y-112416000D01*
X187103387Y-112478000D01*
X187058000Y-112523387D01*
X186996000Y-112540000D01*
X119694000Y-112540000D01*
X119632000Y-112523387D01*
X119586613Y-112478000D01*
X119570000Y-112416000D01*
X119570000Y-106125008D01*
X123759500Y-106125008D01*
X123770000Y-106227796D01*
X123825186Y-106394334D01*
X123917288Y-106543657D01*
X124041342Y-106667711D01*
X124065152Y-106682397D01*
X124190666Y-106759814D01*
X124302016Y-106796712D01*
X124357202Y-106814999D01*
X124367702Y-106816071D01*
X124459991Y-106825500D01*
X125260008Y-106825499D01*
X125362797Y-106814999D01*
X125529334Y-106759814D01*
X125678656Y-106667712D01*
X125802712Y-106543656D01*
X125841815Y-106480258D01*
X125883867Y-106438841D01*
X125940306Y-106421556D01*
X125998341Y-106432324D01*
X126044821Y-106468701D01*
X126059908Y-106487886D01*
X126143694Y-106560487D01*
X126218745Y-106625520D01*
X126329915Y-106689704D01*
X126400756Y-106730604D01*
X126454639Y-106749253D01*
X126599366Y-106799344D01*
X126634298Y-106804366D01*
X126807398Y-106829254D01*
X127017330Y-106819254D01*
X127221576Y-106769704D01*
X127331849Y-106719344D01*
X127412752Y-106682397D01*
X127457400Y-106650603D01*
X127583952Y-106560486D01*
X127728986Y-106408378D01*
X127825088Y-106258841D01*
X127842612Y-106231574D01*
X127843569Y-106229183D01*
X127917302Y-106045008D01*
X133669500Y-106045008D01*
X133680000Y-106147796D01*
X133735186Y-106314334D01*
X133827288Y-106463657D01*
X133951342Y-106587711D01*
X133975152Y-106602397D01*
X134100666Y-106679814D01*
X134212017Y-106716712D01*
X134267202Y-106734999D01*
X134277703Y-106736071D01*
X134369991Y-106745500D01*
X135170008Y-106745499D01*
X135272797Y-106734999D01*
X135439334Y-106679814D01*
X135588656Y-106587712D01*
X135712712Y-106463656D01*
X135751815Y-106400258D01*
X135793867Y-106358841D01*
X135850306Y-106341556D01*
X135908341Y-106352324D01*
X135954821Y-106388701D01*
X135969908Y-106407886D01*
X136078978Y-106502396D01*
X136128745Y-106545520D01*
X136310754Y-106650603D01*
X136310756Y-106650604D01*
X136364639Y-106669253D01*
X136509366Y-106719344D01*
X136544298Y-106724366D01*
X136717398Y-106749254D01*
X136927330Y-106739254D01*
X137131576Y-106689704D01*
X137251363Y-106634999D01*
X137322752Y-106602397D01*
X137381607Y-106560486D01*
X137493952Y-106480486D01*
X137638986Y-106328378D01*
X137665542Y-106287055D01*
X137707855Y-106246710D01*
X137763955Y-106230237D01*
X137821367Y-106241302D01*
X137867326Y-106277444D01*
X137969908Y-106407886D01*
X138128745Y-106545520D01*
X138310754Y-106650603D01*
X138310756Y-106650604D01*
X138364639Y-106669253D01*
X138509366Y-106719344D01*
X138544298Y-106724366D01*
X138717398Y-106749254D01*
X138927330Y-106739254D01*
X139131576Y-106689704D01*
X139251363Y-106634999D01*
X139322752Y-106602397D01*
X139381607Y-106560486D01*
X139493952Y-106480486D01*
X139638986Y-106328378D01*
X139665542Y-106287055D01*
X139707855Y-106246710D01*
X139763955Y-106230237D01*
X139821367Y-106241302D01*
X139867326Y-106277444D01*
X139969908Y-106407886D01*
X140128745Y-106545520D01*
X140310754Y-106650603D01*
X140310756Y-106650604D01*
X140364639Y-106669253D01*
X140509366Y-106719344D01*
X140544298Y-106724366D01*
X140717398Y-106749254D01*
X140927330Y-106739254D01*
X141131576Y-106689704D01*
X141251363Y-106634999D01*
X141322752Y-106602397D01*
X141381607Y-106560486D01*
X141493952Y-106480486D01*
X141638986Y-106328378D01*
X141752613Y-106151572D01*
X141830725Y-105956457D01*
X141832932Y-105945008D01*
X146539500Y-105945008D01*
X146550000Y-106047796D01*
X146605186Y-106214334D01*
X146697288Y-106363657D01*
X146821342Y-106487711D01*
X146845152Y-106502397D01*
X146970666Y-106579814D01*
X147060862Y-106609702D01*
X147137202Y-106634999D01*
X147147702Y-106636071D01*
X147239991Y-106645500D01*
X148040008Y-106645499D01*
X148142797Y-106634999D01*
X148309334Y-106579814D01*
X148458656Y-106487712D01*
X148582712Y-106363656D01*
X148621815Y-106300258D01*
X148663867Y-106258841D01*
X148720306Y-106241556D01*
X148778341Y-106252324D01*
X148824821Y-106288701D01*
X148839908Y-106307886D01*
X148955879Y-106408376D01*
X148998745Y-106445520D01*
X149171950Y-106545520D01*
X149180756Y-106550604D01*
X149238542Y-106570604D01*
X149379366Y-106619344D01*
X149414298Y-106624366D01*
X149587398Y-106649254D01*
X149797330Y-106639254D01*
X150001576Y-106589704D01*
X150098325Y-106545520D01*
X150192752Y-106502397D01*
X150244538Y-106465520D01*
X150363952Y-106380486D01*
X150508986Y-106228378D01*
X150535542Y-106187055D01*
X150577855Y-106146710D01*
X150633955Y-106130237D01*
X150691367Y-106141302D01*
X150737326Y-106177444D01*
X150839908Y-106307886D01*
X150998745Y-106445520D01*
X151171950Y-106545520D01*
X151180756Y-106550604D01*
X151238542Y-106570604D01*
X151379366Y-106619344D01*
X151414298Y-106624366D01*
X151587398Y-106649254D01*
X151797330Y-106639254D01*
X152001576Y-106589704D01*
X152098325Y-106545520D01*
X152192752Y-106502397D01*
X152244538Y-106465520D01*
X152363952Y-106380486D01*
X152508986Y-106228378D01*
X152535542Y-106187055D01*
X152577855Y-106146710D01*
X152633955Y-106130237D01*
X152691367Y-106141302D01*
X152737326Y-106177444D01*
X152839908Y-106307886D01*
X152998745Y-106445520D01*
X153171950Y-106545520D01*
X153180756Y-106550604D01*
X153238542Y-106570604D01*
X153379366Y-106619344D01*
X153414298Y-106624366D01*
X153587398Y-106649254D01*
X153797330Y-106639254D01*
X154001576Y-106589704D01*
X154098325Y-106545520D01*
X154192752Y-106502397D01*
X154244538Y-106465520D01*
X154363952Y-106380486D01*
X154508986Y-106228378D01*
X154601970Y-106083692D01*
X154622612Y-106051574D01*
X154624124Y-106047797D01*
X154657268Y-105965008D01*
X159079500Y-105965008D01*
X159090000Y-106067796D01*
X159145186Y-106234334D01*
X159237288Y-106383657D01*
X159361342Y-106507711D01*
X159385152Y-106522397D01*
X159510666Y-106599814D01*
X159616847Y-106634999D01*
X159677202Y-106654999D01*
X159687703Y-106656071D01*
X159779991Y-106665500D01*
X160580008Y-106665499D01*
X160682797Y-106654999D01*
X160849334Y-106599814D01*
X160998656Y-106507712D01*
X161122712Y-106383656D01*
X161161815Y-106320258D01*
X161203867Y-106278841D01*
X161260306Y-106261556D01*
X161318341Y-106272324D01*
X161364821Y-106308701D01*
X161379908Y-106327886D01*
X161500435Y-106432324D01*
X161538745Y-106465520D01*
X161677309Y-106545520D01*
X161720756Y-106570604D01*
X161775936Y-106589702D01*
X161919366Y-106639344D01*
X161954298Y-106644366D01*
X162127398Y-106669254D01*
X162337330Y-106659254D01*
X162541576Y-106609704D01*
X162649348Y-106560486D01*
X162732752Y-106522397D01*
X162767360Y-106497752D01*
X162903952Y-106400486D01*
X163048986Y-106248378D01*
X163075542Y-106207055D01*
X163117855Y-106166710D01*
X163173955Y-106150237D01*
X163231367Y-106161302D01*
X163277326Y-106197444D01*
X163379908Y-106327886D01*
X163538745Y-106465520D01*
X163677309Y-106545520D01*
X163720756Y-106570604D01*
X163775936Y-106589702D01*
X163919366Y-106639344D01*
X163954298Y-106644366D01*
X164127398Y-106669254D01*
X164337330Y-106659254D01*
X164541576Y-106609704D01*
X164649348Y-106560486D01*
X164732752Y-106522397D01*
X164767360Y-106497752D01*
X164903952Y-106400486D01*
X165048986Y-106248378D01*
X165075542Y-106207055D01*
X165117855Y-106166710D01*
X165173955Y-106150237D01*
X165231367Y-106161302D01*
X165277326Y-106197444D01*
X165379908Y-106327886D01*
X165538745Y-106465520D01*
X165677309Y-106545520D01*
X165720756Y-106570604D01*
X165775936Y-106589702D01*
X165919366Y-106639344D01*
X165954298Y-106644366D01*
X166127398Y-106669254D01*
X166337330Y-106659254D01*
X166541576Y-106609704D01*
X166649348Y-106560486D01*
X166732752Y-106522397D01*
X166767360Y-106497752D01*
X166903952Y-106400486D01*
X167048986Y-106248378D01*
X167073650Y-106210000D01*
X179634422Y-106210000D01*
X179654700Y-106480595D01*
X179687779Y-106625520D01*
X179715084Y-106745151D01*
X179814222Y-106997749D01*
X179949900Y-107232751D01*
X180115792Y-107440773D01*
X180119088Y-107444906D01*
X180318003Y-107629473D01*
X180318006Y-107629475D01*
X180542212Y-107782336D01*
X180786695Y-107900073D01*
X181045996Y-107980057D01*
X181314322Y-108020500D01*
X181585678Y-108020500D01*
X181854004Y-107980057D01*
X182113305Y-107900073D01*
X182357789Y-107782336D01*
X182581994Y-107629475D01*
X182780912Y-107444906D01*
X182950100Y-107232751D01*
X183085778Y-106997749D01*
X183184916Y-106745151D01*
X183245299Y-106480598D01*
X183265577Y-106210000D01*
X183245299Y-105939402D01*
X183184916Y-105674849D01*
X183085778Y-105422251D01*
X182950100Y-105187249D01*
X182780912Y-104975094D01*
X182684657Y-104885782D01*
X182581996Y-104790526D01*
X182408448Y-104672203D01*
X182357789Y-104637664D01*
X182357786Y-104637663D01*
X182357784Y-104637661D01*
X182113307Y-104519927D01*
X181854003Y-104439942D01*
X181585678Y-104399500D01*
X181314322Y-104399500D01*
X181045996Y-104439942D01*
X180802136Y-104515164D01*
X180786695Y-104519927D01*
X180542212Y-104637664D01*
X180534493Y-104642927D01*
X180318003Y-104790526D01*
X180119088Y-104975093D01*
X179949899Y-105187250D01*
X179814222Y-105422250D01*
X179715084Y-105674848D01*
X179654700Y-105939404D01*
X179634422Y-106210000D01*
X167073650Y-106210000D01*
X167162613Y-106071572D01*
X167240725Y-105876457D01*
X167270556Y-105721678D01*
X167280500Y-105670086D01*
X167280500Y-104962580D01*
X167280500Y-104962575D01*
X167265528Y-104805782D01*
X167206316Y-104604125D01*
X167110011Y-104417318D01*
X167106843Y-104413290D01*
X166980093Y-104252115D01*
X166967967Y-104241608D01*
X166873224Y-104159512D01*
X166821254Y-104114479D01*
X166639245Y-104009396D01*
X166440633Y-103940655D01*
X166232603Y-103910746D01*
X166232602Y-103910746D01*
X166153794Y-103914500D01*
X166022669Y-103920746D01*
X165818419Y-103970297D01*
X165627247Y-104057602D01*
X165456050Y-104179512D01*
X165311011Y-104331625D01*
X165284457Y-104372943D01*
X165242142Y-104413290D01*
X165186042Y-104429762D01*
X165128632Y-104418696D01*
X165082673Y-104382554D01*
X164999145Y-104276342D01*
X164980092Y-104252114D01*
X164821256Y-104114481D01*
X164821254Y-104114479D01*
X164639245Y-104009396D01*
X164440633Y-103940655D01*
X164232603Y-103910746D01*
X164232602Y-103910746D01*
X164153794Y-103914500D01*
X164022669Y-103920746D01*
X163818419Y-103970297D01*
X163627247Y-104057602D01*
X163456050Y-104179512D01*
X163311011Y-104331625D01*
X163284457Y-104372943D01*
X163242142Y-104413290D01*
X163186042Y-104429762D01*
X163128632Y-104418696D01*
X163082673Y-104382554D01*
X162999145Y-104276342D01*
X162980092Y-104252114D01*
X162821256Y-104114481D01*
X162821254Y-104114479D01*
X162639245Y-104009396D01*
X162440633Y-103940655D01*
X162232603Y-103910746D01*
X162232602Y-103910746D01*
X162153794Y-103914500D01*
X162022669Y-103920746D01*
X161818419Y-103970297D01*
X161627247Y-104057602D01*
X161456049Y-104179512D01*
X161358249Y-104282082D01*
X161311301Y-104312893D01*
X161255576Y-104319836D01*
X161202503Y-104301487D01*
X161162967Y-104261608D01*
X161122711Y-104196342D01*
X160998657Y-104072288D01*
X160849334Y-103980186D01*
X160682797Y-103925000D01*
X160580009Y-103914500D01*
X159779991Y-103914500D01*
X159677203Y-103925000D01*
X159510665Y-103980186D01*
X159361342Y-104072288D01*
X159237288Y-104196342D01*
X159145186Y-104345665D01*
X159090000Y-104512202D01*
X159079500Y-104614990D01*
X159079500Y-105965008D01*
X154657268Y-105965008D01*
X154700725Y-105856457D01*
X154740500Y-105650085D01*
X154740500Y-104942575D01*
X154725528Y-104785782D01*
X154666316Y-104584125D01*
X154570011Y-104397318D01*
X154566843Y-104393290D01*
X154440093Y-104232115D01*
X154281254Y-104094479D01*
X154099245Y-103989396D01*
X153900633Y-103920655D01*
X153692603Y-103890746D01*
X153692602Y-103890746D01*
X153613794Y-103894500D01*
X153482669Y-103900746D01*
X153278419Y-103950297D01*
X153087247Y-104037602D01*
X152916050Y-104159512D01*
X152771011Y-104311625D01*
X152744457Y-104352943D01*
X152702142Y-104393290D01*
X152646042Y-104409762D01*
X152588632Y-104398696D01*
X152542673Y-104362554D01*
X152463659Y-104262082D01*
X152440092Y-104232114D01*
X152304335Y-104114479D01*
X152281254Y-104094479D01*
X152099245Y-103989396D01*
X151900633Y-103920655D01*
X151692603Y-103890746D01*
X151692602Y-103890746D01*
X151613794Y-103894500D01*
X151482669Y-103900746D01*
X151278419Y-103950297D01*
X151087247Y-104037602D01*
X150916050Y-104159512D01*
X150771011Y-104311625D01*
X150744457Y-104352943D01*
X150702142Y-104393290D01*
X150646042Y-104409762D01*
X150588632Y-104398696D01*
X150542673Y-104362554D01*
X150463659Y-104262082D01*
X150440092Y-104232114D01*
X150304335Y-104114479D01*
X150281254Y-104094479D01*
X150099245Y-103989396D01*
X149900633Y-103920655D01*
X149692603Y-103890746D01*
X149692602Y-103890746D01*
X149613794Y-103894500D01*
X149482669Y-103900746D01*
X149278419Y-103950297D01*
X149087247Y-104037602D01*
X148916049Y-104159512D01*
X148818249Y-104262082D01*
X148771301Y-104292893D01*
X148715576Y-104299836D01*
X148662503Y-104281487D01*
X148622967Y-104241608D01*
X148582711Y-104176342D01*
X148458657Y-104052288D01*
X148309334Y-103960186D01*
X148142797Y-103905000D01*
X148040009Y-103894500D01*
X147239991Y-103894500D01*
X147137203Y-103905000D01*
X146970665Y-103960186D01*
X146821342Y-104052288D01*
X146697288Y-104176342D01*
X146605186Y-104325665D01*
X146550000Y-104492202D01*
X146539500Y-104594990D01*
X146539500Y-105945008D01*
X141832932Y-105945008D01*
X141870500Y-105750085D01*
X141870500Y-105042575D01*
X141855528Y-104885782D01*
X141796316Y-104684125D01*
X141700011Y-104497318D01*
X141696843Y-104493290D01*
X141570093Y-104332115D01*
X141562649Y-104325665D01*
X141465643Y-104241608D01*
X141411254Y-104194479D01*
X141229245Y-104089396D01*
X141030633Y-104020655D01*
X140822603Y-103990746D01*
X140822602Y-103990746D01*
X140743794Y-103994500D01*
X140612669Y-104000746D01*
X140408419Y-104050297D01*
X140217247Y-104137602D01*
X140046050Y-104259512D01*
X140046048Y-104259513D01*
X140046048Y-104259514D01*
X139995151Y-104312893D01*
X139901011Y-104411625D01*
X139874457Y-104452943D01*
X139832142Y-104493290D01*
X139776042Y-104509762D01*
X139718632Y-104498696D01*
X139672673Y-104462554D01*
X139608645Y-104381138D01*
X139570092Y-104332114D01*
X139411256Y-104194481D01*
X139411254Y-104194479D01*
X139229245Y-104089396D01*
X139030633Y-104020655D01*
X138822603Y-103990746D01*
X138822602Y-103990746D01*
X138743794Y-103994500D01*
X138612669Y-104000746D01*
X138408419Y-104050297D01*
X138217247Y-104137602D01*
X138046050Y-104259512D01*
X138046048Y-104259513D01*
X138046048Y-104259514D01*
X137995151Y-104312893D01*
X137901011Y-104411625D01*
X137874457Y-104452943D01*
X137832142Y-104493290D01*
X137776042Y-104509762D01*
X137718632Y-104498696D01*
X137672673Y-104462554D01*
X137608645Y-104381138D01*
X137570092Y-104332114D01*
X137411256Y-104194481D01*
X137411254Y-104194479D01*
X137229245Y-104089396D01*
X137030633Y-104020655D01*
X136822603Y-103990746D01*
X136822602Y-103990746D01*
X136743794Y-103994500D01*
X136612669Y-104000746D01*
X136408419Y-104050297D01*
X136217247Y-104137602D01*
X136046049Y-104259512D01*
X135948249Y-104362082D01*
X135901301Y-104392893D01*
X135845576Y-104399836D01*
X135792503Y-104381487D01*
X135752967Y-104341608D01*
X135712711Y-104276342D01*
X135588657Y-104152288D01*
X135439334Y-104060186D01*
X135272797Y-104005000D01*
X135170009Y-103994500D01*
X134369991Y-103994500D01*
X134267203Y-104005000D01*
X134100665Y-104060186D01*
X133951342Y-104152288D01*
X133827288Y-104276342D01*
X133735186Y-104425665D01*
X133680000Y-104592202D01*
X133669500Y-104694990D01*
X133669500Y-106045008D01*
X127917302Y-106045008D01*
X127920725Y-106036457D01*
X127960500Y-105830085D01*
X127960500Y-105122575D01*
X127945528Y-104965782D01*
X127886316Y-104764125D01*
X127790011Y-104577318D01*
X127728181Y-104498696D01*
X127660093Y-104412115D01*
X127645922Y-104399836D01*
X127544119Y-104311622D01*
X127501254Y-104274479D01*
X127319245Y-104169396D01*
X127120633Y-104100655D01*
X126912603Y-104070746D01*
X126912602Y-104070746D01*
X126833794Y-104074500D01*
X126702669Y-104080746D01*
X126498419Y-104130297D01*
X126307247Y-104217602D01*
X126136049Y-104339512D01*
X126038249Y-104442082D01*
X125991301Y-104472893D01*
X125935576Y-104479836D01*
X125882503Y-104461487D01*
X125842967Y-104421608D01*
X125802711Y-104356342D01*
X125678657Y-104232288D01*
X125529334Y-104140186D01*
X125362797Y-104085000D01*
X125260009Y-104074500D01*
X124459991Y-104074500D01*
X124357203Y-104085000D01*
X124190665Y-104140186D01*
X124041342Y-104232288D01*
X123917288Y-104356342D01*
X123825186Y-104505665D01*
X123770000Y-104672202D01*
X123759500Y-104774990D01*
X123759500Y-106125008D01*
X119570000Y-106125008D01*
X119570000Y-90309999D01*
X127004540Y-90309999D01*
X127024326Y-90498257D01*
X127082820Y-90678284D01*
X127177464Y-90842213D01*
X127177467Y-90842216D01*
X127252652Y-90925717D01*
X127276264Y-90964249D01*
X127284500Y-91008687D01*
X127284500Y-95747256D01*
X127282235Y-95767762D01*
X127284439Y-95837873D01*
X127284500Y-95841768D01*
X127284500Y-95869349D01*
X127285003Y-95873334D01*
X127285918Y-95884967D01*
X127287290Y-95928626D01*
X127292879Y-95947860D01*
X127296825Y-95966916D01*
X127299335Y-95986792D01*
X127315414Y-96027404D01*
X127319197Y-96038451D01*
X127331382Y-96080391D01*
X127341580Y-96097635D01*
X127350136Y-96115100D01*
X127357514Y-96133732D01*
X127357515Y-96133733D01*
X127383180Y-96169059D01*
X127389593Y-96178822D01*
X127411826Y-96216416D01*
X127411829Y-96216419D01*
X127411830Y-96216420D01*
X127425995Y-96230585D01*
X127438627Y-96245375D01*
X127450406Y-96261587D01*
X127484058Y-96289426D01*
X127492699Y-96297289D01*
X129519197Y-98323787D01*
X129532098Y-98339889D01*
X129534212Y-98341874D01*
X129534214Y-98341877D01*
X129581561Y-98386339D01*
X129583240Y-98387916D01*
X129586036Y-98390626D01*
X129605530Y-98410120D01*
X129608704Y-98412582D01*
X129617568Y-98420153D01*
X129649418Y-98450062D01*
X129659914Y-98455832D01*
X129666974Y-98459714D01*
X129683231Y-98470392D01*
X129699064Y-98482674D01*
X129715185Y-98489649D01*
X129739156Y-98500023D01*
X129749643Y-98505160D01*
X129787908Y-98526197D01*
X129807316Y-98531180D01*
X129825710Y-98537478D01*
X129844105Y-98545438D01*
X129887254Y-98552271D01*
X129898680Y-98554638D01*
X129914222Y-98558629D01*
X129940980Y-98565500D01*
X129940981Y-98565500D01*
X129961016Y-98565500D01*
X129980413Y-98567026D01*
X130000196Y-98570160D01*
X130043674Y-98566050D01*
X130055344Y-98565500D01*
X131096253Y-98565500D01*
X131146688Y-98576220D01*
X131188401Y-98606526D01*
X131194129Y-98612888D01*
X131347270Y-98724151D01*
X131347271Y-98724151D01*
X131347272Y-98724152D01*
X131520197Y-98801144D01*
X131705352Y-98840500D01*
X131705354Y-98840500D01*
X131894646Y-98840500D01*
X131894648Y-98840500D01*
X132018084Y-98814262D01*
X132079803Y-98801144D01*
X132252730Y-98724151D01*
X132405871Y-98612888D01*
X132532533Y-98472216D01*
X132627179Y-98308284D01*
X132685674Y-98128256D01*
X132705460Y-97940000D01*
X132685674Y-97751744D01*
X132634469Y-97594151D01*
X132627179Y-97571715D01*
X132532533Y-97407783D01*
X132405870Y-97267110D01*
X132252730Y-97155848D01*
X132079802Y-97078855D01*
X131894648Y-97039500D01*
X131894646Y-97039500D01*
X131705354Y-97039500D01*
X131705352Y-97039500D01*
X131520197Y-97078855D01*
X131347272Y-97155847D01*
X131245176Y-97230024D01*
X131194129Y-97267112D01*
X131188401Y-97273473D01*
X131146688Y-97303780D01*
X131096253Y-97314500D01*
X130330452Y-97314500D01*
X130282999Y-97305061D01*
X130242771Y-97278181D01*
X129774590Y-96810000D01*
X150964540Y-96810000D01*
X150970254Y-96864369D01*
X150984326Y-96998257D01*
X151042820Y-97178284D01*
X151137466Y-97342216D01*
X151264129Y-97482889D01*
X151417269Y-97594151D01*
X151590197Y-97671144D01*
X151775352Y-97710500D01*
X151775354Y-97710500D01*
X151834548Y-97710500D01*
X151882001Y-97719939D01*
X151922229Y-97746819D01*
X154209197Y-100033787D01*
X154222098Y-100049889D01*
X154224212Y-100051874D01*
X154224214Y-100051877D01*
X154271561Y-100096339D01*
X154273240Y-100097916D01*
X154276035Y-100100625D01*
X154295530Y-100120120D01*
X154298704Y-100122582D01*
X154307568Y-100130153D01*
X154339418Y-100160062D01*
X154349914Y-100165832D01*
X154356974Y-100169714D01*
X154373231Y-100180392D01*
X154389064Y-100192674D01*
X154405185Y-100199649D01*
X154429156Y-100210023D01*
X154439643Y-100215160D01*
X154477908Y-100236197D01*
X154497316Y-100241180D01*
X154515710Y-100247478D01*
X154534105Y-100255438D01*
X154577254Y-100262271D01*
X154588680Y-100264638D01*
X154604222Y-100268629D01*
X154630980Y-100275500D01*
X154630981Y-100275500D01*
X154651016Y-100275500D01*
X154670413Y-100277026D01*
X154690196Y-100280160D01*
X154733674Y-100276050D01*
X154745344Y-100275500D01*
X161860981Y-100275500D01*
X161979350Y-100275500D01*
X162657256Y-100275500D01*
X162677762Y-100277764D01*
X162680665Y-100277672D01*
X162680667Y-100277673D01*
X162747872Y-100275561D01*
X162751768Y-100275500D01*
X162779349Y-100275500D01*
X162779350Y-100275500D01*
X162783319Y-100274998D01*
X162794965Y-100274080D01*
X162838627Y-100272709D01*
X162857859Y-100267120D01*
X162876918Y-100263174D01*
X162884091Y-100262268D01*
X162896792Y-100260664D01*
X162937407Y-100244582D01*
X162948444Y-100240803D01*
X162990390Y-100228618D01*
X163007629Y-100218422D01*
X163025102Y-100209862D01*
X163043732Y-100202486D01*
X163079064Y-100176814D01*
X163088830Y-100170400D01*
X163126418Y-100148171D01*
X163126417Y-100148171D01*
X163126420Y-100148170D01*
X163140585Y-100134004D01*
X163155373Y-100121373D01*
X163171587Y-100109594D01*
X163199438Y-100075926D01*
X163207279Y-100067309D01*
X163847770Y-99426819D01*
X163887999Y-99399939D01*
X163935452Y-99390500D01*
X163994648Y-99390500D01*
X164118084Y-99364262D01*
X164179803Y-99351144D01*
X164352730Y-99274151D01*
X164505871Y-99162888D01*
X164632533Y-99022216D01*
X164727179Y-98858284D01*
X164785674Y-98678256D01*
X164805460Y-98490000D01*
X164785674Y-98301744D01*
X164754336Y-98205296D01*
X164727179Y-98121715D01*
X164632533Y-97957783D01*
X164505870Y-97817110D01*
X164475449Y-97795008D01*
X170629500Y-97795008D01*
X170640000Y-97897797D01*
X170695186Y-98064336D01*
X170787288Y-98213655D01*
X170911344Y-98337711D01*
X171060663Y-98429813D01*
X171227202Y-98484999D01*
X171329992Y-98495500D01*
X173630008Y-98495500D01*
X173732797Y-98484999D01*
X173794921Y-98464413D01*
X173899334Y-98429814D01*
X173907791Y-98424598D01*
X174048655Y-98337711D01*
X174172711Y-98213655D01*
X174231738Y-98117959D01*
X175320592Y-98117959D01*
X175320593Y-98117960D01*
X175437259Y-98205296D01*
X175669512Y-98332114D01*
X175917467Y-98424598D01*
X176176043Y-98480847D01*
X176440000Y-98499726D01*
X176703956Y-98480847D01*
X176962532Y-98424598D01*
X177210487Y-98332114D01*
X177442736Y-98205298D01*
X177559406Y-98117959D01*
X176440001Y-96998553D01*
X176440000Y-96998553D01*
X175320592Y-98117959D01*
X174231738Y-98117959D01*
X174264813Y-98064336D01*
X174300122Y-97957783D01*
X174319999Y-97897797D01*
X174330500Y-97795008D01*
X174330500Y-96645000D01*
X174585273Y-96645000D01*
X174604152Y-96908956D01*
X174660401Y-97167532D01*
X174752885Y-97415487D01*
X174879703Y-97647740D01*
X174967038Y-97764405D01*
X174967039Y-97764406D01*
X176086446Y-96645001D01*
X176793553Y-96645001D01*
X177912959Y-97764406D01*
X178000298Y-97647736D01*
X178127114Y-97415487D01*
X178219598Y-97167532D01*
X178275847Y-96908956D01*
X178294726Y-96645000D01*
X178275847Y-96381043D01*
X178219598Y-96122467D01*
X178127114Y-95874512D01*
X178000296Y-95642259D01*
X177912960Y-95525593D01*
X177912959Y-95525592D01*
X176793553Y-96645000D01*
X176793553Y-96645001D01*
X176086446Y-96645001D01*
X176086446Y-96645000D01*
X174967039Y-95525593D01*
X174879703Y-95642262D01*
X174752883Y-95874516D01*
X174660401Y-96122467D01*
X174604152Y-96381043D01*
X174585273Y-96645000D01*
X174330500Y-96645000D01*
X174330500Y-95494992D01*
X174319999Y-95392203D01*
X174297957Y-95325686D01*
X174264813Y-95225663D01*
X174231737Y-95172039D01*
X175320593Y-95172039D01*
X176440000Y-96291446D01*
X176440001Y-96291446D01*
X177559406Y-95172039D01*
X177559405Y-95172038D01*
X177442740Y-95084703D01*
X177210487Y-94957885D01*
X176962532Y-94865401D01*
X176703956Y-94809152D01*
X176440000Y-94790273D01*
X176176043Y-94809152D01*
X175917467Y-94865401D01*
X175669516Y-94957883D01*
X175437262Y-95084703D01*
X175320593Y-95172039D01*
X174231737Y-95172039D01*
X174172711Y-95076344D01*
X174048655Y-94952288D01*
X173899336Y-94860186D01*
X173732797Y-94805000D01*
X173630008Y-94794500D01*
X171329992Y-94794500D01*
X171227202Y-94805000D01*
X171060663Y-94860186D01*
X170911344Y-94952288D01*
X170787288Y-95076344D01*
X170695186Y-95225663D01*
X170640000Y-95392202D01*
X170629500Y-95494992D01*
X170629500Y-97795008D01*
X164475449Y-97795008D01*
X164352730Y-97705848D01*
X164179802Y-97628855D01*
X163994648Y-97589500D01*
X163994646Y-97589500D01*
X163805354Y-97589500D01*
X163805352Y-97589500D01*
X163620197Y-97628855D01*
X163447269Y-97705848D01*
X163294129Y-97817110D01*
X163167466Y-97957783D01*
X163072820Y-98121715D01*
X163014326Y-98301742D01*
X162996679Y-98469650D01*
X162985279Y-98510071D01*
X162961039Y-98544369D01*
X162517228Y-98988181D01*
X162477000Y-99015061D01*
X162429547Y-99024500D01*
X162019019Y-99024500D01*
X155020453Y-99024500D01*
X154973000Y-99015061D01*
X154932772Y-98988181D01*
X152808960Y-96864369D01*
X152784720Y-96830071D01*
X152773321Y-96789655D01*
X152755674Y-96621744D01*
X152697179Y-96441716D01*
X152697179Y-96441715D01*
X152602533Y-96277783D01*
X152475870Y-96137110D01*
X152322730Y-96025848D01*
X152149802Y-95948855D01*
X151964648Y-95909500D01*
X151964646Y-95909500D01*
X151775354Y-95909500D01*
X151775352Y-95909500D01*
X151590197Y-95948855D01*
X151417269Y-96025848D01*
X151264129Y-96137110D01*
X151137466Y-96277783D01*
X151042820Y-96441715D01*
X150984326Y-96621742D01*
X150966679Y-96789649D01*
X150964540Y-96810000D01*
X129774590Y-96810000D01*
X128571819Y-95607228D01*
X128544939Y-95567000D01*
X128535500Y-95519547D01*
X128535500Y-91008687D01*
X128543736Y-90964249D01*
X128567347Y-90925717D01*
X128642533Y-90842216D01*
X128737179Y-90678284D01*
X128795674Y-90498256D01*
X128815460Y-90310000D01*
X128795674Y-90121744D01*
X128742656Y-89958573D01*
X128737179Y-89941715D01*
X128642533Y-89777783D01*
X128515870Y-89637110D01*
X128362730Y-89525848D01*
X128189802Y-89448855D01*
X128004648Y-89409500D01*
X128004646Y-89409500D01*
X127815354Y-89409500D01*
X127815352Y-89409500D01*
X127630197Y-89448855D01*
X127457269Y-89525848D01*
X127304129Y-89637110D01*
X127177466Y-89777783D01*
X127082820Y-89941715D01*
X127024326Y-90121742D01*
X127004540Y-90309999D01*
X119570000Y-90309999D01*
X119570000Y-75700000D01*
X125724540Y-75700000D01*
X125744326Y-75888257D01*
X125802820Y-76068284D01*
X125897466Y-76232216D01*
X126024129Y-76372889D01*
X126177269Y-76484151D01*
X126350197Y-76561144D01*
X126535352Y-76600500D01*
X126535354Y-76600500D01*
X126724646Y-76600500D01*
X126724648Y-76600500D01*
X126848083Y-76574262D01*
X126909803Y-76561144D01*
X127082730Y-76484151D01*
X127105694Y-76467467D01*
X127235870Y-76372889D01*
X127307904Y-76292888D01*
X127362533Y-76232216D01*
X127457179Y-76068284D01*
X127515674Y-75888256D01*
X127535460Y-75700000D01*
X127515674Y-75511744D01*
X127463686Y-75351742D01*
X127457179Y-75331715D01*
X127362535Y-75167786D01*
X127349427Y-75153229D01*
X127287347Y-75084282D01*
X127263736Y-75045751D01*
X127255500Y-75001313D01*
X127255500Y-71780452D01*
X127264939Y-71732999D01*
X127291819Y-71692771D01*
X127463427Y-71521163D01*
X128007822Y-70976767D01*
X128057182Y-70946519D01*
X128114898Y-70941977D01*
X128168385Y-70964132D01*
X128205985Y-71008155D01*
X128219500Y-71064450D01*
X128219500Y-71877869D01*
X128225909Y-71937484D01*
X128232383Y-71954842D01*
X128276204Y-72072331D01*
X128362454Y-72187546D01*
X128477669Y-72273796D01*
X128612517Y-72324091D01*
X128672127Y-72330500D01*
X130567872Y-72330499D01*
X130627483Y-72324091D01*
X130762331Y-72273796D01*
X130877546Y-72187546D01*
X130963796Y-72072331D01*
X130992455Y-71995490D01*
X131028405Y-71944279D01*
X131084787Y-71917140D01*
X131147242Y-71920988D01*
X131199864Y-71954841D01*
X131208216Y-71963913D01*
X131391374Y-72106470D01*
X131595497Y-72216936D01*
X131682430Y-72246780D01*
X131815015Y-72292297D01*
X131815017Y-72292297D01*
X131815019Y-72292298D01*
X132043951Y-72330500D01*
X132276048Y-72330500D01*
X132276049Y-72330500D01*
X132504981Y-72292298D01*
X132724503Y-72216936D01*
X132928626Y-72106470D01*
X133111784Y-71963913D01*
X133268979Y-71793153D01*
X133326191Y-71705582D01*
X133370982Y-71664349D01*
X133430000Y-71649404D01*
X133489018Y-71664349D01*
X133533808Y-71705582D01*
X133591021Y-71793153D01*
X133748216Y-71963913D01*
X133931374Y-72106470D01*
X134135497Y-72216936D01*
X134222430Y-72246780D01*
X134355015Y-72292297D01*
X134355017Y-72292297D01*
X134355019Y-72292298D01*
X134583951Y-72330500D01*
X134816048Y-72330500D01*
X134816049Y-72330500D01*
X135044981Y-72292298D01*
X135264503Y-72216936D01*
X135468626Y-72106470D01*
X135499614Y-72082351D01*
X136441199Y-72082351D01*
X136471650Y-72106051D01*
X136675700Y-72216477D01*
X136895140Y-72291811D01*
X137123993Y-72330000D01*
X137356007Y-72330000D01*
X137584859Y-72291811D01*
X137804296Y-72216478D01*
X138008353Y-72106048D01*
X138038798Y-72082351D01*
X137240000Y-71283553D01*
X136441199Y-72082351D01*
X135499614Y-72082351D01*
X135651784Y-71963913D01*
X135808979Y-71793153D01*
X135866491Y-71705124D01*
X135911280Y-71663892D01*
X135970298Y-71648947D01*
X136029316Y-71663892D01*
X136074107Y-71705126D01*
X136088812Y-71727633D01*
X136886447Y-70930001D01*
X136886447Y-70930000D01*
X136088812Y-70132365D01*
X136074107Y-70154873D01*
X136029316Y-70196107D01*
X135970298Y-70211052D01*
X135911281Y-70196107D01*
X135866489Y-70154873D01*
X135851783Y-70132364D01*
X135808979Y-70066847D01*
X135651784Y-69896087D01*
X135499612Y-69777647D01*
X136441200Y-69777647D01*
X137240000Y-70576447D01*
X137240001Y-70576447D01*
X138038799Y-69777648D01*
X138038799Y-69777647D01*
X138008349Y-69753948D01*
X137804299Y-69643522D01*
X137584859Y-69568188D01*
X137356007Y-69530000D01*
X137123993Y-69530000D01*
X136895140Y-69568188D01*
X136675703Y-69643521D01*
X136471645Y-69753952D01*
X136441200Y-69777646D01*
X136441200Y-69777647D01*
X135499612Y-69777647D01*
X135468626Y-69753530D01*
X135450284Y-69743604D01*
X135390482Y-69711240D01*
X135342977Y-69665659D01*
X135325500Y-69602186D01*
X135325500Y-57017814D01*
X135342977Y-56954341D01*
X135390482Y-56908760D01*
X135415144Y-56895412D01*
X135468626Y-56866470D01*
X135651784Y-56723913D01*
X135808979Y-56553153D01*
X135866191Y-56465582D01*
X135910982Y-56424349D01*
X135970000Y-56409404D01*
X136029018Y-56424349D01*
X136073808Y-56465582D01*
X136131021Y-56553153D01*
X136288216Y-56723913D01*
X136471374Y-56866470D01*
X136675497Y-56976936D01*
X136744932Y-57000773D01*
X136895015Y-57052297D01*
X136895017Y-57052297D01*
X136895019Y-57052298D01*
X137123951Y-57090500D01*
X137356048Y-57090500D01*
X137356049Y-57090500D01*
X137584981Y-57052298D01*
X137804503Y-56976936D01*
X138008626Y-56866470D01*
X138191784Y-56723913D01*
X138348979Y-56553153D01*
X138406191Y-56465582D01*
X138450982Y-56424349D01*
X138510000Y-56409404D01*
X138569018Y-56424349D01*
X138613808Y-56465582D01*
X138671021Y-56553153D01*
X138828216Y-56723913D01*
X139011374Y-56866470D01*
X139215497Y-56976936D01*
X139284932Y-57000773D01*
X139435015Y-57052297D01*
X139435017Y-57052297D01*
X139435019Y-57052298D01*
X139663951Y-57090500D01*
X139896048Y-57090500D01*
X139896049Y-57090500D01*
X140124981Y-57052298D01*
X140344503Y-56976936D01*
X140548626Y-56866470D01*
X140731784Y-56723913D01*
X140888979Y-56553153D01*
X140946191Y-56465582D01*
X140990982Y-56424349D01*
X141050000Y-56409404D01*
X141109018Y-56424349D01*
X141153808Y-56465582D01*
X141211021Y-56553153D01*
X141368216Y-56723913D01*
X141551374Y-56866470D01*
X141755497Y-56976936D01*
X141824932Y-57000773D01*
X141975015Y-57052297D01*
X141975017Y-57052297D01*
X141975019Y-57052298D01*
X142203951Y-57090500D01*
X142436048Y-57090500D01*
X142436049Y-57090500D01*
X142664981Y-57052298D01*
X142884503Y-56976936D01*
X143088626Y-56866470D01*
X143271784Y-56723913D01*
X143428979Y-56553153D01*
X143486191Y-56465582D01*
X143530982Y-56424349D01*
X143590000Y-56409404D01*
X143649018Y-56424349D01*
X143693808Y-56465582D01*
X143751021Y-56553153D01*
X143908216Y-56723913D01*
X144091374Y-56866470D01*
X144295497Y-56976936D01*
X144364932Y-57000773D01*
X144515015Y-57052297D01*
X144515017Y-57052297D01*
X144515019Y-57052298D01*
X144743951Y-57090500D01*
X144976048Y-57090500D01*
X144976049Y-57090500D01*
X145204981Y-57052298D01*
X145230576Y-57043510D01*
X145298788Y-57039983D01*
X145358521Y-57073111D01*
X145584197Y-57298787D01*
X145597098Y-57314889D01*
X145599212Y-57316874D01*
X145599214Y-57316877D01*
X145626325Y-57342336D01*
X145648240Y-57362916D01*
X145651036Y-57365626D01*
X145670530Y-57385120D01*
X145673704Y-57387582D01*
X145682568Y-57395153D01*
X145714418Y-57425062D01*
X145724914Y-57430832D01*
X145731974Y-57434714D01*
X145748231Y-57445392D01*
X145764064Y-57457674D01*
X145780185Y-57464649D01*
X145804156Y-57475023D01*
X145814643Y-57480160D01*
X145852908Y-57501197D01*
X145872316Y-57506180D01*
X145890710Y-57512478D01*
X145909105Y-57520438D01*
X145952254Y-57527271D01*
X145963680Y-57529638D01*
X145979222Y-57533629D01*
X146005980Y-57540500D01*
X146005981Y-57540500D01*
X146026016Y-57540500D01*
X146045413Y-57542026D01*
X146065196Y-57545160D01*
X146108674Y-57541050D01*
X146120344Y-57540500D01*
X152586960Y-57540500D01*
X152634413Y-57549939D01*
X152674641Y-57576819D01*
X164579267Y-69481446D01*
X164609277Y-69530078D01*
X164614291Y-69587004D01*
X164593243Y-69640133D01*
X164550604Y-69678181D01*
X164411377Y-69753528D01*
X164411375Y-69753529D01*
X164411374Y-69753530D01*
X164380387Y-69777648D01*
X164228215Y-69896087D01*
X164071018Y-70066849D01*
X164013808Y-70154417D01*
X163969017Y-70195650D01*
X163910000Y-70210595D01*
X163850983Y-70195650D01*
X163806192Y-70154417D01*
X163748981Y-70066849D01*
X163591784Y-69896087D01*
X163439613Y-69777648D01*
X163408626Y-69753530D01*
X163204503Y-69643064D01*
X163204499Y-69643062D01*
X163204498Y-69643062D01*
X162984984Y-69567702D01*
X162794456Y-69535909D01*
X162756049Y-69529500D01*
X162523951Y-69529500D01*
X162485544Y-69535909D01*
X162295015Y-69567702D01*
X162075501Y-69643062D01*
X161871372Y-69753531D01*
X161688215Y-69896087D01*
X161531018Y-70066849D01*
X161473808Y-70154417D01*
X161429017Y-70195650D01*
X161370000Y-70210595D01*
X161310983Y-70195650D01*
X161266192Y-70154417D01*
X161208981Y-70066849D01*
X161051784Y-69896087D01*
X160899613Y-69777648D01*
X160868626Y-69753530D01*
X160664503Y-69643064D01*
X160664499Y-69643062D01*
X160664498Y-69643062D01*
X160444984Y-69567702D01*
X160254456Y-69535909D01*
X160216049Y-69529500D01*
X159983951Y-69529500D01*
X159945544Y-69535909D01*
X159755015Y-69567702D01*
X159535501Y-69643062D01*
X159331372Y-69753531D01*
X159148215Y-69896087D01*
X158991018Y-70066849D01*
X158933808Y-70154417D01*
X158889017Y-70195650D01*
X158830000Y-70210595D01*
X158770983Y-70195650D01*
X158726192Y-70154417D01*
X158668981Y-70066849D01*
X158511784Y-69896087D01*
X158359613Y-69777648D01*
X158328626Y-69753530D01*
X158124503Y-69643064D01*
X158124499Y-69643062D01*
X158124498Y-69643062D01*
X157904984Y-69567702D01*
X157714456Y-69535909D01*
X157676049Y-69529500D01*
X157443951Y-69529500D01*
X157405544Y-69535909D01*
X157215015Y-69567702D01*
X156995501Y-69643062D01*
X156791372Y-69753531D01*
X156608215Y-69896087D01*
X156451018Y-70066849D01*
X156393808Y-70154417D01*
X156349017Y-70195650D01*
X156290000Y-70210595D01*
X156230983Y-70195650D01*
X156186192Y-70154417D01*
X156128981Y-70066849D01*
X155971784Y-69896087D01*
X155819613Y-69777648D01*
X155788626Y-69753530D01*
X155584503Y-69643064D01*
X155584499Y-69643062D01*
X155584498Y-69643062D01*
X155364984Y-69567702D01*
X155174456Y-69535909D01*
X155136049Y-69529500D01*
X154903951Y-69529500D01*
X154865544Y-69535909D01*
X154675015Y-69567702D01*
X154455501Y-69643062D01*
X154251372Y-69753531D01*
X154068215Y-69896087D01*
X153911018Y-70066849D01*
X153853808Y-70154417D01*
X153809017Y-70195650D01*
X153750000Y-70210595D01*
X153690983Y-70195650D01*
X153646192Y-70154417D01*
X153588981Y-70066849D01*
X153431784Y-69896087D01*
X153279613Y-69777648D01*
X153248626Y-69753530D01*
X153044503Y-69643064D01*
X153044499Y-69643062D01*
X153044498Y-69643062D01*
X152824984Y-69567702D01*
X152634456Y-69535909D01*
X152596049Y-69529500D01*
X152363951Y-69529500D01*
X152325544Y-69535909D01*
X152135015Y-69567702D01*
X151915501Y-69643062D01*
X151711372Y-69753531D01*
X151528215Y-69896087D01*
X151371018Y-70066849D01*
X151313808Y-70154417D01*
X151269017Y-70195650D01*
X151210000Y-70210595D01*
X151150983Y-70195650D01*
X151106192Y-70154417D01*
X151048981Y-70066849D01*
X150891784Y-69896087D01*
X150739613Y-69777648D01*
X150708626Y-69753530D01*
X150504503Y-69643064D01*
X150504499Y-69643062D01*
X150504498Y-69643062D01*
X150284984Y-69567702D01*
X150094456Y-69535909D01*
X150056049Y-69529500D01*
X149823951Y-69529500D01*
X149785544Y-69535909D01*
X149595015Y-69567702D01*
X149375501Y-69643062D01*
X149171372Y-69753531D01*
X148988215Y-69896087D01*
X148831018Y-70066849D01*
X148773808Y-70154417D01*
X148729017Y-70195650D01*
X148670000Y-70210595D01*
X148610983Y-70195650D01*
X148566192Y-70154417D01*
X148508981Y-70066849D01*
X148351784Y-69896087D01*
X148199613Y-69777648D01*
X148168626Y-69753530D01*
X147964503Y-69643064D01*
X147964499Y-69643062D01*
X147964498Y-69643062D01*
X147744984Y-69567702D01*
X147554456Y-69535909D01*
X147516049Y-69529500D01*
X147283951Y-69529500D01*
X147245544Y-69535909D01*
X147055015Y-69567702D01*
X146835501Y-69643062D01*
X146631372Y-69753531D01*
X146448215Y-69896087D01*
X146291018Y-70066849D01*
X146233808Y-70154417D01*
X146189017Y-70195650D01*
X146130000Y-70210595D01*
X146070983Y-70195650D01*
X146026192Y-70154417D01*
X145968981Y-70066849D01*
X145811784Y-69896087D01*
X145659613Y-69777648D01*
X145628626Y-69753530D01*
X145424503Y-69643064D01*
X145424499Y-69643062D01*
X145424498Y-69643062D01*
X145204984Y-69567702D01*
X145014456Y-69535909D01*
X144976049Y-69529500D01*
X144743951Y-69529500D01*
X144705544Y-69535909D01*
X144515015Y-69567702D01*
X144295501Y-69643062D01*
X144091372Y-69753531D01*
X143908215Y-69896087D01*
X143751018Y-70066849D01*
X143693808Y-70154417D01*
X143649017Y-70195650D01*
X143590000Y-70210595D01*
X143530983Y-70195650D01*
X143486192Y-70154417D01*
X143428981Y-70066849D01*
X143271784Y-69896087D01*
X143119613Y-69777648D01*
X143088626Y-69753530D01*
X142949392Y-69678180D01*
X142906755Y-69640134D01*
X142885707Y-69587005D01*
X142890721Y-69530078D01*
X142920731Y-69481446D01*
X149480359Y-62921819D01*
X149520587Y-62894939D01*
X149568040Y-62885500D01*
X149606253Y-62885500D01*
X149656688Y-62896220D01*
X149698401Y-62926526D01*
X149704129Y-62932888D01*
X149857270Y-63044151D01*
X149857271Y-63044151D01*
X149857272Y-63044152D01*
X150030197Y-63121144D01*
X150215352Y-63160500D01*
X150215354Y-63160500D01*
X150404646Y-63160500D01*
X150404648Y-63160500D01*
X150528083Y-63134262D01*
X150589803Y-63121144D01*
X150762730Y-63044151D01*
X150915871Y-62932888D01*
X151042533Y-62792216D01*
X151137179Y-62628284D01*
X151195674Y-62448256D01*
X151215460Y-62260000D01*
X151195674Y-62071744D01*
X151137179Y-61891716D01*
X151137179Y-61891715D01*
X151042533Y-61727783D01*
X150915870Y-61587110D01*
X150762730Y-61475848D01*
X150589802Y-61398855D01*
X150404648Y-61359500D01*
X150404646Y-61359500D01*
X150215354Y-61359500D01*
X150215352Y-61359500D01*
X150030197Y-61398855D01*
X149857272Y-61475847D01*
X149755176Y-61550024D01*
X149704129Y-61587112D01*
X149698401Y-61593473D01*
X149656688Y-61623780D01*
X149606253Y-61634500D01*
X149340332Y-61634500D01*
X149319824Y-61632235D01*
X149249701Y-61634439D01*
X149245807Y-61634500D01*
X149218238Y-61634500D01*
X149214259Y-61635002D01*
X149202629Y-61635917D01*
X149158960Y-61637289D01*
X149139716Y-61642880D01*
X149120672Y-61646824D01*
X149100796Y-61649335D01*
X149060188Y-61665413D01*
X149049142Y-61669194D01*
X149007198Y-61681382D01*
X149007195Y-61681383D01*
X148989953Y-61691579D01*
X148972492Y-61700133D01*
X148953855Y-61707512D01*
X148918519Y-61733185D01*
X148908762Y-61739595D01*
X148871168Y-61761829D01*
X148857001Y-61775996D01*
X148842212Y-61788626D01*
X148826001Y-61800404D01*
X148798160Y-61834058D01*
X148790299Y-61842697D01*
X140812096Y-69820899D01*
X140761431Y-69851564D01*
X140702323Y-69855234D01*
X140648253Y-69831072D01*
X140548627Y-69753531D01*
X140548626Y-69753530D01*
X140344503Y-69643064D01*
X140344499Y-69643062D01*
X140344498Y-69643062D01*
X140124984Y-69567702D01*
X139934456Y-69535909D01*
X139896049Y-69529500D01*
X139663951Y-69529500D01*
X139625544Y-69535909D01*
X139435015Y-69567702D01*
X139215501Y-69643062D01*
X139011372Y-69753531D01*
X138828215Y-69896087D01*
X138671018Y-70066850D01*
X138613509Y-70154874D01*
X138568718Y-70196107D01*
X138509700Y-70211052D01*
X138450683Y-70196106D01*
X138405892Y-70154873D01*
X138391186Y-70132364D01*
X137593553Y-70930000D01*
X138391186Y-71727634D01*
X138405892Y-71705126D01*
X138450683Y-71663892D01*
X138509701Y-71648947D01*
X138568718Y-71663892D01*
X138613508Y-71705123D01*
X138671021Y-71793153D01*
X138828216Y-71963913D01*
X139011374Y-72106470D01*
X139215497Y-72216936D01*
X139302430Y-72246780D01*
X139435015Y-72292297D01*
X139435017Y-72292297D01*
X139435019Y-72292298D01*
X139663951Y-72330500D01*
X139896048Y-72330500D01*
X139896049Y-72330500D01*
X140124981Y-72292298D01*
X140178876Y-72273796D01*
X140305237Y-72230416D01*
X140363377Y-72224992D01*
X140417553Y-72246780D01*
X140455751Y-72290946D01*
X140469500Y-72347697D01*
X140469500Y-73356951D01*
X140467235Y-73377457D01*
X140469439Y-73447568D01*
X140469500Y-73451463D01*
X140469500Y-73479044D01*
X140470003Y-73483029D01*
X140470918Y-73494662D01*
X140472290Y-73538321D01*
X140477879Y-73557555D01*
X140481825Y-73576611D01*
X140484335Y-73596487D01*
X140500414Y-73637099D01*
X140504197Y-73648146D01*
X140516382Y-73690086D01*
X140526580Y-73707330D01*
X140535136Y-73724795D01*
X140542514Y-73743427D01*
X140542515Y-73743428D01*
X140568180Y-73778754D01*
X140574593Y-73788517D01*
X140596826Y-73826111D01*
X140596829Y-73826114D01*
X140596830Y-73826115D01*
X140610995Y-73840280D01*
X140623627Y-73855070D01*
X140635406Y-73871282D01*
X140669058Y-73899121D01*
X140677699Y-73906984D01*
X143238181Y-76467467D01*
X143265061Y-76507695D01*
X143274500Y-76555148D01*
X143274500Y-77941313D01*
X143266264Y-77985751D01*
X143242652Y-78024282D01*
X143209545Y-78061051D01*
X143167464Y-78107786D01*
X143072820Y-78271715D01*
X143014326Y-78451742D01*
X142994540Y-78639999D01*
X143014326Y-78828257D01*
X143072820Y-79008284D01*
X143167464Y-79172213D01*
X143181910Y-79188257D01*
X143242652Y-79255717D01*
X143266264Y-79294249D01*
X143274500Y-79338687D01*
X143274500Y-82114602D01*
X143262421Y-82167985D01*
X143228536Y-82210968D01*
X143179447Y-82235176D01*
X143124719Y-82235892D01*
X143094647Y-82229500D01*
X143094646Y-82229500D01*
X142905354Y-82229500D01*
X142905352Y-82229500D01*
X142720197Y-82268855D01*
X142547269Y-82345848D01*
X142394129Y-82457110D01*
X142267466Y-82597783D01*
X142172820Y-82761715D01*
X142114326Y-82941742D01*
X142096230Y-83113914D01*
X142085656Y-83152567D01*
X142063307Y-83185830D01*
X142059936Y-83189419D01*
X142050285Y-83206974D01*
X142039609Y-83223228D01*
X142027326Y-83239063D01*
X142009975Y-83279158D01*
X142004838Y-83289644D01*
X141983802Y-83327907D01*
X141978821Y-83347309D01*
X141972520Y-83365711D01*
X141964561Y-83384102D01*
X141957728Y-83427242D01*
X141955360Y-83438674D01*
X141944500Y-83480978D01*
X141944500Y-83501016D01*
X141942973Y-83520415D01*
X141939840Y-83540194D01*
X141943950Y-83583675D01*
X141944500Y-83595344D01*
X141944500Y-88111313D01*
X141936264Y-88155751D01*
X141912652Y-88194282D01*
X141879545Y-88231051D01*
X141837464Y-88277786D01*
X141742820Y-88441715D01*
X141684326Y-88621742D01*
X141664540Y-88810000D01*
X141684326Y-88998257D01*
X141742820Y-89178284D01*
X141760266Y-89208500D01*
X141776879Y-89270500D01*
X141760266Y-89332500D01*
X141714879Y-89377887D01*
X141652879Y-89394500D01*
X141267435Y-89394500D01*
X141246931Y-89392236D01*
X141176839Y-89394439D01*
X141172945Y-89394500D01*
X141145343Y-89394500D01*
X141141348Y-89395004D01*
X141129724Y-89395918D01*
X141086063Y-89397290D01*
X141066824Y-89402880D01*
X141047775Y-89406825D01*
X141027903Y-89409335D01*
X140987288Y-89425415D01*
X140976244Y-89429196D01*
X140934306Y-89441382D01*
X140917059Y-89451581D01*
X140899595Y-89460136D01*
X140880962Y-89467514D01*
X140845621Y-89493189D01*
X140835863Y-89499599D01*
X140798274Y-89521829D01*
X140784105Y-89535998D01*
X140769317Y-89548628D01*
X140753108Y-89560405D01*
X140725267Y-89594058D01*
X140717406Y-89602696D01*
X140371208Y-89948894D01*
X140355110Y-89961791D01*
X140307096Y-90012920D01*
X140304391Y-90015712D01*
X140284874Y-90035229D01*
X140282415Y-90038400D01*
X140274842Y-90047267D01*
X140244935Y-90079115D01*
X140235285Y-90096669D01*
X140224614Y-90112916D01*
X140217488Y-90122105D01*
X140169471Y-90159601D01*
X140109391Y-90169703D01*
X140051752Y-90149973D01*
X140010466Y-90105172D01*
X139995500Y-90046116D01*
X139995500Y-75388687D01*
X140003736Y-75344249D01*
X140027347Y-75305717D01*
X140102533Y-75222216D01*
X140197179Y-75058284D01*
X140255674Y-74878256D01*
X140275460Y-74690000D01*
X140255674Y-74501744D01*
X140225332Y-74408363D01*
X140197179Y-74321715D01*
X140102533Y-74157783D01*
X139975870Y-74017110D01*
X139822730Y-73905848D01*
X139649802Y-73828855D01*
X139464648Y-73789500D01*
X139464646Y-73789500D01*
X139275354Y-73789500D01*
X139275352Y-73789500D01*
X139090197Y-73828855D01*
X138917269Y-73905848D01*
X138764129Y-74017110D01*
X138637466Y-74157783D01*
X138542820Y-74321715D01*
X138484326Y-74501742D01*
X138464540Y-74690000D01*
X138484326Y-74878257D01*
X138542820Y-75058284D01*
X138637464Y-75222213D01*
X138637467Y-75222216D01*
X138712652Y-75305717D01*
X138736264Y-75344249D01*
X138744500Y-75388687D01*
X138744500Y-92389582D01*
X138731950Y-92443940D01*
X138696842Y-92487296D01*
X138646280Y-92510872D01*
X138585197Y-92523855D01*
X138412269Y-92600848D01*
X138259129Y-92712110D01*
X138132466Y-92852783D01*
X138037820Y-93016715D01*
X137979326Y-93196742D01*
X137959540Y-93385000D01*
X137979326Y-93573257D01*
X138037820Y-93753284D01*
X138132466Y-93917216D01*
X138259129Y-94057889D01*
X138412269Y-94169151D01*
X138585193Y-94246143D01*
X138585196Y-94246143D01*
X138585197Y-94246144D01*
X138676483Y-94265547D01*
X138731724Y-94292969D01*
X138766924Y-94343613D01*
X138773371Y-94404950D01*
X138749471Y-94461806D01*
X138701137Y-94500116D01*
X138563028Y-94561607D01*
X138409888Y-94672869D01*
X138283225Y-94813542D01*
X138188579Y-94977474D01*
X138130085Y-95157501D01*
X138110299Y-95345758D01*
X138130085Y-95534016D01*
X138188579Y-95714043D01*
X138283225Y-95877975D01*
X138409888Y-96018648D01*
X138563028Y-96129910D01*
X138735956Y-96206903D01*
X138921111Y-96246259D01*
X138921113Y-96246259D01*
X139110405Y-96246259D01*
X139110407Y-96246259D01*
X139233843Y-96220021D01*
X139295562Y-96206903D01*
X139468489Y-96129910D01*
X139609577Y-96027404D01*
X139621629Y-96018648D01*
X139702686Y-95928626D01*
X139748292Y-95877975D01*
X139842938Y-95714043D01*
X139901433Y-95534015D01*
X139919081Y-95366100D01*
X139930479Y-95325686D01*
X139954716Y-95291391D01*
X140440840Y-94805267D01*
X143588285Y-94805267D01*
X143747053Y-94860823D01*
X143915000Y-94879746D01*
X144082946Y-94860823D01*
X144241710Y-94805267D01*
X144578285Y-94805267D01*
X144737053Y-94860823D01*
X144905000Y-94879746D01*
X145072946Y-94860823D01*
X145231713Y-94805266D01*
X145231714Y-94805265D01*
X144905001Y-94478553D01*
X144905000Y-94478553D01*
X144578285Y-94805266D01*
X144578285Y-94805267D01*
X144241710Y-94805267D01*
X144241713Y-94805266D01*
X144241714Y-94805265D01*
X143915001Y-94478553D01*
X143915000Y-94478553D01*
X143588285Y-94805266D01*
X143588285Y-94805267D01*
X140440840Y-94805267D01*
X141121107Y-94125000D01*
X143160253Y-94125000D01*
X143179176Y-94292944D01*
X143234732Y-94451714D01*
X143561447Y-94125001D01*
X143561447Y-94125000D01*
X144268553Y-94125000D01*
X144410000Y-94266447D01*
X144551446Y-94125001D01*
X145258553Y-94125001D01*
X145585266Y-94451714D01*
X145585266Y-94451713D01*
X145640823Y-94292946D01*
X145659746Y-94125000D01*
X145640823Y-93957053D01*
X145585267Y-93798285D01*
X145585266Y-93798285D01*
X145258553Y-94125000D01*
X145258553Y-94125001D01*
X144551446Y-94125001D01*
X144551447Y-94125000D01*
X144410000Y-93983553D01*
X144268553Y-94125000D01*
X143561447Y-94125000D01*
X143234732Y-93798285D01*
X143179176Y-93957055D01*
X143160253Y-94125000D01*
X141121107Y-94125000D01*
X141138789Y-94107318D01*
X141154885Y-94094424D01*
X141156873Y-94092305D01*
X141156877Y-94092304D01*
X141202948Y-94043241D01*
X141205566Y-94040541D01*
X141225120Y-94020989D01*
X141227581Y-94017816D01*
X141235156Y-94008945D01*
X141265062Y-93977100D01*
X141274717Y-93959536D01*
X141285394Y-93943282D01*
X141297673Y-93927454D01*
X141315018Y-93887370D01*
X141320160Y-93876874D01*
X141324549Y-93868891D01*
X141341197Y-93838610D01*
X141346179Y-93819202D01*
X141352481Y-93800798D01*
X141360437Y-93782414D01*
X141367269Y-93739270D01*
X141369633Y-93727856D01*
X141380500Y-93685537D01*
X141380500Y-93665502D01*
X141382027Y-93646103D01*
X141384226Y-93632216D01*
X141385160Y-93626322D01*
X141385035Y-93625000D01*
X143768553Y-93625000D01*
X143915000Y-93771447D01*
X144061447Y-93625000D01*
X144758553Y-93625000D01*
X144905000Y-93771447D01*
X145051447Y-93625000D01*
X144905000Y-93478553D01*
X144758553Y-93625000D01*
X144061447Y-93625000D01*
X143915000Y-93478553D01*
X143768553Y-93625000D01*
X141385035Y-93625000D01*
X141381050Y-93582843D01*
X141380500Y-93571174D01*
X141380500Y-93125000D01*
X143160253Y-93125000D01*
X143179176Y-93292944D01*
X143234732Y-93451714D01*
X143561447Y-93125001D01*
X143561447Y-93125000D01*
X144268553Y-93125000D01*
X144410000Y-93266447D01*
X144551446Y-93125001D01*
X145258553Y-93125001D01*
X145585266Y-93451714D01*
X145585266Y-93451713D01*
X145640823Y-93292946D01*
X145659746Y-93125000D01*
X145640823Y-92957053D01*
X145585267Y-92798285D01*
X145585266Y-92798285D01*
X145258553Y-93125000D01*
X145258553Y-93125001D01*
X144551446Y-93125001D01*
X144551447Y-93125000D01*
X144410000Y-92983553D01*
X144268553Y-93125000D01*
X143561447Y-93125000D01*
X143234732Y-92798285D01*
X143179176Y-92957055D01*
X143160253Y-93125000D01*
X141380500Y-93125000D01*
X141380500Y-92444732D01*
X143588285Y-92444732D01*
X143915000Y-92771447D01*
X143915001Y-92771447D01*
X144241714Y-92444732D01*
X144578285Y-92444732D01*
X144905000Y-92771447D01*
X144905001Y-92771447D01*
X145231714Y-92444732D01*
X145072944Y-92389176D01*
X144905000Y-92370253D01*
X144737055Y-92389176D01*
X144578285Y-92444732D01*
X144241714Y-92444732D01*
X144082944Y-92389176D01*
X143915000Y-92370253D01*
X143747055Y-92389176D01*
X143588285Y-92444732D01*
X141380500Y-92444732D01*
X141380500Y-91774500D01*
X141397113Y-91712500D01*
X141442500Y-91667113D01*
X141504500Y-91650500D01*
X141574648Y-91650500D01*
X141749122Y-91613415D01*
X141774903Y-91610705D01*
X142925753Y-91610705D01*
X142976188Y-91621425D01*
X143017901Y-91651731D01*
X143023629Y-91658093D01*
X143176770Y-91769356D01*
X143176771Y-91769356D01*
X143176772Y-91769357D01*
X143349697Y-91846349D01*
X143534852Y-91885705D01*
X143534854Y-91885705D01*
X143724146Y-91885705D01*
X143724148Y-91885705D01*
X143895819Y-91849215D01*
X143909303Y-91846349D01*
X144082230Y-91769356D01*
X144149926Y-91720172D01*
X144235370Y-91658094D01*
X144241098Y-91651733D01*
X144362033Y-91517421D01*
X144456679Y-91353489D01*
X144515174Y-91173461D01*
X144518003Y-91146535D01*
X144538523Y-91090160D01*
X144583110Y-91050014D01*
X144641324Y-91035500D01*
X146233865Y-91035500D01*
X146293602Y-91050838D01*
X146338562Y-91093057D01*
X146357620Y-91151714D01*
X146346064Y-91212296D01*
X146306751Y-91259818D01*
X146214127Y-91327112D01*
X146087466Y-91467783D01*
X145992820Y-91631715D01*
X145934326Y-91811742D01*
X145914540Y-92000000D01*
X145934326Y-92188257D01*
X145992820Y-92368284D01*
X146087466Y-92532216D01*
X146134095Y-92584002D01*
X146159876Y-92628655D01*
X146165266Y-92679934D01*
X146149333Y-92728973D01*
X146112820Y-92792216D01*
X146054326Y-92972242D01*
X146034540Y-93160499D01*
X146054326Y-93348757D01*
X146112820Y-93528784D01*
X146207466Y-93692716D01*
X146334129Y-93833389D01*
X146487269Y-93944651D01*
X146660197Y-94021644D01*
X146845352Y-94061000D01*
X146845354Y-94061000D01*
X147034646Y-94061000D01*
X147034648Y-94061000D01*
X147158083Y-94034762D01*
X147219803Y-94021644D01*
X147392730Y-93944651D01*
X147416401Y-93927453D01*
X147545870Y-93833389D01*
X147567152Y-93809753D01*
X147672533Y-93692716D01*
X147717054Y-93615602D01*
X147728888Y-93598574D01*
X147738936Y-93586428D01*
X147746778Y-93577810D01*
X152925117Y-88399473D01*
X152974481Y-88369223D01*
X153032197Y-88364681D01*
X153085684Y-88386836D01*
X153123284Y-88430859D01*
X153136799Y-88487154D01*
X153136799Y-91629555D01*
X153134534Y-91650061D01*
X153136738Y-91720172D01*
X153136799Y-91724067D01*
X153136799Y-91751648D01*
X153137302Y-91755633D01*
X153138217Y-91767266D01*
X153139589Y-91810925D01*
X153145178Y-91830159D01*
X153149124Y-91849215D01*
X153151634Y-91869091D01*
X153167713Y-91909703D01*
X153171496Y-91920750D01*
X153183681Y-91962690D01*
X153193879Y-91979934D01*
X153202435Y-91997399D01*
X153209813Y-92016031D01*
X153209814Y-92016032D01*
X153235479Y-92051358D01*
X153241892Y-92061121D01*
X153264125Y-92098715D01*
X153264128Y-92098718D01*
X153264129Y-92098719D01*
X153278294Y-92112884D01*
X153290926Y-92127674D01*
X153302705Y-92143886D01*
X153336357Y-92171725D01*
X153344998Y-92179588D01*
X155711038Y-94545629D01*
X155735277Y-94579926D01*
X155746678Y-94620348D01*
X155764326Y-94788257D01*
X155822820Y-94968284D01*
X155917466Y-95132216D01*
X156044129Y-95272889D01*
X156197269Y-95384151D01*
X156370197Y-95461144D01*
X156555352Y-95500500D01*
X156555354Y-95500500D01*
X156744646Y-95500500D01*
X156744648Y-95500500D01*
X156868083Y-95474262D01*
X156929803Y-95461144D01*
X157102730Y-95384151D01*
X157155574Y-95345758D01*
X157255870Y-95272889D01*
X157382533Y-95132216D01*
X157477179Y-94968284D01*
X157480558Y-94957885D01*
X157502528Y-94890267D01*
X159253285Y-94890267D01*
X159412053Y-94945823D01*
X159580000Y-94964746D01*
X159747946Y-94945823D01*
X159906710Y-94890267D01*
X160243285Y-94890267D01*
X160402053Y-94945823D01*
X160570000Y-94964746D01*
X160737946Y-94945823D01*
X160896713Y-94890266D01*
X160896714Y-94890265D01*
X160570001Y-94563553D01*
X160570000Y-94563553D01*
X160243285Y-94890266D01*
X160243285Y-94890267D01*
X159906710Y-94890267D01*
X159906713Y-94890266D01*
X159906714Y-94890265D01*
X159580001Y-94563553D01*
X159580000Y-94563553D01*
X159253285Y-94890266D01*
X159253285Y-94890267D01*
X157502528Y-94890267D01*
X157535674Y-94788256D01*
X157555460Y-94600000D01*
X157535674Y-94411744D01*
X157505332Y-94318363D01*
X157477179Y-94231715D01*
X157464642Y-94210000D01*
X158825253Y-94210000D01*
X158844176Y-94377944D01*
X158899732Y-94536714D01*
X159226447Y-94210001D01*
X159226447Y-94210000D01*
X159933553Y-94210000D01*
X160075000Y-94351447D01*
X160216446Y-94210001D01*
X160923553Y-94210001D01*
X161250266Y-94536714D01*
X161250266Y-94536713D01*
X161305823Y-94377946D01*
X161324746Y-94210000D01*
X161305823Y-94042053D01*
X161250267Y-93883285D01*
X161250266Y-93883285D01*
X160923553Y-94210000D01*
X160923553Y-94210001D01*
X160216446Y-94210001D01*
X160216447Y-94210000D01*
X160075000Y-94068553D01*
X159933553Y-94210000D01*
X159226447Y-94210000D01*
X158899732Y-93883285D01*
X158844176Y-94042055D01*
X158825253Y-94210000D01*
X157464642Y-94210000D01*
X157382533Y-94067783D01*
X157251147Y-93921865D01*
X157222980Y-93868891D01*
X157222980Y-93808894D01*
X157251146Y-93755922D01*
X157292495Y-93710000D01*
X159433553Y-93710000D01*
X159580000Y-93856447D01*
X159726447Y-93710000D01*
X160423553Y-93710000D01*
X160570000Y-93856447D01*
X160716447Y-93710000D01*
X160570000Y-93563553D01*
X160423553Y-93710000D01*
X159726447Y-93710000D01*
X159580000Y-93563553D01*
X159433553Y-93710000D01*
X157292495Y-93710000D01*
X157362533Y-93632216D01*
X157457179Y-93468284D01*
X157515674Y-93288256D01*
X157523899Y-93209999D01*
X158825253Y-93209999D01*
X158844176Y-93377944D01*
X158899732Y-93536714D01*
X159226447Y-93210001D01*
X159226447Y-93210000D01*
X159933553Y-93210000D01*
X160075000Y-93351447D01*
X160216446Y-93210001D01*
X160923553Y-93210001D01*
X161250266Y-93536714D01*
X161250266Y-93536713D01*
X161305823Y-93377946D01*
X161324746Y-93210000D01*
X161305823Y-93042053D01*
X161250267Y-92883285D01*
X161250266Y-92883285D01*
X160923553Y-93210000D01*
X160923553Y-93210001D01*
X160216446Y-93210001D01*
X160216447Y-93210000D01*
X160075000Y-93068553D01*
X159933553Y-93210000D01*
X159226447Y-93210000D01*
X158899732Y-92883285D01*
X158844176Y-93042055D01*
X158825253Y-93209999D01*
X157523899Y-93209999D01*
X157535460Y-93100000D01*
X157515674Y-92911744D01*
X157473030Y-92780500D01*
X157457179Y-92731715D01*
X157362535Y-92567786D01*
X157330507Y-92532216D01*
X157328270Y-92529732D01*
X159253285Y-92529732D01*
X159580000Y-92856447D01*
X159580001Y-92856447D01*
X159906714Y-92529732D01*
X160243285Y-92529732D01*
X160570000Y-92856447D01*
X160570001Y-92856447D01*
X160896714Y-92529732D01*
X160737944Y-92474176D01*
X160570000Y-92455253D01*
X160402055Y-92474176D01*
X160243285Y-92529732D01*
X159906714Y-92529732D01*
X159747944Y-92474176D01*
X159580000Y-92455253D01*
X159412055Y-92474176D01*
X159253285Y-92529732D01*
X157328270Y-92529732D01*
X157287347Y-92484282D01*
X157263736Y-92445751D01*
X157255500Y-92401313D01*
X157255500Y-91268571D01*
X157272113Y-91206571D01*
X157317500Y-91161184D01*
X157379500Y-91144571D01*
X157441500Y-91161184D01*
X157486887Y-91206571D01*
X157507466Y-91242216D01*
X157634129Y-91382889D01*
X157787269Y-91494151D01*
X157960197Y-91571144D01*
X158145352Y-91610500D01*
X158145354Y-91610500D01*
X158334646Y-91610500D01*
X158334648Y-91610500D01*
X158458083Y-91584262D01*
X158519803Y-91571144D01*
X158692730Y-91494151D01*
X158845871Y-91382888D01*
X158851598Y-91376526D01*
X158893312Y-91346220D01*
X158943747Y-91335500D01*
X160532716Y-91335500D01*
X160594716Y-91352113D01*
X160640103Y-91397500D01*
X160677466Y-91462216D01*
X160804129Y-91602889D01*
X160957269Y-91714151D01*
X161130196Y-91791144D01*
X161190391Y-91803939D01*
X161237495Y-91824911D01*
X161271997Y-91863229D01*
X161287931Y-91912267D01*
X161304326Y-92068257D01*
X161362820Y-92248284D01*
X161457466Y-92412216D01*
X161584129Y-92552889D01*
X161737269Y-92664151D01*
X161910197Y-92741144D01*
X162095352Y-92780500D01*
X162095354Y-92780500D01*
X162284646Y-92780500D01*
X162284648Y-92780500D01*
X162408084Y-92754262D01*
X162469803Y-92741144D01*
X162642730Y-92664151D01*
X162729858Y-92600849D01*
X162795870Y-92552889D01*
X162822013Y-92523855D01*
X162922533Y-92412216D01*
X163017179Y-92248284D01*
X163075674Y-92068256D01*
X163084950Y-91979999D01*
X174084778Y-91979999D01*
X174103644Y-92267845D01*
X174159918Y-92550750D01*
X174252640Y-92823902D01*
X174380221Y-93082610D01*
X174535742Y-93315364D01*
X174540480Y-93322454D01*
X174730673Y-93539327D01*
X174925288Y-93710000D01*
X174947546Y-93729520D01*
X175187389Y-93889778D01*
X175446097Y-94017359D01*
X175518340Y-94041882D01*
X175719247Y-94110081D01*
X175861675Y-94138411D01*
X176002154Y-94166355D01*
X176002156Y-94166355D01*
X176002161Y-94166356D01*
X176290000Y-94185222D01*
X176577839Y-94166356D01*
X176577843Y-94166355D01*
X176577845Y-94166355D01*
X176647110Y-94152577D01*
X176860753Y-94110081D01*
X177133902Y-94017359D01*
X177392611Y-93889778D01*
X177632454Y-93729520D01*
X177849327Y-93539327D01*
X178039520Y-93322454D01*
X178199778Y-93082611D01*
X178327359Y-92823902D01*
X178420081Y-92550753D01*
X178476356Y-92267839D01*
X178495222Y-91980000D01*
X178476356Y-91692161D01*
X178469579Y-91658093D01*
X178440463Y-91511715D01*
X178420081Y-91409247D01*
X178353225Y-91212296D01*
X178327359Y-91136097D01*
X178199778Y-90877389D01*
X178039520Y-90637546D01*
X177937964Y-90521744D01*
X177849327Y-90420673D01*
X177632454Y-90230480D01*
X177613182Y-90217603D01*
X177392610Y-90070221D01*
X177133902Y-89942640D01*
X176860750Y-89849918D01*
X176577845Y-89793644D01*
X176290000Y-89774778D01*
X176002154Y-89793644D01*
X175719249Y-89849918D01*
X175446097Y-89942640D01*
X175187389Y-90070221D01*
X174947546Y-90230479D01*
X174730673Y-90420673D01*
X174540479Y-90637546D01*
X174380221Y-90877389D01*
X174252640Y-91136097D01*
X174159918Y-91409249D01*
X174103644Y-91692154D01*
X174084778Y-91979999D01*
X163084950Y-91979999D01*
X163095460Y-91880000D01*
X163075674Y-91691744D01*
X163045332Y-91598363D01*
X163017179Y-91511715D01*
X162922535Y-91347786D01*
X162903920Y-91327112D01*
X162847347Y-91264282D01*
X162823736Y-91225751D01*
X162815500Y-91181313D01*
X162815500Y-88909999D01*
X172324722Y-88909999D01*
X172343792Y-89127974D01*
X172400425Y-89339331D01*
X172430059Y-89402880D01*
X172492898Y-89537639D01*
X172618402Y-89716877D01*
X172773123Y-89871598D01*
X172952361Y-89997102D01*
X173150670Y-90089575D01*
X173362023Y-90146207D01*
X173580000Y-90165277D01*
X173797977Y-90146207D01*
X174009330Y-90089575D01*
X174207639Y-89997102D01*
X174386877Y-89871598D01*
X174541598Y-89716877D01*
X174667102Y-89537639D01*
X174759575Y-89339330D01*
X174816207Y-89127977D01*
X174835277Y-88910000D01*
X174816207Y-88692023D01*
X174759575Y-88480670D01*
X174667102Y-88282362D01*
X174541598Y-88103123D01*
X174386877Y-87948402D01*
X174207639Y-87822898D01*
X174155111Y-87798403D01*
X174099306Y-87772381D01*
X174047131Y-87726623D01*
X174027712Y-87659998D01*
X174047132Y-87593373D01*
X174099306Y-87547618D01*
X174207639Y-87497102D01*
X174386877Y-87371598D01*
X174541598Y-87216877D01*
X174667102Y-87037639D01*
X174759575Y-86839330D01*
X174816207Y-86627977D01*
X174835277Y-86410000D01*
X174816207Y-86192023D01*
X174759575Y-85980670D01*
X174667102Y-85782362D01*
X174541598Y-85603123D01*
X174436155Y-85497680D01*
X174404062Y-85442092D01*
X174404062Y-85377905D01*
X174436153Y-85322321D01*
X174541598Y-85216877D01*
X174667102Y-85037639D01*
X174759575Y-84839330D01*
X174816207Y-84627977D01*
X174835277Y-84410000D01*
X174816207Y-84192023D01*
X174759575Y-83980670D01*
X174667102Y-83782362D01*
X174541598Y-83603123D01*
X174386877Y-83448402D01*
X174207639Y-83322898D01*
X174136326Y-83289644D01*
X174098714Y-83272105D01*
X174046538Y-83226348D01*
X174027119Y-83159722D01*
X174046539Y-83093097D01*
X174098715Y-83047340D01*
X174207388Y-82996665D01*
X174269572Y-82953124D01*
X173580001Y-82263553D01*
X173580000Y-82263553D01*
X172890426Y-82953124D01*
X172890427Y-82953125D01*
X172952612Y-82996667D01*
X173061284Y-83047341D01*
X173113460Y-83093097D01*
X173132880Y-83159722D01*
X173113461Y-83226347D01*
X173061286Y-83272105D01*
X172952359Y-83322899D01*
X172773122Y-83448402D01*
X172618402Y-83603122D01*
X172492898Y-83782361D01*
X172400425Y-83980668D01*
X172343792Y-84192025D01*
X172324722Y-84410000D01*
X172343792Y-84627974D01*
X172343793Y-84627977D01*
X172400425Y-84839330D01*
X172492898Y-85037639D01*
X172618402Y-85216877D01*
X172618405Y-85216879D01*
X172618405Y-85216880D01*
X172723844Y-85322319D01*
X172755938Y-85377906D01*
X172755938Y-85442094D01*
X172723844Y-85497681D01*
X172618402Y-85603122D01*
X172492898Y-85782361D01*
X172400425Y-85980668D01*
X172343792Y-86192025D01*
X172324722Y-86410000D01*
X172343792Y-86627974D01*
X172400425Y-86839331D01*
X172418314Y-86877694D01*
X172492898Y-87037639D01*
X172618402Y-87216877D01*
X172773123Y-87371598D01*
X172952361Y-87497102D01*
X173060691Y-87547617D01*
X173060693Y-87547618D01*
X173112869Y-87593375D01*
X173132288Y-87660000D01*
X173112869Y-87726625D01*
X173060693Y-87772382D01*
X172952361Y-87822898D01*
X172773122Y-87948402D01*
X172618402Y-88103122D01*
X172492898Y-88282361D01*
X172400425Y-88480668D01*
X172343792Y-88692025D01*
X172324722Y-88909999D01*
X162815500Y-88909999D01*
X162815500Y-81910000D01*
X172325224Y-81910000D01*
X172344287Y-82127886D01*
X172400898Y-82339161D01*
X172493331Y-82537386D01*
X172536873Y-82599571D01*
X172536875Y-82599572D01*
X173226447Y-81910001D01*
X173933553Y-81910001D01*
X174623124Y-82599572D01*
X174666667Y-82537385D01*
X174759102Y-82339159D01*
X174815712Y-82127886D01*
X174834775Y-81910000D01*
X174815712Y-81692113D01*
X174759102Y-81480840D01*
X174666667Y-81282615D01*
X174623123Y-81220428D01*
X173933553Y-81910000D01*
X173933553Y-81910001D01*
X173226447Y-81910001D01*
X173226447Y-81910000D01*
X172536875Y-81220427D01*
X172536874Y-81220428D01*
X172493333Y-81282611D01*
X172400897Y-81480840D01*
X172344287Y-81692113D01*
X172325224Y-81910000D01*
X162815500Y-81910000D01*
X162815500Y-80866875D01*
X172890427Y-80866875D01*
X173580000Y-81556447D01*
X173580001Y-81556447D01*
X174269572Y-80866875D01*
X174269571Y-80866873D01*
X174207386Y-80823331D01*
X174009161Y-80730898D01*
X173797886Y-80674287D01*
X173580000Y-80655224D01*
X173362113Y-80674287D01*
X173150840Y-80730897D01*
X172952611Y-80823333D01*
X172890428Y-80866874D01*
X172890427Y-80866875D01*
X162815500Y-80866875D01*
X162815500Y-78840000D01*
X174084778Y-78840000D01*
X174103644Y-79127845D01*
X174159918Y-79410750D01*
X174252640Y-79683902D01*
X174380221Y-79942610D01*
X174380222Y-79942611D01*
X174540480Y-80182454D01*
X174730673Y-80399327D01*
X174947546Y-80589520D01*
X175187389Y-80749778D01*
X175446097Y-80877359D01*
X175537147Y-80908266D01*
X175719247Y-80970081D01*
X175861675Y-80998411D01*
X176002154Y-81026355D01*
X176002156Y-81026355D01*
X176002161Y-81026356D01*
X176290000Y-81045222D01*
X176577839Y-81026356D01*
X176577843Y-81026355D01*
X176577845Y-81026355D01*
X176647110Y-81012577D01*
X176860753Y-80970081D01*
X177133902Y-80877359D01*
X177392611Y-80749778D01*
X177632454Y-80589520D01*
X177849327Y-80399327D01*
X178039520Y-80182454D01*
X178199778Y-79942611D01*
X178327359Y-79683902D01*
X178420081Y-79410753D01*
X178467529Y-79172216D01*
X178476355Y-79127845D01*
X178476355Y-79127843D01*
X178476356Y-79127839D01*
X178495222Y-78840000D01*
X178476356Y-78552161D01*
X178465429Y-78497229D01*
X178441017Y-78374500D01*
X178420081Y-78269247D01*
X178327359Y-77996098D01*
X178323815Y-77988912D01*
X178199778Y-77737389D01*
X178039520Y-77497546D01*
X177980722Y-77430500D01*
X177849327Y-77280673D01*
X177632454Y-77090480D01*
X177392611Y-76930222D01*
X177392612Y-76930222D01*
X177392610Y-76930221D01*
X177133902Y-76802640D01*
X176860750Y-76709918D01*
X176577845Y-76653644D01*
X176290000Y-76634778D01*
X176002154Y-76653644D01*
X175719249Y-76709918D01*
X175446097Y-76802640D01*
X175187389Y-76930221D01*
X174947546Y-77090479D01*
X174730673Y-77280673D01*
X174540479Y-77497546D01*
X174380221Y-77737389D01*
X174252640Y-77996097D01*
X174159918Y-78269249D01*
X174103644Y-78552154D01*
X174084778Y-78840000D01*
X162815500Y-78840000D01*
X162815500Y-76483586D01*
X162824529Y-76437135D01*
X162850302Y-76397448D01*
X162889065Y-76370306D01*
X162992732Y-76324150D01*
X163145870Y-76212889D01*
X163191948Y-76161715D01*
X163272533Y-76072216D01*
X163367179Y-75908284D01*
X163425674Y-75728256D01*
X163445460Y-75540000D01*
X163425674Y-75351744D01*
X163367179Y-75171716D01*
X163367179Y-75171715D01*
X163272533Y-75007783D01*
X163145870Y-74867110D01*
X162992730Y-74755848D01*
X162819802Y-74678855D01*
X162634648Y-74639500D01*
X162634646Y-74639500D01*
X162445354Y-74639500D01*
X162445352Y-74639500D01*
X162260199Y-74678854D01*
X162229937Y-74692329D01*
X162169772Y-74702668D01*
X162111965Y-74683046D01*
X162070527Y-74638218D01*
X162055500Y-74579050D01*
X162055500Y-72383744D01*
X162069249Y-72326993D01*
X162107447Y-72282827D01*
X162161623Y-72261039D01*
X162219763Y-72266463D01*
X162295015Y-72292297D01*
X162295017Y-72292297D01*
X162295019Y-72292298D01*
X162523951Y-72330500D01*
X162756048Y-72330500D01*
X162756049Y-72330500D01*
X162984981Y-72292298D01*
X163204503Y-72216936D01*
X163408626Y-72106470D01*
X163591784Y-71963913D01*
X163748979Y-71793153D01*
X163806191Y-71705582D01*
X163850982Y-71664349D01*
X163910000Y-71649404D01*
X163969018Y-71664349D01*
X164013808Y-71705582D01*
X164071021Y-71793153D01*
X164228216Y-71963913D01*
X164411374Y-72106470D01*
X164615497Y-72216936D01*
X164702430Y-72246780D01*
X164835015Y-72292297D01*
X164835017Y-72292297D01*
X164835019Y-72292298D01*
X165063951Y-72330500D01*
X165296048Y-72330500D01*
X165296049Y-72330500D01*
X165524981Y-72292298D01*
X165744503Y-72216936D01*
X165948626Y-72106470D01*
X166131784Y-71963913D01*
X166288979Y-71793153D01*
X166415924Y-71598849D01*
X166428618Y-71569908D01*
X166465004Y-71522656D01*
X166519240Y-71497855D01*
X166578782Y-71501243D01*
X166629856Y-71532035D01*
X170118181Y-75020360D01*
X170145061Y-75060588D01*
X170154500Y-75108041D01*
X170154500Y-75831313D01*
X170146264Y-75875751D01*
X170122652Y-75914282D01*
X170098629Y-75940963D01*
X170047464Y-75997786D01*
X169952820Y-76161715D01*
X169894326Y-76341742D01*
X169874540Y-76530000D01*
X169894326Y-76718257D01*
X169952820Y-76898284D01*
X170047466Y-77062216D01*
X170174129Y-77202889D01*
X170327269Y-77314151D01*
X170500197Y-77391144D01*
X170685352Y-77430500D01*
X170685354Y-77430500D01*
X170874646Y-77430500D01*
X170874648Y-77430500D01*
X170998084Y-77404262D01*
X171059803Y-77391144D01*
X171232730Y-77314151D01*
X171385871Y-77202888D01*
X171512533Y-77062216D01*
X171607179Y-76898284D01*
X171665674Y-76718256D01*
X171685460Y-76530000D01*
X171665674Y-76341744D01*
X171618176Y-76195561D01*
X171607179Y-76161715D01*
X171512535Y-75997786D01*
X171478143Y-75959590D01*
X171437347Y-75914282D01*
X171413736Y-75875751D01*
X171405500Y-75831313D01*
X171405500Y-74880328D01*
X171407763Y-74859824D01*
X171407157Y-74840548D01*
X171405561Y-74789732D01*
X171405500Y-74785838D01*
X171405500Y-74758245D01*
X171405500Y-74758238D01*
X171404995Y-74754241D01*
X171404080Y-74742611D01*
X171403354Y-74719500D01*
X171402709Y-74698960D01*
X171397119Y-74679722D01*
X171393174Y-74660670D01*
X171390664Y-74640796D01*
X171377327Y-74607112D01*
X171374578Y-74600169D01*
X171370805Y-74589148D01*
X171358617Y-74547198D01*
X171348421Y-74529957D01*
X171339863Y-74512490D01*
X171332486Y-74493856D01*
X171306798Y-74458500D01*
X171300409Y-74448772D01*
X171278170Y-74411167D01*
X171264005Y-74397002D01*
X171251369Y-74382208D01*
X171239595Y-74366002D01*
X171239594Y-74366001D01*
X171205935Y-74338156D01*
X171197305Y-74330302D01*
X153592188Y-56725185D01*
X153560547Y-56671243D01*
X153559256Y-56608719D01*
X153584024Y-56562191D01*
X153583358Y-56561756D01*
X153588212Y-56554324D01*
X153588641Y-56553519D01*
X153588979Y-56553153D01*
X153646193Y-56465580D01*
X153690981Y-56424350D01*
X153749998Y-56409404D01*
X153809016Y-56424349D01*
X153853807Y-56465582D01*
X153911018Y-56553149D01*
X153911021Y-56553153D01*
X154068216Y-56723913D01*
X154251374Y-56866470D01*
X154455497Y-56976936D01*
X154524932Y-57000773D01*
X154675015Y-57052297D01*
X154675017Y-57052297D01*
X154675019Y-57052298D01*
X154903951Y-57090500D01*
X155136048Y-57090500D01*
X155136049Y-57090500D01*
X155364981Y-57052298D01*
X155584503Y-56976936D01*
X155788626Y-56866470D01*
X155971784Y-56723913D01*
X156128979Y-56553153D01*
X156186191Y-56465582D01*
X156230982Y-56424349D01*
X156290000Y-56409404D01*
X156349018Y-56424349D01*
X156393808Y-56465582D01*
X156451021Y-56553153D01*
X156608216Y-56723913D01*
X156791374Y-56866470D01*
X156995497Y-56976936D01*
X157064932Y-57000773D01*
X157215015Y-57052297D01*
X157215017Y-57052297D01*
X157215019Y-57052298D01*
X157443951Y-57090500D01*
X157676048Y-57090500D01*
X157676049Y-57090500D01*
X157904981Y-57052298D01*
X158124503Y-56976936D01*
X158328626Y-56866470D01*
X158511784Y-56723913D01*
X158668979Y-56553153D01*
X158726191Y-56465582D01*
X158770982Y-56424349D01*
X158830000Y-56409404D01*
X158889018Y-56424349D01*
X158933808Y-56465582D01*
X158991021Y-56553153D01*
X159148216Y-56723913D01*
X159331374Y-56866470D01*
X159535497Y-56976936D01*
X159604932Y-57000773D01*
X159755015Y-57052297D01*
X159755017Y-57052297D01*
X159755019Y-57052298D01*
X159983951Y-57090500D01*
X160216048Y-57090500D01*
X160216049Y-57090500D01*
X160444981Y-57052298D01*
X160664503Y-56976936D01*
X160868626Y-56866470D01*
X161051784Y-56723913D01*
X161208979Y-56553153D01*
X161266191Y-56465582D01*
X161310982Y-56424349D01*
X161370000Y-56409404D01*
X161429018Y-56424349D01*
X161473808Y-56465582D01*
X161531021Y-56553153D01*
X161688216Y-56723913D01*
X161871374Y-56866470D01*
X162075497Y-56976936D01*
X162144932Y-57000773D01*
X162295015Y-57052297D01*
X162295017Y-57052297D01*
X162295019Y-57052298D01*
X162523951Y-57090500D01*
X162756048Y-57090500D01*
X162756049Y-57090500D01*
X162984981Y-57052298D01*
X163204503Y-56976936D01*
X163408626Y-56866470D01*
X163591784Y-56723913D01*
X163748979Y-56553153D01*
X163806191Y-56465582D01*
X163850982Y-56424349D01*
X163910000Y-56409404D01*
X163969018Y-56424349D01*
X164013808Y-56465582D01*
X164071021Y-56553153D01*
X164228216Y-56723913D01*
X164411374Y-56866470D01*
X164615497Y-56976936D01*
X164684932Y-57000773D01*
X164835015Y-57052297D01*
X164835017Y-57052297D01*
X164835019Y-57052298D01*
X165063951Y-57090500D01*
X165296048Y-57090500D01*
X165296049Y-57090500D01*
X165524981Y-57052298D01*
X165744503Y-56976936D01*
X165948626Y-56866470D01*
X166131784Y-56723913D01*
X166288979Y-56553153D01*
X166415924Y-56358849D01*
X166509157Y-56146300D01*
X166566134Y-55921305D01*
X166578671Y-55770000D01*
X179184422Y-55770000D01*
X179204700Y-56040595D01*
X179259609Y-56281163D01*
X179265084Y-56305151D01*
X179364222Y-56557749D01*
X179499900Y-56792751D01*
X179665792Y-57000773D01*
X179669088Y-57004906D01*
X179868003Y-57189473D01*
X179868006Y-57189475D01*
X180092212Y-57342336D01*
X180336695Y-57460073D01*
X180595996Y-57540057D01*
X180864322Y-57580500D01*
X181135678Y-57580500D01*
X181404004Y-57540057D01*
X181663305Y-57460073D01*
X181907789Y-57342336D01*
X182131994Y-57189475D01*
X182330912Y-57004906D01*
X182500100Y-56792751D01*
X182635778Y-56557749D01*
X182734916Y-56305151D01*
X182795299Y-56040598D01*
X182815577Y-55770000D01*
X182795299Y-55499402D01*
X182734916Y-55234849D01*
X182635778Y-54982251D01*
X182500100Y-54747249D01*
X182330912Y-54535094D01*
X182330911Y-54535093D01*
X182131996Y-54350526D01*
X181915508Y-54202927D01*
X181907789Y-54197664D01*
X181907786Y-54197663D01*
X181907784Y-54197661D01*
X181663307Y-54079927D01*
X181404003Y-53999942D01*
X181135678Y-53959500D01*
X180864322Y-53959500D01*
X180595996Y-53999942D01*
X180336695Y-54079926D01*
X180336695Y-54079927D01*
X180092212Y-54197664D01*
X180084493Y-54202927D01*
X179868003Y-54350526D01*
X179669088Y-54535093D01*
X179499899Y-54747250D01*
X179364222Y-54982250D01*
X179265084Y-55234848D01*
X179204700Y-55499404D01*
X179184422Y-55770000D01*
X166578671Y-55770000D01*
X166585300Y-55690000D01*
X166566134Y-55458695D01*
X166509157Y-55233700D01*
X166415924Y-55021151D01*
X166288979Y-54826847D01*
X166131784Y-54656087D01*
X165948626Y-54513530D01*
X165744503Y-54403064D01*
X165744499Y-54403062D01*
X165744498Y-54403062D01*
X165524984Y-54327702D01*
X165353281Y-54299050D01*
X165296049Y-54289500D01*
X165063951Y-54289500D01*
X165018164Y-54297140D01*
X164835015Y-54327702D01*
X164615501Y-54403062D01*
X164411372Y-54513531D01*
X164228215Y-54656087D01*
X164071018Y-54826849D01*
X164013808Y-54914417D01*
X163969017Y-54955650D01*
X163910000Y-54970595D01*
X163850983Y-54955650D01*
X163806192Y-54914417D01*
X163748981Y-54826849D01*
X163591784Y-54656087D01*
X163408626Y-54513530D01*
X163204503Y-54403064D01*
X163204499Y-54403062D01*
X163204498Y-54403062D01*
X162984984Y-54327702D01*
X162813281Y-54299050D01*
X162756049Y-54289500D01*
X162523951Y-54289500D01*
X162478164Y-54297140D01*
X162295015Y-54327702D01*
X162075501Y-54403062D01*
X161871372Y-54513531D01*
X161688215Y-54656087D01*
X161531018Y-54826849D01*
X161473808Y-54914417D01*
X161429017Y-54955650D01*
X161370000Y-54970595D01*
X161310983Y-54955650D01*
X161266192Y-54914417D01*
X161208981Y-54826849D01*
X161051784Y-54656087D01*
X160868626Y-54513530D01*
X160664503Y-54403064D01*
X160664499Y-54403062D01*
X160664498Y-54403062D01*
X160444984Y-54327702D01*
X160273281Y-54299050D01*
X160216049Y-54289500D01*
X159983951Y-54289500D01*
X159938164Y-54297140D01*
X159755015Y-54327702D01*
X159535501Y-54403062D01*
X159331372Y-54513531D01*
X159148215Y-54656087D01*
X158991018Y-54826849D01*
X158933808Y-54914417D01*
X158889017Y-54955650D01*
X158830000Y-54970595D01*
X158770983Y-54955650D01*
X158726192Y-54914417D01*
X158668981Y-54826849D01*
X158511784Y-54656087D01*
X158328626Y-54513530D01*
X158124503Y-54403064D01*
X158124499Y-54403062D01*
X158124498Y-54403062D01*
X157904984Y-54327702D01*
X157733281Y-54299050D01*
X157676049Y-54289500D01*
X157443951Y-54289500D01*
X157398164Y-54297140D01*
X157215015Y-54327702D01*
X156995501Y-54403062D01*
X156791372Y-54513531D01*
X156608215Y-54656087D01*
X156451018Y-54826849D01*
X156393808Y-54914417D01*
X156349017Y-54955650D01*
X156290000Y-54970595D01*
X156230983Y-54955650D01*
X156186192Y-54914417D01*
X156128981Y-54826849D01*
X155971784Y-54656087D01*
X155788626Y-54513530D01*
X155584503Y-54403064D01*
X155584499Y-54403062D01*
X155584498Y-54403062D01*
X155364984Y-54327702D01*
X155193281Y-54299050D01*
X155136049Y-54289500D01*
X154903951Y-54289500D01*
X154858164Y-54297140D01*
X154675015Y-54327702D01*
X154455501Y-54403062D01*
X154251372Y-54513531D01*
X154068215Y-54656087D01*
X153911018Y-54826849D01*
X153853808Y-54914417D01*
X153809017Y-54955650D01*
X153750000Y-54970595D01*
X153690983Y-54955650D01*
X153646192Y-54914417D01*
X153588981Y-54826849D01*
X153431784Y-54656087D01*
X153248626Y-54513530D01*
X153044503Y-54403064D01*
X153044499Y-54403062D01*
X153044498Y-54403062D01*
X152824984Y-54327702D01*
X152653281Y-54299050D01*
X152596049Y-54289500D01*
X152363951Y-54289500D01*
X152318164Y-54297140D01*
X152135015Y-54327702D01*
X151915501Y-54403062D01*
X151711372Y-54513531D01*
X151528215Y-54656087D01*
X151371018Y-54826849D01*
X151313808Y-54914417D01*
X151269017Y-54955650D01*
X151210000Y-54970595D01*
X151150983Y-54955650D01*
X151106192Y-54914417D01*
X151048981Y-54826849D01*
X150891784Y-54656087D01*
X150708626Y-54513530D01*
X150504503Y-54403064D01*
X150504499Y-54403062D01*
X150504498Y-54403062D01*
X150284984Y-54327702D01*
X150113281Y-54299050D01*
X150056049Y-54289500D01*
X149823951Y-54289500D01*
X149778164Y-54297140D01*
X149595015Y-54327702D01*
X149375501Y-54403062D01*
X149171372Y-54513531D01*
X148988215Y-54656087D01*
X148831018Y-54826849D01*
X148773808Y-54914417D01*
X148729017Y-54955650D01*
X148670000Y-54970595D01*
X148610983Y-54955650D01*
X148566192Y-54914417D01*
X148508981Y-54826849D01*
X148351784Y-54656087D01*
X148168626Y-54513530D01*
X147964503Y-54403064D01*
X147964499Y-54403062D01*
X147964498Y-54403062D01*
X147744984Y-54327702D01*
X147573281Y-54299050D01*
X147516049Y-54289500D01*
X147283951Y-54289500D01*
X147238164Y-54297140D01*
X147055015Y-54327702D01*
X146835501Y-54403062D01*
X146631372Y-54513531D01*
X146448215Y-54656087D01*
X146291018Y-54826849D01*
X146233808Y-54914417D01*
X146189017Y-54955650D01*
X146130000Y-54970595D01*
X146070983Y-54955650D01*
X146026192Y-54914417D01*
X145968981Y-54826849D01*
X145811784Y-54656087D01*
X145628626Y-54513530D01*
X145424503Y-54403064D01*
X145424499Y-54403062D01*
X145424498Y-54403062D01*
X145204984Y-54327702D01*
X145033281Y-54299050D01*
X144976049Y-54289500D01*
X144743951Y-54289500D01*
X144698164Y-54297140D01*
X144515015Y-54327702D01*
X144295501Y-54403062D01*
X144091372Y-54513531D01*
X143908215Y-54656087D01*
X143751018Y-54826849D01*
X143693808Y-54914417D01*
X143649017Y-54955650D01*
X143590000Y-54970595D01*
X143530983Y-54955650D01*
X143486192Y-54914417D01*
X143428981Y-54826849D01*
X143271784Y-54656087D01*
X143088626Y-54513530D01*
X142884503Y-54403064D01*
X142884499Y-54403062D01*
X142884498Y-54403062D01*
X142664984Y-54327702D01*
X142493281Y-54299050D01*
X142436049Y-54289500D01*
X142203951Y-54289500D01*
X142158164Y-54297140D01*
X141975015Y-54327702D01*
X141755501Y-54403062D01*
X141551372Y-54513531D01*
X141368215Y-54656087D01*
X141211018Y-54826849D01*
X141153808Y-54914417D01*
X141109017Y-54955650D01*
X141050000Y-54970595D01*
X140990983Y-54955650D01*
X140946192Y-54914417D01*
X140888981Y-54826849D01*
X140731784Y-54656087D01*
X140548626Y-54513530D01*
X140344503Y-54403064D01*
X140344499Y-54403062D01*
X140344498Y-54403062D01*
X140124984Y-54327702D01*
X139953281Y-54299050D01*
X139896049Y-54289500D01*
X139663951Y-54289500D01*
X139618164Y-54297140D01*
X139435015Y-54327702D01*
X139215501Y-54403062D01*
X139011372Y-54513531D01*
X138828215Y-54656087D01*
X138671018Y-54826849D01*
X138613808Y-54914417D01*
X138569017Y-54955650D01*
X138510000Y-54970595D01*
X138450983Y-54955650D01*
X138406192Y-54914417D01*
X138348981Y-54826849D01*
X138191784Y-54656087D01*
X138008626Y-54513530D01*
X137804503Y-54403064D01*
X137804499Y-54403062D01*
X137804498Y-54403062D01*
X137584984Y-54327702D01*
X137413281Y-54299050D01*
X137356049Y-54289500D01*
X137123951Y-54289500D01*
X137078164Y-54297140D01*
X136895015Y-54327702D01*
X136675501Y-54403062D01*
X136471372Y-54513531D01*
X136288215Y-54656087D01*
X136131018Y-54826849D01*
X136073808Y-54914417D01*
X136029017Y-54955650D01*
X135970000Y-54970595D01*
X135910983Y-54955650D01*
X135866192Y-54914417D01*
X135808981Y-54826849D01*
X135651784Y-54656087D01*
X135468626Y-54513530D01*
X135264503Y-54403064D01*
X135264499Y-54403062D01*
X135264498Y-54403062D01*
X135044984Y-54327702D01*
X134873281Y-54299050D01*
X134816049Y-54289500D01*
X134583951Y-54289500D01*
X134538164Y-54297140D01*
X134355015Y-54327702D01*
X134135501Y-54403062D01*
X133931372Y-54513531D01*
X133748215Y-54656087D01*
X133591018Y-54826850D01*
X133533509Y-54914874D01*
X133488718Y-54956107D01*
X133429700Y-54971052D01*
X133370683Y-54956106D01*
X133325892Y-54914873D01*
X133311186Y-54892364D01*
X132513553Y-55690000D01*
X133311186Y-56487634D01*
X133325892Y-56465126D01*
X133370683Y-56423892D01*
X133429701Y-56408947D01*
X133488718Y-56423892D01*
X133533508Y-56465123D01*
X133591021Y-56553153D01*
X133748216Y-56723913D01*
X133931374Y-56866470D01*
X133973355Y-56889189D01*
X134009518Y-56908760D01*
X134057023Y-56954341D01*
X134074500Y-57017814D01*
X134074500Y-69602186D01*
X134057023Y-69665659D01*
X134009518Y-69711240D01*
X133931377Y-69753528D01*
X133931375Y-69753529D01*
X133931374Y-69753530D01*
X133900387Y-69777648D01*
X133748215Y-69896087D01*
X133591018Y-70066849D01*
X133533808Y-70154417D01*
X133489017Y-70195650D01*
X133430000Y-70210595D01*
X133370983Y-70195650D01*
X133326192Y-70154417D01*
X133268981Y-70066849D01*
X133111784Y-69896087D01*
X132959613Y-69777648D01*
X132928626Y-69753530D01*
X132724503Y-69643064D01*
X132724499Y-69643062D01*
X132724498Y-69643062D01*
X132504984Y-69567702D01*
X132314456Y-69535909D01*
X132276049Y-69529500D01*
X132043951Y-69529500D01*
X132005544Y-69535909D01*
X131815015Y-69567702D01*
X131595501Y-69643062D01*
X131391372Y-69753531D01*
X131208213Y-69896089D01*
X131199863Y-69905160D01*
X131147239Y-69939012D01*
X131084785Y-69942859D01*
X131028405Y-69915720D01*
X130992455Y-69864509D01*
X130963796Y-69787669D01*
X130877546Y-69672454D01*
X130762331Y-69586204D01*
X130627483Y-69535909D01*
X130567873Y-69529500D01*
X130567869Y-69529500D01*
X129754451Y-69529500D01*
X129698156Y-69515985D01*
X129654133Y-69478385D01*
X129631978Y-69424898D01*
X129636520Y-69367182D01*
X129666770Y-69317819D01*
X130362771Y-68621819D01*
X130402999Y-68594939D01*
X130450452Y-68585500D01*
X131616253Y-68585500D01*
X131666688Y-68596220D01*
X131708401Y-68626526D01*
X131714129Y-68632888D01*
X131867270Y-68744151D01*
X131867271Y-68744151D01*
X131867272Y-68744152D01*
X132040197Y-68821144D01*
X132225352Y-68860500D01*
X132225354Y-68860500D01*
X132414646Y-68860500D01*
X132414648Y-68860500D01*
X132538084Y-68834262D01*
X132599803Y-68821144D01*
X132772730Y-68744151D01*
X132925871Y-68632888D01*
X133052533Y-68492216D01*
X133147179Y-68328284D01*
X133205674Y-68148256D01*
X133225460Y-67960000D01*
X133205674Y-67771744D01*
X133147179Y-67591716D01*
X133147179Y-67591715D01*
X133052533Y-67427783D01*
X132925870Y-67287110D01*
X132772730Y-67175848D01*
X132599802Y-67098855D01*
X132414648Y-67059500D01*
X132414646Y-67059500D01*
X132225354Y-67059500D01*
X132225352Y-67059500D01*
X132040197Y-67098855D01*
X131867272Y-67175847D01*
X131765175Y-67250024D01*
X131714129Y-67287112D01*
X131708401Y-67293473D01*
X131666688Y-67323780D01*
X131616253Y-67334500D01*
X130222744Y-67334500D01*
X130202236Y-67332235D01*
X130132113Y-67334439D01*
X130128219Y-67334500D01*
X130100650Y-67334500D01*
X130096671Y-67335002D01*
X130085041Y-67335917D01*
X130041372Y-67337289D01*
X130022128Y-67342880D01*
X130003084Y-67346824D01*
X129983208Y-67349335D01*
X129942600Y-67365413D01*
X129931554Y-67369194D01*
X129889610Y-67381382D01*
X129889607Y-67381383D01*
X129872365Y-67391579D01*
X129854904Y-67400133D01*
X129836267Y-67407512D01*
X129800931Y-67433185D01*
X129791174Y-67439595D01*
X129753580Y-67461829D01*
X129739413Y-67475996D01*
X129724624Y-67488626D01*
X129708413Y-67500404D01*
X129680572Y-67534058D01*
X129672711Y-67542697D01*
X126246208Y-70969199D01*
X126230110Y-70982096D01*
X126182096Y-71033225D01*
X126179391Y-71036017D01*
X126159874Y-71055534D01*
X126157415Y-71058705D01*
X126149842Y-71067572D01*
X126119935Y-71099420D01*
X126110285Y-71116974D01*
X126099609Y-71133228D01*
X126087326Y-71149063D01*
X126069975Y-71189158D01*
X126064838Y-71199644D01*
X126043802Y-71237907D01*
X126038821Y-71257309D01*
X126032520Y-71275711D01*
X126024561Y-71294102D01*
X126017728Y-71337242D01*
X126015360Y-71348674D01*
X126004500Y-71390978D01*
X126004500Y-71411016D01*
X126002973Y-71430415D01*
X125999840Y-71450194D01*
X126003950Y-71493675D01*
X126004500Y-71505344D01*
X126004500Y-75001313D01*
X125996264Y-75045751D01*
X125972652Y-75084282D01*
X125951260Y-75108041D01*
X125897464Y-75167786D01*
X125802820Y-75331715D01*
X125744326Y-75511742D01*
X125724540Y-75700000D01*
X119570000Y-75700000D01*
X119570000Y-55770000D01*
X120804422Y-55770000D01*
X120824700Y-56040595D01*
X120879609Y-56281163D01*
X120885084Y-56305151D01*
X120984222Y-56557749D01*
X121119900Y-56792751D01*
X121285792Y-57000773D01*
X121289088Y-57004906D01*
X121488003Y-57189473D01*
X121488006Y-57189475D01*
X121712212Y-57342336D01*
X121956695Y-57460073D01*
X122215996Y-57540057D01*
X122484322Y-57580500D01*
X122755678Y-57580500D01*
X123024004Y-57540057D01*
X123283305Y-57460073D01*
X123527789Y-57342336D01*
X123751994Y-57189475D01*
X123950912Y-57004906D01*
X124120100Y-56792751D01*
X124255778Y-56557749D01*
X124354916Y-56305151D01*
X124415299Y-56040598D01*
X124435577Y-55770000D01*
X124429582Y-55690000D01*
X128214699Y-55690000D01*
X128233865Y-55921299D01*
X128233865Y-55921301D01*
X128233866Y-55921305D01*
X128264824Y-56043553D01*
X128290844Y-56146303D01*
X128359736Y-56303359D01*
X128384076Y-56358849D01*
X128511021Y-56553153D01*
X128668216Y-56723913D01*
X128851374Y-56866470D01*
X129055497Y-56976936D01*
X129124932Y-57000773D01*
X129275015Y-57052297D01*
X129275017Y-57052297D01*
X129275019Y-57052298D01*
X129503951Y-57090500D01*
X129736048Y-57090500D01*
X129736049Y-57090500D01*
X129964981Y-57052298D01*
X130184503Y-56976936D01*
X130388626Y-56866470D01*
X130419614Y-56842351D01*
X131361199Y-56842351D01*
X131391650Y-56866051D01*
X131595700Y-56976477D01*
X131815140Y-57051811D01*
X132043993Y-57090000D01*
X132276007Y-57090000D01*
X132504859Y-57051811D01*
X132724296Y-56976478D01*
X132928353Y-56866048D01*
X132958798Y-56842351D01*
X132160000Y-56043553D01*
X131361199Y-56842351D01*
X130419614Y-56842351D01*
X130571784Y-56723913D01*
X130728979Y-56553153D01*
X130786491Y-56465124D01*
X130831280Y-56423892D01*
X130890298Y-56408947D01*
X130949316Y-56423892D01*
X130994107Y-56465126D01*
X131008812Y-56487633D01*
X131806447Y-55690001D01*
X131806447Y-55690000D01*
X131008812Y-54892365D01*
X130994107Y-54914873D01*
X130949316Y-54956107D01*
X130890298Y-54971052D01*
X130831281Y-54956107D01*
X130786489Y-54914873D01*
X130771783Y-54892364D01*
X130728979Y-54826847D01*
X130571784Y-54656087D01*
X130419612Y-54537647D01*
X131361200Y-54537647D01*
X132160000Y-55336447D01*
X132160001Y-55336447D01*
X132958799Y-54537648D01*
X132958799Y-54537647D01*
X132928349Y-54513948D01*
X132724299Y-54403522D01*
X132504859Y-54328188D01*
X132276007Y-54290000D01*
X132043993Y-54290000D01*
X131815140Y-54328188D01*
X131595703Y-54403521D01*
X131391645Y-54513952D01*
X131361200Y-54537646D01*
X131361200Y-54537647D01*
X130419612Y-54537647D01*
X130388626Y-54513530D01*
X130184503Y-54403064D01*
X130184499Y-54403062D01*
X130184498Y-54403062D01*
X129964984Y-54327702D01*
X129793281Y-54299050D01*
X129736049Y-54289500D01*
X129503951Y-54289500D01*
X129458164Y-54297140D01*
X129275015Y-54327702D01*
X129055501Y-54403062D01*
X128851372Y-54513531D01*
X128668215Y-54656087D01*
X128511020Y-54826848D01*
X128384076Y-55021150D01*
X128290844Y-55233696D01*
X128233865Y-55458700D01*
X128214699Y-55690000D01*
X124429582Y-55690000D01*
X124415299Y-55499402D01*
X124354916Y-55234849D01*
X124255778Y-54982251D01*
X124120100Y-54747249D01*
X123950912Y-54535094D01*
X123950911Y-54535093D01*
X123751996Y-54350526D01*
X123535508Y-54202927D01*
X123527789Y-54197664D01*
X123527786Y-54197663D01*
X123527784Y-54197661D01*
X123283307Y-54079927D01*
X123024003Y-53999942D01*
X122755678Y-53959500D01*
X122484322Y-53959500D01*
X122215996Y-53999942D01*
X121956695Y-54079926D01*
X121956695Y-54079927D01*
X121712212Y-54197664D01*
X121704493Y-54202927D01*
X121488003Y-54350526D01*
X121289088Y-54535093D01*
X121119899Y-54747250D01*
X120984222Y-54982250D01*
X120885084Y-55234848D01*
X120824700Y-55499404D01*
X120804422Y-55770000D01*
X119570000Y-55770000D01*
X119570000Y-52564000D01*
X119586613Y-52502000D01*
X119632000Y-52456613D01*
X119694000Y-52440000D01*
X186996000Y-52440000D01*
X187058000Y-52456613D01*
G37*
G04 #@! TD.AperFunction*
M02*
