M48
; DRILL file {KiCad 7.0.1} date Fri Aug 25 11:55:42 2023
; FORMAT={-:-/ absolute / metric / decimal}
; #@! TF.CreationDate,2023-08-25T11:55:42+10:00
; #@! TF.GenerationSoftware,Kicad,Pcbnew,7.0.1
; #@! TF.FileFunction,Plated,1,2,PTH
FMAT,2
METRIC
; #@! TA.AperFunction,Plated,PTH,ComponentDrill
T1C0.200
; #@! TA.AperFunction,Plated,PTH,ViaDrill
T2C0.400
; #@! TA.AperFunction,Plated,PTH,ComponentDrill
T3C0.750
; #@! TA.AperFunction,Plated,PTH,ComponentDrill
T4C0.900
; #@! TA.AperFunction,Plated,PTH,ComponentDrill
T5C0.920
; #@! TA.AperFunction,Plated,PTH,ComponentDrill
T6C1.700
; #@! TA.AperFunction,Plated,PTH,ComponentDrill
T7C2.300
%
G90
G05
T1
X143.915Y-93.125
X143.915Y-94.125
X144.905Y-93.125
X144.905Y-94.125
X159.58Y-93.21
X159.58Y-94.21
X160.57Y-93.21
X160.57Y-94.21
T2
X126.63Y-75.7
X127.91Y-90.31
X131.8Y-97.94
X132.32Y-67.96
X133.66Y-85.6
X135.38Y-80.5
X135.43Y-93.5
X137.16Y-87.99
X138.865Y-93.385
X139.016Y-95.346
X139.37Y-74.69
X141.48Y-90.75
X142.57Y-88.81
X143.0Y-83.13
X143.63Y-90.985
X143.9Y-78.64
X145.695Y-83.3
X146.42Y-84.87
X146.82Y-92.0
X146.94Y-93.16
X147.12Y-90.41
X150.28Y-75.62
X150.31Y-62.26
X151.87Y-96.81
X152.84Y-83.03
X156.05Y-84.39
X156.09Y-79.0
X156.63Y-93.1
X156.65Y-94.6
X158.24Y-90.71
X158.53Y-85.74
X158.87Y-89.81
X160.1Y-75.28
X161.41Y-90.93
X162.19Y-91.88
X162.54Y-75.54
X163.9Y-98.49
X168.25Y-85.54
X170.78Y-76.53
T3
X124.86Y-105.45
X126.86Y-105.45
X134.77Y-105.37
X136.77Y-105.37
X138.77Y-105.37
X140.77Y-105.37
X147.64Y-105.27
X149.64Y-105.27
X151.64Y-105.27
X153.64Y-105.27
X160.18Y-105.29
X162.18Y-105.29
X164.18Y-105.29
X166.18Y-105.29
T4
X129.62Y-55.69
X129.62Y-70.93
X132.16Y-55.69
X132.16Y-70.93
X134.7Y-55.69
X134.7Y-70.93
X137.24Y-55.69
X137.24Y-70.93
X139.78Y-55.69
X139.78Y-70.93
X142.32Y-55.69
X142.32Y-70.93
X144.86Y-55.69
X144.86Y-70.93
X147.4Y-55.69
X147.4Y-70.93
X149.94Y-55.69
X149.94Y-70.93
X152.48Y-55.69
X152.48Y-70.93
X155.02Y-55.69
X155.02Y-70.93
X157.56Y-55.69
X157.56Y-70.93
X160.1Y-55.69
X160.1Y-70.93
X162.64Y-55.69
X162.64Y-70.93
X165.18Y-55.69
X165.18Y-70.93
T5
X173.58Y-81.91
X173.58Y-84.41
X173.58Y-86.41
X173.58Y-88.91
T6
X172.48Y-96.645
X176.44Y-96.645
T7
X176.29Y-78.84
X176.29Y-91.98
T0
M30
