G04 #@! TF.GenerationSoftware,KiCad,Pcbnew,7.0.1*
G04 #@! TF.CreationDate,2023-08-25T11:55:28+10:00*
G04 #@! TF.ProjectId,Firetruck,46697265-7472-4756-936b-2e6b69636164,rev?*
G04 #@! TF.SameCoordinates,Original*
G04 #@! TF.FileFunction,Copper,L1,Top*
G04 #@! TF.FilePolarity,Positive*
%FSLAX46Y46*%
G04 Gerber Fmt 4.6, Leading zero omitted, Abs format (unit mm)*
G04 Created by KiCad (PCBNEW 7.0.1) date 2023-08-25 11:55:28*
%MOMM*%
%LPD*%
G01*
G04 APERTURE LIST*
G04 Aperture macros list*
%AMRoundRect*
0 Rectangle with rounded corners*
0 $1 Rounding radius*
0 $2 $3 $4 $5 $6 $7 $8 $9 X,Y pos of 4 corners*
0 Add a 4 corners polygon primitive as box body*
4,1,4,$2,$3,$4,$5,$6,$7,$8,$9,$2,$3,0*
0 Add four circle primitives for the rounded corners*
1,1,$1+$1,$2,$3*
1,1,$1+$1,$4,$5*
1,1,$1+$1,$6,$7*
1,1,$1+$1,$8,$9*
0 Add four rect primitives between the rounded corners*
20,1,$1+$1,$2,$3,$4,$5,0*
20,1,$1+$1,$4,$5,$6,$7,0*
20,1,$1+$1,$6,$7,$8,$9,0*
20,1,$1+$1,$8,$9,$2,$3,0*%
G04 Aperture macros list end*
G04 #@! TA.AperFunction,SMDPad,CuDef*
%ADD10RoundRect,0.200000X-0.275000X0.200000X-0.275000X-0.200000X0.275000X-0.200000X0.275000X0.200000X0*%
G04 #@! TD*
G04 #@! TA.AperFunction,SMDPad,CuDef*
%ADD11RoundRect,0.225000X0.225000X0.250000X-0.225000X0.250000X-0.225000X-0.250000X0.225000X-0.250000X0*%
G04 #@! TD*
G04 #@! TA.AperFunction,SMDPad,CuDef*
%ADD12RoundRect,0.250000X1.075000X-0.375000X1.075000X0.375000X-1.075000X0.375000X-1.075000X-0.375000X0*%
G04 #@! TD*
G04 #@! TA.AperFunction,ComponentPad*
%ADD13RoundRect,0.250001X-1.099999X-1.099999X1.099999X-1.099999X1.099999X1.099999X-1.099999X1.099999X0*%
G04 #@! TD*
G04 #@! TA.AperFunction,ComponentPad*
%ADD14C,2.700000*%
G04 #@! TD*
G04 #@! TA.AperFunction,SMDPad,CuDef*
%ADD15RoundRect,0.200000X-0.200000X-0.275000X0.200000X-0.275000X0.200000X0.275000X-0.200000X0.275000X0*%
G04 #@! TD*
G04 #@! TA.AperFunction,SMDPad,CuDef*
%ADD16RoundRect,0.225000X0.250000X-0.225000X0.250000X0.225000X-0.250000X0.225000X-0.250000X-0.225000X0*%
G04 #@! TD*
G04 #@! TA.AperFunction,ComponentPad*
%ADD17RoundRect,0.250000X-0.350000X-0.625000X0.350000X-0.625000X0.350000X0.625000X-0.350000X0.625000X0*%
G04 #@! TD*
G04 #@! TA.AperFunction,ComponentPad*
%ADD18O,1.200000X1.750000*%
G04 #@! TD*
G04 #@! TA.AperFunction,SMDPad,CuDef*
%ADD19RoundRect,0.225000X-0.250000X0.225000X-0.250000X-0.225000X0.250000X-0.225000X0.250000X0.225000X0*%
G04 #@! TD*
G04 #@! TA.AperFunction,SMDPad,CuDef*
%ADD20RoundRect,0.250000X0.475000X-0.250000X0.475000X0.250000X-0.475000X0.250000X-0.475000X-0.250000X0*%
G04 #@! TD*
G04 #@! TA.AperFunction,ComponentPad*
%ADD21R,1.800000X1.800000*%
G04 #@! TD*
G04 #@! TA.AperFunction,ComponentPad*
%ADD22C,1.800000*%
G04 #@! TD*
G04 #@! TA.AperFunction,SMDPad,CuDef*
%ADD23RoundRect,0.200000X0.200000X0.275000X-0.200000X0.275000X-0.200000X-0.275000X0.200000X-0.275000X0*%
G04 #@! TD*
G04 #@! TA.AperFunction,ComponentPad*
%ADD24C,3.400000*%
G04 #@! TD*
G04 #@! TA.AperFunction,ComponentPad*
%ADD25C,1.500000*%
G04 #@! TD*
G04 #@! TA.AperFunction,SMDPad,CuDef*
%ADD26RoundRect,0.250000X-0.475000X0.250000X-0.475000X-0.250000X0.475000X-0.250000X0.475000X0.250000X0*%
G04 #@! TD*
G04 #@! TA.AperFunction,SMDPad,CuDef*
%ADD27RoundRect,0.250000X-0.250000X-0.475000X0.250000X-0.475000X0.250000X0.475000X-0.250000X0.475000X0*%
G04 #@! TD*
G04 #@! TA.AperFunction,SMDPad,CuDef*
%ADD28R,0.300000X0.800000*%
G04 #@! TD*
G04 #@! TA.AperFunction,SMDPad,CuDef*
%ADD29R,0.800000X0.300000*%
G04 #@! TD*
G04 #@! TA.AperFunction,ComponentPad*
%ADD30C,0.500000*%
G04 #@! TD*
G04 #@! TA.AperFunction,SMDPad,CuDef*
%ADD31R,1.750000X1.750000*%
G04 #@! TD*
G04 #@! TA.AperFunction,HeatsinkPad*
%ADD32C,0.500000*%
G04 #@! TD*
G04 #@! TA.AperFunction,SMDPad,CuDef*
%ADD33RoundRect,0.225000X-0.225000X-0.375000X0.225000X-0.375000X0.225000X0.375000X-0.225000X0.375000X0*%
G04 #@! TD*
G04 #@! TA.AperFunction,SMDPad,CuDef*
%ADD34RoundRect,0.200000X0.275000X-0.200000X0.275000X0.200000X-0.275000X0.200000X-0.275000X-0.200000X0*%
G04 #@! TD*
G04 #@! TA.AperFunction,SMDPad,CuDef*
%ADD35R,1.500000X0.450000*%
G04 #@! TD*
G04 #@! TA.AperFunction,SMDPad,CuDef*
%ADD36RoundRect,0.218750X0.256250X-0.218750X0.256250X0.218750X-0.256250X0.218750X-0.256250X-0.218750X0*%
G04 #@! TD*
G04 #@! TA.AperFunction,SMDPad,CuDef*
%ADD37R,2.000000X1.500000*%
G04 #@! TD*
G04 #@! TA.AperFunction,SMDPad,CuDef*
%ADD38R,2.000000X3.800000*%
G04 #@! TD*
G04 #@! TA.AperFunction,SMDPad,CuDef*
%ADD39RoundRect,0.225000X-0.225000X-0.250000X0.225000X-0.250000X0.225000X0.250000X-0.225000X0.250000X0*%
G04 #@! TD*
G04 #@! TA.AperFunction,SMDPad,CuDef*
%ADD40RoundRect,0.250000X0.850000X0.350000X-0.850000X0.350000X-0.850000X-0.350000X0.850000X-0.350000X0*%
G04 #@! TD*
G04 #@! TA.AperFunction,SMDPad,CuDef*
%ADD41RoundRect,0.250000X1.275000X1.125000X-1.275000X1.125000X-1.275000X-1.125000X1.275000X-1.125000X0*%
G04 #@! TD*
G04 #@! TA.AperFunction,SMDPad,CuDef*
%ADD42RoundRect,0.249997X2.950003X2.650003X-2.950003X2.650003X-2.950003X-2.650003X2.950003X-2.650003X0*%
G04 #@! TD*
G04 #@! TA.AperFunction,ViaPad*
%ADD43C,0.800000*%
G04 #@! TD*
G04 #@! TA.AperFunction,Conductor*
%ADD44C,0.250000*%
G04 #@! TD*
G04 #@! TA.AperFunction,Conductor*
%ADD45C,0.300000*%
G04 #@! TD*
G04 #@! TA.AperFunction,Conductor*
%ADD46C,1.500000*%
G04 #@! TD*
G04 #@! TA.AperFunction,Conductor*
%ADD47C,1.000000*%
G04 #@! TD*
G04 #@! TA.AperFunction,Conductor*
%ADD48C,0.800000*%
G04 #@! TD*
G04 #@! TA.AperFunction,Conductor*
%ADD49C,2.000000*%
G04 #@! TD*
G04 #@! TA.AperFunction,Conductor*
%ADD50C,1.400000*%
G04 #@! TD*
G04 APERTURE END LIST*
D10*
X148350000Y-89970000D03*
X148350000Y-91620000D03*
D11*
X149185000Y-86680000D03*
X147635000Y-86680000D03*
D12*
X164120000Y-89120000D03*
X164120000Y-86320000D03*
D13*
X172480000Y-96645000D03*
D14*
X176440000Y-96645000D03*
D15*
X154575000Y-67650000D03*
X156225000Y-67650000D03*
D16*
X134170000Y-81840000D03*
X134170000Y-80290000D03*
D17*
X124860000Y-105450000D03*
D18*
X126860000Y-105450000D03*
D19*
X149290000Y-76665000D03*
X149290000Y-78215000D03*
D20*
X157640000Y-77970000D03*
X157640000Y-76070000D03*
D21*
X129620000Y-70930000D03*
D22*
X132160000Y-70930000D03*
X134700000Y-70930000D03*
X137240000Y-70930000D03*
X139780000Y-70930000D03*
X142320000Y-70930000D03*
X144860000Y-70930000D03*
X147400000Y-70930000D03*
X149940000Y-70930000D03*
X152480000Y-70930000D03*
X155020000Y-70930000D03*
X157560000Y-70930000D03*
X160100000Y-70930000D03*
X162640000Y-70930000D03*
X165180000Y-70930000D03*
X165180000Y-55690000D03*
X162640000Y-55690000D03*
X160100000Y-55690000D03*
X157560000Y-55690000D03*
X155020000Y-55690000D03*
X152480000Y-55690000D03*
X149940000Y-55690000D03*
X147400000Y-55690000D03*
X144860000Y-55690000D03*
X142320000Y-55690000D03*
X139780000Y-55690000D03*
X137240000Y-55690000D03*
X134700000Y-55690000D03*
X132160000Y-55690000D03*
X129620000Y-55690000D03*
D23*
X154945000Y-93350000D03*
X153295000Y-93350000D03*
X153010000Y-89050000D03*
X151360000Y-89050000D03*
D16*
X154990000Y-77920000D03*
X154990000Y-76370000D03*
D24*
X176290000Y-78840000D03*
X176290000Y-91980000D03*
D25*
X173580000Y-81910000D03*
X173580000Y-84410000D03*
X173580000Y-86410000D03*
X173580000Y-88910000D03*
D26*
X134220000Y-76480000D03*
X134220000Y-78380000D03*
D27*
X143820000Y-86740000D03*
X145720000Y-86740000D03*
D26*
X140980000Y-86945000D03*
X140980000Y-88845000D03*
D15*
X129350000Y-88200000D03*
X131000000Y-88200000D03*
D16*
X155120000Y-81740000D03*
X155120000Y-80190000D03*
D28*
X143655000Y-95135000D03*
X144155000Y-95135000D03*
X144655000Y-95135000D03*
X145155000Y-95135000D03*
D29*
X145905000Y-94385000D03*
X145905000Y-93885000D03*
X145905000Y-93385000D03*
X145905000Y-92885000D03*
D28*
X145155000Y-92135000D03*
X144655000Y-92135000D03*
X144155000Y-92135000D03*
X143655000Y-92135000D03*
D29*
X142905000Y-92885000D03*
X142905000Y-93385000D03*
X142905000Y-93885000D03*
X142905000Y-94385000D03*
D30*
X143915000Y-94125000D03*
X144905000Y-94125000D03*
D31*
X144405000Y-93635000D03*
D32*
X143915000Y-93125000D03*
D30*
X144905000Y-93125000D03*
D20*
X168570000Y-88810000D03*
X168570000Y-86910000D03*
D11*
X135330000Y-88280000D03*
X133780000Y-88280000D03*
D16*
X170420000Y-92150000D03*
X170420000Y-90600000D03*
D23*
X140265000Y-90740000D03*
X138615000Y-90740000D03*
D33*
X124490000Y-101110000D03*
X127790000Y-101110000D03*
D34*
X164530000Y-96575000D03*
X164530000Y-94925000D03*
D11*
X153130000Y-86670000D03*
X151580000Y-86670000D03*
D19*
X138220000Y-86900000D03*
X138220000Y-88450000D03*
D17*
X134770000Y-105370000D03*
D18*
X136770000Y-105370000D03*
X138770000Y-105370000D03*
X140770000Y-105370000D03*
D27*
X155080000Y-86690000D03*
X156980000Y-86690000D03*
D35*
X133000000Y-96170000D03*
X133000000Y-94870000D03*
X130340000Y-95520000D03*
D17*
X147640000Y-105270000D03*
D18*
X149640000Y-105270000D03*
X151640000Y-105270000D03*
X153640000Y-105270000D03*
D15*
X155090000Y-90620000D03*
X156740000Y-90620000D03*
D36*
X129940000Y-81947500D03*
X129940000Y-80372500D03*
D17*
X160180000Y-105290000D03*
D18*
X162180000Y-105290000D03*
X164180000Y-105290000D03*
X166180000Y-105290000D03*
D37*
X162340000Y-77330000D03*
X162340000Y-79630000D03*
D38*
X168640000Y-79630000D03*
D37*
X162340000Y-81930000D03*
D16*
X157630000Y-81740000D03*
X157630000Y-80190000D03*
D39*
X139440000Y-84100000D03*
X140990000Y-84100000D03*
D40*
X145960000Y-81800000D03*
D41*
X141335000Y-81045000D03*
X141335000Y-77995000D03*
D42*
X139660000Y-79520000D03*
D41*
X137985000Y-81045000D03*
X137985000Y-77995000D03*
D40*
X145960000Y-77240000D03*
D28*
X159320000Y-95220000D03*
X159820000Y-95220000D03*
X160320000Y-95220000D03*
X160820000Y-95220000D03*
D29*
X161570000Y-94470000D03*
X161570000Y-93970000D03*
X161570000Y-93470000D03*
X161570000Y-92970000D03*
D28*
X160820000Y-92220000D03*
X160320000Y-92220000D03*
X159820000Y-92220000D03*
X159320000Y-92220000D03*
D29*
X158570000Y-92970000D03*
X158570000Y-93470000D03*
X158570000Y-93970000D03*
X158570000Y-94470000D03*
D30*
X159580000Y-94210000D03*
X160570000Y-94210000D03*
D31*
X160070000Y-93720000D03*
D30*
X159580000Y-93210000D03*
X160570000Y-93210000D03*
D10*
X129880000Y-76650000D03*
X129880000Y-78300000D03*
D39*
X135500000Y-84100000D03*
X137050000Y-84100000D03*
D43*
X137160000Y-87990000D03*
X162540000Y-75540000D03*
X135430000Y-93500000D03*
X135380000Y-80500000D03*
X146420000Y-84870000D03*
X133660000Y-85600000D03*
X158870000Y-89810000D03*
X168250000Y-85540000D03*
X158530000Y-85740000D03*
X150280000Y-75620000D03*
X156090000Y-79000000D03*
X139015759Y-95345759D03*
X147120000Y-90410000D03*
X150310000Y-62260000D03*
X143900000Y-78640000D03*
X163900000Y-98490000D03*
X151870000Y-96810000D03*
X158240000Y-90710000D03*
X161410000Y-90930000D03*
X141480000Y-90750000D03*
X143629500Y-90985205D03*
X138865000Y-93385000D03*
X139370000Y-74690000D03*
X162190000Y-91880000D03*
X142570000Y-88810000D03*
X145695500Y-83300000D03*
X143000000Y-83130000D03*
X132320000Y-67960000D03*
X127910000Y-90310000D03*
X126630000Y-75700000D03*
X131800000Y-97940000D03*
X170780000Y-76530000D03*
X152840000Y-83030000D03*
X146940000Y-93160500D03*
X156050000Y-84390000D03*
X156650000Y-94600000D03*
X156630000Y-93100000D03*
X146820000Y-92000000D03*
X160100000Y-75280000D03*
D44*
X137620000Y-88450000D02*
X137160000Y-87990000D01*
X138220000Y-88450000D02*
X137620000Y-88450000D01*
X137850000Y-84900000D02*
X140190000Y-84900000D01*
X167255000Y-96255000D02*
X164470000Y-93470000D01*
X167255000Y-106955000D02*
X167255000Y-96255000D01*
X164470000Y-93470000D02*
X161570000Y-93470000D01*
X163060000Y-111150000D02*
X167255000Y-106955000D01*
X162075000Y-76005000D02*
X159155000Y-76005000D01*
X162540000Y-75540000D02*
X162075000Y-76005000D01*
X129880000Y-80312500D02*
X129940000Y-80372500D01*
X129880000Y-78300000D02*
X129880000Y-80312500D01*
X138220000Y-88450000D02*
X140585000Y-88450000D01*
X168570000Y-86910000D02*
X168570000Y-85860000D01*
X143655000Y-95135000D02*
X143655000Y-94385000D01*
X131000000Y-88200000D02*
X133700000Y-88200000D01*
D45*
X159820000Y-91470000D02*
X159380000Y-91030000D01*
D44*
X144155000Y-92135000D02*
X144155000Y-93385000D01*
X159320000Y-94470000D02*
X160070000Y-93720000D01*
X143080000Y-84100000D02*
X145720000Y-86740000D01*
X154190000Y-79260000D02*
X154190000Y-77170000D01*
X155090000Y-90620000D02*
X155890000Y-89820000D01*
X168570000Y-85860000D02*
X168250000Y-85540000D01*
X134220000Y-80240000D02*
X134170000Y-80290000D01*
X134220000Y-78380000D02*
X134220000Y-80240000D01*
X144155000Y-93385000D02*
X144405000Y-93635000D01*
D46*
X133000000Y-94870000D02*
X134060000Y-94870000D01*
D44*
X145155000Y-95135000D02*
X145155000Y-94385000D01*
X137050000Y-84100000D02*
X137850000Y-84900000D01*
X145960000Y-81545000D02*
X149290000Y-78215000D01*
X129940000Y-81947500D02*
X132512500Y-81947500D01*
X170420000Y-88760000D02*
X168570000Y-86910000D01*
X157580000Y-86690000D02*
X158530000Y-85740000D01*
X153520000Y-89050000D02*
X153010000Y-89050000D01*
X140585000Y-88450000D02*
X140980000Y-88845000D01*
X135550000Y-85600000D02*
X137050000Y-84100000D01*
X145720000Y-86740000D02*
X145720000Y-85570000D01*
X159820000Y-93470000D02*
X160070000Y-93720000D01*
X153295000Y-92415000D02*
X155090000Y-90620000D01*
X159320000Y-95220000D02*
X159320000Y-94470000D01*
X153010000Y-89050000D02*
X151580000Y-87620000D01*
X149290000Y-78215000D02*
X151135000Y-76370000D01*
X134170000Y-80290000D02*
X135170000Y-80290000D01*
X138615000Y-90740000D02*
X138615000Y-88845000D01*
X158860000Y-89820000D02*
X158870000Y-89810000D01*
X155090000Y-90620000D02*
X153520000Y-89050000D01*
X133660000Y-85600000D02*
X135550000Y-85600000D01*
X153295000Y-93350000D02*
X153295000Y-92415000D01*
X138615000Y-88845000D02*
X138220000Y-88450000D01*
X162340000Y-77330000D02*
X158900000Y-77330000D01*
X155120000Y-80190000D02*
X154190000Y-79260000D01*
D45*
X159380000Y-91030000D02*
X159380000Y-90320000D01*
D44*
X147635000Y-83475000D02*
X145960000Y-81800000D01*
X145960000Y-81800000D02*
X145960000Y-81545000D01*
X156980000Y-86690000D02*
X157580000Y-86690000D01*
X154190000Y-77170000D02*
X154990000Y-76370000D01*
X155290000Y-76070000D02*
X154990000Y-76370000D01*
X133700000Y-88200000D02*
X133780000Y-88280000D01*
X160820000Y-95220000D02*
X160820000Y-94470000D01*
X145720000Y-85570000D02*
X146420000Y-84870000D01*
X170420000Y-90600000D02*
X170420000Y-88760000D01*
X155120000Y-80190000D02*
X157630000Y-80190000D01*
X135170000Y-80290000D02*
X135380000Y-80500000D01*
X146420000Y-82260000D02*
X145960000Y-81800000D01*
X160820000Y-94470000D02*
X160070000Y-93720000D01*
X133780000Y-85720000D02*
X133660000Y-85600000D01*
X151135000Y-76370000D02*
X154990000Y-76370000D01*
X151580000Y-87620000D02*
X151580000Y-86670000D01*
X157640000Y-76070000D02*
X155290000Y-76070000D01*
X155890000Y-89820000D02*
X158860000Y-89820000D01*
X133780000Y-88280000D02*
X133780000Y-85720000D01*
X145155000Y-94385000D02*
X144405000Y-93635000D01*
X140990000Y-84100000D02*
X143080000Y-84100000D01*
X158900000Y-77330000D02*
X157640000Y-76070000D01*
X143655000Y-94385000D02*
X144405000Y-93635000D01*
X132512500Y-81947500D02*
X134170000Y-80290000D01*
X147635000Y-86680000D02*
X147635000Y-83475000D01*
X140190000Y-84900000D02*
X140990000Y-84100000D01*
D46*
X134060000Y-94870000D02*
X135430000Y-93500000D01*
D44*
X159820000Y-92220000D02*
X159820000Y-93470000D01*
X146420000Y-84870000D02*
X146420000Y-82260000D01*
D45*
X159380000Y-90320000D02*
X158870000Y-89810000D01*
X159820000Y-92220000D02*
X159820000Y-91470000D01*
D47*
X173580000Y-88910000D02*
X168640000Y-83970000D01*
X168640000Y-83970000D02*
X168640000Y-79630000D01*
D44*
X156610000Y-79000000D02*
X157640000Y-77970000D01*
X148715000Y-77240000D02*
X149290000Y-76665000D01*
X129880000Y-76650000D02*
X126340000Y-73110000D01*
X130845000Y-54465000D02*
X136015000Y-54465000D01*
X155040000Y-77970000D02*
X154990000Y-77920000D01*
X156090000Y-79000000D02*
X156610000Y-79000000D01*
X159300000Y-79630000D02*
X157640000Y-77970000D01*
X162340000Y-79630000D02*
X159300000Y-79630000D01*
X144375000Y-75655000D02*
X145960000Y-77240000D01*
X136015000Y-54465000D02*
X137240000Y-55690000D01*
X149290000Y-76665000D02*
X149290000Y-76610000D01*
X157630000Y-81740000D02*
X159740000Y-79630000D01*
X126340000Y-73110000D02*
X126340000Y-58970000D01*
X145960000Y-77240000D02*
X148715000Y-77240000D01*
X149290000Y-76610000D02*
X150280000Y-75620000D01*
X130875000Y-75655000D02*
X144375000Y-75655000D01*
X129620000Y-55690000D02*
X130845000Y-54465000D01*
D47*
X162340000Y-79630000D02*
X168640000Y-79630000D01*
D44*
X159740000Y-79630000D02*
X162340000Y-79630000D01*
X157640000Y-77970000D02*
X155040000Y-77970000D01*
X126340000Y-58970000D02*
X129620000Y-55690000D01*
X129880000Y-76650000D02*
X130875000Y-75655000D01*
X155120000Y-81740000D02*
X157630000Y-81740000D01*
X155465305Y-96810000D02*
X151870000Y-96810000D01*
X148350000Y-89970000D02*
X147560000Y-89970000D01*
X136470000Y-76480000D02*
X137985000Y-77995000D01*
X141980000Y-78640000D02*
X141335000Y-77995000D01*
X142905000Y-93885000D02*
X140476518Y-93885000D01*
X156070000Y-62260000D02*
X150310000Y-62260000D01*
X143900000Y-78640000D02*
X141980000Y-78640000D01*
X163900000Y-98490000D02*
X164530000Y-97860000D01*
X135500000Y-84100000D02*
X137985000Y-81615000D01*
X158570000Y-93970000D02*
X157960000Y-93970000D01*
X164530000Y-97860000D02*
X164530000Y-96575000D01*
X147560000Y-89970000D02*
X147120000Y-90410000D01*
X139440000Y-84100000D02*
X139440000Y-82500000D01*
X137985000Y-81615000D02*
X137985000Y-81045000D01*
X148350000Y-89970000D02*
X151830000Y-93450000D01*
X134220000Y-76480000D02*
X136470000Y-76480000D01*
X157750000Y-94525305D02*
X155465305Y-96810000D01*
X139440000Y-82500000D02*
X137985000Y-81045000D01*
X162640000Y-55690000D02*
X156070000Y-62260000D01*
X137190000Y-81840000D02*
X137985000Y-81045000D01*
X157750000Y-94180000D02*
X157750000Y-94525305D01*
X134170000Y-81840000D02*
X137190000Y-81840000D01*
X157960000Y-93970000D02*
X157750000Y-94180000D01*
X151870000Y-93490000D02*
X151830000Y-93450000D01*
X140476518Y-93885000D02*
X139015759Y-95345759D01*
X151870000Y-96810000D02*
X151870000Y-93490000D01*
X136710000Y-86900000D02*
X138220000Y-86900000D01*
X166610000Y-88810000D02*
X164120000Y-86320000D01*
D46*
X124490000Y-96265000D02*
X128325000Y-92430000D01*
D48*
X144745000Y-88105000D02*
X147851726Y-88105000D01*
X161170000Y-88810000D02*
X156238812Y-88810000D01*
X153130000Y-86670000D02*
X155060000Y-86670000D01*
X156238812Y-88810000D02*
X155080000Y-87651188D01*
X155060000Y-86670000D02*
X155080000Y-86690000D01*
D44*
X140935000Y-86900000D02*
X140980000Y-86945000D01*
D48*
X149185000Y-86680000D02*
X150270000Y-85595000D01*
D44*
X144870000Y-87790000D02*
X144630000Y-87550000D01*
D45*
X144655000Y-90025000D02*
X144630000Y-90000000D01*
D46*
X124490000Y-101110000D02*
X124490000Y-96265000D01*
D48*
X155080000Y-87651188D02*
X155080000Y-86690000D01*
X144630000Y-88220000D02*
X144630000Y-90000000D01*
D46*
X124490000Y-105080000D02*
X124490000Y-101110000D01*
D48*
X161400000Y-89040000D02*
X164120000Y-86320000D01*
X149185000Y-86771726D02*
X149185000Y-86680000D01*
D44*
X168570000Y-88810000D02*
X166610000Y-88810000D01*
D45*
X160320000Y-92220000D02*
X160320000Y-90120000D01*
D44*
X138220000Y-86900000D02*
X140935000Y-86900000D01*
D48*
X144630000Y-88220000D02*
X144745000Y-88105000D01*
X161400000Y-89040000D02*
X161170000Y-88810000D01*
X144630000Y-87550000D02*
X144630000Y-88220000D01*
X152146726Y-85595000D02*
X153130000Y-86578274D01*
D46*
X128325000Y-92430000D02*
X133150000Y-92430000D01*
D45*
X144655000Y-92135000D02*
X144655000Y-90025000D01*
D47*
X160320000Y-90120000D02*
X161400000Y-89040000D01*
D44*
X143615000Y-86945000D02*
X143820000Y-86740000D01*
X135330000Y-88280000D02*
X136710000Y-86900000D01*
D46*
X124860000Y-105450000D02*
X124490000Y-105080000D01*
D49*
X162340000Y-84540000D02*
X164120000Y-86320000D01*
X162340000Y-81930000D02*
X162340000Y-84540000D01*
D46*
X135330000Y-90250000D02*
X135330000Y-88280000D01*
D44*
X140980000Y-86945000D02*
X143615000Y-86945000D01*
D48*
X143820000Y-86740000D02*
X144630000Y-87550000D01*
X150270000Y-85595000D02*
X152146726Y-85595000D01*
X147851726Y-88105000D02*
X149185000Y-86771726D01*
D46*
X133150000Y-92430000D02*
X135330000Y-90250000D01*
X171645000Y-96645000D02*
X172480000Y-96645000D01*
D44*
X172480000Y-94210000D02*
X172480000Y-96645000D01*
X170420000Y-92150000D02*
X172480000Y-94210000D01*
D46*
X164120000Y-89120000D02*
X171645000Y-96645000D01*
D45*
X144155000Y-95795000D02*
X142975000Y-96975000D01*
D50*
X136770000Y-105370000D02*
X138770000Y-105370000D01*
X136770000Y-103180000D02*
X136770000Y-105370000D01*
X142975000Y-96975000D02*
X136770000Y-103180000D01*
D45*
X144155000Y-95135000D02*
X144155000Y-95795000D01*
D44*
X145905000Y-93885000D02*
X148665000Y-93885000D01*
X148665000Y-93885000D02*
X148960000Y-93590000D01*
X148960000Y-92230000D02*
X148350000Y-91620000D01*
X148960000Y-93590000D02*
X148960000Y-92230000D01*
X161570000Y-93970000D02*
X163575000Y-93970000D01*
X163575000Y-93970000D02*
X164530000Y-94925000D01*
X156075000Y-92220000D02*
X159320000Y-92220000D01*
X154945000Y-93350000D02*
X156075000Y-92220000D01*
X156740000Y-90620000D02*
X158150000Y-90620000D01*
X161410000Y-91630000D02*
X160820000Y-92220000D01*
X161410000Y-90930000D02*
X161410000Y-91630000D01*
X158150000Y-90620000D02*
X158240000Y-90710000D01*
X145830000Y-91460000D02*
X145830000Y-90070000D01*
X145830000Y-90070000D02*
X147070000Y-88830000D01*
X145155000Y-92135000D02*
X145830000Y-91460000D01*
X151140000Y-88830000D02*
X151360000Y-89050000D01*
X147070000Y-88830000D02*
X151140000Y-88830000D01*
X143655000Y-91010705D02*
X143629500Y-90985205D01*
X143655000Y-92135000D02*
X143655000Y-91010705D01*
X141480000Y-90750000D02*
X140275000Y-90750000D01*
X140275000Y-90750000D02*
X140265000Y-90740000D01*
X132025000Y-100225000D02*
X138865000Y-93385000D01*
X139370000Y-73880000D02*
X139370000Y-74690000D01*
X163060000Y-111150000D02*
X134050000Y-111150000D01*
X134050000Y-111150000D02*
X132025000Y-109125000D01*
X132025000Y-109125000D02*
X132025000Y-100225000D01*
X142320000Y-70930000D02*
X139370000Y-73880000D01*
X138865000Y-93385000D02*
X142905000Y-93385000D01*
D46*
X134770000Y-105370000D02*
X134770000Y-105837031D01*
X136127969Y-107195000D02*
X139965000Y-107195000D01*
X134770000Y-105837031D02*
X136127969Y-107195000D01*
X140770000Y-106390000D02*
X140770000Y-105370000D01*
X139965000Y-107195000D02*
X140770000Y-106390000D01*
X134770000Y-101500000D02*
X134770000Y-105370000D01*
D45*
X141885000Y-94385000D02*
X140835000Y-95435000D01*
X142905000Y-94385000D02*
X141885000Y-94385000D01*
D46*
X140835000Y-95435000D02*
X134770000Y-101500000D01*
D44*
X142905000Y-92885000D02*
X142905000Y-89145000D01*
X159155000Y-76005000D02*
X155320000Y-72170000D01*
X161570000Y-92500000D02*
X162190000Y-91880000D01*
X145525500Y-83130000D02*
X145695500Y-83300000D01*
X142905000Y-89145000D02*
X142570000Y-88810000D01*
X161570000Y-92970000D02*
X161570000Y-92500000D01*
X148640000Y-72170000D02*
X147400000Y-70930000D01*
X143000000Y-83130000D02*
X145525500Y-83130000D01*
X155320000Y-72170000D02*
X148640000Y-72170000D01*
D46*
X144745000Y-102375000D02*
X147640000Y-105270000D01*
X144745000Y-97285000D02*
X144745000Y-102375000D01*
D45*
X144655000Y-95135000D02*
X144655000Y-97195000D01*
X144655000Y-97195000D02*
X144745000Y-97285000D01*
D46*
X149640000Y-98120000D02*
X149640000Y-105270000D01*
X149640000Y-97900000D02*
X147440000Y-95700000D01*
D45*
X146125000Y-94385000D02*
X147440000Y-95700000D01*
D46*
X149640000Y-98120000D02*
X149640000Y-97900000D01*
D45*
X145905000Y-94385000D02*
X146125000Y-94385000D01*
D44*
X154575000Y-67650000D02*
X154575000Y-70485000D01*
X154575000Y-70485000D02*
X155020000Y-70930000D01*
X133430000Y-66850000D02*
X155425000Y-66850000D01*
X132320000Y-67960000D02*
X133430000Y-66850000D01*
X131800000Y-97940000D02*
X133000000Y-96740000D01*
X133000000Y-96740000D02*
X133000000Y-96170000D01*
X155425000Y-66850000D02*
X156225000Y-67650000D01*
X126630000Y-85480000D02*
X126630000Y-75700000D01*
X127910000Y-90310000D02*
X127910000Y-89640000D01*
X129350000Y-88200000D02*
X126630000Y-85480000D01*
X127910000Y-89640000D02*
X129350000Y-88200000D01*
X173580000Y-86410000D02*
X170780000Y-83610000D01*
X170780000Y-83610000D02*
X170780000Y-76530000D01*
X162450000Y-65790000D02*
X152814695Y-65790000D01*
X152814695Y-65790000D02*
X147400000Y-60375305D01*
X173580000Y-84410000D02*
X172505000Y-83335000D01*
X172505000Y-75845000D02*
X162450000Y-65790000D01*
X147400000Y-60375305D02*
X147400000Y-55690000D01*
X172505000Y-83335000D02*
X172505000Y-75845000D01*
D46*
X126860000Y-105450000D02*
X127790000Y-104520000D01*
X127790000Y-104520000D02*
X127790000Y-101110000D01*
X127790000Y-101110000D02*
X127790000Y-98070000D01*
X127790000Y-98070000D02*
X130340000Y-95520000D01*
X160180000Y-108130000D02*
X160680000Y-108630000D01*
D45*
X160320000Y-98080000D02*
X160530000Y-98290000D01*
D46*
X160180000Y-105290000D02*
X160180000Y-98640000D01*
X164180000Y-106740000D02*
X164180000Y-105290000D01*
X160680000Y-108630000D02*
X162290000Y-108630000D01*
X160180000Y-105290000D02*
X160180000Y-108130000D01*
X162290000Y-108630000D02*
X164180000Y-106740000D01*
D45*
X160320000Y-95220000D02*
X160320000Y-98080000D01*
X161570000Y-94470000D02*
X161570000Y-95980000D01*
D46*
X165645000Y-102380000D02*
X166180000Y-102915000D01*
X163600000Y-102380000D02*
X165645000Y-102380000D01*
D45*
X161570000Y-95980000D02*
X162180000Y-96590000D01*
D46*
X162180000Y-105290000D02*
X162180000Y-103800000D01*
X162180000Y-103800000D02*
X163600000Y-102380000D01*
X166180000Y-102915000D02*
X166180000Y-105290000D01*
X162180000Y-105290000D02*
X162180000Y-96590000D01*
X151640000Y-105270000D02*
X151640000Y-102400000D01*
D45*
X158570000Y-94470000D02*
X158570000Y-95470000D01*
X158570000Y-95470000D02*
X157760000Y-96280000D01*
D46*
X151640000Y-102400000D02*
X157760000Y-96280000D01*
D45*
X159820000Y-95220000D02*
X159820000Y-96624164D01*
X159820000Y-96624164D02*
X158767082Y-97677082D01*
D46*
X153640000Y-103040000D02*
X153640000Y-102804164D01*
X153640000Y-105270000D02*
X153640000Y-103040000D01*
X153640000Y-102804164D02*
X158767082Y-97677082D01*
D44*
X146715500Y-93385000D02*
X146940000Y-93160500D01*
X152840000Y-83030000D02*
X154690000Y-83030000D01*
X145905000Y-93385000D02*
X146715500Y-93385000D01*
X154690000Y-83030000D02*
X156050000Y-84390000D01*
X157780000Y-93470000D02*
X156650000Y-94600000D01*
X158570000Y-93470000D02*
X157780000Y-93470000D01*
X156760000Y-92970000D02*
X156630000Y-93100000D01*
X158570000Y-92970000D02*
X156760000Y-92970000D01*
X160100000Y-75280000D02*
X162640000Y-72740000D01*
X145935000Y-92885000D02*
X146820000Y-92000000D01*
X162640000Y-72740000D02*
X162640000Y-70930000D01*
X145905000Y-92885000D02*
X145935000Y-92885000D01*
M02*
