G04 #@! TF.GenerationSoftware,KiCad,Pcbnew,7.0.1*
G04 #@! TF.CreationDate,2023-08-25T12:02:58+10:00*
G04 #@! TF.ProjectId,firetruck controller,66697265-7472-4756-936b-20636f6e7472,rev?*
G04 #@! TF.SameCoordinates,Original*
G04 #@! TF.FileFunction,Copper,L2,Bot*
G04 #@! TF.FilePolarity,Positive*
%FSLAX46Y46*%
G04 Gerber Fmt 4.6, Leading zero omitted, Abs format (unit mm)*
G04 Created by KiCad (PCBNEW 7.0.1) date 2023-08-25 12:02:58*
%MOMM*%
%LPD*%
G01*
G04 APERTURE LIST*
G04 Aperture macros list*
%AMRoundRect*
0 Rectangle with rounded corners*
0 $1 Rounding radius*
0 $2 $3 $4 $5 $6 $7 $8 $9 X,Y pos of 4 corners*
0 Add a 4 corners polygon primitive as box body*
4,1,4,$2,$3,$4,$5,$6,$7,$8,$9,$2,$3,0*
0 Add four circle primitives for the rounded corners*
1,1,$1+$1,$2,$3*
1,1,$1+$1,$4,$5*
1,1,$1+$1,$6,$7*
1,1,$1+$1,$8,$9*
0 Add four rect primitives between the rounded corners*
20,1,$1+$1,$2,$3,$4,$5,0*
20,1,$1+$1,$4,$5,$6,$7,0*
20,1,$1+$1,$6,$7,$8,$9,0*
20,1,$1+$1,$8,$9,$2,$3,0*%
G04 Aperture macros list end*
G04 #@! TA.AperFunction,ComponentPad*
%ADD10C,2.775000*%
G04 #@! TD*
G04 #@! TA.AperFunction,ComponentPad*
%ADD11R,1.800000X1.800000*%
G04 #@! TD*
G04 #@! TA.AperFunction,ComponentPad*
%ADD12C,1.800000*%
G04 #@! TD*
G04 #@! TA.AperFunction,ComponentPad*
%ADD13C,1.500000*%
G04 #@! TD*
G04 #@! TA.AperFunction,ComponentPad*
%ADD14C,3.400000*%
G04 #@! TD*
G04 #@! TA.AperFunction,ComponentPad*
%ADD15R,1.700000X1.700000*%
G04 #@! TD*
G04 #@! TA.AperFunction,ComponentPad*
%ADD16O,1.700000X1.700000*%
G04 #@! TD*
G04 #@! TA.AperFunction,SMDPad,CuDef*
%ADD17RoundRect,0.225000X0.225000X0.250000X-0.225000X0.250000X-0.225000X-0.250000X0.225000X-0.250000X0*%
G04 #@! TD*
G04 #@! TA.AperFunction,SMDPad,CuDef*
%ADD18RoundRect,0.225000X-0.250000X0.225000X-0.250000X-0.225000X0.250000X-0.225000X0.250000X0.225000X0*%
G04 #@! TD*
G04 #@! TA.AperFunction,SMDPad,CuDef*
%ADD19RoundRect,0.250000X0.250000X0.475000X-0.250000X0.475000X-0.250000X-0.475000X0.250000X-0.475000X0*%
G04 #@! TD*
G04 #@! TA.AperFunction,ViaPad*
%ADD20C,0.800000*%
G04 #@! TD*
G04 #@! TA.AperFunction,Conductor*
%ADD21C,0.250000*%
G04 #@! TD*
G04 #@! TA.AperFunction,Conductor*
%ADD22C,1.000000*%
G04 #@! TD*
G04 APERTURE END LIST*
D10*
X201720000Y-60460000D03*
X201720000Y-65160000D03*
X201720000Y-69860000D03*
D11*
X202075000Y-36160000D03*
D12*
X199535000Y-36160000D03*
D13*
X219040000Y-30396500D03*
X216540000Y-30396500D03*
X214540000Y-30396500D03*
X212040000Y-30396500D03*
D14*
X222110000Y-27686500D03*
X208970000Y-27686500D03*
D11*
X230825000Y-36250000D03*
D12*
X228285000Y-36250000D03*
D10*
X229750000Y-60150000D03*
X229750000Y-64850000D03*
X229750000Y-69550000D03*
D15*
X230710000Y-55320000D03*
D16*
X230710000Y-52780000D03*
X230710000Y-50240000D03*
X230710000Y-47700000D03*
X230710000Y-45160000D03*
D10*
X215650000Y-60160000D03*
X215650000Y-64860000D03*
X215650000Y-69560000D03*
D11*
X217015000Y-36050000D03*
D12*
X214475000Y-36050000D03*
D15*
X219400000Y-75440000D03*
D16*
X216860000Y-75440000D03*
X214320000Y-75440000D03*
X211780000Y-75440000D03*
D15*
X202140000Y-45360000D03*
D16*
X202140000Y-47900000D03*
X202140000Y-50440000D03*
X202140000Y-52980000D03*
X202140000Y-55520000D03*
D17*
X208405000Y-35020000D03*
X206855000Y-35020000D03*
D18*
X215010000Y-49295000D03*
X215010000Y-50845000D03*
X208430000Y-46145000D03*
X208430000Y-47695000D03*
D19*
X208575000Y-32260000D03*
X206675000Y-32260000D03*
D18*
X214770000Y-46160000D03*
X214770000Y-47710000D03*
D20*
X216890000Y-47080000D03*
X213520000Y-48680000D03*
X206620000Y-47170000D03*
X218780000Y-54430000D03*
X224990000Y-49190000D03*
X207450000Y-53860000D03*
X206450000Y-37960000D03*
X209440000Y-37820000D03*
X206710000Y-50330000D03*
X210470000Y-47300000D03*
X209660000Y-49430000D03*
X217250000Y-48710000D03*
X229210000Y-41920000D03*
X220360000Y-37580000D03*
X233810000Y-32570000D03*
X220550000Y-41030000D03*
X224320000Y-56940000D03*
D21*
X211780000Y-55327817D02*
X216525000Y-50582817D01*
X216525000Y-47365000D02*
X216800000Y-47090000D01*
X211780000Y-75440000D02*
X211780000Y-55327817D01*
X216525000Y-50582817D02*
X216525000Y-47365000D01*
X213520000Y-48680000D02*
X213800000Y-48680000D01*
X213520000Y-48680000D02*
X213520000Y-49355000D01*
X208430000Y-47695000D02*
X209415000Y-48680000D01*
X210335000Y-55520000D02*
X215010000Y-50845000D01*
X213800000Y-48680000D02*
X214770000Y-47710000D01*
X206855000Y-35020000D02*
X205715000Y-36160000D01*
X206855000Y-35020000D02*
X206855000Y-32440000D01*
X213520000Y-49355000D02*
X215010000Y-50845000D01*
X207145000Y-47695000D02*
X208430000Y-47695000D01*
X205715000Y-36160000D02*
X202075000Y-36160000D01*
X206855000Y-32440000D02*
X206675000Y-32260000D01*
X206620000Y-47170000D02*
X207145000Y-47695000D01*
X202140000Y-55520000D02*
X210335000Y-55520000D01*
X209415000Y-48680000D02*
X213520000Y-48680000D01*
X219790000Y-54430000D02*
X224990000Y-49230000D01*
X218780000Y-54430000D02*
X219790000Y-54430000D01*
X206965000Y-54345000D02*
X201653299Y-54345000D01*
X200860000Y-59600000D02*
X201720000Y-60460000D01*
X200860000Y-55138299D02*
X200860000Y-59600000D01*
X201653299Y-54345000D02*
X200860000Y-55138299D01*
X207450000Y-53860000D02*
X206965000Y-54345000D01*
X208405000Y-36005000D02*
X208405000Y-35020000D01*
X206450000Y-37960000D02*
X208405000Y-36005000D01*
X218055000Y-54730305D02*
X228174695Y-64850000D01*
X218055000Y-46435000D02*
X218055000Y-54730305D01*
X228174695Y-64850000D02*
X229750000Y-64850000D01*
X209440000Y-37820000D02*
X218055000Y-46435000D01*
X210470000Y-47300000D02*
X209315000Y-46145000D01*
X209664695Y-36570000D02*
X210080000Y-36570000D01*
D22*
X201720000Y-65160000D02*
X199632500Y-63072500D01*
D21*
X215570000Y-46960000D02*
X214770000Y-46160000D01*
X208575000Y-32260000D02*
X210080000Y-33765000D01*
X211610000Y-46160000D02*
X214770000Y-46160000D01*
X215010000Y-49295000D02*
X215570000Y-48735000D01*
X209315000Y-46145000D02*
X208430000Y-46145000D01*
X222740000Y-39730000D02*
X230710000Y-47700000D01*
D22*
X201851573Y-52980000D02*
X202140000Y-52980000D01*
D21*
X210470000Y-47300000D02*
X211610000Y-46160000D01*
X207840000Y-45555000D02*
X208430000Y-46145000D01*
X210080000Y-36570000D02*
X211300000Y-36570000D01*
X202140000Y-52980000D02*
X204770000Y-50350000D01*
X207840000Y-45555000D02*
X207840000Y-38394695D01*
D22*
X199632500Y-55199073D02*
X201851573Y-52980000D01*
D21*
X214460000Y-39730000D02*
X222740000Y-39730000D01*
X210080000Y-33765000D02*
X210080000Y-36570000D01*
X215570000Y-48735000D02*
X215570000Y-46960000D01*
X207840000Y-38394695D02*
X209664695Y-36570000D01*
X204770000Y-50350000D02*
X206770000Y-50350000D01*
D22*
X199632500Y-63072500D02*
X199632500Y-55199073D01*
D21*
X214460000Y-39730000D02*
X211300000Y-36570000D01*
X203150000Y-49430000D02*
X202140000Y-50440000D01*
X209660000Y-49430000D02*
X203150000Y-49430000D01*
X217250000Y-48710000D02*
X217250000Y-51005000D01*
X217250000Y-51005000D02*
X213937500Y-54317500D01*
X213937500Y-54317500D02*
X213937500Y-75057500D01*
X213937500Y-75057500D02*
X214320000Y-75440000D01*
X214540000Y-31125000D02*
X214540000Y-30396500D01*
X220360000Y-37580000D02*
X220360000Y-36945000D01*
X220360000Y-36945000D02*
X214540000Y-31125000D01*
X223870000Y-37580000D02*
X220360000Y-37580000D01*
X229210000Y-41920000D02*
X228210000Y-41920000D01*
X228210000Y-41920000D02*
X223870000Y-37580000D01*
X218713500Y-32570000D02*
X216540000Y-30396500D01*
X233810000Y-32570000D02*
X218713500Y-32570000D01*
D22*
X226090000Y-55170000D02*
X226090000Y-46570000D01*
X226090000Y-46570000D02*
X220550000Y-41030000D01*
X224320000Y-56940000D02*
X226090000Y-55170000D01*
M02*
