M48
; DRILL file {KiCad 7.0.1} date Fri Aug 25 12:03:10 2023
; FORMAT={-:-/ absolute / metric / decimal}
; #@! TF.CreationDate,2023-08-25T12:03:10+10:00
; #@! TF.GenerationSoftware,Kicad,Pcbnew,7.0.1
; #@! TF.FileFunction,Plated,1,2,PTH
FMAT,2
METRIC
; #@! TA.AperFunction,Plated,PTH,ViaDrill
T1C0.400
; #@! TA.AperFunction,Plated,PTH,ComponentDrill
T2C0.900
; #@! TA.AperFunction,Plated,PTH,ComponentDrill
T3C0.920
; #@! TA.AperFunction,Plated,PTH,ComponentDrill
T4C1.000
; #@! TA.AperFunction,Plated,PTH,ComponentDrill
T5C1.850
; #@! TA.AperFunction,Plated,PTH,ComponentDrill
T6C2.300
%
G90
G05
T1
X206.45Y-37.96
X206.62Y-47.17
X206.71Y-50.33
X207.45Y-53.86
X209.44Y-37.82
X209.66Y-49.43
X210.47Y-47.3
X213.52Y-48.68
X216.89Y-47.08
X217.25Y-48.71
X218.78Y-54.43
X220.36Y-37.58
X220.55Y-41.03
X224.32Y-56.94
X224.99Y-49.19
X229.21Y-41.92
X233.81Y-32.57
T2
X199.535Y-36.16
X202.075Y-36.16
X214.475Y-36.05
X217.015Y-36.05
X228.285Y-36.25
X230.825Y-36.25
T3
X212.04Y-30.396
X214.54Y-30.396
X216.54Y-30.396
X219.04Y-30.396
T4
X202.14Y-45.36
X202.14Y-47.9
X202.14Y-50.44
X202.14Y-52.98
X202.14Y-55.52
X211.78Y-75.44
X214.32Y-75.44
X216.86Y-75.44
X219.4Y-75.44
X230.71Y-45.16
X230.71Y-47.7
X230.71Y-50.24
X230.71Y-52.78
X230.71Y-55.32
T5
X201.72Y-60.46
X201.72Y-65.16
X201.72Y-69.86
X215.65Y-60.16
X215.65Y-64.86
X215.65Y-69.56
X229.75Y-60.15
X229.75Y-64.85
X229.75Y-69.55
T6
X208.97Y-27.686
X222.11Y-27.686
T0
M30
