G04 #@! TF.GenerationSoftware,KiCad,Pcbnew,7.0.1*
G04 #@! TF.CreationDate,2023-08-25T12:02:58+10:00*
G04 #@! TF.ProjectId,firetruck controller,66697265-7472-4756-936b-20636f6e7472,rev?*
G04 #@! TF.SameCoordinates,Original*
G04 #@! TF.FileFunction,Copper,L1,Top*
G04 #@! TF.FilePolarity,Positive*
%FSLAX46Y46*%
G04 Gerber Fmt 4.6, Leading zero omitted, Abs format (unit mm)*
G04 Created by KiCad (PCBNEW 7.0.1) date 2023-08-25 12:02:58*
%MOMM*%
%LPD*%
G01*
G04 APERTURE LIST*
G04 Aperture macros list*
%AMRoundRect*
0 Rectangle with rounded corners*
0 $1 Rounding radius*
0 $2 $3 $4 $5 $6 $7 $8 $9 X,Y pos of 4 corners*
0 Add a 4 corners polygon primitive as box body*
4,1,4,$2,$3,$4,$5,$6,$7,$8,$9,$2,$3,0*
0 Add four circle primitives for the rounded corners*
1,1,$1+$1,$2,$3*
1,1,$1+$1,$4,$5*
1,1,$1+$1,$6,$7*
1,1,$1+$1,$8,$9*
0 Add four rect primitives between the rounded corners*
20,1,$1+$1,$2,$3,$4,$5,0*
20,1,$1+$1,$4,$5,$6,$7,0*
20,1,$1+$1,$6,$7,$8,$9,0*
20,1,$1+$1,$8,$9,$2,$3,0*%
G04 Aperture macros list end*
G04 #@! TA.AperFunction,ComponentPad*
%ADD10C,2.775000*%
G04 #@! TD*
G04 #@! TA.AperFunction,SMDPad,CuDef*
%ADD11R,1.500000X2.000000*%
G04 #@! TD*
G04 #@! TA.AperFunction,SMDPad,CuDef*
%ADD12R,3.800000X2.000000*%
G04 #@! TD*
G04 #@! TA.AperFunction,ComponentPad*
%ADD13R,1.800000X1.800000*%
G04 #@! TD*
G04 #@! TA.AperFunction,ComponentPad*
%ADD14C,1.800000*%
G04 #@! TD*
G04 #@! TA.AperFunction,SMDPad,CuDef*
%ADD15RoundRect,0.225000X0.225000X0.250000X-0.225000X0.250000X-0.225000X-0.250000X0.225000X-0.250000X0*%
G04 #@! TD*
G04 #@! TA.AperFunction,SMDPad,CuDef*
%ADD16RoundRect,0.250000X-1.075000X0.375000X-1.075000X-0.375000X1.075000X-0.375000X1.075000X0.375000X0*%
G04 #@! TD*
G04 #@! TA.AperFunction,ComponentPad*
%ADD17C,1.500000*%
G04 #@! TD*
G04 #@! TA.AperFunction,ComponentPad*
%ADD18C,3.400000*%
G04 #@! TD*
G04 #@! TA.AperFunction,SMDPad,CuDef*
%ADD19RoundRect,0.200000X0.275000X-0.200000X0.275000X0.200000X-0.275000X0.200000X-0.275000X-0.200000X0*%
G04 #@! TD*
G04 #@! TA.AperFunction,SMDPad,CuDef*
%ADD20RoundRect,0.200000X-0.275000X0.200000X-0.275000X-0.200000X0.275000X-0.200000X0.275000X0.200000X0*%
G04 #@! TD*
G04 #@! TA.AperFunction,SMDPad,CuDef*
%ADD21RoundRect,0.125000X-0.625000X-0.125000X0.625000X-0.125000X0.625000X0.125000X-0.625000X0.125000X0*%
G04 #@! TD*
G04 #@! TA.AperFunction,SMDPad,CuDef*
%ADD22RoundRect,0.125000X-0.125000X-0.625000X0.125000X-0.625000X0.125000X0.625000X-0.125000X0.625000X0*%
G04 #@! TD*
G04 #@! TA.AperFunction,SMDPad,CuDef*
%ADD23RoundRect,0.200000X0.200000X0.275000X-0.200000X0.275000X-0.200000X-0.275000X0.200000X-0.275000X0*%
G04 #@! TD*
G04 #@! TA.AperFunction,SMDPad,CuDef*
%ADD24RoundRect,0.225000X-0.225000X-0.250000X0.225000X-0.250000X0.225000X0.250000X-0.225000X0.250000X0*%
G04 #@! TD*
G04 #@! TA.AperFunction,ComponentPad*
%ADD25R,1.700000X1.700000*%
G04 #@! TD*
G04 #@! TA.AperFunction,ComponentPad*
%ADD26O,1.700000X1.700000*%
G04 #@! TD*
G04 #@! TA.AperFunction,SMDPad,CuDef*
%ADD27RoundRect,0.200000X-0.200000X-0.275000X0.200000X-0.275000X0.200000X0.275000X-0.200000X0.275000X0*%
G04 #@! TD*
G04 #@! TA.AperFunction,ViaPad*
%ADD28C,0.800000*%
G04 #@! TD*
G04 #@! TA.AperFunction,Conductor*
%ADD29C,0.250000*%
G04 #@! TD*
G04 #@! TA.AperFunction,Conductor*
%ADD30C,1.000000*%
G04 #@! TD*
G04 APERTURE END LIST*
D10*
X201720000Y-60460000D03*
X201720000Y-65160000D03*
X201720000Y-69860000D03*
D11*
X206050000Y-40390000D03*
X208350000Y-40390000D03*
X210650000Y-40390000D03*
D12*
X208350000Y-34090000D03*
D13*
X202075000Y-36160000D03*
D14*
X199535000Y-36160000D03*
D15*
X223640000Y-34230000D03*
X222090000Y-34230000D03*
D16*
X223360000Y-37360000D03*
X223360000Y-40160000D03*
D17*
X219040000Y-30396500D03*
X216540000Y-30396500D03*
X214540000Y-30396500D03*
X212040000Y-30396500D03*
D18*
X222110000Y-27686500D03*
X208970000Y-27686500D03*
D13*
X230825000Y-36250000D03*
D14*
X228285000Y-36250000D03*
D19*
X195140000Y-37575000D03*
X195140000Y-35925000D03*
D20*
X223080000Y-45135000D03*
X223080000Y-46785000D03*
D21*
X211915000Y-45610000D03*
X211915000Y-46410000D03*
X211915000Y-47210000D03*
X211915000Y-48010000D03*
X211915000Y-48810000D03*
X211915000Y-49610000D03*
X211915000Y-50410000D03*
X211915000Y-51210000D03*
D22*
X213290000Y-52585000D03*
X214090000Y-52585000D03*
X214890000Y-52585000D03*
X215690000Y-52585000D03*
X216490000Y-52585000D03*
X217290000Y-52585000D03*
X218090000Y-52585000D03*
X218890000Y-52585000D03*
D21*
X220265000Y-51210000D03*
X220265000Y-50410000D03*
X220265000Y-49610000D03*
X220265000Y-48810000D03*
X220265000Y-48010000D03*
X220265000Y-47210000D03*
X220265000Y-46410000D03*
X220265000Y-45610000D03*
D22*
X218890000Y-44235000D03*
X218090000Y-44235000D03*
X217290000Y-44235000D03*
X216490000Y-44235000D03*
X215690000Y-44235000D03*
X214890000Y-44235000D03*
X214090000Y-44235000D03*
X213290000Y-44235000D03*
D23*
X236470000Y-34520000D03*
X234820000Y-34520000D03*
D10*
X229750000Y-60150000D03*
X229750000Y-64850000D03*
X229750000Y-69550000D03*
D24*
X223260000Y-42860000D03*
X224810000Y-42860000D03*
D25*
X230710000Y-55320000D03*
D26*
X230710000Y-52780000D03*
X230710000Y-50240000D03*
X230710000Y-47700000D03*
X230710000Y-45160000D03*
D27*
X212815000Y-41280000D03*
X214465000Y-41280000D03*
D10*
X215650000Y-60160000D03*
X215650000Y-64860000D03*
X215650000Y-69560000D03*
D13*
X217015000Y-36050000D03*
D14*
X214475000Y-36050000D03*
D25*
X219400000Y-75440000D03*
D26*
X216860000Y-75440000D03*
X214320000Y-75440000D03*
X211780000Y-75440000D03*
D19*
X226750000Y-46805000D03*
X226750000Y-45155000D03*
D25*
X202140000Y-45360000D03*
D26*
X202140000Y-47900000D03*
X202140000Y-50440000D03*
X202140000Y-52980000D03*
X202140000Y-55520000D03*
D23*
X236470000Y-37030000D03*
X234820000Y-37030000D03*
D28*
X216890000Y-47080000D03*
X213520000Y-48680000D03*
X206620000Y-47170000D03*
X218780000Y-54430000D03*
X224990000Y-49190000D03*
X207450000Y-53860000D03*
X206450000Y-37960000D03*
X209440000Y-37820000D03*
X206710000Y-50330000D03*
X210470000Y-47300000D03*
X209660000Y-49430000D03*
X217250000Y-48710000D03*
X229210000Y-41920000D03*
X220360000Y-37580000D03*
X233810000Y-32570000D03*
X220550000Y-41030000D03*
X224320000Y-56940000D03*
D29*
X222180000Y-44235000D02*
X223080000Y-45135000D01*
X218890000Y-44235000D02*
X222180000Y-44235000D01*
X218890000Y-45080000D02*
X218890000Y-44235000D01*
X216890000Y-47080000D02*
X218890000Y-45080000D01*
X213410000Y-48810000D02*
X213520000Y-48700000D01*
X208350000Y-40390000D02*
X208350000Y-45500000D01*
X211915000Y-48810000D02*
X213410000Y-48810000D01*
X208350000Y-45500000D02*
X206630000Y-47220000D01*
X226750000Y-47430000D02*
X226750000Y-46805000D01*
X224990000Y-49190000D02*
X226750000Y-47430000D01*
X218090000Y-52585000D02*
X218090000Y-53830000D01*
X218090000Y-53830000D02*
X218740000Y-54480000D01*
X226750000Y-45155000D02*
X226750000Y-37785000D01*
X226750000Y-37785000D02*
X228285000Y-36250000D01*
X195140000Y-37575000D02*
X195140000Y-53880000D01*
X195140000Y-53880000D02*
X201720000Y-60460000D01*
X212015000Y-53860000D02*
X213290000Y-52585000D01*
X207450000Y-53860000D02*
X212015000Y-53860000D01*
X195375000Y-36160000D02*
X199535000Y-36160000D01*
X195140000Y-35925000D02*
X195375000Y-36160000D01*
X212815000Y-43288604D02*
X208206802Y-47896802D01*
X208206802Y-47896802D02*
X206321497Y-47896802D01*
D30*
X198500000Y-43040000D02*
X201150000Y-40390000D01*
X201040000Y-57070000D02*
X198500000Y-54530000D01*
D29*
X204940000Y-46515305D02*
X204940000Y-45250000D01*
X206050000Y-38350000D02*
X206440000Y-37960000D01*
D30*
X198500000Y-54530000D02*
X198500000Y-43040000D01*
D29*
X204940000Y-45250000D02*
X206050000Y-44140000D01*
X206050000Y-44140000D02*
X206050000Y-40390000D01*
X206321497Y-47896802D02*
X204940000Y-46515305D01*
X206050000Y-40390000D02*
X206050000Y-38350000D01*
D30*
X201150000Y-40390000D02*
X206050000Y-40390000D01*
X201040000Y-57070000D02*
X212560000Y-57070000D01*
X212560000Y-57070000D02*
X215650000Y-60160000D01*
D29*
X212815000Y-41280000D02*
X212815000Y-43288604D01*
X214475000Y-41270000D02*
X214475000Y-36050000D01*
X214465000Y-41280000D02*
X214475000Y-41270000D01*
X210650000Y-40390000D02*
X210650000Y-38890000D01*
X210650000Y-38890000D02*
X209540000Y-37780000D01*
X206710000Y-50330000D02*
X207440000Y-50330000D01*
X211090000Y-48010000D02*
X210420000Y-47340000D01*
X211915000Y-48010000D02*
X211090000Y-48010000D01*
X236470000Y-37030000D02*
X236470000Y-41940000D01*
X229750000Y-60150000D02*
X231885000Y-58015000D01*
X231885000Y-48875000D02*
X230710000Y-47700000D01*
X219400000Y-70500000D02*
X229750000Y-60150000D01*
D30*
X202020000Y-64860000D02*
X201720000Y-65160000D01*
D29*
X219400000Y-75440000D02*
X219400000Y-70500000D01*
X207440000Y-50330000D02*
X210470000Y-47300000D01*
X236470000Y-37030000D02*
X236470000Y-34520000D01*
X231885000Y-58015000D02*
X231885000Y-48875000D01*
X236470000Y-41940000D02*
X230710000Y-47700000D01*
X211915000Y-50410000D02*
X210560000Y-50410000D01*
X210560000Y-50410000D02*
X209640000Y-49490000D01*
X202140000Y-47900000D02*
X205450000Y-51210000D01*
X205450000Y-51210000D02*
X211915000Y-51210000D01*
X229740000Y-51210000D02*
X230710000Y-50240000D01*
X220265000Y-51210000D02*
X229740000Y-51210000D01*
X218890000Y-52585000D02*
X219085000Y-52780000D01*
X219085000Y-52780000D02*
X230710000Y-52780000D01*
X220265000Y-45610000D02*
X219678604Y-45610000D01*
X219678604Y-45610000D02*
X217310000Y-47978604D01*
X217310000Y-47978604D02*
X217310000Y-48680000D01*
X229930000Y-41920000D02*
X229250000Y-41920000D01*
X234820000Y-37030000D02*
X229930000Y-41920000D01*
X214890000Y-44235000D02*
X214890000Y-43485000D01*
X214890000Y-43485000D02*
X220360000Y-38015000D01*
X220360000Y-38015000D02*
X220360000Y-37580000D01*
X216540000Y-32396500D02*
X216540000Y-30396500D01*
X219070000Y-38668604D02*
X214090000Y-43648604D01*
X219070000Y-34926500D02*
X216540000Y-32396500D01*
X214090000Y-43648604D02*
X214090000Y-44235000D01*
X234820000Y-33600000D02*
X233780000Y-32560000D01*
X219070000Y-34926500D02*
X219070000Y-38668604D01*
X234820000Y-34520000D02*
X234820000Y-33600000D01*
D30*
X223640000Y-32945890D02*
X219640610Y-28946500D01*
X223640000Y-34230000D02*
X223640000Y-37080000D01*
X223640000Y-34230000D02*
X223640000Y-32945890D01*
X213490000Y-28946500D02*
X212040000Y-30396500D01*
D29*
X223640000Y-37080000D02*
X223360000Y-37360000D01*
D30*
X219640610Y-28946500D02*
X213490000Y-28946500D01*
X216400000Y-64860000D02*
X215650000Y-64860000D01*
X221460000Y-40160000D02*
X220580000Y-41040000D01*
D29*
X223360000Y-42760000D02*
X223260000Y-42860000D01*
D30*
X223360000Y-40160000D02*
X223360000Y-42760000D01*
X224320000Y-56940000D02*
X216400000Y-64860000D01*
X223360000Y-40160000D02*
X221460000Y-40160000D01*
G04 #@! TA.AperFunction,Conductor*
G36*
X213788132Y-45459978D02*
G01*
X213866373Y-45482709D01*
X213901837Y-45485500D01*
X214278162Y-45485499D01*
X214278164Y-45485499D01*
X214313628Y-45482709D01*
X214455405Y-45441519D01*
X214524595Y-45441519D01*
X214588132Y-45459978D01*
X214666373Y-45482709D01*
X214701837Y-45485500D01*
X215078162Y-45485499D01*
X215078164Y-45485499D01*
X215113628Y-45482709D01*
X215255405Y-45441519D01*
X215324595Y-45441519D01*
X215388132Y-45459978D01*
X215466373Y-45482709D01*
X215501837Y-45485500D01*
X215878162Y-45485499D01*
X215878164Y-45485499D01*
X215913628Y-45482709D01*
X216055405Y-45441519D01*
X216124595Y-45441519D01*
X216188132Y-45459978D01*
X216266373Y-45482709D01*
X216301837Y-45485500D01*
X216678162Y-45485499D01*
X216678164Y-45485499D01*
X216713628Y-45482709D01*
X216855405Y-45441519D01*
X216924595Y-45441519D01*
X216988132Y-45459978D01*
X217066373Y-45482709D01*
X217101837Y-45485500D01*
X217300546Y-45485499D01*
X217356840Y-45499014D01*
X217400864Y-45536613D01*
X217423019Y-45590101D01*
X217418477Y-45647817D01*
X217388227Y-45697180D01*
X216942228Y-46143181D01*
X216902000Y-46170061D01*
X216854547Y-46179500D01*
X216795352Y-46179500D01*
X216610197Y-46218855D01*
X216437269Y-46295848D01*
X216284129Y-46407110D01*
X216157466Y-46547783D01*
X216062820Y-46711715D01*
X216004326Y-46891742D01*
X215984540Y-47079999D01*
X216004326Y-47268257D01*
X216062820Y-47448284D01*
X216157466Y-47612216D01*
X216284129Y-47752889D01*
X216437269Y-47864151D01*
X216540185Y-47909973D01*
X216586115Y-47945216D01*
X216611039Y-47997471D01*
X216609524Y-48055345D01*
X216581899Y-48106224D01*
X216517466Y-48177783D01*
X216422820Y-48341715D01*
X216364326Y-48521742D01*
X216345248Y-48703267D01*
X216344540Y-48710000D01*
X216347535Y-48738495D01*
X216364326Y-48898257D01*
X216422820Y-49078284D01*
X216517466Y-49242216D01*
X216644129Y-49382889D01*
X216797269Y-49494151D01*
X216970197Y-49571144D01*
X217155352Y-49610500D01*
X217155354Y-49610500D01*
X217344646Y-49610500D01*
X217344648Y-49610500D01*
X217508735Y-49575622D01*
X217529803Y-49571144D01*
X217702730Y-49494151D01*
X217791715Y-49429500D01*
X217855870Y-49382889D01*
X217982533Y-49242216D01*
X218077179Y-49078284D01*
X218094921Y-49023680D01*
X218135674Y-48898256D01*
X218155460Y-48710000D01*
X218135674Y-48521744D01*
X218087331Y-48372961D01*
X218077179Y-48341715D01*
X218034820Y-48268347D01*
X218018679Y-48217154D01*
X218025685Y-48163936D01*
X218054524Y-48118668D01*
X218806833Y-47366360D01*
X218867934Y-47332924D01*
X218937422Y-47337703D01*
X218993372Y-47379189D01*
X219009862Y-47422553D01*
X219013745Y-47421425D01*
X219058480Y-47575405D01*
X219058481Y-47644594D01*
X219017291Y-47786373D01*
X219014500Y-47821839D01*
X219014500Y-48198164D01*
X219017290Y-48233629D01*
X219058480Y-48375404D01*
X219058481Y-48444593D01*
X219027082Y-48552673D01*
X219017291Y-48586373D01*
X219015132Y-48613813D01*
X219014500Y-48621839D01*
X219014500Y-48998164D01*
X219017290Y-49033629D01*
X219058480Y-49175405D01*
X219058481Y-49244594D01*
X219017291Y-49386373D01*
X219014500Y-49421839D01*
X219014500Y-49798164D01*
X219017290Y-49833629D01*
X219058480Y-49975404D01*
X219058481Y-50044593D01*
X219017291Y-50186373D01*
X219014500Y-50221839D01*
X219014500Y-50598164D01*
X219017290Y-50633629D01*
X219058480Y-50775405D01*
X219058481Y-50844594D01*
X219017291Y-50986373D01*
X219014500Y-51021840D01*
X219014500Y-51210500D01*
X218997887Y-51272500D01*
X218952500Y-51317887D01*
X218890501Y-51334500D01*
X218701835Y-51334500D01*
X218666373Y-51337290D01*
X218524593Y-51378481D01*
X218455405Y-51378481D01*
X218313627Y-51337291D01*
X218278163Y-51334500D01*
X218278160Y-51334500D01*
X217901835Y-51334500D01*
X217866373Y-51337290D01*
X217724593Y-51378481D01*
X217655405Y-51378481D01*
X217513627Y-51337291D01*
X217478163Y-51334500D01*
X217478160Y-51334500D01*
X217101835Y-51334500D01*
X217066373Y-51337290D01*
X216924593Y-51378481D01*
X216855405Y-51378481D01*
X216713627Y-51337291D01*
X216678163Y-51334500D01*
X216678160Y-51334500D01*
X216301835Y-51334500D01*
X216266373Y-51337290D01*
X216124593Y-51378481D01*
X216055405Y-51378481D01*
X215913627Y-51337291D01*
X215878163Y-51334500D01*
X215878160Y-51334500D01*
X215501835Y-51334500D01*
X215466373Y-51337290D01*
X215324593Y-51378481D01*
X215255405Y-51378481D01*
X215113627Y-51337291D01*
X215078163Y-51334500D01*
X215078160Y-51334500D01*
X214701835Y-51334500D01*
X214666373Y-51337290D01*
X214524593Y-51378481D01*
X214455405Y-51378481D01*
X214313627Y-51337291D01*
X214278163Y-51334500D01*
X214278160Y-51334500D01*
X213901835Y-51334500D01*
X213866373Y-51337290D01*
X213724593Y-51378481D01*
X213655405Y-51378481D01*
X213513627Y-51337291D01*
X213478163Y-51334500D01*
X213478160Y-51334500D01*
X213289499Y-51334500D01*
X213227499Y-51317887D01*
X213182112Y-51272500D01*
X213165499Y-51210500D01*
X213165499Y-51021836D01*
X213162709Y-50986370D01*
X213121519Y-50844594D01*
X213121519Y-50775404D01*
X213162709Y-50633627D01*
X213165500Y-50598163D01*
X213165499Y-50221838D01*
X213164894Y-50214151D01*
X213162709Y-50186370D01*
X213121519Y-50044594D01*
X213121519Y-49975404D01*
X213121883Y-49974151D01*
X213162709Y-49833627D01*
X213165500Y-49798163D01*
X213165499Y-49421838D01*
X213163899Y-49401505D01*
X213162709Y-49386372D01*
X213127727Y-49265965D01*
X213121258Y-49243697D01*
X213121258Y-49174508D01*
X213154525Y-49060000D01*
X213050952Y-49060000D01*
X213003499Y-49050561D01*
X212963270Y-49023680D01*
X212926422Y-48986831D01*
X212807890Y-48916731D01*
X212763301Y-48871435D01*
X212747012Y-48809998D01*
X212763302Y-48748561D01*
X212807891Y-48703267D01*
X212861330Y-48671663D01*
X212926419Y-48633171D01*
X212963270Y-48596320D01*
X213003499Y-48569439D01*
X213050952Y-48560000D01*
X213154526Y-48560000D01*
X213154525Y-48559999D01*
X213121258Y-48445492D01*
X213121258Y-48376302D01*
X213124930Y-48363663D01*
X213162709Y-48233627D01*
X213165500Y-48198163D01*
X213165499Y-47821838D01*
X213162709Y-47786373D01*
X213162709Y-47786370D01*
X213121519Y-47644594D01*
X213121519Y-47575404D01*
X213153713Y-47464592D01*
X213162709Y-47433627D01*
X213165500Y-47398163D01*
X213165499Y-47021838D01*
X213162709Y-46986373D01*
X213162709Y-46986370D01*
X213121519Y-46844594D01*
X213121519Y-46775404D01*
X213162709Y-46633627D01*
X213165500Y-46598163D01*
X213165499Y-46221838D01*
X213165264Y-46218856D01*
X213162709Y-46186370D01*
X213121519Y-46044594D01*
X213121519Y-45975404D01*
X213129508Y-45947906D01*
X213162709Y-45833627D01*
X213165500Y-45798163D01*
X213165499Y-45609498D01*
X213182112Y-45547499D01*
X213227499Y-45502112D01*
X213289499Y-45485499D01*
X213478164Y-45485499D01*
X213513628Y-45482709D01*
X213655405Y-45441519D01*
X213724595Y-45441519D01*
X213788132Y-45459978D01*
G37*
G04 #@! TD.AperFunction*
G04 #@! TA.AperFunction,Conductor*
G36*
X239798000Y-23726613D02*
G01*
X239843387Y-23772000D01*
X239860000Y-23834000D01*
X239860000Y-79266000D01*
X239843387Y-79328000D01*
X239798000Y-79373387D01*
X239736000Y-79390000D01*
X192884000Y-79390000D01*
X192822000Y-79373387D01*
X192776613Y-79328000D01*
X192760000Y-79266000D01*
X192760000Y-75160000D01*
X201344450Y-75160000D01*
X201364616Y-75429100D01*
X201364617Y-75429103D01*
X201424666Y-75692195D01*
X201523257Y-75943398D01*
X201658185Y-76177102D01*
X201826439Y-76388085D01*
X202024259Y-76571635D01*
X202247226Y-76723651D01*
X202490359Y-76840738D01*
X202748228Y-76920280D01*
X203015071Y-76960500D01*
X203284929Y-76960500D01*
X203551772Y-76920280D01*
X203809641Y-76840738D01*
X204052775Y-76723651D01*
X204275741Y-76571635D01*
X204473561Y-76388085D01*
X204641815Y-76177102D01*
X204776743Y-75943398D01*
X204875334Y-75692195D01*
X204932896Y-75440000D01*
X210424340Y-75440000D01*
X210444936Y-75675407D01*
X210489709Y-75842501D01*
X210506097Y-75903663D01*
X210605965Y-76117830D01*
X210741505Y-76311401D01*
X210908599Y-76478495D01*
X211102170Y-76614035D01*
X211316337Y-76713903D01*
X211544592Y-76775063D01*
X211780000Y-76795659D01*
X212015408Y-76775063D01*
X212243663Y-76713903D01*
X212457830Y-76614035D01*
X212651401Y-76478495D01*
X212818495Y-76311401D01*
X212948426Y-76125839D01*
X212992743Y-76086975D01*
X213050000Y-76072964D01*
X213107257Y-76086975D01*
X213151573Y-76125839D01*
X213281505Y-76311401D01*
X213448599Y-76478495D01*
X213642170Y-76614035D01*
X213856337Y-76713903D01*
X214084592Y-76775063D01*
X214320000Y-76795659D01*
X214555408Y-76775063D01*
X214783663Y-76713903D01*
X214997830Y-76614035D01*
X215191401Y-76478495D01*
X215358495Y-76311401D01*
X215488732Y-76125402D01*
X215533048Y-76086539D01*
X215590305Y-76072528D01*
X215647562Y-76086539D01*
X215691880Y-76125404D01*
X215821893Y-76311081D01*
X215988918Y-76478106D01*
X216182423Y-76613600D01*
X216396507Y-76713430D01*
X216609999Y-76770635D01*
X216610000Y-76770636D01*
X216610000Y-74109364D01*
X216609999Y-74109364D01*
X216396507Y-74166569D01*
X216182421Y-74266400D01*
X215988921Y-74401890D01*
X215821893Y-74568918D01*
X215691880Y-74754596D01*
X215647562Y-74793461D01*
X215590305Y-74807472D01*
X215533048Y-74793461D01*
X215488730Y-74754595D01*
X215488425Y-74754159D01*
X215358495Y-74568599D01*
X215191401Y-74401505D01*
X214997830Y-74265965D01*
X214783663Y-74166097D01*
X214709801Y-74146306D01*
X214555407Y-74104936D01*
X214320000Y-74084340D01*
X214084592Y-74104936D01*
X213856336Y-74166097D01*
X213642170Y-74265965D01*
X213448598Y-74401505D01*
X213281505Y-74568598D01*
X213151575Y-74754159D01*
X213107257Y-74793025D01*
X213050000Y-74807036D01*
X212992743Y-74793025D01*
X212948425Y-74754159D01*
X212859951Y-74627805D01*
X212818495Y-74568599D01*
X212651401Y-74401505D01*
X212457830Y-74265965D01*
X212243663Y-74166097D01*
X212169801Y-74146306D01*
X212015407Y-74104936D01*
X211780000Y-74084340D01*
X211544592Y-74104936D01*
X211316336Y-74166097D01*
X211102170Y-74265965D01*
X210908598Y-74401505D01*
X210741505Y-74568598D01*
X210605965Y-74762170D01*
X210506097Y-74976336D01*
X210444936Y-75204592D01*
X210424340Y-75440000D01*
X204932896Y-75440000D01*
X204935383Y-75429103D01*
X204955549Y-75160000D01*
X204935383Y-74890897D01*
X204875334Y-74627805D01*
X204776743Y-74376602D01*
X204641815Y-74142898D01*
X204473561Y-73931915D01*
X204473560Y-73931914D01*
X204275743Y-73748366D01*
X204218205Y-73709137D01*
X204052775Y-73596349D01*
X203809641Y-73479262D01*
X203730098Y-73454726D01*
X203551771Y-73399719D01*
X203284929Y-73359500D01*
X203015071Y-73359500D01*
X202748228Y-73399719D01*
X202490359Y-73479262D01*
X202247228Y-73596347D01*
X202024257Y-73748366D01*
X201826439Y-73931915D01*
X201658184Y-74142899D01*
X201523257Y-74376601D01*
X201424666Y-74627804D01*
X201364616Y-74890899D01*
X201344450Y-75160000D01*
X192760000Y-75160000D01*
X192760000Y-69859999D01*
X199827176Y-69859999D01*
X199846443Y-70129377D01*
X199903848Y-70393265D01*
X199903850Y-70393270D01*
X199998228Y-70646307D01*
X199998230Y-70646310D01*
X200127654Y-70883335D01*
X200200389Y-70980497D01*
X200289500Y-71099535D01*
X200480465Y-71290500D01*
X200581523Y-71366151D01*
X200696664Y-71452345D01*
X200781401Y-71498614D01*
X200933693Y-71581772D01*
X201186730Y-71676150D01*
X201186733Y-71676150D01*
X201186734Y-71676151D01*
X201224291Y-71684321D01*
X201450623Y-71733557D01*
X201700732Y-71751445D01*
X201719999Y-71752823D01*
X201719999Y-71752822D01*
X201720000Y-71752823D01*
X201989377Y-71733557D01*
X202253270Y-71676150D01*
X202506307Y-71581772D01*
X202743337Y-71452344D01*
X202959535Y-71290500D01*
X203150500Y-71099535D01*
X203312344Y-70883337D01*
X203441772Y-70646307D01*
X203536150Y-70393270D01*
X203593557Y-70129377D01*
X203612823Y-69860000D01*
X203593557Y-69590623D01*
X203586895Y-69560000D01*
X213757176Y-69560000D01*
X213776443Y-69829377D01*
X213833848Y-70093265D01*
X213846395Y-70126906D01*
X213928228Y-70346307D01*
X213945902Y-70378674D01*
X214057654Y-70583335D01*
X214104795Y-70646307D01*
X214219500Y-70799535D01*
X214410465Y-70990500D01*
X214556119Y-71099535D01*
X214626664Y-71152345D01*
X214711401Y-71198614D01*
X214863693Y-71281772D01*
X215116730Y-71376150D01*
X215116733Y-71376150D01*
X215116734Y-71376151D01*
X215154291Y-71384321D01*
X215380623Y-71433557D01*
X215630733Y-71451445D01*
X215649999Y-71452823D01*
X215649999Y-71452822D01*
X215650000Y-71452823D01*
X215919377Y-71433557D01*
X216183270Y-71376150D01*
X216436307Y-71281772D01*
X216673337Y-71152344D01*
X216889535Y-70990500D01*
X217080500Y-70799535D01*
X217242344Y-70583337D01*
X217371772Y-70346307D01*
X217466150Y-70093270D01*
X217523557Y-69829377D01*
X217542823Y-69560000D01*
X217523557Y-69290623D01*
X217466150Y-69026730D01*
X217371772Y-68773693D01*
X217242344Y-68536663D01*
X217080500Y-68320465D01*
X216889535Y-68129500D01*
X216775120Y-68043850D01*
X216673335Y-67967654D01*
X216503859Y-67875114D01*
X216436307Y-67838228D01*
X216183270Y-67743850D01*
X216183265Y-67743848D01*
X215919377Y-67686443D01*
X215650000Y-67667176D01*
X215380622Y-67686443D01*
X215116734Y-67743848D01*
X214990211Y-67791038D01*
X214863693Y-67838228D01*
X214863690Y-67838229D01*
X214863689Y-67838230D01*
X214626664Y-67967654D01*
X214410462Y-68129502D01*
X214219502Y-68320462D01*
X214057654Y-68536664D01*
X213933688Y-68763693D01*
X213928228Y-68773693D01*
X213904741Y-68836664D01*
X213833848Y-69026734D01*
X213776443Y-69290622D01*
X213757176Y-69560000D01*
X203586895Y-69560000D01*
X203536150Y-69326730D01*
X203441772Y-69073693D01*
X203312344Y-68836663D01*
X203150500Y-68620465D01*
X202959535Y-68429500D01*
X202851435Y-68348577D01*
X202743335Y-68267654D01*
X202573859Y-68175114D01*
X202506307Y-68138228D01*
X202253270Y-68043850D01*
X202253265Y-68043848D01*
X201989377Y-67986443D01*
X201719999Y-67967176D01*
X201450622Y-67986443D01*
X201186734Y-68043848D01*
X201060211Y-68091038D01*
X200933693Y-68138228D01*
X200933690Y-68138229D01*
X200933689Y-68138230D01*
X200696664Y-68267654D01*
X200480462Y-68429502D01*
X200289502Y-68620462D01*
X200127654Y-68836664D01*
X199998230Y-69073689D01*
X199998228Y-69073693D01*
X199951039Y-69200211D01*
X199903848Y-69326734D01*
X199846443Y-69590622D01*
X199827176Y-69859999D01*
X192760000Y-69859999D01*
X192760000Y-65160000D01*
X199827176Y-65160000D01*
X199846443Y-65429377D01*
X199903848Y-65693265D01*
X199903850Y-65693270D01*
X199998228Y-65946307D01*
X199998230Y-65946310D01*
X200127654Y-66183335D01*
X200200389Y-66280497D01*
X200289500Y-66399535D01*
X200480465Y-66590500D01*
X200581523Y-66666151D01*
X200696664Y-66752345D01*
X200781401Y-66798614D01*
X200933693Y-66881772D01*
X201186730Y-66976150D01*
X201186733Y-66976150D01*
X201186734Y-66976151D01*
X201224291Y-66984321D01*
X201450623Y-67033557D01*
X201720000Y-67052823D01*
X201989377Y-67033557D01*
X202253270Y-66976150D01*
X202506307Y-66881772D01*
X202743337Y-66752344D01*
X202959535Y-66590500D01*
X203150500Y-66399535D01*
X203312344Y-66183337D01*
X203441772Y-65946307D01*
X203536150Y-65693270D01*
X203593557Y-65429377D01*
X203612823Y-65160000D01*
X203593557Y-64890623D01*
X203586895Y-64860000D01*
X213757176Y-64860000D01*
X213776443Y-65129377D01*
X213833848Y-65393265D01*
X213833850Y-65393270D01*
X213928228Y-65646307D01*
X213928230Y-65646310D01*
X214057654Y-65883335D01*
X214104795Y-65946307D01*
X214219500Y-66099535D01*
X214410465Y-66290500D01*
X214556119Y-66399535D01*
X214626664Y-66452345D01*
X214711401Y-66498614D01*
X214863693Y-66581772D01*
X215116730Y-66676150D01*
X215116733Y-66676150D01*
X215116734Y-66676151D01*
X215154291Y-66684321D01*
X215380623Y-66733557D01*
X215630733Y-66751445D01*
X215649999Y-66752823D01*
X215649999Y-66752822D01*
X215650000Y-66752823D01*
X215919377Y-66733557D01*
X216183270Y-66676150D01*
X216436307Y-66581772D01*
X216673337Y-66452344D01*
X216889535Y-66290500D01*
X217080500Y-66099535D01*
X217242344Y-65883337D01*
X217371772Y-65646307D01*
X217466150Y-65393270D01*
X217509705Y-65193048D01*
X217522038Y-65159984D01*
X217543186Y-65131733D01*
X225063340Y-57611581D01*
X225159697Y-57493408D01*
X225253909Y-57313049D01*
X225309886Y-57117418D01*
X225325337Y-56914524D01*
X225299630Y-56712673D01*
X225233816Y-56520128D01*
X225130590Y-56344773D01*
X224994179Y-56193787D01*
X224994178Y-56193786D01*
X224994176Y-56193784D01*
X224830166Y-56073350D01*
X224645268Y-55988394D01*
X224447054Y-55942397D01*
X224243637Y-55937243D01*
X224043345Y-55973141D01*
X223854380Y-56048622D01*
X223684481Y-56160596D01*
X216676936Y-63168142D01*
X216632589Y-63196643D01*
X216580409Y-63204145D01*
X216529829Y-63189294D01*
X216453277Y-63147494D01*
X216436307Y-63138228D01*
X216436306Y-63138227D01*
X216436305Y-63138227D01*
X216183268Y-63043849D01*
X215919377Y-62986443D01*
X215650000Y-62967176D01*
X215380622Y-62986443D01*
X215116734Y-63043848D01*
X214990211Y-63091038D01*
X214863693Y-63138228D01*
X214863690Y-63138229D01*
X214863689Y-63138230D01*
X214626664Y-63267654D01*
X214410462Y-63429502D01*
X214219502Y-63620462D01*
X214057654Y-63836664D01*
X213933688Y-64063693D01*
X213928228Y-64073693D01*
X213904741Y-64136664D01*
X213833848Y-64326734D01*
X213776443Y-64590622D01*
X213757176Y-64860000D01*
X203586895Y-64860000D01*
X203536150Y-64626730D01*
X203441772Y-64373693D01*
X203312344Y-64136663D01*
X203150500Y-63920465D01*
X202959535Y-63729500D01*
X202851436Y-63648578D01*
X202743335Y-63567654D01*
X202573859Y-63475114D01*
X202506307Y-63438228D01*
X202253270Y-63343850D01*
X202253265Y-63343848D01*
X201989377Y-63286443D01*
X201719999Y-63267176D01*
X201450622Y-63286443D01*
X201186734Y-63343848D01*
X201060211Y-63391039D01*
X200933693Y-63438228D01*
X200933690Y-63438229D01*
X200933689Y-63438230D01*
X200696664Y-63567654D01*
X200480462Y-63729502D01*
X200289502Y-63920462D01*
X200127654Y-64136664D01*
X199998230Y-64373689D01*
X199998228Y-64373693D01*
X199951039Y-64500211D01*
X199903848Y-64626734D01*
X199846443Y-64890622D01*
X199827176Y-65160000D01*
X192760000Y-65160000D01*
X192760000Y-37831617D01*
X194164500Y-37831617D01*
X194170913Y-37902193D01*
X194170914Y-37902196D01*
X194221522Y-38064606D01*
X194221523Y-38064607D01*
X194309528Y-38210186D01*
X194429811Y-38330469D01*
X194429813Y-38330470D01*
X194429815Y-38330472D01*
X194454650Y-38345485D01*
X194498506Y-38390686D01*
X194514500Y-38451602D01*
X194514500Y-53797256D01*
X194512235Y-53817762D01*
X194514439Y-53887873D01*
X194514500Y-53891768D01*
X194514500Y-53919349D01*
X194515003Y-53923334D01*
X194515918Y-53934967D01*
X194517290Y-53978626D01*
X194522879Y-53997860D01*
X194526825Y-54016916D01*
X194529335Y-54036792D01*
X194545414Y-54077404D01*
X194549197Y-54088451D01*
X194561382Y-54130391D01*
X194571580Y-54147635D01*
X194580136Y-54165100D01*
X194587514Y-54183732D01*
X194598066Y-54198256D01*
X194613180Y-54219059D01*
X194619593Y-54228822D01*
X194641826Y-54266416D01*
X194641829Y-54266419D01*
X194641830Y-54266420D01*
X194655995Y-54280585D01*
X194668627Y-54295375D01*
X194680406Y-54311587D01*
X194714058Y-54339426D01*
X194722699Y-54347289D01*
X199955699Y-59580289D01*
X199989184Y-59641612D01*
X199984200Y-59711303D01*
X199903849Y-59926731D01*
X199846443Y-60190622D01*
X199827176Y-60459999D01*
X199846443Y-60729377D01*
X199903848Y-60993265D01*
X199903850Y-60993270D01*
X199998228Y-61246307D01*
X199998230Y-61246310D01*
X200127654Y-61483335D01*
X200200389Y-61580497D01*
X200289500Y-61699535D01*
X200480465Y-61890500D01*
X200581523Y-61966151D01*
X200696664Y-62052345D01*
X200781401Y-62098614D01*
X200933693Y-62181772D01*
X201186730Y-62276150D01*
X201186733Y-62276150D01*
X201186734Y-62276151D01*
X201224291Y-62284321D01*
X201450623Y-62333557D01*
X201720000Y-62352823D01*
X201989377Y-62333557D01*
X202253270Y-62276150D01*
X202506307Y-62181772D01*
X202743337Y-62052344D01*
X202959535Y-61890500D01*
X203150500Y-61699535D01*
X203312344Y-61483337D01*
X203441772Y-61246307D01*
X203536150Y-60993270D01*
X203593557Y-60729377D01*
X203612823Y-60460000D01*
X203593557Y-60190623D01*
X203536150Y-59926730D01*
X203441772Y-59673693D01*
X203312344Y-59436663D01*
X203150500Y-59220465D01*
X202959535Y-59029500D01*
X202851436Y-58948578D01*
X202743335Y-58867654D01*
X202539213Y-58756196D01*
X202506307Y-58738228D01*
X202253270Y-58643850D01*
X202253265Y-58643848D01*
X201989377Y-58586443D01*
X201720000Y-58567176D01*
X201450622Y-58586443D01*
X201186734Y-58643848D01*
X201084482Y-58681986D01*
X200971302Y-58724200D01*
X200925020Y-58731983D01*
X200879158Y-58722006D01*
X200840290Y-58695699D01*
X195801819Y-53657228D01*
X195774939Y-53617000D01*
X195765500Y-53569547D01*
X195765500Y-43065477D01*
X197494663Y-43065477D01*
X197498506Y-43095651D01*
X197499500Y-43111317D01*
X197499500Y-54515721D01*
X197499460Y-54518863D01*
X197497242Y-54606362D01*
X197507648Y-54664420D01*
X197508957Y-54673749D01*
X197514926Y-54732438D01*
X197524033Y-54761467D01*
X197527772Y-54776702D01*
X197533141Y-54806652D01*
X197555020Y-54861425D01*
X197558180Y-54870300D01*
X197575841Y-54926588D01*
X197590607Y-54953191D01*
X197597337Y-54967364D01*
X197608622Y-54995617D01*
X197641080Y-55044867D01*
X197645961Y-55052923D01*
X197674590Y-55104501D01*
X197694404Y-55127581D01*
X197703856Y-55140116D01*
X197720599Y-55165520D01*
X197762300Y-55207221D01*
X197768705Y-55214132D01*
X197807130Y-55258891D01*
X197807131Y-55258892D01*
X197807134Y-55258895D01*
X197831198Y-55277522D01*
X197842968Y-55287889D01*
X200322449Y-57767370D01*
X200324642Y-57769619D01*
X200384941Y-57833053D01*
X200433370Y-57866760D01*
X200440862Y-57872409D01*
X200486592Y-57909697D01*
X200506939Y-57920325D01*
X200513557Y-57923782D01*
X200526981Y-57931915D01*
X200551951Y-57949295D01*
X200606165Y-57972560D01*
X200614675Y-57976602D01*
X200666951Y-58003909D01*
X200696200Y-58012277D01*
X200710970Y-58017535D01*
X200738942Y-58029540D01*
X200738945Y-58029540D01*
X200738946Y-58029541D01*
X200796726Y-58041414D01*
X200805869Y-58043657D01*
X200862582Y-58059886D01*
X200892920Y-58062196D01*
X200908448Y-58064373D01*
X200938259Y-58070500D01*
X200997244Y-58070500D01*
X201006659Y-58070858D01*
X201010806Y-58071173D01*
X201065476Y-58075337D01*
X201092278Y-58071923D01*
X201095652Y-58071494D01*
X201111317Y-58070500D01*
X212094217Y-58070500D01*
X212141670Y-58079939D01*
X212181898Y-58106819D01*
X213762380Y-59687300D01*
X213793676Y-59740046D01*
X213795865Y-59801338D01*
X213776443Y-59890620D01*
X213757176Y-60159999D01*
X213776443Y-60429377D01*
X213833848Y-60693265D01*
X213833850Y-60693270D01*
X213928228Y-60946307D01*
X213928230Y-60946310D01*
X214057654Y-61183335D01*
X214104795Y-61246307D01*
X214219500Y-61399535D01*
X214410465Y-61590500D01*
X214556119Y-61699535D01*
X214626664Y-61752345D01*
X214711401Y-61798614D01*
X214863693Y-61881772D01*
X215116730Y-61976150D01*
X215116733Y-61976150D01*
X215116734Y-61976151D01*
X215154291Y-61984321D01*
X215380623Y-62033557D01*
X215650000Y-62052823D01*
X215919377Y-62033557D01*
X216183270Y-61976150D01*
X216436307Y-61881772D01*
X216673337Y-61752344D01*
X216889535Y-61590500D01*
X217080500Y-61399535D01*
X217242344Y-61183337D01*
X217371772Y-60946307D01*
X217466150Y-60693270D01*
X217523557Y-60429377D01*
X217542823Y-60160000D01*
X217523557Y-59890623D01*
X217466150Y-59626730D01*
X217371772Y-59373693D01*
X217242344Y-59136663D01*
X217080500Y-58920465D01*
X216889535Y-58729500D01*
X216775120Y-58643850D01*
X216673335Y-58567654D01*
X216450899Y-58446196D01*
X216436307Y-58438228D01*
X216216906Y-58356395D01*
X216183265Y-58343848D01*
X215919377Y-58286443D01*
X215650000Y-58267176D01*
X215380620Y-58286443D01*
X215291338Y-58305865D01*
X215230046Y-58303676D01*
X215177300Y-58272380D01*
X213277567Y-56372647D01*
X213275412Y-56370438D01*
X213215059Y-56306947D01*
X213166640Y-56273246D01*
X213159118Y-56267575D01*
X213113405Y-56230300D01*
X213086440Y-56216215D01*
X213073019Y-56208084D01*
X213048049Y-56190705D01*
X213048048Y-56190704D01*
X213048046Y-56190703D01*
X212993845Y-56167443D01*
X212985336Y-56163402D01*
X212933053Y-56136092D01*
X212927126Y-56134396D01*
X212903798Y-56127721D01*
X212889020Y-56122459D01*
X212861058Y-56110460D01*
X212803272Y-56098583D01*
X212794128Y-56096338D01*
X212737421Y-56080113D01*
X212707075Y-56077802D01*
X212691534Y-56075622D01*
X212661742Y-56069500D01*
X212661741Y-56069500D01*
X212602758Y-56069500D01*
X212593344Y-56069142D01*
X212584198Y-56068445D01*
X212534524Y-56064663D01*
X212534523Y-56064663D01*
X212504349Y-56068506D01*
X212488683Y-56069500D01*
X203551985Y-56069500D01*
X203497141Y-56056712D01*
X203453609Y-56020986D01*
X203430368Y-55969691D01*
X203432210Y-55913406D01*
X203470636Y-55770000D01*
X202014000Y-55770000D01*
X201952000Y-55753387D01*
X201906613Y-55708000D01*
X201890000Y-55646000D01*
X201890000Y-55394000D01*
X201906613Y-55332000D01*
X201952000Y-55286613D01*
X202014000Y-55270000D01*
X203470636Y-55270000D01*
X203470635Y-55269999D01*
X203413430Y-55056507D01*
X203313599Y-54842421D01*
X203178109Y-54648921D01*
X203011081Y-54481893D01*
X202825404Y-54351880D01*
X202786539Y-54307562D01*
X202772528Y-54250305D01*
X202786539Y-54193048D01*
X202825402Y-54148732D01*
X203011401Y-54018495D01*
X203178495Y-53851401D01*
X203314035Y-53657830D01*
X203413903Y-53443663D01*
X203475063Y-53215408D01*
X203495659Y-52980000D01*
X203493865Y-52959500D01*
X203475063Y-52744592D01*
X203413903Y-52516337D01*
X203314035Y-52302171D01*
X203178495Y-52108599D01*
X203011401Y-51941505D01*
X202825839Y-51811573D01*
X202786975Y-51767257D01*
X202772964Y-51710000D01*
X202786975Y-51652743D01*
X202825839Y-51608426D01*
X203011401Y-51478495D01*
X203178495Y-51311401D01*
X203314035Y-51117830D01*
X203413903Y-50903663D01*
X203475063Y-50675408D01*
X203481821Y-50598162D01*
X203496598Y-50429272D01*
X203521750Y-50364592D01*
X203577716Y-50323557D01*
X203646965Y-50319018D01*
X203707807Y-50352398D01*
X204949196Y-51593787D01*
X204962096Y-51609888D01*
X205013223Y-51657900D01*
X205016019Y-51660610D01*
X205035529Y-51680120D01*
X205038711Y-51682588D01*
X205047571Y-51690155D01*
X205079418Y-51720062D01*
X205096972Y-51729712D01*
X205113236Y-51740396D01*
X205124972Y-51749499D01*
X205129064Y-51752673D01*
X205153909Y-51763424D01*
X205169152Y-51770021D01*
X205179631Y-51775154D01*
X205217908Y-51796197D01*
X205237306Y-51801177D01*
X205255708Y-51807477D01*
X205274104Y-51815438D01*
X205317261Y-51822273D01*
X205328664Y-51824634D01*
X205370981Y-51835500D01*
X205391016Y-51835500D01*
X205410413Y-51837026D01*
X205430196Y-51840160D01*
X205473674Y-51836050D01*
X205485344Y-51835500D01*
X210873597Y-51835500D01*
X210936718Y-51852768D01*
X210937941Y-51853491D01*
X211039610Y-51913618D01*
X211191373Y-51957709D01*
X211226837Y-51960500D01*
X212415500Y-51960499D01*
X212477500Y-51977112D01*
X212522887Y-52022499D01*
X212539500Y-52084499D01*
X212539500Y-52399546D01*
X212530061Y-52446999D01*
X212503181Y-52487227D01*
X211792228Y-53198181D01*
X211752000Y-53225061D01*
X211704547Y-53234500D01*
X208153747Y-53234500D01*
X208103312Y-53223780D01*
X208061598Y-53193473D01*
X208055871Y-53187112D01*
X207902730Y-53075849D01*
X207902729Y-53075848D01*
X207902727Y-53075847D01*
X207729802Y-52998855D01*
X207544648Y-52959500D01*
X207544646Y-52959500D01*
X207355354Y-52959500D01*
X207355352Y-52959500D01*
X207170197Y-52998855D01*
X206997269Y-53075848D01*
X206844129Y-53187110D01*
X206717466Y-53327783D01*
X206622820Y-53491715D01*
X206564326Y-53671742D01*
X206544540Y-53860000D01*
X206564326Y-54048257D01*
X206622820Y-54228284D01*
X206717466Y-54392216D01*
X206844129Y-54532889D01*
X206997269Y-54644151D01*
X207170197Y-54721144D01*
X207355352Y-54760500D01*
X207355354Y-54760500D01*
X207544646Y-54760500D01*
X207544648Y-54760500D01*
X207676668Y-54732438D01*
X207729803Y-54721144D01*
X207902730Y-54644151D01*
X208055871Y-54532888D01*
X208061598Y-54526526D01*
X208103312Y-54496220D01*
X208153747Y-54485500D01*
X211932256Y-54485500D01*
X211952762Y-54487764D01*
X211955665Y-54487672D01*
X211955667Y-54487673D01*
X212022872Y-54485561D01*
X212026768Y-54485500D01*
X212054349Y-54485500D01*
X212054350Y-54485500D01*
X212058319Y-54484998D01*
X212069965Y-54484080D01*
X212113627Y-54482709D01*
X212132859Y-54477120D01*
X212151918Y-54473174D01*
X212158196Y-54472381D01*
X212171792Y-54470664D01*
X212212407Y-54454582D01*
X212223444Y-54450803D01*
X212265390Y-54438618D01*
X212282629Y-54428422D01*
X212300102Y-54419862D01*
X212318732Y-54412486D01*
X212354064Y-54386814D01*
X212363830Y-54380400D01*
X212401418Y-54358171D01*
X212401417Y-54358171D01*
X212401420Y-54358170D01*
X212415585Y-54344004D01*
X212430373Y-54331373D01*
X212446587Y-54319594D01*
X212474438Y-54285926D01*
X212482279Y-54277309D01*
X212906431Y-53853158D01*
X212963274Y-53820736D01*
X213028703Y-53821764D01*
X213066373Y-53832709D01*
X213101837Y-53835500D01*
X213478162Y-53835499D01*
X213478164Y-53835499D01*
X213513628Y-53832709D01*
X213655405Y-53791519D01*
X213724595Y-53791519D01*
X213788132Y-53809978D01*
X213866373Y-53832709D01*
X213901837Y-53835500D01*
X214278162Y-53835499D01*
X214278164Y-53835499D01*
X214313628Y-53832709D01*
X214455405Y-53791519D01*
X214524595Y-53791519D01*
X214588132Y-53809978D01*
X214666373Y-53832709D01*
X214701837Y-53835500D01*
X215078162Y-53835499D01*
X215078164Y-53835499D01*
X215113628Y-53832709D01*
X215255405Y-53791519D01*
X215324595Y-53791519D01*
X215388132Y-53809978D01*
X215466373Y-53832709D01*
X215501837Y-53835500D01*
X215878162Y-53835499D01*
X215878164Y-53835499D01*
X215913628Y-53832709D01*
X216055405Y-53791519D01*
X216124595Y-53791519D01*
X216188132Y-53809978D01*
X216266373Y-53832709D01*
X216301837Y-53835500D01*
X216678162Y-53835499D01*
X216678164Y-53835499D01*
X216713628Y-53832709D01*
X216855405Y-53791519D01*
X216924595Y-53791519D01*
X216988132Y-53809978D01*
X217066373Y-53832709D01*
X217101837Y-53835500D01*
X217347133Y-53835499D01*
X217398749Y-53846753D01*
X217440997Y-53878472D01*
X217466207Y-53924899D01*
X217472878Y-53947857D01*
X217476825Y-53966916D01*
X217479335Y-53986792D01*
X217495414Y-54027404D01*
X217499197Y-54038451D01*
X217511382Y-54080391D01*
X217521580Y-54097635D01*
X217530136Y-54115100D01*
X217537514Y-54133732D01*
X217537515Y-54133733D01*
X217563180Y-54169059D01*
X217569593Y-54178822D01*
X217591826Y-54216416D01*
X217591829Y-54216419D01*
X217591830Y-54216420D01*
X217605995Y-54230585D01*
X217618627Y-54245375D01*
X217630406Y-54261587D01*
X217659846Y-54285942D01*
X217664058Y-54289426D01*
X217672699Y-54297289D01*
X217851609Y-54476199D01*
X217875848Y-54510496D01*
X217887249Y-54550918D01*
X217894326Y-54618257D01*
X217952820Y-54798284D01*
X218047466Y-54962216D01*
X218174129Y-55102889D01*
X218327269Y-55214151D01*
X218500197Y-55291144D01*
X218685352Y-55330500D01*
X218685354Y-55330500D01*
X218874646Y-55330500D01*
X218874648Y-55330500D01*
X218998084Y-55304262D01*
X219059803Y-55291144D01*
X219232730Y-55214151D01*
X219299665Y-55165520D01*
X219385870Y-55102889D01*
X219482459Y-54995617D01*
X219512533Y-54962216D01*
X219607179Y-54798284D01*
X219665674Y-54618256D01*
X219685460Y-54430000D01*
X219665674Y-54241744D01*
X219623665Y-54112454D01*
X219607179Y-54061715D01*
X219512535Y-53897786D01*
X219460336Y-53839814D01*
X219448785Y-53826985D01*
X219420115Y-53771909D01*
X219421741Y-53709836D01*
X219453254Y-53656335D01*
X219513170Y-53596420D01*
X219590076Y-53466378D01*
X219635371Y-53421790D01*
X219696808Y-53405500D01*
X229434773Y-53405500D01*
X229492030Y-53419511D01*
X229536346Y-53458374D01*
X229671505Y-53651401D01*
X229671507Y-53651403D01*
X229671508Y-53651404D01*
X229793430Y-53773326D01*
X229824726Y-53826072D01*
X229826915Y-53887365D01*
X229799462Y-53942209D01*
X229749083Y-53977189D01*
X229617669Y-54026204D01*
X229502454Y-54112454D01*
X229416204Y-54227668D01*
X229365909Y-54362516D01*
X229359500Y-54422130D01*
X229359500Y-56217869D01*
X229365909Y-56277484D01*
X229376898Y-56306947D01*
X229416204Y-56412331D01*
X229502454Y-56527546D01*
X229617669Y-56613796D01*
X229752517Y-56664091D01*
X229812127Y-56670500D01*
X231135500Y-56670499D01*
X231197500Y-56687112D01*
X231242887Y-56732499D01*
X231259500Y-56794499D01*
X231259500Y-57704548D01*
X231250061Y-57752001D01*
X231223181Y-57792229D01*
X230629709Y-58385699D01*
X230590840Y-58412006D01*
X230544979Y-58421983D01*
X230498698Y-58414200D01*
X230283270Y-58333850D01*
X230283265Y-58333848D01*
X230019377Y-58276443D01*
X229750000Y-58257176D01*
X229480622Y-58276443D01*
X229216734Y-58333848D01*
X229090211Y-58381038D01*
X228963693Y-58428228D01*
X228963690Y-58428229D01*
X228963689Y-58428230D01*
X228726664Y-58557654D01*
X228510462Y-58719502D01*
X228319502Y-58910462D01*
X228157654Y-59126664D01*
X228032965Y-59355018D01*
X228028228Y-59363693D01*
X228001012Y-59436663D01*
X227933848Y-59616734D01*
X227876443Y-59880622D01*
X227857176Y-60149999D01*
X227876443Y-60419377D01*
X227933849Y-60683268D01*
X228014199Y-60898695D01*
X228019183Y-60968386D01*
X227985698Y-61029709D01*
X219016208Y-69999199D01*
X219000110Y-70012096D01*
X218952096Y-70063225D01*
X218949391Y-70066017D01*
X218929874Y-70085534D01*
X218927415Y-70088705D01*
X218919842Y-70097572D01*
X218889935Y-70129420D01*
X218880285Y-70146974D01*
X218869609Y-70163228D01*
X218857326Y-70179063D01*
X218839975Y-70219158D01*
X218834838Y-70229644D01*
X218813802Y-70267907D01*
X218808821Y-70287309D01*
X218802520Y-70305711D01*
X218794561Y-70324102D01*
X218787728Y-70367242D01*
X218785360Y-70378674D01*
X218774500Y-70420978D01*
X218774500Y-70441016D01*
X218772973Y-70460415D01*
X218769840Y-70480194D01*
X218773950Y-70523675D01*
X218774500Y-70535344D01*
X218774500Y-73965501D01*
X218757887Y-74027501D01*
X218712500Y-74072888D01*
X218650500Y-74089501D01*
X218502128Y-74089501D01*
X218472322Y-74092705D01*
X218442515Y-74095909D01*
X218307669Y-74146204D01*
X218192454Y-74232454D01*
X218106204Y-74347669D01*
X218056997Y-74479599D01*
X218022018Y-74529978D01*
X217967173Y-74557431D01*
X217905880Y-74555242D01*
X217853134Y-74523946D01*
X217731081Y-74401893D01*
X217537576Y-74266399D01*
X217323492Y-74166569D01*
X217110000Y-74109364D01*
X217110000Y-76770635D01*
X217323492Y-76713430D01*
X217537576Y-76613600D01*
X217731077Y-76478109D01*
X217853133Y-76356053D01*
X217905880Y-76324757D01*
X217967173Y-76322568D01*
X218022018Y-76350021D01*
X218056996Y-76400399D01*
X218106204Y-76532331D01*
X218192454Y-76647546D01*
X218307669Y-76733796D01*
X218442517Y-76784091D01*
X218502127Y-76790500D01*
X220297872Y-76790499D01*
X220357483Y-76784091D01*
X220492331Y-76733796D01*
X220607546Y-76647546D01*
X220693796Y-76532331D01*
X220744091Y-76397483D01*
X220750500Y-76337873D01*
X220750499Y-75160000D01*
X225784450Y-75160000D01*
X225804616Y-75429100D01*
X225804617Y-75429103D01*
X225864666Y-75692195D01*
X225963257Y-75943398D01*
X226098185Y-76177102D01*
X226266439Y-76388085D01*
X226464259Y-76571635D01*
X226687226Y-76723651D01*
X226930359Y-76840738D01*
X227188228Y-76920280D01*
X227455071Y-76960500D01*
X227724929Y-76960500D01*
X227991772Y-76920280D01*
X228249641Y-76840738D01*
X228492775Y-76723651D01*
X228715741Y-76571635D01*
X228913561Y-76388085D01*
X229081815Y-76177102D01*
X229216743Y-75943398D01*
X229315334Y-75692195D01*
X229375383Y-75429103D01*
X229395549Y-75160000D01*
X229375383Y-74890897D01*
X229315334Y-74627805D01*
X229216743Y-74376602D01*
X229081815Y-74142898D01*
X228913561Y-73931915D01*
X228913560Y-73931914D01*
X228715743Y-73748366D01*
X228658205Y-73709137D01*
X228492775Y-73596349D01*
X228249641Y-73479262D01*
X228170098Y-73454726D01*
X227991771Y-73399719D01*
X227724929Y-73359500D01*
X227455071Y-73359500D01*
X227188228Y-73399719D01*
X226930359Y-73479262D01*
X226687228Y-73596347D01*
X226464257Y-73748366D01*
X226266439Y-73931915D01*
X226098184Y-74142899D01*
X225963257Y-74376601D01*
X225864666Y-74627804D01*
X225804616Y-74890899D01*
X225784450Y-75160000D01*
X220750499Y-75160000D01*
X220750499Y-74542128D01*
X220744091Y-74482517D01*
X220693796Y-74347669D01*
X220607546Y-74232454D01*
X220492331Y-74146204D01*
X220357483Y-74095909D01*
X220297873Y-74089500D01*
X220297869Y-74089500D01*
X220149500Y-74089500D01*
X220087500Y-74072887D01*
X220042113Y-74027500D01*
X220025500Y-73965500D01*
X220025500Y-70810452D01*
X220034939Y-70762999D01*
X220061819Y-70722771D01*
X221234590Y-69550000D01*
X227857176Y-69550000D01*
X227876443Y-69819377D01*
X227933848Y-70083265D01*
X227934694Y-70085534D01*
X228028228Y-70336307D01*
X228033690Y-70346310D01*
X228157654Y-70573335D01*
X228212281Y-70646307D01*
X228319500Y-70789535D01*
X228510465Y-70980500D01*
X228669477Y-71099535D01*
X228726664Y-71142345D01*
X228744978Y-71152345D01*
X228963693Y-71271772D01*
X229216730Y-71366150D01*
X229216733Y-71366150D01*
X229216734Y-71366151D01*
X229254291Y-71374321D01*
X229480623Y-71423557D01*
X229750000Y-71442823D01*
X230019377Y-71423557D01*
X230283270Y-71366150D01*
X230536307Y-71271772D01*
X230773337Y-71142344D01*
X230989535Y-70980500D01*
X231180500Y-70789535D01*
X231342344Y-70573337D01*
X231471772Y-70336307D01*
X231566150Y-70083270D01*
X231623557Y-69819377D01*
X231642823Y-69550000D01*
X231623557Y-69280623D01*
X231566150Y-69016730D01*
X231471772Y-68763693D01*
X231347805Y-68536664D01*
X231342345Y-68526664D01*
X231269610Y-68429502D01*
X231180500Y-68310465D01*
X230989535Y-68119500D01*
X230811792Y-67986443D01*
X230773335Y-67957654D01*
X230554624Y-67838230D01*
X230536307Y-67828228D01*
X230283270Y-67733850D01*
X230283265Y-67733848D01*
X230019377Y-67676443D01*
X229750000Y-67657176D01*
X229480622Y-67676443D01*
X229216734Y-67733848D01*
X229090211Y-67781038D01*
X228963693Y-67828228D01*
X228963690Y-67828229D01*
X228963689Y-67828230D01*
X228726664Y-67957654D01*
X228510462Y-68119502D01*
X228319502Y-68310462D01*
X228157654Y-68526664D01*
X228028230Y-68763689D01*
X228028228Y-68763693D01*
X228001012Y-68836663D01*
X227933848Y-69016734D01*
X227876443Y-69280622D01*
X227857176Y-69550000D01*
X221234590Y-69550000D01*
X222257927Y-68526663D01*
X225934590Y-64849999D01*
X227857176Y-64849999D01*
X227876443Y-65119377D01*
X227933848Y-65383265D01*
X227933850Y-65383270D01*
X228028228Y-65636307D01*
X228033690Y-65646310D01*
X228157654Y-65873335D01*
X228212281Y-65946307D01*
X228319500Y-66089535D01*
X228510465Y-66280500D01*
X228669477Y-66399535D01*
X228726664Y-66442345D01*
X228744978Y-66452345D01*
X228963693Y-66571772D01*
X229216730Y-66666150D01*
X229216733Y-66666150D01*
X229216734Y-66666151D01*
X229254291Y-66674321D01*
X229480623Y-66723557D01*
X229750000Y-66742823D01*
X230019377Y-66723557D01*
X230283270Y-66666150D01*
X230536307Y-66571772D01*
X230773337Y-66442344D01*
X230989535Y-66280500D01*
X231180500Y-66089535D01*
X231342344Y-65873337D01*
X231471772Y-65636307D01*
X231566150Y-65383270D01*
X231623557Y-65119377D01*
X231642823Y-64850000D01*
X231623557Y-64580623D01*
X231566150Y-64316730D01*
X231471772Y-64063693D01*
X231347805Y-63836664D01*
X231342345Y-63826664D01*
X231269610Y-63729502D01*
X231180500Y-63610465D01*
X230989535Y-63419500D01*
X230811792Y-63286443D01*
X230773335Y-63257654D01*
X230554624Y-63138230D01*
X230536307Y-63128228D01*
X230283270Y-63033850D01*
X230283265Y-63033848D01*
X230019377Y-62976443D01*
X229750000Y-62957176D01*
X229480622Y-62976443D01*
X229216734Y-63033848D01*
X229090211Y-63081039D01*
X228963693Y-63128228D01*
X228963690Y-63128229D01*
X228963689Y-63128230D01*
X228726664Y-63257654D01*
X228510462Y-63419502D01*
X228319502Y-63610462D01*
X228157654Y-63826664D01*
X228028230Y-64063689D01*
X228028228Y-64063693D01*
X228001012Y-64136663D01*
X227933848Y-64316734D01*
X227876443Y-64580622D01*
X227857176Y-64849999D01*
X225934590Y-64849999D01*
X228870291Y-61914297D01*
X228909156Y-61887993D01*
X228955018Y-61878016D01*
X229001299Y-61885798D01*
X229216730Y-61966150D01*
X229216733Y-61966150D01*
X229216734Y-61966151D01*
X229254291Y-61974321D01*
X229480623Y-62023557D01*
X229750000Y-62042823D01*
X230019377Y-62023557D01*
X230283270Y-61966150D01*
X230536307Y-61871772D01*
X230773337Y-61742344D01*
X230989535Y-61580500D01*
X231180500Y-61389535D01*
X231342344Y-61173337D01*
X231471772Y-60936307D01*
X231566150Y-60683270D01*
X231623557Y-60419377D01*
X231642823Y-60150000D01*
X231623557Y-59880623D01*
X231566150Y-59616730D01*
X231485798Y-59401299D01*
X231478016Y-59355018D01*
X231487993Y-59309156D01*
X231514297Y-59270291D01*
X232268788Y-58515801D01*
X232284885Y-58502906D01*
X232286873Y-58500787D01*
X232286877Y-58500786D01*
X232332948Y-58451723D01*
X232335566Y-58449023D01*
X232355120Y-58429471D01*
X232357581Y-58426298D01*
X232365156Y-58417427D01*
X232395062Y-58385582D01*
X232404712Y-58368027D01*
X232415400Y-58351757D01*
X232427671Y-58335938D01*
X232427673Y-58335936D01*
X232445026Y-58295832D01*
X232450157Y-58285362D01*
X232471197Y-58247092D01*
X232476175Y-58227699D01*
X232482481Y-58209282D01*
X232484018Y-58205728D01*
X232490438Y-58190896D01*
X232497272Y-58147745D01*
X232499635Y-58136331D01*
X232510500Y-58094019D01*
X232510500Y-58073984D01*
X232512027Y-58054585D01*
X232513757Y-58043661D01*
X232515160Y-58034804D01*
X232511050Y-57991325D01*
X232510500Y-57979656D01*
X232510500Y-48957744D01*
X232512764Y-48937237D01*
X232511994Y-48912743D01*
X232510561Y-48867127D01*
X232510500Y-48863232D01*
X232510500Y-48835653D01*
X232509997Y-48831672D01*
X232509080Y-48820019D01*
X232508765Y-48809998D01*
X232507709Y-48776373D01*
X232502120Y-48757140D01*
X232498174Y-48738082D01*
X232495664Y-48718206D01*
X232479588Y-48677604D01*
X232475804Y-48666553D01*
X232466105Y-48633170D01*
X232463618Y-48624610D01*
X232453414Y-48607355D01*
X232444861Y-48589895D01*
X232437486Y-48571268D01*
X232411808Y-48535925D01*
X232405401Y-48526171D01*
X232401462Y-48519511D01*
X232383170Y-48488580D01*
X232369006Y-48474416D01*
X232356367Y-48459617D01*
X232344595Y-48443413D01*
X232310941Y-48415573D01*
X232302299Y-48407709D01*
X232050237Y-48155647D01*
X232018143Y-48100059D01*
X232018143Y-48035872D01*
X232025665Y-48007801D01*
X232045063Y-47935408D01*
X232065659Y-47700000D01*
X232060811Y-47644594D01*
X232045063Y-47464594D01*
X232045063Y-47464592D01*
X232018143Y-47364126D01*
X232018143Y-47299939D01*
X232050235Y-47244353D01*
X236853789Y-42440800D01*
X236869885Y-42427906D01*
X236871873Y-42425787D01*
X236871877Y-42425786D01*
X236917948Y-42376723D01*
X236920566Y-42374023D01*
X236940120Y-42354471D01*
X236942581Y-42351298D01*
X236950156Y-42342427D01*
X236980062Y-42310582D01*
X236989717Y-42293018D01*
X237000394Y-42276764D01*
X237012673Y-42260936D01*
X237030018Y-42220852D01*
X237035160Y-42210356D01*
X237056197Y-42172092D01*
X237061179Y-42152684D01*
X237067481Y-42134280D01*
X237075437Y-42115896D01*
X237082269Y-42072752D01*
X237084633Y-42061338D01*
X237095500Y-42019019D01*
X237095500Y-41998984D01*
X237097027Y-41979585D01*
X237097556Y-41976245D01*
X237100160Y-41959804D01*
X237096050Y-41916325D01*
X237095500Y-41904656D01*
X237095500Y-37921520D01*
X237104939Y-37874067D01*
X237131819Y-37833839D01*
X237225471Y-37740186D01*
X237233899Y-37726245D01*
X237313478Y-37594606D01*
X237364086Y-37432196D01*
X237370500Y-37361616D01*
X237370500Y-36698384D01*
X237364086Y-36627804D01*
X237313478Y-36465394D01*
X237225472Y-36319815D01*
X237225471Y-36319813D01*
X237131819Y-36226161D01*
X237104939Y-36185933D01*
X237095500Y-36138480D01*
X237095500Y-35411520D01*
X237104939Y-35364067D01*
X237131819Y-35323839D01*
X237225471Y-35230186D01*
X237233899Y-35216245D01*
X237313478Y-35084606D01*
X237364086Y-34922196D01*
X237370500Y-34851616D01*
X237370500Y-34188384D01*
X237364086Y-34117804D01*
X237313478Y-33955394D01*
X237225472Y-33809815D01*
X237225471Y-33809813D01*
X237105186Y-33689528D01*
X237012800Y-33633679D01*
X236959606Y-33601522D01*
X236797196Y-33550914D01*
X236797193Y-33550913D01*
X236726617Y-33544500D01*
X236726616Y-33544500D01*
X236213384Y-33544500D01*
X236213383Y-33544500D01*
X236142806Y-33550913D01*
X236061598Y-33576218D01*
X235980394Y-33601522D01*
X235980392Y-33601522D01*
X235980392Y-33601523D01*
X235834813Y-33689528D01*
X235732681Y-33791661D01*
X235677094Y-33823755D01*
X235612906Y-33823755D01*
X235557319Y-33791661D01*
X235483124Y-33717466D01*
X235457003Y-33679031D01*
X235446866Y-33633679D01*
X235445561Y-33592145D01*
X235445500Y-33588251D01*
X235445500Y-33560657D01*
X235445500Y-33560650D01*
X235444995Y-33556653D01*
X235444080Y-33545023D01*
X235444064Y-33544500D01*
X235442709Y-33501373D01*
X235437120Y-33482140D01*
X235433174Y-33463082D01*
X235430664Y-33443206D01*
X235414588Y-33402604D01*
X235410804Y-33391553D01*
X235399937Y-33354151D01*
X235398618Y-33349610D01*
X235388414Y-33332355D01*
X235379861Y-33314895D01*
X235372486Y-33296269D01*
X235372486Y-33296268D01*
X235346808Y-33260925D01*
X235340401Y-33251171D01*
X235318170Y-33213580D01*
X235304006Y-33199416D01*
X235291367Y-33184617D01*
X235279595Y-33168413D01*
X235245941Y-33140573D01*
X235237299Y-33132709D01*
X234751309Y-32646718D01*
X234727069Y-32612420D01*
X234715669Y-32571998D01*
X234715459Y-32570004D01*
X234715460Y-32570000D01*
X234695674Y-32381744D01*
X234665332Y-32288363D01*
X234637179Y-32201715D01*
X234542533Y-32037783D01*
X234415870Y-31897110D01*
X234262730Y-31785848D01*
X234089802Y-31708855D01*
X233904648Y-31669500D01*
X233904646Y-31669500D01*
X233715354Y-31669500D01*
X233715352Y-31669500D01*
X233530197Y-31708855D01*
X233357269Y-31785848D01*
X233204129Y-31897110D01*
X233077466Y-32037783D01*
X232982820Y-32201715D01*
X232924326Y-32381742D01*
X232904540Y-32570000D01*
X232924326Y-32758257D01*
X232982820Y-32938284D01*
X233077466Y-33102216D01*
X233204129Y-33242889D01*
X233357269Y-33354151D01*
X233530197Y-33431144D01*
X233715352Y-33470500D01*
X233715354Y-33470500D01*
X233754548Y-33470500D01*
X233802001Y-33479939D01*
X233842229Y-33506819D01*
X234026237Y-33690827D01*
X234055360Y-33736881D01*
X234061928Y-33790972D01*
X234044673Y-33842658D01*
X233976523Y-33955392D01*
X233925913Y-34117806D01*
X233919500Y-34188383D01*
X233919500Y-34851617D01*
X233925913Y-34922193D01*
X233925914Y-34922196D01*
X233976522Y-35084606D01*
X233976523Y-35084607D01*
X234064528Y-35230186D01*
X234184813Y-35350471D01*
X234184815Y-35350472D01*
X234330394Y-35438478D01*
X234492804Y-35489086D01*
X234532881Y-35492728D01*
X234563383Y-35495500D01*
X234563384Y-35495500D01*
X235076616Y-35495500D01*
X235076617Y-35495500D01*
X235107119Y-35492728D01*
X235147196Y-35489086D01*
X235309606Y-35438478D01*
X235455185Y-35350472D01*
X235503481Y-35302176D01*
X235557319Y-35248339D01*
X235612906Y-35216245D01*
X235677094Y-35216245D01*
X235732681Y-35248339D01*
X235808181Y-35323839D01*
X235835061Y-35364067D01*
X235844500Y-35411520D01*
X235844500Y-36138480D01*
X235835061Y-36185933D01*
X235808181Y-36226162D01*
X235732680Y-36301662D01*
X235677092Y-36333755D01*
X235612905Y-36333755D01*
X235557319Y-36301662D01*
X235455185Y-36199528D01*
X235455184Y-36199527D01*
X235354200Y-36138480D01*
X235309606Y-36111522D01*
X235147196Y-36060914D01*
X235147193Y-36060913D01*
X235076617Y-36054500D01*
X235076616Y-36054500D01*
X234563384Y-36054500D01*
X234563383Y-36054500D01*
X234492806Y-36060913D01*
X234411599Y-36086217D01*
X234330394Y-36111522D01*
X234330392Y-36111522D01*
X234330392Y-36111523D01*
X234184813Y-36199528D01*
X234064528Y-36319813D01*
X233995000Y-36434827D01*
X233976522Y-36465394D01*
X233960646Y-36516342D01*
X233925913Y-36627806D01*
X233919500Y-36698383D01*
X233919500Y-36994547D01*
X233910061Y-37042000D01*
X233883181Y-37082228D01*
X229834242Y-41131165D01*
X229784879Y-41161415D01*
X229727162Y-41165957D01*
X229673675Y-41143801D01*
X229662730Y-41135849D01*
X229489802Y-41058855D01*
X229304648Y-41019500D01*
X229304646Y-41019500D01*
X229115354Y-41019500D01*
X229115352Y-41019500D01*
X228930197Y-41058855D01*
X228757269Y-41135848D01*
X228604129Y-41247110D01*
X228477466Y-41387783D01*
X228382820Y-41551715D01*
X228324326Y-41731742D01*
X228305894Y-41907113D01*
X228304540Y-41920000D01*
X228311816Y-41989226D01*
X228324326Y-42108257D01*
X228382820Y-42288284D01*
X228477466Y-42452216D01*
X228604129Y-42592889D01*
X228757269Y-42704151D01*
X228930197Y-42781144D01*
X229115352Y-42820500D01*
X229115354Y-42820500D01*
X229304646Y-42820500D01*
X229304648Y-42820500D01*
X229428083Y-42794262D01*
X229489803Y-42781144D01*
X229662730Y-42704151D01*
X229815871Y-42592888D01*
X229820782Y-42587433D01*
X229860723Y-42557933D01*
X229909036Y-42546467D01*
X229933540Y-42545697D01*
X229937874Y-42545561D01*
X229941768Y-42545500D01*
X229969349Y-42545500D01*
X229969350Y-42545500D01*
X229973319Y-42544998D01*
X229984965Y-42544080D01*
X230028627Y-42542709D01*
X230047859Y-42537120D01*
X230066918Y-42533174D01*
X230073196Y-42532381D01*
X230086792Y-42530664D01*
X230127407Y-42514582D01*
X230138444Y-42510803D01*
X230180390Y-42498618D01*
X230197629Y-42488422D01*
X230215102Y-42479862D01*
X230233732Y-42472486D01*
X230269064Y-42446814D01*
X230278830Y-42440400D01*
X230299957Y-42427906D01*
X230316420Y-42418170D01*
X230330585Y-42404004D01*
X230345373Y-42391373D01*
X230361587Y-42379594D01*
X230389438Y-42345926D01*
X230397279Y-42337309D01*
X234692771Y-38041819D01*
X234733000Y-38014939D01*
X234780453Y-38005500D01*
X235076617Y-38005500D01*
X235094260Y-38003896D01*
X235147196Y-37999086D01*
X235309606Y-37948478D01*
X235455185Y-37860472D01*
X235501164Y-37814493D01*
X235557319Y-37758339D01*
X235612906Y-37726245D01*
X235677094Y-37726245D01*
X235732681Y-37758339D01*
X235808181Y-37833839D01*
X235835061Y-37874067D01*
X235844500Y-37921520D01*
X235844500Y-41629547D01*
X235835061Y-41677000D01*
X235808181Y-41717228D01*
X232151727Y-45373681D01*
X232111499Y-45400561D01*
X232064046Y-45410000D01*
X229379364Y-45410000D01*
X229436569Y-45623492D01*
X229536399Y-45837576D01*
X229671893Y-46031081D01*
X229838918Y-46198106D01*
X230024595Y-46328119D01*
X230063460Y-46372437D01*
X230077471Y-46429694D01*
X230063460Y-46486951D01*
X230024595Y-46531269D01*
X229838595Y-46661508D01*
X229671505Y-46828598D01*
X229535965Y-47022170D01*
X229436097Y-47236336D01*
X229374936Y-47464592D01*
X229354340Y-47699999D01*
X229374936Y-47935407D01*
X229419055Y-48100059D01*
X229436097Y-48163663D01*
X229535965Y-48377830D01*
X229671505Y-48571401D01*
X229838599Y-48738495D01*
X230024160Y-48868426D01*
X230063024Y-48912743D01*
X230077035Y-48970000D01*
X230063024Y-49027257D01*
X230024158Y-49071575D01*
X229855032Y-49189999D01*
X229838595Y-49201508D01*
X229671505Y-49368598D01*
X229535965Y-49562170D01*
X229436097Y-49776336D01*
X229374936Y-50004592D01*
X229354340Y-50239999D01*
X229372687Y-50449692D01*
X229359970Y-50516151D01*
X229314256Y-50566038D01*
X229249159Y-50584500D01*
X221639500Y-50584500D01*
X221577500Y-50567887D01*
X221532113Y-50522500D01*
X221515500Y-50460501D01*
X221515499Y-50221835D01*
X221512709Y-50186370D01*
X221471519Y-50044594D01*
X221471519Y-49975404D01*
X221471883Y-49974151D01*
X221512709Y-49833627D01*
X221515500Y-49798163D01*
X221515499Y-49421838D01*
X221513899Y-49401505D01*
X221512709Y-49386370D01*
X221471519Y-49244594D01*
X221471519Y-49189999D01*
X224084540Y-49189999D01*
X224104326Y-49378257D01*
X224162820Y-49558284D01*
X224257466Y-49722216D01*
X224384129Y-49862889D01*
X224537269Y-49974151D01*
X224710197Y-50051144D01*
X224895352Y-50090500D01*
X224895354Y-50090500D01*
X225084646Y-50090500D01*
X225084648Y-50090500D01*
X225208083Y-50064262D01*
X225269803Y-50051144D01*
X225442730Y-49974151D01*
X225507021Y-49927441D01*
X225595870Y-49862889D01*
X225654153Y-49798160D01*
X225722533Y-49722216D01*
X225817179Y-49558284D01*
X225875674Y-49378256D01*
X225893322Y-49210341D01*
X225904720Y-49169927D01*
X225928957Y-49135632D01*
X227133789Y-47930800D01*
X227149885Y-47917906D01*
X227151873Y-47915787D01*
X227151877Y-47915786D01*
X227197948Y-47866723D01*
X227200566Y-47864023D01*
X227220120Y-47844471D01*
X227222581Y-47841298D01*
X227230156Y-47832427D01*
X227260062Y-47800582D01*
X227269712Y-47783027D01*
X227280400Y-47766757D01*
X227291158Y-47752889D01*
X227292673Y-47750936D01*
X227310026Y-47710832D01*
X227315148Y-47700378D01*
X227336197Y-47662092D01*
X227336198Y-47662087D01*
X227342121Y-47651314D01*
X227386634Y-47604935D01*
X227460185Y-47560472D01*
X227580471Y-47440186D01*
X227582798Y-47436337D01*
X227668478Y-47294606D01*
X227719086Y-47132196D01*
X227725500Y-47061616D01*
X227725500Y-46548384D01*
X227725445Y-46547784D01*
X227719086Y-46477806D01*
X227719086Y-46477804D01*
X227668478Y-46315394D01*
X227580472Y-46169815D01*
X227580471Y-46169813D01*
X227478339Y-46067681D01*
X227446245Y-46012094D01*
X227446245Y-45947906D01*
X227478339Y-45892319D01*
X227580471Y-45790186D01*
X227580472Y-45790185D01*
X227668478Y-45644606D01*
X227719086Y-45482196D01*
X227725500Y-45411616D01*
X227725500Y-44910000D01*
X229379364Y-44910000D01*
X230460000Y-44910000D01*
X230460000Y-43829364D01*
X230960000Y-43829364D01*
X230960000Y-44910000D01*
X232040636Y-44910000D01*
X232040635Y-44909999D01*
X231983430Y-44696507D01*
X231883599Y-44482421D01*
X231748109Y-44288921D01*
X231581081Y-44121893D01*
X231387576Y-43986399D01*
X231173492Y-43886569D01*
X230960000Y-43829364D01*
X230460000Y-43829364D01*
X230459999Y-43829364D01*
X230246507Y-43886569D01*
X230032421Y-43986400D01*
X229838921Y-44121890D01*
X229671890Y-44288921D01*
X229536400Y-44482421D01*
X229436569Y-44696507D01*
X229379364Y-44909999D01*
X229379364Y-44910000D01*
X227725500Y-44910000D01*
X227725500Y-44898384D01*
X227723682Y-44878384D01*
X227720496Y-44843319D01*
X227719086Y-44827804D01*
X227668478Y-44665394D01*
X227580472Y-44519815D01*
X227580471Y-44519813D01*
X227460188Y-44399530D01*
X227460185Y-44399528D01*
X227435349Y-44384514D01*
X227391494Y-44339314D01*
X227375500Y-44278398D01*
X227375500Y-38095452D01*
X227384939Y-38047999D01*
X227411819Y-38007771D01*
X227498070Y-37921520D01*
X227786480Y-37633108D01*
X227846211Y-37599981D01*
X227914423Y-37603510D01*
X227940019Y-37612298D01*
X228168951Y-37650500D01*
X228401048Y-37650500D01*
X228401049Y-37650500D01*
X228629981Y-37612298D01*
X228849503Y-37536936D01*
X229053626Y-37426470D01*
X229236784Y-37283913D01*
X229245511Y-37274432D01*
X229298132Y-37240577D01*
X229360588Y-37236727D01*
X229416971Y-37263865D01*
X229452924Y-37315079D01*
X229481647Y-37392088D01*
X229567811Y-37507188D01*
X229682910Y-37593352D01*
X229817624Y-37643597D01*
X229877176Y-37650000D01*
X230575000Y-37650000D01*
X230575000Y-36500000D01*
X231075000Y-36500000D01*
X231075000Y-37650000D01*
X231772824Y-37650000D01*
X231832375Y-37643597D01*
X231967089Y-37593352D01*
X232082188Y-37507188D01*
X232168352Y-37392089D01*
X232218597Y-37257375D01*
X232225000Y-37197824D01*
X232225000Y-36500000D01*
X231075000Y-36500000D01*
X230575000Y-36500000D01*
X230575000Y-34850000D01*
X231075000Y-34850000D01*
X231075000Y-36000000D01*
X232225000Y-36000000D01*
X232225000Y-35302176D01*
X232218597Y-35242624D01*
X232168352Y-35107910D01*
X232082188Y-34992811D01*
X231967089Y-34906647D01*
X231832375Y-34856402D01*
X231772824Y-34850000D01*
X231075000Y-34850000D01*
X230575000Y-34850000D01*
X229877176Y-34850000D01*
X229817624Y-34856402D01*
X229682910Y-34906647D01*
X229567811Y-34992811D01*
X229481645Y-35107913D01*
X229452923Y-35184920D01*
X229416971Y-35236134D01*
X229360589Y-35263271D01*
X229298135Y-35259423D01*
X229245513Y-35225569D01*
X229236784Y-35216087D01*
X229053626Y-35073530D01*
X228849503Y-34963064D01*
X228849499Y-34963062D01*
X228849498Y-34963062D01*
X228629984Y-34887702D01*
X228413729Y-34851616D01*
X228401049Y-34849500D01*
X228168951Y-34849500D01*
X228156271Y-34851616D01*
X227940015Y-34887702D01*
X227720501Y-34963062D01*
X227720497Y-34963063D01*
X227720497Y-34963064D01*
X227660470Y-34995549D01*
X227516372Y-35073531D01*
X227333215Y-35216087D01*
X227176020Y-35386848D01*
X227049076Y-35581150D01*
X226955844Y-35793696D01*
X226955842Y-35793700D01*
X226955843Y-35793700D01*
X226903601Y-36000000D01*
X226898865Y-36018700D01*
X226879699Y-36250000D01*
X226898865Y-36481301D01*
X226936175Y-36628636D01*
X226935520Y-36691994D01*
X226903650Y-36746757D01*
X226366208Y-37284199D01*
X226350110Y-37297096D01*
X226302096Y-37348225D01*
X226299391Y-37351017D01*
X226279874Y-37370534D01*
X226277415Y-37373705D01*
X226269842Y-37382572D01*
X226239935Y-37414420D01*
X226230285Y-37431974D01*
X226219609Y-37448228D01*
X226207326Y-37464063D01*
X226189975Y-37504158D01*
X226184838Y-37514644D01*
X226163802Y-37552907D01*
X226158821Y-37572309D01*
X226152520Y-37590711D01*
X226144561Y-37609102D01*
X226137728Y-37652242D01*
X226135360Y-37663674D01*
X226124500Y-37705978D01*
X226124500Y-37726016D01*
X226122973Y-37745413D01*
X226119840Y-37765196D01*
X226120459Y-37771742D01*
X226123950Y-37808675D01*
X226124500Y-37820344D01*
X226124500Y-44278398D01*
X226108506Y-44339314D01*
X226064650Y-44384514D01*
X226048973Y-44393991D01*
X226039811Y-44399530D01*
X225919528Y-44519813D01*
X225831523Y-44665392D01*
X225780913Y-44827806D01*
X225774500Y-44898383D01*
X225774500Y-45411617D01*
X225780913Y-45482193D01*
X225785290Y-45496241D01*
X225831522Y-45644606D01*
X225863304Y-45697180D01*
X225919528Y-45790186D01*
X226021661Y-45892319D01*
X226053755Y-45947906D01*
X226053755Y-46012094D01*
X226021661Y-46067681D01*
X225919528Y-46169813D01*
X225831523Y-46315392D01*
X225780913Y-46477806D01*
X225774500Y-46548383D01*
X225774500Y-47061617D01*
X225780913Y-47132193D01*
X225780914Y-47132196D01*
X225831522Y-47294606D01*
X225845042Y-47316971D01*
X225862297Y-47368655D01*
X225855729Y-47422747D01*
X225826606Y-47468801D01*
X225042228Y-48253181D01*
X225002000Y-48280061D01*
X224954547Y-48289500D01*
X224895352Y-48289500D01*
X224710197Y-48328855D01*
X224537269Y-48405848D01*
X224384129Y-48517110D01*
X224257466Y-48657783D01*
X224162820Y-48821715D01*
X224104326Y-49001742D01*
X224084540Y-49189999D01*
X221471519Y-49189999D01*
X221471519Y-49175404D01*
X221492921Y-49101738D01*
X221512709Y-49033627D01*
X221515500Y-48998163D01*
X221515499Y-48621838D01*
X221512709Y-48586373D01*
X221512709Y-48586370D01*
X221471519Y-48444594D01*
X221471519Y-48375404D01*
X221474930Y-48363663D01*
X221512709Y-48233627D01*
X221515500Y-48198163D01*
X221515499Y-47821838D01*
X221512709Y-47786373D01*
X221512709Y-47786370D01*
X221471519Y-47644594D01*
X221471519Y-47575404D01*
X221503713Y-47464592D01*
X221512709Y-47433627D01*
X221515500Y-47398163D01*
X221515499Y-47035000D01*
X222105001Y-47035000D01*
X222105001Y-47041579D01*
X222111408Y-47112104D01*
X222161981Y-47274397D01*
X222249925Y-47419875D01*
X222370124Y-47540074D01*
X222515603Y-47628019D01*
X222677893Y-47678590D01*
X222748424Y-47685000D01*
X222830000Y-47685000D01*
X222830000Y-47035000D01*
X223330000Y-47035000D01*
X223330000Y-47684999D01*
X223411579Y-47684999D01*
X223482104Y-47678591D01*
X223644397Y-47628018D01*
X223789875Y-47540074D01*
X223910074Y-47419875D01*
X223998019Y-47274396D01*
X224048590Y-47112106D01*
X224055000Y-47041576D01*
X224055000Y-47035000D01*
X223330000Y-47035000D01*
X222830000Y-47035000D01*
X222105001Y-47035000D01*
X221515499Y-47035000D01*
X221515499Y-47021838D01*
X221512709Y-46986373D01*
X221512709Y-46986370D01*
X221471519Y-46844594D01*
X221471519Y-46775404D01*
X221512709Y-46633627D01*
X221515500Y-46598163D01*
X221515499Y-46221838D01*
X221515264Y-46218856D01*
X221512709Y-46186370D01*
X221471519Y-46044594D01*
X221471519Y-45975404D01*
X221479508Y-45947906D01*
X221512709Y-45833627D01*
X221515500Y-45798163D01*
X221515499Y-45421838D01*
X221513121Y-45391616D01*
X221512709Y-45386370D01*
X221468618Y-45234610D01*
X221388169Y-45098578D01*
X221361772Y-45072181D01*
X221331522Y-45022818D01*
X221326980Y-44965102D01*
X221349135Y-44911615D01*
X221393158Y-44874015D01*
X221449453Y-44860500D01*
X221869548Y-44860500D01*
X221917001Y-44869939D01*
X221957229Y-44896819D01*
X222068181Y-45007771D01*
X222095061Y-45047999D01*
X222104500Y-45095452D01*
X222104500Y-45391617D01*
X222110913Y-45462193D01*
X222110914Y-45462196D01*
X222161522Y-45624606D01*
X222173613Y-45644607D01*
X222249528Y-45770186D01*
X222352015Y-45872673D01*
X222384109Y-45928260D01*
X222384109Y-45992448D01*
X222352015Y-46048035D01*
X222249925Y-46150124D01*
X222161980Y-46295603D01*
X222111409Y-46457893D01*
X222105000Y-46528424D01*
X222105000Y-46535000D01*
X224054999Y-46535000D01*
X224054999Y-46528421D01*
X224048591Y-46457895D01*
X223998018Y-46295602D01*
X223910075Y-46150126D01*
X223807984Y-46048036D01*
X223775890Y-45992448D01*
X223775890Y-45928260D01*
X223807982Y-45872674D01*
X223910472Y-45770185D01*
X223998478Y-45624606D01*
X224049086Y-45462196D01*
X224055500Y-45391616D01*
X224055500Y-44878384D01*
X224049086Y-44807804D01*
X223998478Y-44645394D01*
X223928868Y-44530246D01*
X223910471Y-44499813D01*
X223790186Y-44379528D01*
X223684925Y-44315896D01*
X223644606Y-44291522D01*
X223482196Y-44240914D01*
X223482193Y-44240913D01*
X223411617Y-44234500D01*
X223411616Y-44234500D01*
X223115453Y-44234500D01*
X223068000Y-44225061D01*
X223027772Y-44198181D01*
X222874964Y-44045373D01*
X222843958Y-43993600D01*
X222841063Y-43933323D01*
X222866965Y-43878817D01*
X222915528Y-43842993D01*
X222975247Y-43834334D01*
X222986655Y-43835500D01*
X223533344Y-43835499D01*
X223632708Y-43825349D01*
X223793697Y-43772003D01*
X223938044Y-43682968D01*
X223947672Y-43673339D01*
X224003258Y-43641245D01*
X224067448Y-43641245D01*
X224123036Y-43673341D01*
X224132269Y-43682574D01*
X224276513Y-43771546D01*
X224437393Y-43824856D01*
X224536685Y-43835000D01*
X224560000Y-43835000D01*
X224560000Y-43110000D01*
X225060000Y-43110000D01*
X225060000Y-43834999D01*
X225083315Y-43834999D01*
X225182605Y-43824856D01*
X225343486Y-43771546D01*
X225487732Y-43682573D01*
X225607573Y-43562732D01*
X225696546Y-43418486D01*
X225749856Y-43257606D01*
X225760000Y-43158315D01*
X225760000Y-43110000D01*
X225060000Y-43110000D01*
X224560000Y-43110000D01*
X224560000Y-41885001D01*
X224536687Y-41885001D01*
X224497102Y-41889045D01*
X224474483Y-41885000D01*
X225060000Y-41885000D01*
X225060000Y-42610000D01*
X225759999Y-42610000D01*
X225759999Y-42561685D01*
X225749856Y-42462394D01*
X225696546Y-42301513D01*
X225607573Y-42157267D01*
X225487732Y-42037426D01*
X225343486Y-41948453D01*
X225182606Y-41895143D01*
X225083315Y-41885000D01*
X225060000Y-41885000D01*
X224474483Y-41885000D01*
X224429926Y-41877032D01*
X224379278Y-41831295D01*
X224360500Y-41765687D01*
X224360500Y-41409499D01*
X224377113Y-41347499D01*
X224422500Y-41302112D01*
X224478814Y-41287022D01*
X224478724Y-41286141D01*
X224484186Y-41285583D01*
X224484500Y-41285499D01*
X224485009Y-41285499D01*
X224536402Y-41280248D01*
X224587797Y-41274999D01*
X224754334Y-41219814D01*
X224903656Y-41127712D01*
X225027712Y-41003656D01*
X225119814Y-40854334D01*
X225174999Y-40687797D01*
X225185500Y-40585009D01*
X225185499Y-39734992D01*
X225184089Y-39721193D01*
X225174999Y-39632203D01*
X225162291Y-39593853D01*
X225119814Y-39465666D01*
X225039219Y-39335000D01*
X225027711Y-39316342D01*
X224903657Y-39192288D01*
X224754334Y-39100186D01*
X224587797Y-39045000D01*
X224485009Y-39034500D01*
X222234991Y-39034500D01*
X222132203Y-39045000D01*
X221965665Y-39100186D01*
X221899432Y-39141039D01*
X221834336Y-39159500D01*
X221474279Y-39159500D01*
X221471137Y-39159460D01*
X221383637Y-39157242D01*
X221325580Y-39167648D01*
X221316251Y-39168957D01*
X221257562Y-39174926D01*
X221228527Y-39184035D01*
X221213290Y-39187774D01*
X221183350Y-39193141D01*
X221128567Y-39215022D01*
X221119698Y-39218179D01*
X221063410Y-39235841D01*
X221036809Y-39250605D01*
X221022639Y-39257335D01*
X220994385Y-39268622D01*
X220945121Y-39301087D01*
X220937070Y-39305964D01*
X220885494Y-39334592D01*
X220862412Y-39354407D01*
X220849887Y-39363851D01*
X220824481Y-39380596D01*
X220782777Y-39422301D01*
X220775868Y-39428704D01*
X220731105Y-39467133D01*
X220712480Y-39491193D01*
X220702108Y-39502969D01*
X219836663Y-40368415D01*
X219740303Y-40486591D01*
X219646089Y-40666955D01*
X219590112Y-40862580D01*
X219574663Y-41065477D01*
X219594318Y-41219814D01*
X219600370Y-41267328D01*
X219666184Y-41459872D01*
X219769410Y-41635227D01*
X219892150Y-41771081D01*
X219905823Y-41786215D01*
X220069833Y-41906650D01*
X220254730Y-41991605D01*
X220452946Y-42037603D01*
X220656361Y-42042757D01*
X220656361Y-42042756D01*
X220656363Y-42042757D01*
X220856653Y-42006858D01*
X220974451Y-41959804D01*
X221045616Y-41931378D01*
X221086161Y-41904656D01*
X221215519Y-41819402D01*
X221803215Y-41231704D01*
X221849617Y-41202459D01*
X221904096Y-41196091D01*
X221955991Y-41213846D01*
X221965666Y-41219814D01*
X222048040Y-41247110D01*
X222132202Y-41274999D01*
X222234991Y-41285500D01*
X222235500Y-41285500D01*
X222235813Y-41285584D01*
X222241275Y-41286142D01*
X222241184Y-41287023D01*
X222297500Y-41302113D01*
X222342887Y-41347500D01*
X222359500Y-41409500D01*
X222359500Y-42322025D01*
X222353206Y-42361029D01*
X222319650Y-42462291D01*
X222309500Y-42561655D01*
X222309500Y-43158344D01*
X222319650Y-43257707D01*
X222372997Y-43418697D01*
X222374048Y-43420401D01*
X222392481Y-43482793D01*
X222376789Y-43545931D01*
X222331291Y-43592433D01*
X222268511Y-43609500D01*
X222238984Y-43609500D01*
X222219586Y-43607973D01*
X222212162Y-43606797D01*
X222199805Y-43604840D01*
X222199804Y-43604840D01*
X222166751Y-43607964D01*
X222156325Y-43608950D01*
X222144656Y-43609500D01*
X219759320Y-43609500D01*
X219707701Y-43598245D01*
X219665453Y-43566524D01*
X219640244Y-43520095D01*
X219593618Y-43359610D01*
X219513169Y-43223578D01*
X219401421Y-43111830D01*
X219265389Y-43031381D01*
X219113629Y-42987291D01*
X219099441Y-42986174D01*
X219078163Y-42984500D01*
X219078160Y-42984500D01*
X218701835Y-42984500D01*
X218666373Y-42987290D01*
X218524593Y-43028481D01*
X218455405Y-43028481D01*
X218445505Y-43025605D01*
X218364101Y-43001955D01*
X218313627Y-42987291D01*
X218278163Y-42984500D01*
X218278160Y-42984500D01*
X217901835Y-42984500D01*
X217866373Y-42987290D01*
X217724593Y-43028481D01*
X217655405Y-43028481D01*
X217645505Y-43025605D01*
X217564101Y-43001955D01*
X217513627Y-42987291D01*
X217478163Y-42984500D01*
X217478160Y-42984500D01*
X217101835Y-42984500D01*
X217066373Y-42987290D01*
X216924593Y-43028481D01*
X216855405Y-43028481D01*
X216845505Y-43025605D01*
X216764101Y-43001955D01*
X216713627Y-42987291D01*
X216678163Y-42984500D01*
X216678160Y-42984500D01*
X216574450Y-42984500D01*
X216518155Y-42970985D01*
X216474132Y-42933385D01*
X216451977Y-42879898D01*
X216456519Y-42822182D01*
X216486767Y-42772821D01*
X220743789Y-38515800D01*
X220759885Y-38502906D01*
X220761873Y-38500787D01*
X220761877Y-38500786D01*
X220807948Y-38451723D01*
X220810566Y-38449023D01*
X220830120Y-38429471D01*
X220832581Y-38426298D01*
X220840156Y-38417427D01*
X220870062Y-38385582D01*
X220879717Y-38368018D01*
X220890394Y-38351764D01*
X220902673Y-38335936D01*
X220912637Y-38312908D01*
X220953554Y-38261836D01*
X220965871Y-38252888D01*
X221092533Y-38112216D01*
X221187179Y-37948284D01*
X221245674Y-37768256D01*
X221265460Y-37580000D01*
X221245674Y-37391744D01*
X221210637Y-37283911D01*
X221187179Y-37211715D01*
X221092533Y-37047783D01*
X220965870Y-36907110D01*
X220812730Y-36795848D01*
X220639802Y-36718855D01*
X220454648Y-36679500D01*
X220454646Y-36679500D01*
X220265354Y-36679500D01*
X220265352Y-36679500D01*
X220080197Y-36718855D01*
X219907271Y-36795847D01*
X219892387Y-36806662D01*
X219829230Y-36829963D01*
X219763206Y-36816830D01*
X219713773Y-36771135D01*
X219695500Y-36706345D01*
X219695500Y-35009240D01*
X219697763Y-34988736D01*
X219697599Y-34983531D01*
X219695561Y-34918644D01*
X219695500Y-34914750D01*
X219695500Y-34887157D01*
X219695500Y-34887150D01*
X219694995Y-34883153D01*
X219694080Y-34871523D01*
X219693605Y-34856402D01*
X219692709Y-34827873D01*
X219687120Y-34808637D01*
X219683176Y-34789593D01*
X219680664Y-34769708D01*
X219664582Y-34729091D01*
X219660798Y-34718040D01*
X219648617Y-34676110D01*
X219638421Y-34658869D01*
X219629863Y-34641402D01*
X219622486Y-34622768D01*
X219596798Y-34587412D01*
X219590409Y-34577684D01*
X219568170Y-34540079D01*
X219554006Y-34525915D01*
X219541369Y-34511120D01*
X219529595Y-34494914D01*
X219511567Y-34480000D01*
X221140001Y-34480000D01*
X221140001Y-34528315D01*
X221150143Y-34627605D01*
X221203453Y-34788486D01*
X221292426Y-34932732D01*
X221412267Y-35052573D01*
X221556513Y-35141546D01*
X221717393Y-35194856D01*
X221816685Y-35205000D01*
X221840000Y-35205000D01*
X221840000Y-34480000D01*
X221140001Y-34480000D01*
X219511567Y-34480000D01*
X219495935Y-34467068D01*
X219487305Y-34459214D01*
X219008091Y-33980000D01*
X221140000Y-33980000D01*
X221840000Y-33980000D01*
X221840000Y-33255001D01*
X221816685Y-33255001D01*
X221717394Y-33265143D01*
X221556513Y-33318453D01*
X221412267Y-33407426D01*
X221292426Y-33527267D01*
X221203453Y-33671513D01*
X221150143Y-33832393D01*
X221140000Y-33931685D01*
X221140000Y-33980000D01*
X219008091Y-33980000D01*
X217201819Y-32173728D01*
X217174939Y-32133500D01*
X217165500Y-32086047D01*
X217165500Y-31549649D01*
X217179511Y-31492392D01*
X217218375Y-31448076D01*
X217230446Y-31439624D01*
X218350426Y-31439624D01*
X218350427Y-31439625D01*
X218412610Y-31483166D01*
X218610840Y-31575602D01*
X218822113Y-31632212D01*
X219040000Y-31651275D01*
X219257886Y-31632212D01*
X219469159Y-31575602D01*
X219667385Y-31483167D01*
X219729572Y-31439624D01*
X219040001Y-30750053D01*
X219040000Y-30750053D01*
X218350426Y-31439624D01*
X217230446Y-31439624D01*
X217346877Y-31358098D01*
X217501598Y-31203377D01*
X217627102Y-31024139D01*
X217677894Y-30915214D01*
X217723651Y-30863039D01*
X217790276Y-30843620D01*
X217856901Y-30863040D01*
X217902658Y-30915216D01*
X217953331Y-31023886D01*
X217996873Y-31086071D01*
X217996874Y-31086072D01*
X218952318Y-30130628D01*
X219007905Y-30098534D01*
X219072093Y-30098534D01*
X219127680Y-30130628D01*
X220083124Y-31086072D01*
X220114557Y-31041182D01*
X220154132Y-31004918D01*
X220205325Y-30988777D01*
X220258542Y-30995783D01*
X220303813Y-31024624D01*
X222349413Y-33070224D01*
X222381507Y-33125811D01*
X222381507Y-33189998D01*
X222349414Y-33245585D01*
X222340000Y-33254999D01*
X222340000Y-35204999D01*
X222363315Y-35204999D01*
X222462603Y-35194856D01*
X222476495Y-35190253D01*
X222534362Y-35185402D01*
X222588093Y-35207429D01*
X222625903Y-35251503D01*
X222639500Y-35307959D01*
X222639500Y-36110501D01*
X222622887Y-36172501D01*
X222577500Y-36217888D01*
X222515500Y-36234501D01*
X222234991Y-36234501D01*
X222132203Y-36245000D01*
X221965665Y-36300186D01*
X221816342Y-36392288D01*
X221692288Y-36516342D01*
X221600186Y-36665665D01*
X221545000Y-36832202D01*
X221534500Y-36934990D01*
X221534500Y-37785008D01*
X221545000Y-37887796D01*
X221600186Y-38054334D01*
X221692288Y-38203657D01*
X221816342Y-38327711D01*
X221865695Y-38358152D01*
X221965666Y-38419814D01*
X222057860Y-38450364D01*
X222132202Y-38474999D01*
X222142702Y-38476071D01*
X222234991Y-38485500D01*
X224485008Y-38485499D01*
X224587797Y-38474999D01*
X224754334Y-38419814D01*
X224903656Y-38327712D01*
X225027712Y-38203656D01*
X225119814Y-38054334D01*
X225174999Y-37887797D01*
X225185500Y-37785009D01*
X225185499Y-36934992D01*
X225183916Y-36919500D01*
X225174999Y-36832203D01*
X225169905Y-36816830D01*
X225119814Y-36665666D01*
X225027712Y-36516344D01*
X225027711Y-36516342D01*
X224903657Y-36392288D01*
X224786158Y-36319815D01*
X224754334Y-36300186D01*
X224725493Y-36290629D01*
X224681170Y-36264751D01*
X224651123Y-36223139D01*
X224640500Y-36172924D01*
X224640500Y-32960169D01*
X224640540Y-32957027D01*
X224642757Y-32869529D01*
X224641728Y-32863789D01*
X224632346Y-32811448D01*
X224631039Y-32802122D01*
X224625074Y-32743452D01*
X224615963Y-32714417D01*
X224612226Y-32699187D01*
X224606859Y-32669238D01*
X224584972Y-32614445D01*
X224581816Y-32605580D01*
X224564159Y-32549302D01*
X224549395Y-32522703D01*
X224542665Y-32508530D01*
X224537311Y-32495126D01*
X224531378Y-32480273D01*
X224498909Y-32431008D01*
X224494040Y-32422972D01*
X224465409Y-32371388D01*
X224465408Y-32371386D01*
X224445593Y-32348305D01*
X224436144Y-32335773D01*
X224419402Y-32310371D01*
X224377699Y-32268669D01*
X224371292Y-32261756D01*
X224332865Y-32216993D01*
X224308802Y-32198367D01*
X224297022Y-32187992D01*
X222200988Y-30091958D01*
X222171250Y-30044135D01*
X222165730Y-29988092D01*
X222185567Y-29935386D01*
X222226669Y-29896890D01*
X222280554Y-29880543D01*
X222397839Y-29872856D01*
X222397843Y-29872855D01*
X222397846Y-29872855D01*
X222510074Y-29850531D01*
X222680753Y-29816581D01*
X222953902Y-29723859D01*
X223212611Y-29596278D01*
X223452454Y-29436020D01*
X223669327Y-29245827D01*
X223859520Y-29028954D01*
X224019778Y-28789111D01*
X224147359Y-28530402D01*
X224240081Y-28257253D01*
X224295301Y-27979642D01*
X224296355Y-27974345D01*
X224296355Y-27974343D01*
X224296356Y-27974339D01*
X224314993Y-27690000D01*
X233894450Y-27690000D01*
X233914616Y-27959100D01*
X233944534Y-28090178D01*
X233974666Y-28222195D01*
X234073257Y-28473398D01*
X234208185Y-28707102D01*
X234376439Y-28918085D01*
X234574259Y-29101635D01*
X234797226Y-29253651D01*
X235040359Y-29370738D01*
X235298228Y-29450280D01*
X235565071Y-29490500D01*
X235834929Y-29490500D01*
X236101772Y-29450280D01*
X236359641Y-29370738D01*
X236602775Y-29253651D01*
X236825741Y-29101635D01*
X237023561Y-28918085D01*
X237191815Y-28707102D01*
X237326743Y-28473398D01*
X237425334Y-28222195D01*
X237485383Y-27959103D01*
X237505549Y-27690000D01*
X237485383Y-27420897D01*
X237425334Y-27157805D01*
X237326743Y-26906602D01*
X237191815Y-26672898D01*
X237023561Y-26461915D01*
X237023560Y-26461914D01*
X236825743Y-26278366D01*
X236768205Y-26239137D01*
X236602775Y-26126349D01*
X236359641Y-26009262D01*
X236280098Y-25984726D01*
X236101771Y-25929719D01*
X235834929Y-25889500D01*
X235565071Y-25889500D01*
X235298228Y-25929719D01*
X235040359Y-26009262D01*
X234797228Y-26126347D01*
X234574257Y-26278366D01*
X234376439Y-26461915D01*
X234208184Y-26672899D01*
X234073257Y-26906601D01*
X233974666Y-27157804D01*
X233914616Y-27420899D01*
X233894450Y-27690000D01*
X224314993Y-27690000D01*
X224315222Y-27686500D01*
X224296356Y-27398661D01*
X224240081Y-27115747D01*
X224147359Y-26842598D01*
X224019778Y-26583889D01*
X223859520Y-26344046D01*
X223669327Y-26127173D01*
X223452454Y-25936980D01*
X223450414Y-25935617D01*
X223212610Y-25776721D01*
X222953902Y-25649140D01*
X222680750Y-25556418D01*
X222397845Y-25500144D01*
X222110000Y-25481278D01*
X221822154Y-25500144D01*
X221539249Y-25556418D01*
X221266097Y-25649140D01*
X221007389Y-25776721D01*
X220767546Y-25936979D01*
X220550673Y-26127173D01*
X220360479Y-26344046D01*
X220200221Y-26583889D01*
X220072640Y-26842597D01*
X219979918Y-27115749D01*
X219923644Y-27398654D01*
X219904778Y-27686500D01*
X219913598Y-27821062D01*
X219904349Y-27876806D01*
X219871327Y-27922658D01*
X219821389Y-27949097D01*
X219764904Y-27950634D01*
X219742352Y-27946000D01*
X219742351Y-27946000D01*
X219683368Y-27946000D01*
X219673954Y-27945642D01*
X219649002Y-27943742D01*
X219615134Y-27941163D01*
X219615133Y-27941163D01*
X219584959Y-27945006D01*
X219569293Y-27946000D01*
X213504279Y-27946000D01*
X213501137Y-27945960D01*
X213413637Y-27943742D01*
X213355580Y-27954148D01*
X213346251Y-27955457D01*
X213287558Y-27961426D01*
X213258528Y-27970534D01*
X213243288Y-27974275D01*
X213213346Y-27979641D01*
X213158572Y-28001520D01*
X213149702Y-28004678D01*
X213093409Y-28022341D01*
X213066818Y-28037100D01*
X213052648Y-28043830D01*
X213024383Y-28055121D01*
X212975121Y-28087587D01*
X212967066Y-28092467D01*
X212915495Y-28121091D01*
X212892406Y-28140912D01*
X212879883Y-28150355D01*
X212854484Y-28167096D01*
X212812782Y-28208797D01*
X212805875Y-28215198D01*
X212761104Y-28253634D01*
X212742480Y-28277694D01*
X212732107Y-28289471D01*
X211896963Y-29124615D01*
X211861691Y-29149314D01*
X211832413Y-29157160D01*
X211832501Y-29157486D01*
X211822025Y-29160292D01*
X211822023Y-29160293D01*
X211680908Y-29198104D01*
X211610669Y-29216925D01*
X211412361Y-29309398D01*
X211233122Y-29434902D01*
X211078402Y-29589622D01*
X210952898Y-29768861D01*
X210860425Y-29967168D01*
X210803792Y-30178525D01*
X210784722Y-30396499D01*
X210803792Y-30614474D01*
X210860425Y-30825831D01*
X210877776Y-30863039D01*
X210952898Y-31024139D01*
X211078402Y-31203377D01*
X211233123Y-31358098D01*
X211412361Y-31483602D01*
X211610670Y-31576075D01*
X211822023Y-31632707D01*
X211967340Y-31645420D01*
X212039999Y-31651777D01*
X212039999Y-31651776D01*
X212040000Y-31651777D01*
X212257977Y-31632707D01*
X212469330Y-31576075D01*
X212667639Y-31483602D01*
X212846877Y-31358098D01*
X213001598Y-31203377D01*
X213127102Y-31024139D01*
X213177618Y-30915806D01*
X213223375Y-30863631D01*
X213290000Y-30844212D01*
X213356625Y-30863631D01*
X213402381Y-30915806D01*
X213452898Y-31024139D01*
X213578402Y-31203377D01*
X213733123Y-31358098D01*
X213912361Y-31483602D01*
X214110670Y-31576075D01*
X214322023Y-31632707D01*
X214467340Y-31645420D01*
X214539999Y-31651777D01*
X214539999Y-31651776D01*
X214540000Y-31651777D01*
X214757977Y-31632707D01*
X214969330Y-31576075D01*
X215167639Y-31483602D01*
X215346877Y-31358098D01*
X215452319Y-31252656D01*
X215507906Y-31220562D01*
X215572094Y-31220562D01*
X215627681Y-31252656D01*
X215733123Y-31358098D01*
X215861624Y-31448076D01*
X215900489Y-31492392D01*
X215914500Y-31549649D01*
X215914500Y-32313756D01*
X215912235Y-32334262D01*
X215914439Y-32404373D01*
X215914500Y-32408268D01*
X215914500Y-32435849D01*
X215915003Y-32439834D01*
X215915918Y-32451467D01*
X215917290Y-32495126D01*
X215922879Y-32514360D01*
X215926825Y-32533416D01*
X215929335Y-32553292D01*
X215945414Y-32593904D01*
X215949197Y-32604951D01*
X215961382Y-32646891D01*
X215971580Y-32664135D01*
X215980136Y-32681600D01*
X215987514Y-32700232D01*
X215987515Y-32700233D01*
X216013180Y-32735559D01*
X216019593Y-32745322D01*
X216041826Y-32782916D01*
X216041829Y-32782919D01*
X216041830Y-32782920D01*
X216055995Y-32797085D01*
X216068627Y-32811875D01*
X216080406Y-32828087D01*
X216114058Y-32855926D01*
X216122699Y-32863789D01*
X217697228Y-34438319D01*
X217727478Y-34487682D01*
X217732020Y-34545398D01*
X217709865Y-34598885D01*
X217665842Y-34636485D01*
X217609547Y-34650000D01*
X217265000Y-34650000D01*
X217265000Y-37450000D01*
X217962824Y-37450000D01*
X218022375Y-37443597D01*
X218157088Y-37393352D01*
X218246189Y-37326652D01*
X218309447Y-37302413D01*
X218376004Y-37315035D01*
X218425995Y-37360752D01*
X218444500Y-37425919D01*
X218444500Y-38358152D01*
X218435061Y-38405605D01*
X218408181Y-38445833D01*
X215577181Y-41276832D01*
X215527818Y-41307082D01*
X215470102Y-41311624D01*
X215416615Y-41289469D01*
X215379015Y-41245446D01*
X215365500Y-41189151D01*
X215365500Y-40948383D01*
X215359086Y-40877806D01*
X215359086Y-40877804D01*
X215308478Y-40715394D01*
X215220472Y-40569815D01*
X215136816Y-40486159D01*
X215109939Y-40445934D01*
X215100500Y-40398481D01*
X215100500Y-37377814D01*
X215117977Y-37314341D01*
X215165482Y-37268760D01*
X215190144Y-37255412D01*
X215243626Y-37226470D01*
X215426784Y-37083913D01*
X215435511Y-37074432D01*
X215488132Y-37040577D01*
X215550588Y-37036727D01*
X215606971Y-37063865D01*
X215642924Y-37115079D01*
X215671647Y-37192088D01*
X215757811Y-37307188D01*
X215872910Y-37393352D01*
X216007624Y-37443597D01*
X216067176Y-37450000D01*
X216765000Y-37450000D01*
X216765000Y-34650000D01*
X216067176Y-34650000D01*
X216007624Y-34656402D01*
X215872910Y-34706647D01*
X215757811Y-34792811D01*
X215671645Y-34907913D01*
X215642923Y-34984920D01*
X215606971Y-35036134D01*
X215550589Y-35063271D01*
X215488135Y-35059423D01*
X215435513Y-35025569D01*
X215426784Y-35016087D01*
X215243626Y-34873530D01*
X215039503Y-34763064D01*
X215039499Y-34763062D01*
X215039498Y-34763062D01*
X214819984Y-34687702D01*
X214632410Y-34656402D01*
X214591049Y-34649500D01*
X214358951Y-34649500D01*
X214317590Y-34656402D01*
X214130015Y-34687702D01*
X213910501Y-34763062D01*
X213910497Y-34763063D01*
X213910497Y-34763064D01*
X213790744Y-34827871D01*
X213706372Y-34873531D01*
X213523215Y-35016087D01*
X213366020Y-35186848D01*
X213239076Y-35381150D01*
X213145844Y-35593696D01*
X213088865Y-35818700D01*
X213069699Y-36049999D01*
X213088865Y-36281299D01*
X213088865Y-36281301D01*
X213088866Y-36281305D01*
X213144248Y-36500000D01*
X213145844Y-36506303D01*
X213215747Y-36665665D01*
X213239076Y-36718849D01*
X213366021Y-36913153D01*
X213523216Y-37083913D01*
X213706374Y-37226470D01*
X213748355Y-37249189D01*
X213784518Y-37268760D01*
X213832023Y-37314341D01*
X213849500Y-37377814D01*
X213849500Y-40378480D01*
X213840061Y-40425933D01*
X213813181Y-40466161D01*
X213727681Y-40551661D01*
X213672094Y-40583755D01*
X213607906Y-40583755D01*
X213552319Y-40551661D01*
X213450186Y-40449528D01*
X213362180Y-40396326D01*
X213304606Y-40361522D01*
X213142196Y-40310914D01*
X213142193Y-40310913D01*
X213071617Y-40304500D01*
X213071616Y-40304500D01*
X212558384Y-40304500D01*
X212558383Y-40304500D01*
X212487806Y-40310913D01*
X212406599Y-40336217D01*
X212325394Y-40361522D01*
X212325392Y-40361522D01*
X212325392Y-40361523D01*
X212179815Y-40449527D01*
X212112180Y-40517162D01*
X212062817Y-40547411D01*
X212005101Y-40551953D01*
X211951613Y-40529798D01*
X211914014Y-40485775D01*
X211900499Y-40429482D01*
X211900499Y-39342128D01*
X211894091Y-39282517D01*
X211843796Y-39147669D01*
X211757546Y-39032454D01*
X211642331Y-38946204D01*
X211507483Y-38895909D01*
X211447873Y-38889500D01*
X211447869Y-38889500D01*
X211394320Y-38889500D01*
X211342703Y-38878246D01*
X211300455Y-38846527D01*
X211275245Y-38800101D01*
X211268666Y-38777460D01*
X211267120Y-38772138D01*
X211263174Y-38753082D01*
X211260664Y-38733206D01*
X211244588Y-38692604D01*
X211240804Y-38681553D01*
X211232427Y-38652721D01*
X211228618Y-38639610D01*
X211218414Y-38622355D01*
X211209861Y-38604895D01*
X211202486Y-38586268D01*
X211176808Y-38550925D01*
X211170401Y-38541171D01*
X211148170Y-38503580D01*
X211134006Y-38489416D01*
X211121367Y-38474617D01*
X211109595Y-38458413D01*
X211075941Y-38430573D01*
X211067299Y-38422709D01*
X210362518Y-37717927D01*
X210338277Y-37683627D01*
X210326878Y-37643202D01*
X210325674Y-37631743D01*
X210267179Y-37451715D01*
X210172533Y-37287783D01*
X210045870Y-37147110D01*
X209892730Y-37035848D01*
X209719802Y-36958855D01*
X209534648Y-36919500D01*
X209534646Y-36919500D01*
X209345354Y-36919500D01*
X209345352Y-36919500D01*
X209160197Y-36958855D01*
X208987269Y-37035848D01*
X208834129Y-37147110D01*
X208707466Y-37287783D01*
X208612820Y-37451715D01*
X208554326Y-37631742D01*
X208534540Y-37819999D01*
X208554326Y-38008257D01*
X208612820Y-38188284D01*
X208707466Y-38352216D01*
X208834129Y-38492889D01*
X208987269Y-38604151D01*
X209096357Y-38652721D01*
X209147744Y-38695232D01*
X209169676Y-38758214D01*
X209155810Y-38823449D01*
X209110156Y-38872065D01*
X209045921Y-38890000D01*
X208600000Y-38890000D01*
X208600000Y-41890000D01*
X209147824Y-41890000D01*
X209207375Y-41883597D01*
X209342089Y-41833352D01*
X209425270Y-41771082D01*
X209473223Y-41749182D01*
X209525940Y-41749182D01*
X209573892Y-41771080D01*
X209657669Y-41833796D01*
X209792517Y-41884091D01*
X209852127Y-41890500D01*
X211447872Y-41890499D01*
X211507483Y-41884091D01*
X211642331Y-41833796D01*
X211757546Y-41747546D01*
X211757547Y-41747544D01*
X211766037Y-41741189D01*
X211820008Y-41718136D01*
X211878536Y-41722483D01*
X211928509Y-41753258D01*
X211958733Y-41803566D01*
X211971520Y-41844603D01*
X212059528Y-41990186D01*
X212153181Y-42083839D01*
X212180061Y-42124067D01*
X212189500Y-42171520D01*
X212189500Y-42978152D01*
X212180061Y-43025605D01*
X212153181Y-43065833D01*
X207984030Y-47234983D01*
X207943802Y-47261863D01*
X207896349Y-47271302D01*
X206631949Y-47271302D01*
X206584496Y-47261863D01*
X206544268Y-47234983D01*
X205601819Y-46292533D01*
X205574939Y-46252305D01*
X205565500Y-46204852D01*
X205565500Y-45560452D01*
X205574939Y-45512999D01*
X205601819Y-45472771D01*
X206002409Y-45072181D01*
X206433789Y-44640800D01*
X206449885Y-44627906D01*
X206451873Y-44625787D01*
X206451877Y-44625786D01*
X206497948Y-44576723D01*
X206500566Y-44574023D01*
X206520120Y-44554471D01*
X206522581Y-44551298D01*
X206530156Y-44542427D01*
X206560062Y-44510582D01*
X206569712Y-44493027D01*
X206580400Y-44476757D01*
X206592673Y-44460936D01*
X206610026Y-44420832D01*
X206615157Y-44410362D01*
X206619470Y-44402517D01*
X206636197Y-44372092D01*
X206641175Y-44352699D01*
X206647481Y-44334282D01*
X206649018Y-44330728D01*
X206655438Y-44315896D01*
X206662272Y-44272745D01*
X206664635Y-44261331D01*
X206675500Y-44219019D01*
X206675500Y-44198984D01*
X206677027Y-44179585D01*
X206680160Y-44159804D01*
X206676050Y-44116325D01*
X206675500Y-44104656D01*
X206675500Y-42014499D01*
X206692113Y-41952499D01*
X206737500Y-41907112D01*
X206799500Y-41890499D01*
X206847870Y-41890499D01*
X206847872Y-41890499D01*
X206907483Y-41884091D01*
X207042331Y-41833796D01*
X207126109Y-41771079D01*
X207174057Y-41749182D01*
X207226774Y-41749182D01*
X207274727Y-41771081D01*
X207357911Y-41833352D01*
X207492624Y-41883597D01*
X207552176Y-41890000D01*
X208100000Y-41890000D01*
X208100000Y-38890000D01*
X207552176Y-38890000D01*
X207492624Y-38896402D01*
X207357908Y-38946648D01*
X207274726Y-39008918D01*
X207226774Y-39030817D01*
X207174057Y-39030817D01*
X207126107Y-39008919D01*
X207042331Y-38946204D01*
X207042328Y-38946203D01*
X207042327Y-38946202D01*
X206982751Y-38923981D01*
X206929256Y-38885260D01*
X206903224Y-38824569D01*
X206912039Y-38759122D01*
X206953199Y-38707482D01*
X207055871Y-38632888D01*
X207182533Y-38492216D01*
X207277179Y-38328284D01*
X207335674Y-38148256D01*
X207355460Y-37960000D01*
X207335674Y-37771744D01*
X207282828Y-37609102D01*
X207277179Y-37591715D01*
X207182533Y-37427783D01*
X207055870Y-37287110D01*
X206902730Y-37175848D01*
X206729802Y-37098855D01*
X206544648Y-37059500D01*
X206544646Y-37059500D01*
X206355354Y-37059500D01*
X206355352Y-37059500D01*
X206170197Y-37098855D01*
X205997269Y-37175848D01*
X205844129Y-37287110D01*
X205717466Y-37427783D01*
X205622820Y-37591715D01*
X205564326Y-37771742D01*
X205545718Y-37948792D01*
X205531036Y-37995609D01*
X205530264Y-37997012D01*
X205519608Y-38013228D01*
X205507328Y-38029060D01*
X205489975Y-38069158D01*
X205484838Y-38079644D01*
X205463802Y-38117907D01*
X205458821Y-38137309D01*
X205452520Y-38155711D01*
X205444561Y-38174102D01*
X205437728Y-38217242D01*
X205435360Y-38228674D01*
X205424500Y-38270978D01*
X205424500Y-38291016D01*
X205422973Y-38310415D01*
X205419840Y-38330194D01*
X205423950Y-38373675D01*
X205424500Y-38385344D01*
X205424500Y-38765501D01*
X205407887Y-38827501D01*
X205362500Y-38872888D01*
X205300500Y-38889501D01*
X205252128Y-38889501D01*
X205222322Y-38892704D01*
X205192515Y-38895909D01*
X205057669Y-38946204D01*
X204942454Y-39032454D01*
X204856204Y-39147668D01*
X204800466Y-39297110D01*
X204799695Y-39296822D01*
X204785716Y-39335000D01*
X204741153Y-39375031D01*
X204683024Y-39389500D01*
X201164279Y-39389500D01*
X201161137Y-39389460D01*
X201073637Y-39387242D01*
X201015580Y-39397648D01*
X201006251Y-39398957D01*
X200947562Y-39404926D01*
X200918527Y-39414035D01*
X200903290Y-39417774D01*
X200873350Y-39423141D01*
X200818567Y-39445022D01*
X200809698Y-39448179D01*
X200753410Y-39465841D01*
X200726809Y-39480605D01*
X200712639Y-39487335D01*
X200684385Y-39498622D01*
X200684384Y-39498622D01*
X200684383Y-39498623D01*
X200674668Y-39505025D01*
X200635121Y-39531087D01*
X200627070Y-39535964D01*
X200575498Y-39564590D01*
X200552414Y-39584407D01*
X200539887Y-39593853D01*
X200514481Y-39610598D01*
X200472775Y-39652303D01*
X200465868Y-39658704D01*
X200421103Y-39697135D01*
X200402480Y-39721193D01*
X200392108Y-39732969D01*
X197802646Y-42322432D01*
X197800399Y-42324623D01*
X197736948Y-42384939D01*
X197703244Y-42433362D01*
X197697573Y-42440882D01*
X197660301Y-42486593D01*
X197646210Y-42513566D01*
X197638082Y-42526983D01*
X197620705Y-42551950D01*
X197597439Y-42606165D01*
X197593399Y-42614671D01*
X197566090Y-42666952D01*
X197557720Y-42696201D01*
X197552459Y-42710978D01*
X197540460Y-42738942D01*
X197528587Y-42796713D01*
X197526342Y-42805860D01*
X197510113Y-42862580D01*
X197507802Y-42892925D01*
X197505622Y-42908466D01*
X197499500Y-42938259D01*
X197499500Y-42997242D01*
X197499142Y-43006656D01*
X197494663Y-43065477D01*
X195765500Y-43065477D01*
X195765500Y-38451602D01*
X195781494Y-38390686D01*
X195825349Y-38345485D01*
X195850185Y-38330472D01*
X195970472Y-38210185D01*
X196058478Y-38064606D01*
X196109086Y-37902196D01*
X196115500Y-37831616D01*
X196115500Y-37318384D01*
X196109086Y-37247804D01*
X196058478Y-37085394D01*
X195990925Y-36973649D01*
X195973057Y-36911373D01*
X195989037Y-36848584D01*
X196034503Y-36802426D01*
X196097043Y-36785500D01*
X198203650Y-36785500D01*
X198262668Y-36800445D01*
X198307457Y-36841677D01*
X198426021Y-37023153D01*
X198583216Y-37193913D01*
X198766374Y-37336470D01*
X198970497Y-37446936D01*
X199080257Y-37484616D01*
X199190015Y-37522297D01*
X199190017Y-37522297D01*
X199190019Y-37522298D01*
X199418951Y-37560500D01*
X199651048Y-37560500D01*
X199651049Y-37560500D01*
X199879981Y-37522298D01*
X200099503Y-37446936D01*
X200303626Y-37336470D01*
X200486784Y-37193913D01*
X200495511Y-37184432D01*
X200548132Y-37150577D01*
X200610588Y-37146727D01*
X200666971Y-37173865D01*
X200702924Y-37225079D01*
X200731647Y-37302088D01*
X200817811Y-37417188D01*
X200932910Y-37503352D01*
X201067624Y-37553597D01*
X201127176Y-37560000D01*
X201825000Y-37560000D01*
X201825000Y-36410000D01*
X202325000Y-36410000D01*
X202325000Y-37560000D01*
X203022824Y-37560000D01*
X203082375Y-37553597D01*
X203217089Y-37503352D01*
X203332188Y-37417188D01*
X203418352Y-37302089D01*
X203468597Y-37167375D01*
X203475000Y-37107824D01*
X203475000Y-36410000D01*
X202325000Y-36410000D01*
X201825000Y-36410000D01*
X201825000Y-34760000D01*
X202325000Y-34760000D01*
X202325000Y-35910000D01*
X203475000Y-35910000D01*
X203475000Y-35212176D01*
X203468597Y-35152624D01*
X203463094Y-35137869D01*
X205949500Y-35137869D01*
X205955909Y-35197484D01*
X205966384Y-35225568D01*
X206006204Y-35332331D01*
X206092454Y-35447546D01*
X206207669Y-35533796D01*
X206342517Y-35584091D01*
X206402127Y-35590500D01*
X210297872Y-35590499D01*
X210357483Y-35584091D01*
X210492331Y-35533796D01*
X210607546Y-35447546D01*
X210693796Y-35332331D01*
X210744091Y-35197483D01*
X210750500Y-35137873D01*
X210750499Y-33042128D01*
X210744091Y-32982517D01*
X210693796Y-32847669D01*
X210607546Y-32732454D01*
X210492331Y-32646204D01*
X210357483Y-32595909D01*
X210297873Y-32589500D01*
X210297869Y-32589500D01*
X206402130Y-32589500D01*
X206342515Y-32595909D01*
X206207669Y-32646204D01*
X206092454Y-32732454D01*
X206006204Y-32847668D01*
X205955909Y-32982516D01*
X205949500Y-33042130D01*
X205949500Y-35137869D01*
X203463094Y-35137869D01*
X203418352Y-35017910D01*
X203332188Y-34902811D01*
X203217089Y-34816647D01*
X203082375Y-34766402D01*
X203022824Y-34760000D01*
X202325000Y-34760000D01*
X201825000Y-34760000D01*
X201127176Y-34760000D01*
X201067624Y-34766402D01*
X200932910Y-34816647D01*
X200817811Y-34902811D01*
X200731645Y-35017913D01*
X200702923Y-35094920D01*
X200666971Y-35146134D01*
X200610589Y-35173271D01*
X200548135Y-35169423D01*
X200495513Y-35135569D01*
X200486784Y-35126087D01*
X200303626Y-34983530D01*
X200099503Y-34873064D01*
X200099499Y-34873062D01*
X200099498Y-34873062D01*
X199879984Y-34797702D01*
X199692410Y-34766402D01*
X199651049Y-34759500D01*
X199418951Y-34759500D01*
X199377590Y-34766402D01*
X199190015Y-34797702D01*
X198970501Y-34873062D01*
X198970497Y-34873063D01*
X198970497Y-34873064D01*
X198908441Y-34906647D01*
X198766372Y-34983531D01*
X198583215Y-35126087D01*
X198432496Y-35289813D01*
X198426021Y-35296847D01*
X198307457Y-35478322D01*
X198262668Y-35519555D01*
X198203650Y-35534500D01*
X196180602Y-35534500D01*
X196129711Y-35523576D01*
X196087788Y-35492728D01*
X196062217Y-35447392D01*
X196058478Y-35435395D01*
X196058478Y-35435394D01*
X195991040Y-35323839D01*
X195970471Y-35289813D01*
X195850186Y-35169528D01*
X195748257Y-35107910D01*
X195704606Y-35081522D01*
X195542196Y-35030914D01*
X195542193Y-35030913D01*
X195471617Y-35024500D01*
X195471616Y-35024500D01*
X194808384Y-35024500D01*
X194808383Y-35024500D01*
X194737806Y-35030913D01*
X194668296Y-35052573D01*
X194575394Y-35081522D01*
X194575392Y-35081522D01*
X194575392Y-35081523D01*
X194429813Y-35169528D01*
X194309528Y-35289813D01*
X194250869Y-35386848D01*
X194221522Y-35435394D01*
X194208146Y-35478321D01*
X194170913Y-35597806D01*
X194164500Y-35668383D01*
X194164500Y-36181617D01*
X194170913Y-36252193D01*
X194170914Y-36252196D01*
X194221522Y-36414606D01*
X194221523Y-36414607D01*
X194309528Y-36560186D01*
X194411661Y-36662319D01*
X194443755Y-36717906D01*
X194443755Y-36782094D01*
X194411661Y-36837681D01*
X194309528Y-36939813D01*
X194222418Y-37083912D01*
X194221522Y-37085394D01*
X194217327Y-37098856D01*
X194170913Y-37247806D01*
X194164500Y-37318383D01*
X194164500Y-37831617D01*
X192760000Y-37831617D01*
X192760000Y-27690000D01*
X195114450Y-27690000D01*
X195134616Y-27959100D01*
X195164534Y-28090178D01*
X195194666Y-28222195D01*
X195293257Y-28473398D01*
X195428185Y-28707102D01*
X195596439Y-28918085D01*
X195794259Y-29101635D01*
X196017226Y-29253651D01*
X196260359Y-29370738D01*
X196518228Y-29450280D01*
X196785071Y-29490500D01*
X197054929Y-29490500D01*
X197321772Y-29450280D01*
X197579641Y-29370738D01*
X197822775Y-29253651D01*
X198045741Y-29101635D01*
X198243561Y-28918085D01*
X198411815Y-28707102D01*
X198546743Y-28473398D01*
X198645334Y-28222195D01*
X198705383Y-27959103D01*
X198725549Y-27690000D01*
X198725287Y-27686499D01*
X206764778Y-27686499D01*
X206783644Y-27974345D01*
X206839918Y-28257250D01*
X206932640Y-28530402D01*
X207060221Y-28789110D01*
X207146399Y-28918085D01*
X207220480Y-29028954D01*
X207410673Y-29245827D01*
X207626271Y-29434902D01*
X207627546Y-29436020D01*
X207867389Y-29596278D01*
X208126097Y-29723859D01*
X208217147Y-29754766D01*
X208399247Y-29816581D01*
X208541675Y-29844911D01*
X208682154Y-29872855D01*
X208682156Y-29872855D01*
X208682161Y-29872856D01*
X208970000Y-29891722D01*
X209257839Y-29872856D01*
X209257843Y-29872855D01*
X209257845Y-29872855D01*
X209327110Y-29859077D01*
X209540753Y-29816581D01*
X209813902Y-29723859D01*
X210072611Y-29596278D01*
X210312454Y-29436020D01*
X210529327Y-29245827D01*
X210719520Y-29028954D01*
X210879778Y-28789111D01*
X211007359Y-28530402D01*
X211100081Y-28257253D01*
X211155301Y-27979642D01*
X211156355Y-27974345D01*
X211156355Y-27974343D01*
X211156356Y-27974339D01*
X211175222Y-27686500D01*
X211156356Y-27398661D01*
X211100081Y-27115747D01*
X211007359Y-26842598D01*
X210879778Y-26583889D01*
X210719520Y-26344046D01*
X210529327Y-26127173D01*
X210312454Y-25936980D01*
X210310414Y-25935617D01*
X210072610Y-25776721D01*
X209813902Y-25649140D01*
X209540750Y-25556418D01*
X209257845Y-25500144D01*
X208970000Y-25481278D01*
X208682154Y-25500144D01*
X208399249Y-25556418D01*
X208126097Y-25649140D01*
X207867389Y-25776721D01*
X207627546Y-25936979D01*
X207410673Y-26127173D01*
X207220479Y-26344046D01*
X207060221Y-26583889D01*
X206932640Y-26842597D01*
X206839918Y-27115749D01*
X206783644Y-27398654D01*
X206764778Y-27686499D01*
X198725287Y-27686499D01*
X198705383Y-27420897D01*
X198645334Y-27157805D01*
X198546743Y-26906602D01*
X198411815Y-26672898D01*
X198243561Y-26461915D01*
X198243560Y-26461914D01*
X198045743Y-26278366D01*
X197988205Y-26239137D01*
X197822775Y-26126349D01*
X197579641Y-26009262D01*
X197500098Y-25984726D01*
X197321771Y-25929719D01*
X197054929Y-25889500D01*
X196785071Y-25889500D01*
X196518228Y-25929719D01*
X196260359Y-26009262D01*
X196017228Y-26126347D01*
X195794257Y-26278366D01*
X195596439Y-26461915D01*
X195428184Y-26672899D01*
X195293257Y-26906601D01*
X195194666Y-27157804D01*
X195134616Y-27420899D01*
X195114450Y-27690000D01*
X192760000Y-27690000D01*
X192760000Y-23834000D01*
X192776613Y-23772000D01*
X192822000Y-23726613D01*
X192884000Y-23710000D01*
X239736000Y-23710000D01*
X239798000Y-23726613D01*
G37*
G04 #@! TD.AperFunction*
M02*
