G04 #@! TF.GenerationSoftware,KiCad,Pcbnew,7.0.1*
G04 #@! TF.CreationDate,2023-08-25T12:02:58+10:00*
G04 #@! TF.ProjectId,firetruck controller,66697265-7472-4756-936b-20636f6e7472,rev?*
G04 #@! TF.SameCoordinates,Original*
G04 #@! TF.FileFunction,Legend,Top*
G04 #@! TF.FilePolarity,Positive*
%FSLAX46Y46*%
G04 Gerber Fmt 4.6, Leading zero omitted, Abs format (unit mm)*
G04 Created by KiCad (PCBNEW 7.0.1) date 2023-08-25 12:02:58*
%MOMM*%
%LPD*%
G01*
G04 APERTURE LIST*
G04 Aperture macros list*
%AMRoundRect*
0 Rectangle with rounded corners*
0 $1 Rounding radius*
0 $2 $3 $4 $5 $6 $7 $8 $9 X,Y pos of 4 corners*
0 Add a 4 corners polygon primitive as box body*
4,1,4,$2,$3,$4,$5,$6,$7,$8,$9,$2,$3,0*
0 Add four circle primitives for the rounded corners*
1,1,$1+$1,$2,$3*
1,1,$1+$1,$4,$5*
1,1,$1+$1,$6,$7*
1,1,$1+$1,$8,$9*
0 Add four rect primitives between the rounded corners*
20,1,$1+$1,$2,$3,$4,$5,0*
20,1,$1+$1,$4,$5,$6,$7,0*
20,1,$1+$1,$6,$7,$8,$9,0*
20,1,$1+$1,$8,$9,$2,$3,0*%
G04 Aperture macros list end*
%ADD10C,0.254000*%
%ADD11C,0.150000*%
%ADD12C,0.200000*%
%ADD13C,0.100000*%
%ADD14C,0.120000*%
%ADD15C,2.775000*%
%ADD16R,1.500000X2.000000*%
%ADD17R,3.800000X2.000000*%
%ADD18R,1.800000X1.800000*%
%ADD19C,1.800000*%
%ADD20RoundRect,0.225000X0.225000X0.250000X-0.225000X0.250000X-0.225000X-0.250000X0.225000X-0.250000X0*%
%ADD21RoundRect,0.250000X-1.075000X0.375000X-1.075000X-0.375000X1.075000X-0.375000X1.075000X0.375000X0*%
%ADD22C,1.500000*%
%ADD23C,3.400000*%
%ADD24RoundRect,0.200000X0.275000X-0.200000X0.275000X0.200000X-0.275000X0.200000X-0.275000X-0.200000X0*%
%ADD25RoundRect,0.200000X-0.275000X0.200000X-0.275000X-0.200000X0.275000X-0.200000X0.275000X0.200000X0*%
%ADD26RoundRect,0.125000X-0.625000X-0.125000X0.625000X-0.125000X0.625000X0.125000X-0.625000X0.125000X0*%
%ADD27RoundRect,0.125000X-0.125000X-0.625000X0.125000X-0.625000X0.125000X0.625000X-0.125000X0.625000X0*%
%ADD28RoundRect,0.200000X0.200000X0.275000X-0.200000X0.275000X-0.200000X-0.275000X0.200000X-0.275000X0*%
%ADD29RoundRect,0.225000X-0.225000X-0.250000X0.225000X-0.250000X0.225000X0.250000X-0.225000X0.250000X0*%
%ADD30R,1.700000X1.700000*%
%ADD31O,1.700000X1.700000*%
%ADD32RoundRect,0.200000X-0.200000X-0.275000X0.200000X-0.275000X0.200000X0.275000X-0.200000X0.275000X0*%
G04 APERTURE END LIST*
D10*
X197487050Y-66117619D02*
X197547526Y-65936190D01*
X197547526Y-65936190D02*
X197547526Y-65633809D01*
X197547526Y-65633809D02*
X197487050Y-65512857D01*
X197487050Y-65512857D02*
X197426573Y-65452381D01*
X197426573Y-65452381D02*
X197305621Y-65391904D01*
X197305621Y-65391904D02*
X197184669Y-65391904D01*
X197184669Y-65391904D02*
X197063716Y-65452381D01*
X197063716Y-65452381D02*
X197003240Y-65512857D01*
X197003240Y-65512857D02*
X196942764Y-65633809D01*
X196942764Y-65633809D02*
X196882288Y-65875714D01*
X196882288Y-65875714D02*
X196821811Y-65996666D01*
X196821811Y-65996666D02*
X196761335Y-66057143D01*
X196761335Y-66057143D02*
X196640383Y-66117619D01*
X196640383Y-66117619D02*
X196519430Y-66117619D01*
X196519430Y-66117619D02*
X196398478Y-66057143D01*
X196398478Y-66057143D02*
X196338002Y-65996666D01*
X196338002Y-65996666D02*
X196277526Y-65875714D01*
X196277526Y-65875714D02*
X196277526Y-65573333D01*
X196277526Y-65573333D02*
X196338002Y-65391904D01*
X197547526Y-64182380D02*
X197547526Y-64908095D01*
X197547526Y-64545238D02*
X196277526Y-64545238D01*
X196277526Y-64545238D02*
X196458954Y-64666190D01*
X196458954Y-64666190D02*
X196579907Y-64787142D01*
X196579907Y-64787142D02*
X196640383Y-64908095D01*
D11*
X204268095Y-33742619D02*
X204268095Y-34552142D01*
X204268095Y-34552142D02*
X204315714Y-34647380D01*
X204315714Y-34647380D02*
X204363333Y-34695000D01*
X204363333Y-34695000D02*
X204458571Y-34742619D01*
X204458571Y-34742619D02*
X204649047Y-34742619D01*
X204649047Y-34742619D02*
X204744285Y-34695000D01*
X204744285Y-34695000D02*
X204791904Y-34647380D01*
X204791904Y-34647380D02*
X204839523Y-34552142D01*
X204839523Y-34552142D02*
X204839523Y-33742619D01*
X205268095Y-33837857D02*
X205315714Y-33790238D01*
X205315714Y-33790238D02*
X205410952Y-33742619D01*
X205410952Y-33742619D02*
X205649047Y-33742619D01*
X205649047Y-33742619D02*
X205744285Y-33790238D01*
X205744285Y-33790238D02*
X205791904Y-33837857D01*
X205791904Y-33837857D02*
X205839523Y-33933095D01*
X205839523Y-33933095D02*
X205839523Y-34028333D01*
X205839523Y-34028333D02*
X205791904Y-34171190D01*
X205791904Y-34171190D02*
X205220476Y-34742619D01*
X205220476Y-34742619D02*
X205839523Y-34742619D01*
X200066905Y-40582619D02*
X200066905Y-39582619D01*
X200066905Y-39582619D02*
X200305000Y-39582619D01*
X200305000Y-39582619D02*
X200447857Y-39630238D01*
X200447857Y-39630238D02*
X200543095Y-39725476D01*
X200543095Y-39725476D02*
X200590714Y-39820714D01*
X200590714Y-39820714D02*
X200638333Y-40011190D01*
X200638333Y-40011190D02*
X200638333Y-40154047D01*
X200638333Y-40154047D02*
X200590714Y-40344523D01*
X200590714Y-40344523D02*
X200543095Y-40439761D01*
X200543095Y-40439761D02*
X200447857Y-40535000D01*
X200447857Y-40535000D02*
X200305000Y-40582619D01*
X200305000Y-40582619D02*
X200066905Y-40582619D01*
X201019286Y-39677857D02*
X201066905Y-39630238D01*
X201066905Y-39630238D02*
X201162143Y-39582619D01*
X201162143Y-39582619D02*
X201400238Y-39582619D01*
X201400238Y-39582619D02*
X201495476Y-39630238D01*
X201495476Y-39630238D02*
X201543095Y-39677857D01*
X201543095Y-39677857D02*
X201590714Y-39773095D01*
X201590714Y-39773095D02*
X201590714Y-39868333D01*
X201590714Y-39868333D02*
X201543095Y-40011190D01*
X201543095Y-40011190D02*
X200971667Y-40582619D01*
X200971667Y-40582619D02*
X201590714Y-40582619D01*
X222698333Y-36027380D02*
X222650714Y-36075000D01*
X222650714Y-36075000D02*
X222507857Y-36122619D01*
X222507857Y-36122619D02*
X222412619Y-36122619D01*
X222412619Y-36122619D02*
X222269762Y-36075000D01*
X222269762Y-36075000D02*
X222174524Y-35979761D01*
X222174524Y-35979761D02*
X222126905Y-35884523D01*
X222126905Y-35884523D02*
X222079286Y-35694047D01*
X222079286Y-35694047D02*
X222079286Y-35551190D01*
X222079286Y-35551190D02*
X222126905Y-35360714D01*
X222126905Y-35360714D02*
X222174524Y-35265476D01*
X222174524Y-35265476D02*
X222269762Y-35170238D01*
X222269762Y-35170238D02*
X222412619Y-35122619D01*
X222412619Y-35122619D02*
X222507857Y-35122619D01*
X222507857Y-35122619D02*
X222650714Y-35170238D01*
X222650714Y-35170238D02*
X222698333Y-35217857D01*
X223079286Y-35217857D02*
X223126905Y-35170238D01*
X223126905Y-35170238D02*
X223222143Y-35122619D01*
X223222143Y-35122619D02*
X223460238Y-35122619D01*
X223460238Y-35122619D02*
X223555476Y-35170238D01*
X223555476Y-35170238D02*
X223603095Y-35217857D01*
X223603095Y-35217857D02*
X223650714Y-35313095D01*
X223650714Y-35313095D02*
X223650714Y-35408333D01*
X223650714Y-35408333D02*
X223603095Y-35551190D01*
X223603095Y-35551190D02*
X223031667Y-36122619D01*
X223031667Y-36122619D02*
X223650714Y-36122619D01*
X226102619Y-38926666D02*
X226102619Y-39402856D01*
X226102619Y-39402856D02*
X225102619Y-39402856D01*
X226102619Y-38069523D02*
X226102619Y-38640951D01*
X226102619Y-38355237D02*
X225102619Y-38355237D01*
X225102619Y-38355237D02*
X225245476Y-38450475D01*
X225245476Y-38450475D02*
X225340714Y-38545713D01*
X225340714Y-38545713D02*
X225388333Y-38640951D01*
D10*
X215485667Y-20458026D02*
X215485667Y-21365169D01*
X215485667Y-21365169D02*
X215425190Y-21546597D01*
X215425190Y-21546597D02*
X215304238Y-21667550D01*
X215304238Y-21667550D02*
X215122809Y-21728026D01*
X215122809Y-21728026D02*
X215001857Y-21728026D01*
X216755667Y-21728026D02*
X216029952Y-21728026D01*
X216392809Y-21728026D02*
X216392809Y-20458026D01*
X216392809Y-20458026D02*
X216271857Y-20639454D01*
X216271857Y-20639454D02*
X216150905Y-20760407D01*
X216150905Y-20760407D02*
X216029952Y-20820883D01*
D11*
X228816905Y-40672619D02*
X228816905Y-39672619D01*
X228816905Y-39672619D02*
X229055000Y-39672619D01*
X229055000Y-39672619D02*
X229197857Y-39720238D01*
X229197857Y-39720238D02*
X229293095Y-39815476D01*
X229293095Y-39815476D02*
X229340714Y-39910714D01*
X229340714Y-39910714D02*
X229388333Y-40101190D01*
X229388333Y-40101190D02*
X229388333Y-40244047D01*
X229388333Y-40244047D02*
X229340714Y-40434523D01*
X229340714Y-40434523D02*
X229293095Y-40529761D01*
X229293095Y-40529761D02*
X229197857Y-40625000D01*
X229197857Y-40625000D02*
X229055000Y-40672619D01*
X229055000Y-40672619D02*
X228816905Y-40672619D01*
X230340714Y-40672619D02*
X229769286Y-40672619D01*
X230055000Y-40672619D02*
X230055000Y-39672619D01*
X230055000Y-39672619D02*
X229959762Y-39815476D01*
X229959762Y-39815476D02*
X229864524Y-39910714D01*
X229864524Y-39910714D02*
X229769286Y-39958333D01*
X194172619Y-36916666D02*
X193696428Y-37249999D01*
X194172619Y-37488094D02*
X193172619Y-37488094D01*
X193172619Y-37488094D02*
X193172619Y-37107142D01*
X193172619Y-37107142D02*
X193220238Y-37011904D01*
X193220238Y-37011904D02*
X193267857Y-36964285D01*
X193267857Y-36964285D02*
X193363095Y-36916666D01*
X193363095Y-36916666D02*
X193505952Y-36916666D01*
X193505952Y-36916666D02*
X193601190Y-36964285D01*
X193601190Y-36964285D02*
X193648809Y-37011904D01*
X193648809Y-37011904D02*
X193696428Y-37107142D01*
X193696428Y-37107142D02*
X193696428Y-37488094D01*
X193172619Y-36583332D02*
X193172619Y-35964285D01*
X193172619Y-35964285D02*
X193553571Y-36297618D01*
X193553571Y-36297618D02*
X193553571Y-36154761D01*
X193553571Y-36154761D02*
X193601190Y-36059523D01*
X193601190Y-36059523D02*
X193648809Y-36011904D01*
X193648809Y-36011904D02*
X193744047Y-35964285D01*
X193744047Y-35964285D02*
X193982142Y-35964285D01*
X193982142Y-35964285D02*
X194077380Y-36011904D01*
X194077380Y-36011904D02*
X194125000Y-36059523D01*
X194125000Y-36059523D02*
X194172619Y-36154761D01*
X194172619Y-36154761D02*
X194172619Y-36440475D01*
X194172619Y-36440475D02*
X194125000Y-36535713D01*
X194125000Y-36535713D02*
X194077380Y-36583332D01*
X222893333Y-48772619D02*
X222560000Y-48296428D01*
X222321905Y-48772619D02*
X222321905Y-47772619D01*
X222321905Y-47772619D02*
X222702857Y-47772619D01*
X222702857Y-47772619D02*
X222798095Y-47820238D01*
X222798095Y-47820238D02*
X222845714Y-47867857D01*
X222845714Y-47867857D02*
X222893333Y-47963095D01*
X222893333Y-47963095D02*
X222893333Y-48105952D01*
X222893333Y-48105952D02*
X222845714Y-48201190D01*
X222845714Y-48201190D02*
X222798095Y-48248809D01*
X222798095Y-48248809D02*
X222702857Y-48296428D01*
X222702857Y-48296428D02*
X222321905Y-48296428D01*
X223845714Y-48772619D02*
X223274286Y-48772619D01*
X223560000Y-48772619D02*
X223560000Y-47772619D01*
X223560000Y-47772619D02*
X223464762Y-47915476D01*
X223464762Y-47915476D02*
X223369524Y-48010714D01*
X223369524Y-48010714D02*
X223274286Y-48058333D01*
X215328095Y-41992619D02*
X215328095Y-42802142D01*
X215328095Y-42802142D02*
X215375714Y-42897380D01*
X215375714Y-42897380D02*
X215423333Y-42945000D01*
X215423333Y-42945000D02*
X215518571Y-42992619D01*
X215518571Y-42992619D02*
X215709047Y-42992619D01*
X215709047Y-42992619D02*
X215804285Y-42945000D01*
X215804285Y-42945000D02*
X215851904Y-42897380D01*
X215851904Y-42897380D02*
X215899523Y-42802142D01*
X215899523Y-42802142D02*
X215899523Y-41992619D01*
X216899523Y-42992619D02*
X216328095Y-42992619D01*
X216613809Y-42992619D02*
X216613809Y-41992619D01*
X216613809Y-41992619D02*
X216518571Y-42135476D01*
X216518571Y-42135476D02*
X216423333Y-42230714D01*
X216423333Y-42230714D02*
X216328095Y-42278333D01*
X235583333Y-33422619D02*
X235250000Y-32946428D01*
X235011905Y-33422619D02*
X235011905Y-32422619D01*
X235011905Y-32422619D02*
X235392857Y-32422619D01*
X235392857Y-32422619D02*
X235488095Y-32470238D01*
X235488095Y-32470238D02*
X235535714Y-32517857D01*
X235535714Y-32517857D02*
X235583333Y-32613095D01*
X235583333Y-32613095D02*
X235583333Y-32755952D01*
X235583333Y-32755952D02*
X235535714Y-32851190D01*
X235535714Y-32851190D02*
X235488095Y-32898809D01*
X235488095Y-32898809D02*
X235392857Y-32946428D01*
X235392857Y-32946428D02*
X235011905Y-32946428D01*
X236440476Y-32422619D02*
X236250000Y-32422619D01*
X236250000Y-32422619D02*
X236154762Y-32470238D01*
X236154762Y-32470238D02*
X236107143Y-32517857D01*
X236107143Y-32517857D02*
X236011905Y-32660714D01*
X236011905Y-32660714D02*
X235964286Y-32851190D01*
X235964286Y-32851190D02*
X235964286Y-33232142D01*
X235964286Y-33232142D02*
X236011905Y-33327380D01*
X236011905Y-33327380D02*
X236059524Y-33375000D01*
X236059524Y-33375000D02*
X236154762Y-33422619D01*
X236154762Y-33422619D02*
X236345238Y-33422619D01*
X236345238Y-33422619D02*
X236440476Y-33375000D01*
X236440476Y-33375000D02*
X236488095Y-33327380D01*
X236488095Y-33327380D02*
X236535714Y-33232142D01*
X236535714Y-33232142D02*
X236535714Y-32994047D01*
X236535714Y-32994047D02*
X236488095Y-32898809D01*
X236488095Y-32898809D02*
X236440476Y-32851190D01*
X236440476Y-32851190D02*
X236345238Y-32803571D01*
X236345238Y-32803571D02*
X236154762Y-32803571D01*
X236154762Y-32803571D02*
X236059524Y-32851190D01*
X236059524Y-32851190D02*
X236011905Y-32898809D01*
X236011905Y-32898809D02*
X235964286Y-32994047D01*
D10*
X225687050Y-65717619D02*
X225747526Y-65536190D01*
X225747526Y-65536190D02*
X225747526Y-65233809D01*
X225747526Y-65233809D02*
X225687050Y-65112857D01*
X225687050Y-65112857D02*
X225626573Y-65052381D01*
X225626573Y-65052381D02*
X225505621Y-64991904D01*
X225505621Y-64991904D02*
X225384669Y-64991904D01*
X225384669Y-64991904D02*
X225263716Y-65052381D01*
X225263716Y-65052381D02*
X225203240Y-65112857D01*
X225203240Y-65112857D02*
X225142764Y-65233809D01*
X225142764Y-65233809D02*
X225082288Y-65475714D01*
X225082288Y-65475714D02*
X225021811Y-65596666D01*
X225021811Y-65596666D02*
X224961335Y-65657143D01*
X224961335Y-65657143D02*
X224840383Y-65717619D01*
X224840383Y-65717619D02*
X224719430Y-65717619D01*
X224719430Y-65717619D02*
X224598478Y-65657143D01*
X224598478Y-65657143D02*
X224538002Y-65596666D01*
X224538002Y-65596666D02*
X224477526Y-65475714D01*
X224477526Y-65475714D02*
X224477526Y-65173333D01*
X224477526Y-65173333D02*
X224538002Y-64991904D01*
X224477526Y-64568571D02*
X224477526Y-63782380D01*
X224477526Y-63782380D02*
X224961335Y-64205714D01*
X224961335Y-64205714D02*
X224961335Y-64024285D01*
X224961335Y-64024285D02*
X225021811Y-63903333D01*
X225021811Y-63903333D02*
X225082288Y-63842857D01*
X225082288Y-63842857D02*
X225203240Y-63782380D01*
X225203240Y-63782380D02*
X225505621Y-63782380D01*
X225505621Y-63782380D02*
X225626573Y-63842857D01*
X225626573Y-63842857D02*
X225687050Y-63903333D01*
X225687050Y-63903333D02*
X225747526Y-64024285D01*
X225747526Y-64024285D02*
X225747526Y-64387142D01*
X225747526Y-64387142D02*
X225687050Y-64508095D01*
X225687050Y-64508095D02*
X225626573Y-64568571D01*
D11*
X223868333Y-41797380D02*
X223820714Y-41845000D01*
X223820714Y-41845000D02*
X223677857Y-41892619D01*
X223677857Y-41892619D02*
X223582619Y-41892619D01*
X223582619Y-41892619D02*
X223439762Y-41845000D01*
X223439762Y-41845000D02*
X223344524Y-41749761D01*
X223344524Y-41749761D02*
X223296905Y-41654523D01*
X223296905Y-41654523D02*
X223249286Y-41464047D01*
X223249286Y-41464047D02*
X223249286Y-41321190D01*
X223249286Y-41321190D02*
X223296905Y-41130714D01*
X223296905Y-41130714D02*
X223344524Y-41035476D01*
X223344524Y-41035476D02*
X223439762Y-40940238D01*
X223439762Y-40940238D02*
X223582619Y-40892619D01*
X223582619Y-40892619D02*
X223677857Y-40892619D01*
X223677857Y-40892619D02*
X223820714Y-40940238D01*
X223820714Y-40940238D02*
X223868333Y-40987857D01*
X224820714Y-41892619D02*
X224249286Y-41892619D01*
X224535000Y-41892619D02*
X224535000Y-40892619D01*
X224535000Y-40892619D02*
X224439762Y-41035476D01*
X224439762Y-41035476D02*
X224344524Y-41130714D01*
X224344524Y-41130714D02*
X224249286Y-41178333D01*
X234756666Y-57552619D02*
X234756666Y-58266904D01*
X234756666Y-58266904D02*
X234709047Y-58409761D01*
X234709047Y-58409761D02*
X234613809Y-58505000D01*
X234613809Y-58505000D02*
X234470952Y-58552619D01*
X234470952Y-58552619D02*
X234375714Y-58552619D01*
X235137619Y-57552619D02*
X235756666Y-57552619D01*
X235756666Y-57552619D02*
X235423333Y-57933571D01*
X235423333Y-57933571D02*
X235566190Y-57933571D01*
X235566190Y-57933571D02*
X235661428Y-57981190D01*
X235661428Y-57981190D02*
X235709047Y-58028809D01*
X235709047Y-58028809D02*
X235756666Y-58124047D01*
X235756666Y-58124047D02*
X235756666Y-58362142D01*
X235756666Y-58362142D02*
X235709047Y-58457380D01*
X235709047Y-58457380D02*
X235661428Y-58505000D01*
X235661428Y-58505000D02*
X235566190Y-58552619D01*
X235566190Y-58552619D02*
X235280476Y-58552619D01*
X235280476Y-58552619D02*
X235185238Y-58505000D01*
X235185238Y-58505000D02*
X235137619Y-58457380D01*
X213473333Y-40312619D02*
X213140000Y-39836428D01*
X212901905Y-40312619D02*
X212901905Y-39312619D01*
X212901905Y-39312619D02*
X213282857Y-39312619D01*
X213282857Y-39312619D02*
X213378095Y-39360238D01*
X213378095Y-39360238D02*
X213425714Y-39407857D01*
X213425714Y-39407857D02*
X213473333Y-39503095D01*
X213473333Y-39503095D02*
X213473333Y-39645952D01*
X213473333Y-39645952D02*
X213425714Y-39741190D01*
X213425714Y-39741190D02*
X213378095Y-39788809D01*
X213378095Y-39788809D02*
X213282857Y-39836428D01*
X213282857Y-39836428D02*
X212901905Y-39836428D01*
X214330476Y-39645952D02*
X214330476Y-40312619D01*
X214092381Y-39265000D02*
X213854286Y-39979285D01*
X213854286Y-39979285D02*
X214473333Y-39979285D01*
D10*
X211517050Y-65827619D02*
X211577526Y-65646190D01*
X211577526Y-65646190D02*
X211577526Y-65343809D01*
X211577526Y-65343809D02*
X211517050Y-65222857D01*
X211517050Y-65222857D02*
X211456573Y-65162381D01*
X211456573Y-65162381D02*
X211335621Y-65101904D01*
X211335621Y-65101904D02*
X211214669Y-65101904D01*
X211214669Y-65101904D02*
X211093716Y-65162381D01*
X211093716Y-65162381D02*
X211033240Y-65222857D01*
X211033240Y-65222857D02*
X210972764Y-65343809D01*
X210972764Y-65343809D02*
X210912288Y-65585714D01*
X210912288Y-65585714D02*
X210851811Y-65706666D01*
X210851811Y-65706666D02*
X210791335Y-65767143D01*
X210791335Y-65767143D02*
X210670383Y-65827619D01*
X210670383Y-65827619D02*
X210549430Y-65827619D01*
X210549430Y-65827619D02*
X210428478Y-65767143D01*
X210428478Y-65767143D02*
X210368002Y-65706666D01*
X210368002Y-65706666D02*
X210307526Y-65585714D01*
X210307526Y-65585714D02*
X210307526Y-65283333D01*
X210307526Y-65283333D02*
X210368002Y-65101904D01*
X210428478Y-64618095D02*
X210368002Y-64557619D01*
X210368002Y-64557619D02*
X210307526Y-64436666D01*
X210307526Y-64436666D02*
X210307526Y-64134285D01*
X210307526Y-64134285D02*
X210368002Y-64013333D01*
X210368002Y-64013333D02*
X210428478Y-63952857D01*
X210428478Y-63952857D02*
X210549430Y-63892380D01*
X210549430Y-63892380D02*
X210670383Y-63892380D01*
X210670383Y-63892380D02*
X210851811Y-63952857D01*
X210851811Y-63952857D02*
X211577526Y-64678571D01*
X211577526Y-64678571D02*
X211577526Y-63892380D01*
D11*
X215006905Y-40472619D02*
X215006905Y-39472619D01*
X215006905Y-39472619D02*
X215245000Y-39472619D01*
X215245000Y-39472619D02*
X215387857Y-39520238D01*
X215387857Y-39520238D02*
X215483095Y-39615476D01*
X215483095Y-39615476D02*
X215530714Y-39710714D01*
X215530714Y-39710714D02*
X215578333Y-39901190D01*
X215578333Y-39901190D02*
X215578333Y-40044047D01*
X215578333Y-40044047D02*
X215530714Y-40234523D01*
X215530714Y-40234523D02*
X215483095Y-40329761D01*
X215483095Y-40329761D02*
X215387857Y-40425000D01*
X215387857Y-40425000D02*
X215245000Y-40472619D01*
X215245000Y-40472619D02*
X215006905Y-40472619D01*
X215911667Y-39472619D02*
X216530714Y-39472619D01*
X216530714Y-39472619D02*
X216197381Y-39853571D01*
X216197381Y-39853571D02*
X216340238Y-39853571D01*
X216340238Y-39853571D02*
X216435476Y-39901190D01*
X216435476Y-39901190D02*
X216483095Y-39948809D01*
X216483095Y-39948809D02*
X216530714Y-40044047D01*
X216530714Y-40044047D02*
X216530714Y-40282142D01*
X216530714Y-40282142D02*
X216483095Y-40377380D01*
X216483095Y-40377380D02*
X216435476Y-40425000D01*
X216435476Y-40425000D02*
X216340238Y-40472619D01*
X216340238Y-40472619D02*
X216054524Y-40472619D01*
X216054524Y-40472619D02*
X215959286Y-40425000D01*
X215959286Y-40425000D02*
X215911667Y-40377380D01*
X218706666Y-72207619D02*
X218706666Y-72921904D01*
X218706666Y-72921904D02*
X218659047Y-73064761D01*
X218659047Y-73064761D02*
X218563809Y-73160000D01*
X218563809Y-73160000D02*
X218420952Y-73207619D01*
X218420952Y-73207619D02*
X218325714Y-73207619D01*
X219611428Y-72540952D02*
X219611428Y-73207619D01*
X219373333Y-72160000D02*
X219135238Y-72874285D01*
X219135238Y-72874285D02*
X219754285Y-72874285D01*
X225782619Y-46146666D02*
X225306428Y-46479999D01*
X225782619Y-46718094D02*
X224782619Y-46718094D01*
X224782619Y-46718094D02*
X224782619Y-46337142D01*
X224782619Y-46337142D02*
X224830238Y-46241904D01*
X224830238Y-46241904D02*
X224877857Y-46194285D01*
X224877857Y-46194285D02*
X224973095Y-46146666D01*
X224973095Y-46146666D02*
X225115952Y-46146666D01*
X225115952Y-46146666D02*
X225211190Y-46194285D01*
X225211190Y-46194285D02*
X225258809Y-46241904D01*
X225258809Y-46241904D02*
X225306428Y-46337142D01*
X225306428Y-46337142D02*
X225306428Y-46718094D01*
X224877857Y-45765713D02*
X224830238Y-45718094D01*
X224830238Y-45718094D02*
X224782619Y-45622856D01*
X224782619Y-45622856D02*
X224782619Y-45384761D01*
X224782619Y-45384761D02*
X224830238Y-45289523D01*
X224830238Y-45289523D02*
X224877857Y-45241904D01*
X224877857Y-45241904D02*
X224973095Y-45194285D01*
X224973095Y-45194285D02*
X225068333Y-45194285D01*
X225068333Y-45194285D02*
X225211190Y-45241904D01*
X225211190Y-45241904D02*
X225782619Y-45813332D01*
X225782619Y-45813332D02*
X225782619Y-45194285D01*
X195326666Y-42092619D02*
X195326666Y-42806904D01*
X195326666Y-42806904D02*
X195279047Y-42949761D01*
X195279047Y-42949761D02*
X195183809Y-43045000D01*
X195183809Y-43045000D02*
X195040952Y-43092619D01*
X195040952Y-43092619D02*
X194945714Y-43092619D01*
X195755238Y-42187857D02*
X195802857Y-42140238D01*
X195802857Y-42140238D02*
X195898095Y-42092619D01*
X195898095Y-42092619D02*
X196136190Y-42092619D01*
X196136190Y-42092619D02*
X196231428Y-42140238D01*
X196231428Y-42140238D02*
X196279047Y-42187857D01*
X196279047Y-42187857D02*
X196326666Y-42283095D01*
X196326666Y-42283095D02*
X196326666Y-42378333D01*
X196326666Y-42378333D02*
X196279047Y-42521190D01*
X196279047Y-42521190D02*
X195707619Y-43092619D01*
X195707619Y-43092619D02*
X196326666Y-43092619D01*
X235478333Y-38922619D02*
X235145000Y-38446428D01*
X234906905Y-38922619D02*
X234906905Y-37922619D01*
X234906905Y-37922619D02*
X235287857Y-37922619D01*
X235287857Y-37922619D02*
X235383095Y-37970238D01*
X235383095Y-37970238D02*
X235430714Y-38017857D01*
X235430714Y-38017857D02*
X235478333Y-38113095D01*
X235478333Y-38113095D02*
X235478333Y-38255952D01*
X235478333Y-38255952D02*
X235430714Y-38351190D01*
X235430714Y-38351190D02*
X235383095Y-38398809D01*
X235383095Y-38398809D02*
X235287857Y-38446428D01*
X235287857Y-38446428D02*
X234906905Y-38446428D01*
X236383095Y-37922619D02*
X235906905Y-37922619D01*
X235906905Y-37922619D02*
X235859286Y-38398809D01*
X235859286Y-38398809D02*
X235906905Y-38351190D01*
X235906905Y-38351190D02*
X236002143Y-38303571D01*
X236002143Y-38303571D02*
X236240238Y-38303571D01*
X236240238Y-38303571D02*
X236335476Y-38351190D01*
X236335476Y-38351190D02*
X236383095Y-38398809D01*
X236383095Y-38398809D02*
X236430714Y-38494047D01*
X236430714Y-38494047D02*
X236430714Y-38732142D01*
X236430714Y-38732142D02*
X236383095Y-38827380D01*
X236383095Y-38827380D02*
X236335476Y-38875000D01*
X236335476Y-38875000D02*
X236240238Y-38922619D01*
X236240238Y-38922619D02*
X236002143Y-38922619D01*
X236002143Y-38922619D02*
X235906905Y-38875000D01*
X235906905Y-38875000D02*
X235859286Y-38827380D01*
D12*
X201720000Y-58260000D02*
X201720000Y-58260000D01*
X201520000Y-58260000D02*
X201520000Y-58260000D01*
D13*
X205150000Y-58810000D02*
X205150000Y-71510000D01*
X198290000Y-58810000D02*
X205150000Y-58810000D01*
X205150000Y-71510000D02*
X198290000Y-71510000D01*
X198290000Y-71510000D02*
X198290000Y-58810000D01*
D12*
X201520000Y-58260000D02*
G75*
G03*
X201720000Y-58260000I100000J0D01*
G01*
X201720000Y-58260000D02*
G75*
G03*
X201520000Y-58260000I-100000J0D01*
G01*
D14*
X204940000Y-41340000D02*
X204940000Y-35330000D01*
X211760000Y-39090000D02*
X211760000Y-35330000D01*
X204940000Y-35330000D02*
X206200000Y-35330000D01*
X211760000Y-35330000D02*
X210500000Y-35330000D01*
X203365000Y-37705000D02*
X203365000Y-34615000D01*
X197815001Y-36159538D02*
G75*
G03*
X203364999Y-37704830I2989999J-462D01*
G01*
X203365000Y-34615170D02*
G75*
G03*
X197815000Y-36160462I-2560000J-1544830D01*
G01*
X203305000Y-36160000D02*
G75*
G03*
X203305000Y-36160000I-2500000J0D01*
G01*
X223005580Y-34740000D02*
X222724420Y-34740000D01*
X223005580Y-33720000D02*
X222724420Y-33720000D01*
X224720000Y-38157936D02*
X224720000Y-39362064D01*
X222000000Y-38157936D02*
X222000000Y-39362064D01*
G36*
X204804421Y-32067028D02*
G01*
X204816459Y-32146344D01*
X204820000Y-32236666D01*
X204814939Y-32343198D01*
X204801720Y-32415422D01*
X204786666Y-32436666D01*
X204768911Y-32406304D01*
X204756873Y-32326988D01*
X204753333Y-32236666D01*
X204758393Y-32130135D01*
X204771613Y-32057910D01*
X204786666Y-32036666D01*
X204804421Y-32067028D01*
G37*
G36*
X204171969Y-32065947D02*
G01*
X204185083Y-32155907D01*
X204186666Y-32223885D01*
X204188326Y-32329721D01*
X204198096Y-32383673D01*
X204223168Y-32400519D01*
X204270000Y-32395174D01*
X204331939Y-32392889D01*
X204353333Y-32407955D01*
X204323876Y-32426417D01*
X204250840Y-32436197D01*
X204228333Y-32436666D01*
X204103333Y-32436666D01*
X204103333Y-32236666D01*
X204109123Y-32111423D01*
X204127105Y-32047472D01*
X204145000Y-32036666D01*
X204171969Y-32065947D01*
G37*
G36*
X204691876Y-31036634D02*
G01*
X204680419Y-31370000D01*
X204800209Y-31370000D01*
X204929787Y-31342172D01*
X204992453Y-31297546D01*
X205039454Y-31254893D01*
X205049743Y-31260898D01*
X205042453Y-31283605D01*
X205023163Y-31348868D01*
X205020000Y-31372726D01*
X204989440Y-31387571D01*
X204908805Y-31398432D01*
X204794658Y-31403214D01*
X204778333Y-31403280D01*
X204536666Y-31403228D01*
X204536666Y-31053252D01*
X204536666Y-30703276D01*
X204620000Y-30703272D01*
X204703333Y-30703268D01*
X204691876Y-31036634D01*
G37*
G36*
X202276054Y-32043855D02*
G01*
X202339575Y-32055525D01*
X202353333Y-32066879D01*
X202326787Y-32084025D01*
X202286666Y-32079658D01*
X202248786Y-32075880D01*
X202228793Y-32099523D01*
X202221087Y-32164855D01*
X202220000Y-32249445D01*
X202214627Y-32351050D01*
X202200744Y-32419043D01*
X202186666Y-32436666D01*
X202168311Y-32406548D01*
X202156205Y-32328946D01*
X202153333Y-32255651D01*
X202150255Y-32149779D01*
X202136519Y-32092856D01*
X202105371Y-32067280D01*
X202078333Y-32060191D01*
X202065631Y-32051712D01*
X202109885Y-32044614D01*
X202178333Y-32041206D01*
X202276054Y-32043855D01*
G37*
G36*
X201080658Y-32193827D02*
G01*
X201079494Y-32302885D01*
X201062796Y-32365354D01*
X201025146Y-32400542D01*
X201022191Y-32402160D01*
X200943973Y-32433338D01*
X200883414Y-32420733D01*
X200845854Y-32395000D01*
X200812406Y-32342795D01*
X200789008Y-32259482D01*
X200777755Y-32166837D01*
X200780738Y-32086634D01*
X200800048Y-32040650D01*
X200811426Y-32036666D01*
X200840000Y-32068122D01*
X200852621Y-32163130D01*
X200853333Y-32204379D01*
X200868495Y-32326611D01*
X200906544Y-32393057D01*
X200956321Y-32405250D01*
X201006669Y-32364723D01*
X201046429Y-32273008D01*
X201062273Y-32175677D01*
X201074650Y-32020000D01*
X201080658Y-32193827D01*
G37*
G36*
X205876849Y-29411121D02*
G01*
X205901286Y-29420960D01*
X205895000Y-29425409D01*
X205874142Y-29465283D01*
X205860117Y-29553028D01*
X205852972Y-29670196D01*
X205852756Y-29798339D01*
X205859517Y-29919006D01*
X205873303Y-30013750D01*
X205893333Y-30063333D01*
X205905387Y-30089366D01*
X205866637Y-30101263D01*
X205803333Y-30103333D01*
X205723026Y-30099032D01*
X205699945Y-30083448D01*
X205713333Y-30063333D01*
X205734986Y-30007057D01*
X205748819Y-29896201D01*
X205753333Y-29753333D01*
X205748204Y-29602045D01*
X205733830Y-29494298D01*
X205713333Y-29443333D01*
X205701378Y-29417700D01*
X205739961Y-29406774D01*
X205805000Y-29405964D01*
X205876849Y-29411121D01*
G37*
G36*
X202782719Y-29408500D02*
G01*
X202806660Y-29423062D01*
X202793333Y-29443333D01*
X202771680Y-29499609D01*
X202757847Y-29610465D01*
X202753333Y-29753333D01*
X202758462Y-29904620D01*
X202772836Y-30012368D01*
X202793333Y-30063333D01*
X202805288Y-30088966D01*
X202766705Y-30099892D01*
X202701666Y-30100701D01*
X202629817Y-30095545D01*
X202605380Y-30085706D01*
X202611666Y-30081257D01*
X202633782Y-30045491D01*
X202647343Y-29956011D01*
X202653048Y-29807306D01*
X202653333Y-29753333D01*
X202649738Y-29586747D01*
X202638487Y-29480955D01*
X202618879Y-29430447D01*
X202611666Y-29425409D01*
X202613912Y-29414558D01*
X202668961Y-29407223D01*
X202701666Y-29405964D01*
X202782719Y-29408500D01*
G37*
G36*
X206652319Y-29495000D02*
G01*
X206648246Y-29554139D01*
X206633416Y-29553340D01*
X206617330Y-29528333D01*
X206560246Y-29483253D01*
X206499389Y-29470000D01*
X206415425Y-29470000D01*
X206426046Y-29786741D01*
X206436666Y-30103482D01*
X206320000Y-30100776D01*
X206254931Y-30095101D01*
X206239320Y-30084402D01*
X206245000Y-30081257D01*
X206267674Y-30044229D01*
X206281304Y-29951912D01*
X206286558Y-29799258D01*
X206286666Y-29767222D01*
X206286666Y-29470000D01*
X206189110Y-29470000D01*
X206104245Y-29489278D01*
X206076310Y-29528333D01*
X206064584Y-29546985D01*
X206057553Y-29502386D01*
X206057200Y-29495000D01*
X206053333Y-29403333D01*
X206353333Y-29403333D01*
X206653333Y-29403333D01*
X206652319Y-29495000D01*
G37*
G36*
X203452957Y-32230832D02*
G01*
X203487327Y-32230832D01*
X203510240Y-32265194D01*
X203535620Y-32270000D01*
X203569262Y-32247880D01*
X203565461Y-32220191D01*
X203534083Y-32186342D01*
X203516507Y-32188825D01*
X203487327Y-32230832D01*
X203452957Y-32230832D01*
X203466260Y-32199274D01*
X203545853Y-32020000D01*
X203633358Y-32216790D01*
X203676080Y-32319744D01*
X203702108Y-32396246D01*
X203705982Y-32428461D01*
X203669184Y-32429748D01*
X203632287Y-32392673D01*
X203620000Y-32351366D01*
X203595820Y-32310270D01*
X203539376Y-32301439D01*
X203474809Y-32321600D01*
X203426259Y-32367481D01*
X203421038Y-32378333D01*
X203398150Y-32421404D01*
X203388779Y-32415941D01*
X203400372Y-32367028D01*
X203432542Y-32279263D01*
X203452957Y-32230832D01*
G37*
G36*
X201627786Y-32045843D02*
G01*
X201653333Y-32066739D01*
X201629116Y-32087301D01*
X201604929Y-32082666D01*
X201537601Y-32080210D01*
X201516558Y-32088793D01*
X201509775Y-32122486D01*
X201560912Y-32181758D01*
X201589962Y-32206705D01*
X201659282Y-32270551D01*
X201681392Y-32316322D01*
X201666427Y-32359958D01*
X201596622Y-32420395D01*
X201505700Y-32419020D01*
X201495000Y-32414974D01*
X201456342Y-32375648D01*
X201453333Y-32360555D01*
X201467123Y-32342851D01*
X201493333Y-32363333D01*
X201552417Y-32398884D01*
X201576666Y-32403333D01*
X201616157Y-32383273D01*
X201612473Y-32335203D01*
X201570525Y-32277293D01*
X201534994Y-32249172D01*
X201470058Y-32181757D01*
X201460118Y-32113136D01*
X201502940Y-32060589D01*
X201561666Y-32042785D01*
X201627786Y-32045843D01*
G37*
G36*
X203125313Y-29415327D02*
G01*
X203137196Y-29445000D01*
X203143114Y-29494915D01*
X203172351Y-29584420D01*
X203214977Y-29686007D01*
X203306802Y-29885348D01*
X203393305Y-29669340D01*
X203439620Y-29541448D01*
X203454962Y-29463793D01*
X203441570Y-29428843D01*
X203441513Y-29411680D01*
X203494999Y-29403887D01*
X203499081Y-29403843D01*
X203562899Y-29410580D01*
X203569317Y-29435265D01*
X203562779Y-29445000D01*
X203536885Y-29493366D01*
X203494793Y-29587408D01*
X203443830Y-29710421D01*
X203420257Y-29770000D01*
X203369134Y-29897942D01*
X203325285Y-30001893D01*
X203295364Y-30066333D01*
X203288014Y-30078545D01*
X203267114Y-30060142D01*
X203226565Y-29991250D01*
X203172313Y-29882941D01*
X203113464Y-29753545D01*
X202960686Y-29403333D01*
X203055963Y-29403333D01*
X203125313Y-29415327D01*
G37*
G36*
X205285102Y-32220000D02*
G01*
X205320000Y-32220000D01*
X205337999Y-32264358D01*
X205353333Y-32270000D01*
X205382905Y-32243001D01*
X205386666Y-32220000D01*
X205368667Y-32175641D01*
X205353333Y-32170000D01*
X205323760Y-32196998D01*
X205320000Y-32220000D01*
X205285102Y-32220000D01*
X205299212Y-32186868D01*
X205374334Y-32020404D01*
X205463833Y-32215897D01*
X205515626Y-32329687D01*
X205542498Y-32395648D01*
X205546777Y-32426795D01*
X205530792Y-32436141D01*
X205503333Y-32436666D01*
X205462613Y-32408876D01*
X205453333Y-32370000D01*
X205429426Y-32317041D01*
X205373370Y-32299816D01*
X205308659Y-32317340D01*
X205258786Y-32368628D01*
X205254372Y-32378333D01*
X205232406Y-32417122D01*
X205224158Y-32403333D01*
X205237208Y-32346219D01*
X205270754Y-32253691D01*
X205285102Y-32220000D01*
G37*
G36*
X200127698Y-32234166D02*
G01*
X200159722Y-32234166D01*
X200175812Y-32264561D01*
X200203333Y-32270000D01*
X200244819Y-32253086D01*
X200246944Y-32234166D01*
X200212531Y-32199727D01*
X200203333Y-32198333D01*
X200164248Y-32224284D01*
X200159722Y-32234166D01*
X200127698Y-32234166D01*
X200137849Y-32209510D01*
X200178777Y-32125304D01*
X200210696Y-32075758D01*
X200219514Y-32070000D01*
X200242983Y-32097385D01*
X200281333Y-32165489D01*
X200324437Y-32253234D01*
X200362165Y-32339540D01*
X200384387Y-32403329D01*
X200386666Y-32417846D01*
X200370264Y-32440142D01*
X200335800Y-32421933D01*
X200305386Y-32375913D01*
X200303333Y-32370000D01*
X200258569Y-32315391D01*
X200189603Y-32305412D01*
X200120876Y-32339107D01*
X200090729Y-32378333D01*
X200066795Y-32416799D01*
X200065311Y-32403333D01*
X200096998Y-32308733D01*
X200127698Y-32234166D01*
G37*
G36*
X202703333Y-32136666D02*
G01*
X202753333Y-32136666D01*
X202776903Y-32192376D01*
X202820000Y-32203333D01*
X202875710Y-32179763D01*
X202886666Y-32136666D01*
X202863096Y-32080956D01*
X202820000Y-32070000D01*
X202764289Y-32093570D01*
X202753333Y-32136666D01*
X202703333Y-32136666D01*
X202703333Y-32033635D01*
X202819722Y-32043484D01*
X202903826Y-32068641D01*
X202950665Y-32116587D01*
X202950518Y-32171294D01*
X202917582Y-32204827D01*
X202895632Y-32236525D01*
X202915999Y-32291714D01*
X202933632Y-32320047D01*
X202974769Y-32395086D01*
X202971927Y-32421124D01*
X202929407Y-32395133D01*
X202886543Y-32353201D01*
X202812992Y-32287176D01*
X202769994Y-32276062D01*
X202760569Y-32319857D01*
X202767021Y-32353333D01*
X202770849Y-32420534D01*
X202745635Y-32436666D01*
X202719489Y-32410551D01*
X202705953Y-32328367D01*
X202703333Y-32235151D01*
X202703333Y-32136666D01*
G37*
G36*
X206912815Y-29411034D02*
G01*
X206939227Y-29430546D01*
X206937472Y-29435362D01*
X206942819Y-29478414D01*
X206975227Y-29550361D01*
X207020924Y-29627399D01*
X207066139Y-29685726D01*
X207092281Y-29702920D01*
X207127111Y-29676211D01*
X207171787Y-29611441D01*
X207212987Y-29533060D01*
X207237386Y-29465516D01*
X207237042Y-29437274D01*
X207248854Y-29412590D01*
X207309699Y-29403843D01*
X207364456Y-29411169D01*
X207366981Y-29428201D01*
X207366034Y-29428843D01*
X207329425Y-29469006D01*
X207273099Y-29547732D01*
X207224367Y-29623686D01*
X207164338Y-29745819D01*
X207127770Y-29869449D01*
X207116917Y-29978135D01*
X207134032Y-30055441D01*
X207161666Y-30081257D01*
X207161056Y-30092662D01*
X207107455Y-30099945D01*
X207086666Y-30100722D01*
X206970000Y-30103374D01*
X206980711Y-29945020D01*
X206981828Y-29852250D01*
X206964868Y-29775586D01*
X206921424Y-29691294D01*
X206856748Y-29595000D01*
X206722073Y-29403333D01*
X206839670Y-29403333D01*
X206912815Y-29411034D01*
G37*
G36*
X206770000Y-31160098D02*
G01*
X206890803Y-31160098D01*
X206893104Y-31263265D01*
X206899823Y-31322492D01*
X206900721Y-31325213D01*
X206946263Y-31362949D01*
X207025423Y-31365043D01*
X207116634Y-31333261D01*
X207161758Y-31303860D01*
X207240991Y-31208032D01*
X207272880Y-31095111D01*
X207262499Y-30980122D01*
X207214922Y-30878087D01*
X207135219Y-30804029D01*
X207028465Y-30772973D01*
X206983308Y-30775363D01*
X206942107Y-30785818D01*
X206917247Y-30812583D01*
X206903589Y-30870412D01*
X206895998Y-30974062D01*
X206893434Y-31033547D01*
X206890803Y-31160098D01*
X206770000Y-31160098D01*
X206770000Y-31072706D01*
X206770000Y-30742079D01*
X206890936Y-30730546D01*
X207073761Y-30735534D01*
X207220207Y-30783766D01*
X207324103Y-30868224D01*
X207379282Y-30981887D01*
X207379575Y-31117737D01*
X207336321Y-31237333D01*
X207277196Y-31323381D01*
X207198283Y-31374754D01*
X207083084Y-31398804D01*
X206963858Y-31403333D01*
X206770000Y-31403333D01*
X206770000Y-31160098D01*
G37*
G36*
X198984553Y-29345000D02*
G01*
X198981288Y-29413376D01*
X198971706Y-29420851D01*
X198952294Y-29378333D01*
X198912636Y-29324285D01*
X198838855Y-29304367D01*
X198804407Y-29303333D01*
X198686666Y-29303333D01*
X198686666Y-29671074D01*
X198687421Y-29832254D01*
X198691264Y-29939339D01*
X198700565Y-30004898D01*
X198717693Y-30041498D01*
X198745017Y-30061706D01*
X198761666Y-30068961D01*
X198786386Y-30085222D01*
X198757257Y-30094669D01*
X198668928Y-30098420D01*
X198620000Y-30098588D01*
X198518746Y-30095783D01*
X198458703Y-30088906D01*
X198452362Y-30079423D01*
X198453333Y-30079036D01*
X198495847Y-30055789D01*
X198524276Y-30016429D01*
X198541386Y-29948882D01*
X198549945Y-29841074D01*
X198552722Y-29680931D01*
X198552822Y-29645000D01*
X198553333Y-29303333D01*
X198435592Y-29303333D01*
X198346151Y-29314756D01*
X198298042Y-29356654D01*
X198287705Y-29378333D01*
X198267273Y-29422223D01*
X198258331Y-29410557D01*
X198255446Y-29345000D01*
X198253333Y-29236666D01*
X198620000Y-29236666D01*
X198986666Y-29236666D01*
X198984553Y-29345000D01*
G37*
G36*
X201705697Y-30709914D02*
G01*
X201701501Y-30734583D01*
X201693333Y-30743333D01*
X201671601Y-30799233D01*
X201657662Y-30907703D01*
X201653333Y-31038167D01*
X201649775Y-31179825D01*
X201637130Y-31270695D01*
X201612438Y-31326371D01*
X201595000Y-31345570D01*
X201487568Y-31403191D01*
X201353331Y-31420507D01*
X201294178Y-31413639D01*
X201218803Y-31378933D01*
X201166180Y-31304443D01*
X201132892Y-31181895D01*
X201115523Y-31003017D01*
X201114387Y-30978333D01*
X201109431Y-30843649D01*
X201110822Y-30762189D01*
X201122065Y-30720571D01*
X201146666Y-30705411D01*
X201186419Y-30703328D01*
X201270000Y-30703323D01*
X201258214Y-30987420D01*
X201256265Y-31156078D01*
X201269490Y-31268798D01*
X201301629Y-31335322D01*
X201356419Y-31365390D01*
X201405033Y-31370000D01*
X201488529Y-31356371D01*
X201543238Y-31309471D01*
X201573242Y-31220278D01*
X201582624Y-31079770D01*
X201580649Y-30981891D01*
X201576189Y-30846099D01*
X201577822Y-30763628D01*
X201588933Y-30721190D01*
X201612911Y-30705496D01*
X201651666Y-30703255D01*
X201705697Y-30709914D01*
G37*
G36*
X198263173Y-30917990D02*
G01*
X198421482Y-30917990D01*
X198425307Y-31056881D01*
X198451452Y-31187511D01*
X198497846Y-31290948D01*
X198560965Y-31347690D01*
X198671814Y-31364335D01*
X198772917Y-31317203D01*
X198802639Y-31290390D01*
X198874698Y-31177849D01*
X198910775Y-31034985D01*
X198910307Y-30884351D01*
X198872732Y-30748501D01*
X198818140Y-30668140D01*
X198719471Y-30610879D01*
X198610221Y-30610782D01*
X198511521Y-30666370D01*
X198489086Y-30691161D01*
X198442050Y-30789773D01*
X198421482Y-30917990D01*
X198263173Y-30917990D01*
X198264019Y-30879819D01*
X198300707Y-30754476D01*
X198380153Y-30639907D01*
X198494253Y-30569164D01*
X198627997Y-30541601D01*
X198766376Y-30556569D01*
X198894379Y-30613420D01*
X198996996Y-30711507D01*
X199038672Y-30786325D01*
X199078012Y-30907657D01*
X199079974Y-31015401D01*
X199044161Y-31140877D01*
X199033840Y-31167343D01*
X198947226Y-31304655D01*
X198823753Y-31390582D01*
X198674209Y-31420365D01*
X198521154Y-31393491D01*
X198393621Y-31316616D01*
X198305108Y-31196256D01*
X198260333Y-31046096D01*
X198263173Y-30917990D01*
G37*
G36*
X199605897Y-30739063D02*
G01*
X199679946Y-30748198D01*
X199713519Y-30766990D01*
X199720000Y-30790748D01*
X199710465Y-30825991D01*
X199672581Y-30805475D01*
X199672326Y-30805263D01*
X199609342Y-30781841D01*
X199515620Y-30775103D01*
X199497326Y-30776182D01*
X199413448Y-30788578D01*
X199374888Y-30819666D01*
X199360301Y-30888369D01*
X199359290Y-30898545D01*
X199348580Y-31010424D01*
X199500956Y-30998305D01*
X199594146Y-30993834D01*
X199638795Y-31005224D01*
X199652535Y-31040252D01*
X199653333Y-31065507D01*
X199646670Y-31119087D01*
X199619320Y-31115793D01*
X199605349Y-31105006D01*
X199538031Y-31078894D01*
X199463682Y-31075924D01*
X199407094Y-31087493D01*
X199379925Y-31117626D01*
X199371973Y-31185156D01*
X199372094Y-31245000D01*
X199369722Y-31341525D01*
X199354505Y-31388518D01*
X199319335Y-31402866D01*
X199305428Y-31403333D01*
X199274159Y-31399193D01*
X199254145Y-31378707D01*
X199242892Y-31329776D01*
X199237901Y-31240301D01*
X199236679Y-31098183D01*
X199236666Y-31070000D01*
X199236666Y-30736666D01*
X199478333Y-30736666D01*
X199605897Y-30739063D01*
G37*
G36*
X204214542Y-30723908D02*
G01*
X204288489Y-30748005D01*
X204316357Y-30795121D01*
X204319508Y-30849166D01*
X204319017Y-30953333D01*
X204277004Y-30870295D01*
X204212793Y-30795032D01*
X204133603Y-30775300D01*
X204068398Y-30804662D01*
X204031579Y-30843321D01*
X204029900Y-30880351D01*
X204069839Y-30927368D01*
X204157872Y-30995992D01*
X204186666Y-31016817D01*
X204284500Y-31093846D01*
X204335795Y-31155673D01*
X204352920Y-31218308D01*
X204353333Y-31232529D01*
X204325009Y-31333087D01*
X204251460Y-31399648D01*
X204149817Y-31421792D01*
X204070000Y-31404841D01*
X204005723Y-31389390D01*
X203978333Y-31392804D01*
X203961750Y-31374036D01*
X203953923Y-31309069D01*
X203953824Y-31296967D01*
X203954316Y-31186666D01*
X203996475Y-31270000D01*
X204054581Y-31336176D01*
X204137651Y-31353333D01*
X204208742Y-31344073D01*
X204234507Y-31305208D01*
X204236666Y-31271274D01*
X204215381Y-31201584D01*
X204144887Y-31129919D01*
X204095000Y-31094071D01*
X204005168Y-31024784D01*
X203962654Y-30963014D01*
X203953333Y-30901898D01*
X203981794Y-30802456D01*
X204058016Y-30738103D01*
X204168257Y-30718204D01*
X204214542Y-30723908D01*
G37*
G36*
X205367989Y-29411533D02*
G01*
X205447217Y-29423003D01*
X205479469Y-29454019D01*
X205484486Y-29520000D01*
X205480931Y-29583561D01*
X205470414Y-29585977D01*
X205454009Y-29549636D01*
X205395052Y-29473717D01*
X205311315Y-29449112D01*
X205270000Y-29457945D01*
X205223019Y-29500767D01*
X205232373Y-29565330D01*
X205294768Y-29643557D01*
X205370000Y-29703333D01*
X205462726Y-29775299D01*
X205508290Y-29836827D01*
X205520000Y-29902553D01*
X205496839Y-30011726D01*
X205425957Y-30076134D01*
X205305258Y-30097379D01*
X205266544Y-30096101D01*
X205175809Y-30087261D01*
X205133409Y-30065815D01*
X205121087Y-30015997D01*
X205120518Y-29970000D01*
X205122317Y-29895234D01*
X205131620Y-29880863D01*
X205155559Y-29920615D01*
X205162158Y-29933394D01*
X205229376Y-30026309D01*
X205301834Y-30061789D01*
X205367205Y-30038985D01*
X205414409Y-29973327D01*
X205400908Y-29901396D01*
X205325132Y-29818962D01*
X205270000Y-29777103D01*
X205178071Y-29704451D01*
X205132546Y-29642861D01*
X205120006Y-29573975D01*
X205120000Y-29571859D01*
X205145086Y-29477060D01*
X205221182Y-29423530D01*
X205349543Y-29410460D01*
X205367989Y-29411533D01*
G37*
G36*
X201916430Y-29417046D02*
G01*
X201984834Y-29461908D01*
X202074672Y-29547170D01*
X202149789Y-29628333D01*
X202352058Y-29853333D01*
X202352695Y-29647777D01*
X202346093Y-29513709D01*
X202325799Y-29438919D01*
X202311666Y-29425409D01*
X202312276Y-29414128D01*
X202365874Y-29407154D01*
X202386666Y-29406475D01*
X202453548Y-29410997D01*
X202468531Y-29425394D01*
X202462960Y-29430011D01*
X202440776Y-29478175D01*
X202424191Y-29587966D01*
X202413893Y-29754523D01*
X202412960Y-29783212D01*
X202403333Y-30110756D01*
X202186666Y-29855820D01*
X201970000Y-29600883D01*
X201960021Y-29824124D01*
X201959397Y-29964773D01*
X201973538Y-30047352D01*
X201993355Y-30074839D01*
X201997832Y-30093101D01*
X201940865Y-30100268D01*
X201920000Y-30100191D01*
X201854932Y-30094891D01*
X201839319Y-30084393D01*
X201845000Y-30081257D01*
X201867744Y-30044068D01*
X201881381Y-29951389D01*
X201886574Y-29798238D01*
X201886666Y-29768878D01*
X201884569Y-29621945D01*
X201876648Y-29527789D01*
X201860460Y-29472606D01*
X201833561Y-29442590D01*
X201828333Y-29439336D01*
X201795460Y-29414949D01*
X201819224Y-29405674D01*
X201858760Y-29404346D01*
X201916430Y-29417046D01*
G37*
G36*
X203253079Y-30723145D02*
G01*
X203339992Y-30788347D01*
X203456819Y-30903201D01*
X203479858Y-30927748D01*
X203689716Y-31153333D01*
X203678278Y-30928333D01*
X203674598Y-30806342D01*
X203680700Y-30737245D01*
X203698984Y-30707680D01*
X203718667Y-30703333D01*
X203744230Y-30713275D01*
X203758591Y-30751335D01*
X203763636Y-30829866D01*
X203761251Y-30961217D01*
X203760655Y-30978333D01*
X203754387Y-31162277D01*
X203747393Y-31284663D01*
X203734163Y-31350426D01*
X203709189Y-31364505D01*
X203666961Y-31331835D01*
X203601970Y-31257352D01*
X203536666Y-31179033D01*
X203446641Y-31075044D01*
X203371186Y-30993601D01*
X203321236Y-30946235D01*
X203308931Y-30938896D01*
X203296731Y-30968181D01*
X203290624Y-31047371D01*
X203291807Y-31159880D01*
X203292264Y-31170075D01*
X203295665Y-31295491D01*
X203289609Y-31367465D01*
X203271955Y-31398817D01*
X203253333Y-31403486D01*
X203229039Y-31392805D01*
X203215379Y-31352824D01*
X203210726Y-31271638D01*
X203213454Y-31137346D01*
X203214198Y-31117166D01*
X203217292Y-30969112D01*
X203211614Y-30871599D01*
X203195049Y-30808839D01*
X203167365Y-30767088D01*
X203130071Y-30720395D01*
X203144991Y-30704599D01*
X203189833Y-30702748D01*
X203253079Y-30723145D01*
G37*
G36*
X202095000Y-30703305D02*
G01*
X202214308Y-30704869D01*
X202281493Y-30712791D01*
X202311083Y-30731974D01*
X202317606Y-30767319D01*
X202317368Y-30778333D01*
X202309678Y-30820394D01*
X202297923Y-30811666D01*
X202256248Y-30784520D01*
X202173285Y-30770589D01*
X202150555Y-30770000D01*
X202066366Y-30773679D01*
X202029402Y-30796639D01*
X202020236Y-30856761D01*
X202020000Y-30890167D01*
X202023206Y-30966658D01*
X202045567Y-30998739D01*
X202106196Y-31001813D01*
X202153333Y-30997620D01*
X202238709Y-30993261D01*
X202276869Y-31008687D01*
X202286514Y-31053692D01*
X202286666Y-31067452D01*
X202280129Y-31122029D01*
X202255734Y-31118431D01*
X202246666Y-31110000D01*
X202185243Y-31080094D01*
X202113333Y-31070000D01*
X202055890Y-31074976D01*
X202028678Y-31101929D01*
X202020478Y-31168893D01*
X202020000Y-31220000D01*
X202020000Y-31370000D01*
X202149251Y-31370000D01*
X202250498Y-31356670D01*
X202317714Y-31322481D01*
X202320668Y-31319194D01*
X202364969Y-31281764D01*
X202379402Y-31302213D01*
X202367218Y-31348562D01*
X202342091Y-31378354D01*
X202285913Y-31395341D01*
X202184687Y-31402480D01*
X202108100Y-31403280D01*
X201870000Y-31403228D01*
X201870000Y-31053252D01*
X201870000Y-30703276D01*
X202095000Y-30703305D01*
G37*
G36*
X205294380Y-31071336D02*
G01*
X205356401Y-31071336D01*
X205373237Y-31121481D01*
X205433771Y-31136666D01*
X205486783Y-31131438D01*
X205497699Y-31102869D01*
X205475961Y-31035338D01*
X205447229Y-30969998D01*
X205423638Y-30960388D01*
X205395524Y-30991709D01*
X205356401Y-31071336D01*
X205294380Y-31071336D01*
X205305473Y-31045000D01*
X205360568Y-30915193D01*
X205408136Y-30812352D01*
X205441852Y-30749656D01*
X205453472Y-30736666D01*
X205475284Y-30765219D01*
X205515868Y-30841950D01*
X205568429Y-30953471D01*
X205601514Y-31028333D01*
X205659888Y-31159785D01*
X205711815Y-31270176D01*
X205749621Y-31343483D01*
X205761182Y-31361666D01*
X205769389Y-31390972D01*
X205723773Y-31402526D01*
X205690748Y-31403333D01*
X205620972Y-31396436D01*
X205593064Y-31379699D01*
X205593270Y-31378333D01*
X205588733Y-31330193D01*
X205574357Y-31278333D01*
X205543555Y-31227773D01*
X205483326Y-31206441D01*
X205416920Y-31203333D01*
X205330198Y-31208633D01*
X205287562Y-31234337D01*
X205266674Y-31295147D01*
X205265000Y-31303333D01*
X205235415Y-31378833D01*
X205180593Y-31402728D01*
X205174166Y-31402822D01*
X205131661Y-31394271D01*
X205141415Y-31377822D01*
X205169591Y-31338047D01*
X205214663Y-31250762D01*
X205269411Y-31130612D01*
X205294380Y-31071336D01*
G37*
G36*
X206508354Y-30712157D02*
G01*
X206522431Y-30746281D01*
X206528640Y-30816950D01*
X206528304Y-30935444D01*
X206525151Y-31044967D01*
X206519311Y-31188355D01*
X206512673Y-31304563D01*
X206506185Y-31379009D01*
X206502206Y-31398500D01*
X206476136Y-31382532D01*
X206421837Y-31328760D01*
X206380388Y-31282548D01*
X206286880Y-31176365D01*
X206187723Y-31066730D01*
X206160586Y-31037381D01*
X206051173Y-30920000D01*
X206060586Y-31161741D01*
X206063118Y-31289968D01*
X206056895Y-31364465D01*
X206039802Y-31397840D01*
X206020000Y-31403486D01*
X205995705Y-31392805D01*
X205982045Y-31352824D01*
X205977393Y-31271638D01*
X205980121Y-31137346D01*
X205980865Y-31117166D01*
X205983959Y-30969112D01*
X205978280Y-30871599D01*
X205961716Y-30808839D01*
X205934032Y-30767088D01*
X205896850Y-30720439D01*
X205912472Y-30704851D01*
X205958723Y-30703333D01*
X206018723Y-30720821D01*
X206093507Y-30778216D01*
X206192151Y-30882915D01*
X206222222Y-30918081D01*
X206308192Y-31016422D01*
X206379653Y-31091577D01*
X206424838Y-31131404D01*
X206432216Y-31134747D01*
X206444962Y-31105487D01*
X206450320Y-31027034D01*
X206447303Y-30920000D01*
X206442334Y-30800889D01*
X206448097Y-30734340D01*
X206466960Y-30706776D01*
X206485086Y-30703300D01*
X206508354Y-30712157D01*
G37*
G36*
X202752988Y-30710305D02*
G01*
X202872078Y-30718384D01*
X202939888Y-30732619D01*
X202971799Y-30758156D01*
X202981224Y-30786666D01*
X202983205Y-30831054D01*
X202956970Y-30818307D01*
X202949902Y-30811666D01*
X202887905Y-30782472D01*
X202798526Y-30770005D01*
X202796666Y-30770000D01*
X202723632Y-30775352D01*
X202693113Y-30804822D01*
X202686692Y-30878531D01*
X202686666Y-30890167D01*
X202689872Y-30966658D01*
X202712233Y-30998739D01*
X202772862Y-31001813D01*
X202820000Y-30997620D01*
X202905375Y-30993261D01*
X202943536Y-31008687D01*
X202953180Y-31053692D01*
X202953333Y-31067452D01*
X202946795Y-31122029D01*
X202922401Y-31118431D01*
X202913333Y-31110000D01*
X202851910Y-31080094D01*
X202780000Y-31070000D01*
X202722556Y-31074976D01*
X202695345Y-31101929D01*
X202687145Y-31168893D01*
X202686666Y-31220000D01*
X202689157Y-31312166D01*
X202706036Y-31355810D01*
X202751416Y-31369074D01*
X202803333Y-31370000D01*
X202930372Y-31341800D01*
X202992453Y-31297546D01*
X203039454Y-31254893D01*
X203049743Y-31260898D01*
X203042453Y-31283605D01*
X203023163Y-31348868D01*
X203020000Y-31372726D01*
X202989440Y-31387571D01*
X202908805Y-31398432D01*
X202794658Y-31403214D01*
X202778333Y-31403280D01*
X202536666Y-31403228D01*
X202536666Y-31051919D01*
X202536666Y-30700610D01*
X202752988Y-30710305D01*
G37*
G36*
X200259295Y-29404504D02*
G01*
X200335595Y-29410708D01*
X200372561Y-29425977D01*
X200383858Y-29454346D01*
X200384035Y-29478333D01*
X200376344Y-29520394D01*
X200364590Y-29511666D01*
X200321783Y-29484557D01*
X200232215Y-29470793D01*
X200200555Y-29470000D01*
X200109500Y-29472560D01*
X200066798Y-29490209D01*
X200054133Y-29537894D01*
X200053333Y-29590167D01*
X200056539Y-29666658D01*
X200078900Y-29698739D01*
X200139529Y-29701813D01*
X200186666Y-29697620D01*
X200275449Y-29695113D01*
X200314386Y-29713119D01*
X200320000Y-29736666D01*
X200304646Y-29769669D01*
X200248699Y-29779449D01*
X200186666Y-29775713D01*
X200053333Y-29762997D01*
X200053333Y-29899832D01*
X200053333Y-30036666D01*
X200192375Y-30036666D01*
X200310747Y-30021119D01*
X200393633Y-29980361D01*
X200437066Y-29944353D01*
X200441806Y-29959287D01*
X200425878Y-30005361D01*
X200405717Y-30046393D01*
X200372272Y-30071593D01*
X200310208Y-30085736D01*
X200204188Y-30093599D01*
X200133070Y-30096550D01*
X200001819Y-30099592D01*
X199927887Y-30095596D01*
X199902170Y-30083261D01*
X199911783Y-30064883D01*
X199933607Y-30009506D01*
X199947562Y-29908563D01*
X199953599Y-29782618D01*
X199951664Y-29652233D01*
X199941708Y-29537970D01*
X199923678Y-29460391D01*
X199913333Y-29443333D01*
X199906919Y-29422694D01*
X199943913Y-29410234D01*
X200032902Y-29404366D01*
X200129999Y-29403333D01*
X200259295Y-29404504D01*
G37*
G36*
X200140578Y-31076897D02*
G01*
X200290771Y-31076897D01*
X200320967Y-31206929D01*
X200387514Y-31304181D01*
X200484034Y-31361720D01*
X200587396Y-31355482D01*
X200687095Y-31286210D01*
X200749763Y-31177626D01*
X200780683Y-31034742D01*
X200778314Y-30882688D01*
X200741115Y-30746595D01*
X200722328Y-30711666D01*
X200661079Y-30635689D01*
X200589860Y-30606147D01*
X200542322Y-30603333D01*
X200426876Y-30628546D01*
X200347834Y-30706108D01*
X200302796Y-30838901D01*
X200294405Y-30901188D01*
X200290771Y-31076897D01*
X200140578Y-31076897D01*
X200127769Y-30996225D01*
X200129675Y-30939508D01*
X200144371Y-30823833D01*
X200176469Y-30744354D01*
X200240001Y-30670686D01*
X200264375Y-30647841D01*
X200397041Y-30562039D01*
X200533039Y-30534217D01*
X200663366Y-30556838D01*
X200779023Y-30622367D01*
X200871007Y-30723267D01*
X200930317Y-30852001D01*
X200947953Y-31001033D01*
X200914912Y-31162827D01*
X200906117Y-31185144D01*
X200850117Y-31278495D01*
X200778828Y-31350522D01*
X200774795Y-31353256D01*
X200715106Y-31414980D01*
X200721282Y-31476719D01*
X200792574Y-31535879D01*
X200833322Y-31555735D01*
X200936666Y-31600723D01*
X200836666Y-31601823D01*
X200733783Y-31586545D01*
X200636740Y-31550819D01*
X200551404Y-31501872D01*
X200486740Y-31457470D01*
X200418856Y-31413726D01*
X200344923Y-31377125D01*
X200228057Y-31293075D01*
X200154301Y-31163320D01*
X200140578Y-31076897D01*
G37*
G36*
X204448080Y-29601119D02*
G01*
X204553333Y-29601119D01*
X204559125Y-29689905D01*
X204581650Y-29729366D01*
X204615918Y-29736666D01*
X204690255Y-29712454D01*
X204718477Y-29688501D01*
X204752847Y-29607310D01*
X204734896Y-29530987D01*
X204672455Y-29482165D01*
X204645000Y-29476119D01*
X204586649Y-29474557D01*
X204560402Y-29499544D01*
X204553523Y-29568445D01*
X204553333Y-29601119D01*
X204448080Y-29601119D01*
X204433830Y-29494298D01*
X204413333Y-29443333D01*
X204413045Y-29418606D01*
X204461333Y-29404656D01*
X204541070Y-29400972D01*
X204635129Y-29407046D01*
X204726381Y-29422366D01*
X204797699Y-29446423D01*
X204812583Y-29455223D01*
X204873393Y-29531409D01*
X204880415Y-29621518D01*
X204833305Y-29701923D01*
X204816386Y-29715445D01*
X204778211Y-29747355D01*
X204767353Y-29781580D01*
X204787934Y-29831895D01*
X204844077Y-29912072D01*
X204895061Y-29978333D01*
X204992268Y-30103333D01*
X204914467Y-30101913D01*
X204843555Y-30074429D01*
X204755656Y-29991469D01*
X204703333Y-29927344D01*
X204570000Y-29754195D01*
X204559504Y-29900460D01*
X204562606Y-30013972D01*
X204590767Y-30073107D01*
X204592837Y-30074519D01*
X204596103Y-30092942D01*
X204537450Y-30102079D01*
X204505000Y-30102822D01*
X204423904Y-30098905D01*
X204400008Y-30083681D01*
X204413333Y-30063333D01*
X204434986Y-30007057D01*
X204448819Y-29896201D01*
X204453333Y-29753333D01*
X204448204Y-29602045D01*
X204448080Y-29601119D01*
G37*
G36*
X204050011Y-29407234D02*
G01*
X204140859Y-29416683D01*
X204184857Y-29430324D01*
X204186666Y-29433940D01*
X204195891Y-29489430D01*
X204205850Y-29525607D01*
X204217221Y-29567412D01*
X204202419Y-29551199D01*
X204187527Y-29528333D01*
X204120828Y-29482458D01*
X204018343Y-29470000D01*
X203933670Y-29473661D01*
X203896308Y-29496068D01*
X203886921Y-29554352D01*
X203886666Y-29586666D01*
X203891885Y-29664880D01*
X203920833Y-29696958D01*
X203993446Y-29703323D01*
X204000555Y-29703333D01*
X204081977Y-29692308D01*
X204129299Y-29665391D01*
X204131257Y-29661666D01*
X204142039Y-29662271D01*
X204147781Y-29715847D01*
X204148070Y-29736666D01*
X204144132Y-29801726D01*
X204134360Y-29817351D01*
X204131257Y-29811666D01*
X204089759Y-29783505D01*
X204010804Y-29770166D01*
X204000555Y-29770000D01*
X203927626Y-29774207D01*
X203895215Y-29799634D01*
X203886913Y-29865492D01*
X203886666Y-29903333D01*
X203886666Y-30036666D01*
X204035010Y-30036666D01*
X204146371Y-30026165D01*
X204207843Y-29991706D01*
X204217330Y-29978333D01*
X204243656Y-29949822D01*
X204252233Y-29972186D01*
X204239971Y-30031268D01*
X204233100Y-30050607D01*
X204206725Y-30079563D01*
X204146397Y-30096054D01*
X204038753Y-30102813D01*
X203974767Y-30103408D01*
X203736666Y-30103482D01*
X203747401Y-29781859D01*
X203750119Y-29618678D01*
X203744653Y-29511941D01*
X203730064Y-29451817D01*
X203714068Y-29432295D01*
X203721583Y-29418494D01*
X203786551Y-29408671D01*
X203899814Y-29404041D01*
X203928333Y-29403843D01*
X204050011Y-29407234D01*
G37*
G36*
X201097697Y-29240489D02*
G01*
X201136475Y-29252382D01*
X201127124Y-29276205D01*
X201126666Y-29276666D01*
X201105166Y-29333379D01*
X201091474Y-29447445D01*
X201086666Y-29609890D01*
X201086666Y-29610000D01*
X201088892Y-29757804D01*
X201097556Y-29855104D01*
X201115632Y-29917976D01*
X201146099Y-29962491D01*
X201153333Y-29970000D01*
X201252283Y-30028032D01*
X201364225Y-30023123D01*
X201465504Y-29967580D01*
X201506710Y-29931286D01*
X201532497Y-29890848D01*
X201546465Y-29830676D01*
X201552211Y-29735179D01*
X201553333Y-29588766D01*
X201553333Y-29587025D01*
X201549745Y-29420355D01*
X201538516Y-29314469D01*
X201518945Y-29263850D01*
X201511666Y-29258742D01*
X201512271Y-29247960D01*
X201565847Y-29242218D01*
X201586666Y-29241929D01*
X201651726Y-29245867D01*
X201667351Y-29255639D01*
X201661666Y-29258742D01*
X201639802Y-29294160D01*
X201626003Y-29382996D01*
X201619577Y-29530751D01*
X201618939Y-29597777D01*
X201615169Y-29768892D01*
X201602112Y-29887388D01*
X201575154Y-29967152D01*
X201529683Y-30022069D01*
X201463858Y-30064555D01*
X201352871Y-30096428D01*
X201222300Y-30097703D01*
X201110085Y-30068352D01*
X201103333Y-30064842D01*
X201035862Y-30019467D01*
X200991918Y-29962209D01*
X200966720Y-29878732D01*
X200955483Y-29754701D01*
X200953333Y-29615285D01*
X200951407Y-29464994D01*
X200944098Y-29367796D01*
X200929105Y-29310192D01*
X200904132Y-29278679D01*
X200895000Y-29272669D01*
X200873884Y-29252389D01*
X200904051Y-29241552D01*
X200992856Y-29237747D01*
X201001666Y-29237680D01*
X201097697Y-29240489D01*
G37*
G36*
X199643827Y-29405964D02*
G01*
X199713259Y-29411283D01*
X199734566Y-29421410D01*
X199728333Y-29425409D01*
X199707486Y-29465289D01*
X199693285Y-29553264D01*
X199685730Y-29671094D01*
X199684820Y-29800539D01*
X199690557Y-29923359D01*
X199702940Y-30021316D01*
X199721968Y-30076168D01*
X199728333Y-30081257D01*
X199726658Y-30092300D01*
X199672132Y-30099621D01*
X199643827Y-30100701D01*
X199563654Y-30099240D01*
X199536629Y-30083681D01*
X199549374Y-30044215D01*
X199554215Y-30035018D01*
X199578690Y-29948913D01*
X199580388Y-29876684D01*
X199565966Y-29818957D01*
X199527186Y-29790289D01*
X199444256Y-29777630D01*
X199428333Y-29776416D01*
X199286666Y-29766166D01*
X199286666Y-29915305D01*
X199295602Y-30015904D01*
X199319269Y-30074670D01*
X199328333Y-30081257D01*
X199324389Y-30091038D01*
X199267679Y-30097100D01*
X199220000Y-30098070D01*
X199140567Y-30094911D01*
X199106403Y-30086870D01*
X199111666Y-30081257D01*
X199133782Y-30045491D01*
X199147343Y-29956011D01*
X199153048Y-29807306D01*
X199153333Y-29753333D01*
X199149738Y-29586747D01*
X199138487Y-29480955D01*
X199118879Y-29430447D01*
X199111666Y-29425409D01*
X199115610Y-29415628D01*
X199172320Y-29409565D01*
X199220000Y-29408596D01*
X199299432Y-29411755D01*
X199333596Y-29419795D01*
X199328333Y-29425409D01*
X199301187Y-29467084D01*
X199287255Y-29550048D01*
X199286666Y-29572777D01*
X199286666Y-29703333D01*
X199436666Y-29703333D01*
X199529158Y-29699965D01*
X199572979Y-29683053D01*
X199586041Y-29642384D01*
X199586666Y-29617808D01*
X199573049Y-29524408D01*
X199552160Y-29467808D01*
X199536428Y-29426104D01*
X199558944Y-29408446D01*
X199633159Y-29405761D01*
X199643827Y-29405964D01*
G37*
G36*
X204278912Y-26186658D02*
G01*
X204280162Y-26434532D01*
X204278960Y-26672943D01*
X204275551Y-26889857D01*
X204270179Y-27073239D01*
X204263088Y-27211055D01*
X204256769Y-27277422D01*
X204181199Y-27584512D01*
X204044186Y-27871649D01*
X203849013Y-28134851D01*
X203598961Y-28370138D01*
X203297314Y-28573528D01*
X203106910Y-28672089D01*
X202983668Y-28729208D01*
X202885366Y-28773574D01*
X202825982Y-28798938D01*
X202815088Y-28802542D01*
X202780531Y-28790455D01*
X202702481Y-28759816D01*
X202614749Y-28724182D01*
X202266337Y-28550895D01*
X201968485Y-28337290D01*
X201715905Y-28079456D01*
X201676537Y-28030235D01*
X201582989Y-27902676D01*
X201506891Y-27779140D01*
X201446615Y-27651115D01*
X201400532Y-27510088D01*
X201367015Y-27347547D01*
X201344435Y-27154979D01*
X201331165Y-26923874D01*
X201325574Y-26645718D01*
X201326036Y-26312000D01*
X201327073Y-26203333D01*
X201336123Y-25370000D01*
X201386666Y-25370000D01*
X201386666Y-26296330D01*
X201387650Y-26609998D01*
X201391384Y-26866102D01*
X201399048Y-27073725D01*
X201411816Y-27241953D01*
X201430866Y-27379868D01*
X201457376Y-27496555D01*
X201492521Y-27601096D01*
X201537480Y-27702578D01*
X201579430Y-27784171D01*
X201716808Y-27988535D01*
X201904169Y-28191597D01*
X202126076Y-28379220D01*
X202367092Y-28537264D01*
X202449734Y-28581292D01*
X202581648Y-28645866D01*
X202692318Y-28697320D01*
X202767715Y-28729288D01*
X202792208Y-28736666D01*
X202838673Y-28724541D01*
X202924489Y-28693303D01*
X202997153Y-28663855D01*
X203318810Y-28498220D01*
X203601337Y-28291378D01*
X203838321Y-28049907D01*
X204023349Y-27780388D01*
X204150008Y-27489399D01*
X204153825Y-27477226D01*
X204173481Y-27407960D01*
X204188853Y-27336395D01*
X204200456Y-27253482D01*
X204208806Y-27150176D01*
X204214420Y-27017430D01*
X204217812Y-26846197D01*
X204219498Y-26627432D01*
X204219995Y-26352086D01*
X204220000Y-26316488D01*
X204220000Y-25370000D01*
X202803333Y-25370000D01*
X201386666Y-25370000D01*
X201336123Y-25370000D01*
X201336666Y-25320000D01*
X202803333Y-25320000D01*
X204270000Y-25320000D01*
X204278912Y-26186658D01*
G37*
G36*
X201720434Y-26635287D02*
G01*
X201974286Y-26635287D01*
X202009930Y-26675701D01*
X202083482Y-26693472D01*
X202151968Y-26686966D01*
X202221648Y-26676923D01*
X202248787Y-26700761D01*
X202253333Y-26771518D01*
X202248282Y-26843947D01*
X202219351Y-26866743D01*
X202148561Y-26857378D01*
X202047078Y-26853684D01*
X201986871Y-26885500D01*
X201977473Y-26945814D01*
X201989167Y-26974672D01*
X202027090Y-27017267D01*
X202090272Y-27024666D01*
X202138467Y-27017462D01*
X202215694Y-27007971D01*
X202247661Y-27024499D01*
X202253333Y-27064767D01*
X202260299Y-27101954D01*
X202290815Y-27124565D01*
X202359309Y-27137876D01*
X202478333Y-27147051D01*
X202626769Y-27152459D01*
X202777487Y-27152525D01*
X202870000Y-27148864D01*
X203010372Y-27141489D01*
X203156787Y-27137294D01*
X203195000Y-27136956D01*
X203292191Y-27132706D01*
X203339422Y-27115932D01*
X203353147Y-27079894D01*
X203353333Y-27072111D01*
X203372030Y-27023213D01*
X203437943Y-26999943D01*
X203461666Y-26997111D01*
X203546277Y-26973335D01*
X203572030Y-26934547D01*
X203539184Y-26896546D01*
X203459670Y-26876072D01*
X203384789Y-26862232D01*
X203358316Y-26828744D01*
X203359670Y-26776072D01*
X203378935Y-26712018D01*
X203430955Y-26683264D01*
X203480356Y-26676070D01*
X203557894Y-26655625D01*
X203575631Y-26623503D01*
X203535836Y-26592354D01*
X203462501Y-26576475D01*
X203373294Y-26546837D01*
X203343189Y-26501475D01*
X203313684Y-26448374D01*
X203289787Y-26436666D01*
X203270183Y-26469265D01*
X203257901Y-26564842D01*
X203253351Y-26720068D01*
X203253333Y-26732538D01*
X203253333Y-27028411D01*
X203061666Y-27050945D01*
X202944133Y-27063439D01*
X202845558Y-27071621D01*
X202803333Y-27073478D01*
X202733990Y-27069672D01*
X202626477Y-27059878D01*
X202545000Y-27050945D01*
X202353333Y-27028411D01*
X202353333Y-26794959D01*
X202390803Y-26794959D01*
X202393143Y-26897624D01*
X202399936Y-26956211D01*
X202400721Y-26958547D01*
X202446907Y-26989046D01*
X202556208Y-27002556D01*
X202602287Y-27003333D01*
X202786666Y-27003333D01*
X202786666Y-26733492D01*
X202820000Y-26733492D01*
X202821796Y-26857794D01*
X202826556Y-26953723D01*
X202833334Y-27004003D01*
X202834973Y-27007196D01*
X202873787Y-27012514D01*
X202957382Y-27010096D01*
X203026640Y-27004418D01*
X203203333Y-26986666D01*
X203213161Y-26723161D01*
X203214647Y-26595983D01*
X203209765Y-26495261D01*
X203199549Y-26438935D01*
X203196495Y-26434089D01*
X203148341Y-26411480D01*
X203064715Y-26389340D01*
X203050128Y-26386512D01*
X202950802Y-26379716D01*
X202883583Y-26407809D01*
X202843047Y-26478969D01*
X202823769Y-26601374D01*
X202820000Y-26733492D01*
X202786666Y-26733492D01*
X202786666Y-26719285D01*
X202785340Y-26580317D01*
X202778961Y-26493101D01*
X202763927Y-26442740D01*
X202736635Y-26414335D01*
X202709485Y-26400071D01*
X202597987Y-26382009D01*
X202517819Y-26394464D01*
X202403333Y-26424024D01*
X202393434Y-26668892D01*
X202390803Y-26794959D01*
X202353333Y-26794959D01*
X202353333Y-26732538D01*
X202349316Y-26573429D01*
X202337540Y-26473745D01*
X202318415Y-26436815D01*
X202316879Y-26436666D01*
X202280419Y-26464584D01*
X202262248Y-26506174D01*
X202238406Y-26552731D01*
X202187302Y-26562828D01*
X202136652Y-26555529D01*
X202034180Y-26554751D01*
X201990871Y-26581599D01*
X201974286Y-26635287D01*
X201720434Y-26635287D01*
X201720739Y-25953333D01*
X201802502Y-26057045D01*
X201881379Y-26129807D01*
X201992860Y-26200787D01*
X202114758Y-26259001D01*
X202224885Y-26293463D01*
X202287157Y-26296993D01*
X202320895Y-26287894D01*
X202332663Y-26264822D01*
X202322455Y-26211839D01*
X202290267Y-26113005D01*
X202287098Y-26103686D01*
X202205085Y-25932498D01*
X202106243Y-25812020D01*
X201987645Y-25703333D01*
X202803333Y-25703333D01*
X203619020Y-25703333D01*
X203500423Y-25812020D01*
X203436628Y-25886905D01*
X203375301Y-25985850D01*
X203323381Y-26092706D01*
X203287809Y-26191324D01*
X203275527Y-26265558D01*
X203291271Y-26298622D01*
X203368443Y-26298956D01*
X203477629Y-26267436D01*
X203597967Y-26212813D01*
X203708598Y-26143840D01*
X203757797Y-26102912D01*
X203886666Y-25980322D01*
X203886666Y-26794385D01*
X203886666Y-27608448D01*
X203799140Y-27504429D01*
X203669908Y-27390337D01*
X203503101Y-27299010D01*
X203378333Y-27257428D01*
X203311015Y-27249770D01*
X203287600Y-27276313D01*
X203286666Y-27290497D01*
X203311784Y-27433745D01*
X203378577Y-27587302D01*
X203474210Y-27723102D01*
X203494199Y-27744199D01*
X203620000Y-27870000D01*
X202800959Y-27870000D01*
X201981919Y-27870000D01*
X202100734Y-27757943D01*
X202214048Y-27621742D01*
X202290951Y-27469254D01*
X202319986Y-27323339D01*
X202320000Y-27320435D01*
X202312283Y-27261453D01*
X202275430Y-27248451D01*
X202228333Y-27257428D01*
X202052362Y-27322481D01*
X201893603Y-27422252D01*
X201807526Y-27504429D01*
X201720000Y-27608448D01*
X201720369Y-26780890D01*
X201720434Y-26635287D01*
G37*
D10*
X222490000Y-31536500D02*
X208590000Y-31536500D01*
X222490000Y-17386500D02*
X222490000Y-25586500D01*
X208590000Y-17386500D02*
X222490000Y-17386500D01*
X208590000Y-17386500D02*
X208590000Y-25586500D01*
D14*
X232115000Y-37795000D02*
X232115000Y-34705000D01*
X226565001Y-36249538D02*
G75*
G03*
X232114999Y-37794830I2989999J-462D01*
G01*
X232115000Y-34705170D02*
G75*
G03*
X226565000Y-36250462I-2560000J-1544830D01*
G01*
X232055000Y-36250000D02*
G75*
G03*
X232055000Y-36250000I-2500000J0D01*
G01*
X194617500Y-36987258D02*
X194617500Y-36512742D01*
X195662500Y-36987258D02*
X195662500Y-36512742D01*
X223602500Y-45722742D02*
X223602500Y-46197258D01*
X222557500Y-45722742D02*
X222557500Y-46197258D01*
X212480000Y-44800000D02*
X212480000Y-45100000D01*
X212480000Y-45100000D02*
X211165000Y-45100000D01*
X212480000Y-52020000D02*
X212480000Y-51720000D01*
X212780000Y-44800000D02*
X212480000Y-44800000D01*
X212780000Y-52020000D02*
X212480000Y-52020000D01*
X219400000Y-44800000D02*
X219700000Y-44800000D01*
X219400000Y-52020000D02*
X219700000Y-52020000D01*
X219700000Y-44800000D02*
X219700000Y-45100000D01*
X219700000Y-52020000D02*
X219700000Y-51720000D01*
X235882258Y-35042500D02*
X235407742Y-35042500D01*
X235882258Y-33997500D02*
X235407742Y-33997500D01*
D12*
X229750000Y-57950000D02*
X229750000Y-57950000D01*
X229550000Y-57950000D02*
X229550000Y-57950000D01*
D13*
X233180000Y-58500000D02*
X233180000Y-71200000D01*
X226320000Y-58500000D02*
X233180000Y-58500000D01*
X233180000Y-71200000D02*
X226320000Y-71200000D01*
X226320000Y-71200000D02*
X226320000Y-58500000D01*
D12*
X229550000Y-57950000D02*
G75*
G03*
X229750000Y-57950000I100000J0D01*
G01*
X229750000Y-57950000D02*
G75*
G03*
X229550000Y-57950000I-100000J0D01*
G01*
D14*
X223894420Y-42350000D02*
X224175580Y-42350000D01*
X223894420Y-43370000D02*
X224175580Y-43370000D01*
X240800000Y-56650000D02*
X240800000Y-43830000D01*
X240800000Y-56650000D02*
X232170000Y-56650000D01*
X240800000Y-56530000D02*
X232170000Y-56530000D01*
X240800000Y-56411905D02*
X232170000Y-56411905D01*
X240800000Y-56293810D02*
X232170000Y-56293810D01*
X240800000Y-56175715D02*
X232170000Y-56175715D01*
X240800000Y-56057620D02*
X232170000Y-56057620D01*
X240800000Y-55939525D02*
X232170000Y-55939525D01*
X240800000Y-55821430D02*
X232170000Y-55821430D01*
X240800000Y-55703335D02*
X232170000Y-55703335D01*
X240800000Y-55585240D02*
X232170000Y-55585240D01*
X240800000Y-55467145D02*
X232170000Y-55467145D01*
X240800000Y-55349050D02*
X232170000Y-55349050D01*
X240800000Y-55230955D02*
X232170000Y-55230955D01*
X240800000Y-55112860D02*
X232170000Y-55112860D01*
X240800000Y-54994765D02*
X232170000Y-54994765D01*
X240800000Y-54876670D02*
X232170000Y-54876670D01*
X240800000Y-54758575D02*
X232170000Y-54758575D01*
X240800000Y-54640480D02*
X232170000Y-54640480D01*
X240800000Y-54522385D02*
X232170000Y-54522385D01*
X240800000Y-54404290D02*
X232170000Y-54404290D01*
X240800000Y-54286195D02*
X232170000Y-54286195D01*
X240800000Y-54168100D02*
X232170000Y-54168100D01*
X240800000Y-54050000D02*
X232170000Y-54050000D01*
X240800000Y-51510000D02*
X232170000Y-51510000D01*
X240800000Y-48970000D02*
X232170000Y-48970000D01*
X240800000Y-46430000D02*
X232170000Y-46430000D01*
X240800000Y-43830000D02*
X232170000Y-43830000D01*
X232170000Y-56650000D02*
X232170000Y-43830000D01*
X232170000Y-55680000D02*
X231820000Y-55680000D01*
X232170000Y-54960000D02*
X231820000Y-54960000D01*
X232170000Y-53140000D02*
X231760000Y-53140000D01*
X232170000Y-52420000D02*
X231760000Y-52420000D01*
X232170000Y-50600000D02*
X231760000Y-50600000D01*
X232170000Y-49880000D02*
X231760000Y-49880000D01*
X232170000Y-48060000D02*
X231760000Y-48060000D01*
X232170000Y-47340000D02*
X231760000Y-47340000D01*
X232170000Y-45520000D02*
X231760000Y-45520000D01*
X232170000Y-44800000D02*
X231760000Y-44800000D01*
X230710000Y-56650000D02*
X229600000Y-56650000D01*
X229600000Y-56650000D02*
X229600000Y-55320000D01*
X213402742Y-40757500D02*
X213877258Y-40757500D01*
X213402742Y-41802500D02*
X213877258Y-41802500D01*
D12*
X215650000Y-57960000D02*
X215650000Y-57960000D01*
X215450000Y-57960000D02*
X215450000Y-57960000D01*
D13*
X219080000Y-58510000D02*
X219080000Y-71210000D01*
X212220000Y-58510000D02*
X219080000Y-58510000D01*
X219080000Y-71210000D02*
X212220000Y-71210000D01*
X212220000Y-71210000D02*
X212220000Y-58510000D01*
D12*
X215450000Y-57960000D02*
G75*
G03*
X215650000Y-57960000I100000J0D01*
G01*
X215650000Y-57960000D02*
G75*
G03*
X215450000Y-57960000I-100000J0D01*
G01*
D14*
X218305000Y-37595000D02*
X218305000Y-34505000D01*
X212755001Y-36049538D02*
G75*
G03*
X218304999Y-37594830I2989999J-462D01*
G01*
X218305000Y-34505170D02*
G75*
G03*
X212755000Y-36050462I-2560000J-1544830D01*
G01*
X218245000Y-36050000D02*
G75*
G03*
X218245000Y-36050000I-2500000J0D01*
G01*
X220670000Y-74170000D02*
X220670000Y-75440000D01*
X219400000Y-74170000D02*
X220670000Y-74170000D01*
X217240000Y-76482929D02*
X217240000Y-76880000D01*
X216480000Y-76482929D02*
X216480000Y-76880000D01*
X214700000Y-76482929D02*
X214700000Y-76880000D01*
X213940000Y-76482929D02*
X213940000Y-76880000D01*
X212160000Y-76482929D02*
X212160000Y-76880000D01*
X211400000Y-76482929D02*
X211400000Y-76880000D01*
X219780000Y-76550000D02*
X219780000Y-76880000D01*
X219020000Y-76550000D02*
X219020000Y-76880000D01*
X220730000Y-76880000D02*
X210450000Y-76880000D01*
X218130000Y-76880000D02*
X218130000Y-79540000D01*
X215590000Y-76880000D02*
X215590000Y-79540000D01*
X213050000Y-76880000D02*
X213050000Y-79540000D01*
X210450000Y-76880000D02*
X210450000Y-79540000D01*
X220730000Y-79540000D02*
X220730000Y-76880000D01*
X219780000Y-79540000D02*
X219780000Y-85540000D01*
X219720000Y-79540000D02*
X219720000Y-85540000D01*
X219600000Y-79540000D02*
X219600000Y-85540000D01*
X219480000Y-79540000D02*
X219480000Y-85540000D01*
X219360000Y-79540000D02*
X219360000Y-85540000D01*
X219240000Y-79540000D02*
X219240000Y-85540000D01*
X219120000Y-79540000D02*
X219120000Y-85540000D01*
X217240000Y-79540000D02*
X217240000Y-85540000D01*
X214700000Y-79540000D02*
X214700000Y-85540000D01*
X212160000Y-79540000D02*
X212160000Y-85540000D01*
X210450000Y-79540000D02*
X220730000Y-79540000D01*
X219780000Y-85540000D02*
X219020000Y-85540000D01*
X219020000Y-85540000D02*
X219020000Y-79540000D01*
X217240000Y-85540000D02*
X216480000Y-85540000D01*
X216480000Y-85540000D02*
X216480000Y-79540000D01*
X214700000Y-85540000D02*
X213940000Y-85540000D01*
X213940000Y-85540000D02*
X213940000Y-79540000D01*
X212160000Y-85540000D02*
X211400000Y-85540000D01*
X211400000Y-85540000D02*
X211400000Y-79540000D01*
X226227500Y-46217258D02*
X226227500Y-45742742D01*
X227272500Y-46217258D02*
X227272500Y-45742742D01*
X192050000Y-44030000D02*
X192050000Y-56850000D01*
X192050000Y-44030000D02*
X200680000Y-44030000D01*
X192050000Y-44150000D02*
X200680000Y-44150000D01*
X192050000Y-44268095D02*
X200680000Y-44268095D01*
X192050000Y-44386190D02*
X200680000Y-44386190D01*
X192050000Y-44504285D02*
X200680000Y-44504285D01*
X192050000Y-44622380D02*
X200680000Y-44622380D01*
X192050000Y-44740475D02*
X200680000Y-44740475D01*
X192050000Y-44858570D02*
X200680000Y-44858570D01*
X192050000Y-44976665D02*
X200680000Y-44976665D01*
X192050000Y-45094760D02*
X200680000Y-45094760D01*
X192050000Y-45212855D02*
X200680000Y-45212855D01*
X192050000Y-45330950D02*
X200680000Y-45330950D01*
X192050000Y-45449045D02*
X200680000Y-45449045D01*
X192050000Y-45567140D02*
X200680000Y-45567140D01*
X192050000Y-45685235D02*
X200680000Y-45685235D01*
X192050000Y-45803330D02*
X200680000Y-45803330D01*
X192050000Y-45921425D02*
X200680000Y-45921425D01*
X192050000Y-46039520D02*
X200680000Y-46039520D01*
X192050000Y-46157615D02*
X200680000Y-46157615D01*
X192050000Y-46275710D02*
X200680000Y-46275710D01*
X192050000Y-46393805D02*
X200680000Y-46393805D01*
X192050000Y-46511900D02*
X200680000Y-46511900D01*
X192050000Y-46630000D02*
X200680000Y-46630000D01*
X192050000Y-49170000D02*
X200680000Y-49170000D01*
X192050000Y-51710000D02*
X200680000Y-51710000D01*
X192050000Y-54250000D02*
X200680000Y-54250000D01*
X192050000Y-56850000D02*
X200680000Y-56850000D01*
X200680000Y-44030000D02*
X200680000Y-56850000D01*
X200680000Y-45000000D02*
X201030000Y-45000000D01*
X200680000Y-45720000D02*
X201030000Y-45720000D01*
X200680000Y-47540000D02*
X201090000Y-47540000D01*
X200680000Y-48260000D02*
X201090000Y-48260000D01*
X200680000Y-50080000D02*
X201090000Y-50080000D01*
X200680000Y-50800000D02*
X201090000Y-50800000D01*
X200680000Y-52620000D02*
X201090000Y-52620000D01*
X200680000Y-53340000D02*
X201090000Y-53340000D01*
X200680000Y-55160000D02*
X201090000Y-55160000D01*
X200680000Y-55880000D02*
X201090000Y-55880000D01*
X202140000Y-44030000D02*
X203250000Y-44030000D01*
X203250000Y-44030000D02*
X203250000Y-45360000D01*
X235882258Y-37552500D02*
X235407742Y-37552500D01*
X235882258Y-36507500D02*
X235407742Y-36507500D01*
G36*
X231829082Y-28125664D02*
G01*
X231898388Y-28135734D01*
X231927841Y-28153111D01*
X231929711Y-28179093D01*
X231923824Y-28196519D01*
X231899638Y-28254086D01*
X231843998Y-28384265D01*
X231760794Y-28578021D01*
X231653917Y-28826322D01*
X231527255Y-29120133D01*
X231384700Y-29450421D01*
X231230140Y-29808153D01*
X231157503Y-29976152D01*
X230423528Y-31673368D01*
X229745156Y-31674194D01*
X229510905Y-31672061D01*
X229311671Y-31665635D01*
X229162701Y-31655777D01*
X229079244Y-31643348D01*
X229066785Y-31635905D01*
X229083909Y-31587996D01*
X229132844Y-31467140D01*
X229209935Y-31281981D01*
X229311524Y-31041164D01*
X229433956Y-30753332D01*
X229573575Y-30427130D01*
X229726725Y-30071202D01*
X229814628Y-29867691D01*
X230562470Y-28138592D01*
X231259319Y-28126347D01*
X231521819Y-28122267D01*
X231707649Y-28121608D01*
X231829082Y-28125664D01*
G37*
G36*
X228534510Y-28118426D02*
G01*
X228846953Y-28120960D01*
X229117810Y-28125132D01*
X229336695Y-28130702D01*
X229493222Y-28137435D01*
X229577008Y-28145092D01*
X229588274Y-28149713D01*
X229567477Y-28196403D01*
X229515209Y-28316223D01*
X229435185Y-28500592D01*
X229331119Y-28740926D01*
X229206726Y-29028643D01*
X229065720Y-29355160D01*
X228911816Y-29711895D01*
X228818310Y-29928788D01*
X228065910Y-31674500D01*
X227698922Y-31674760D01*
X227507531Y-31671090D01*
X227391869Y-31658354D01*
X227338972Y-31634456D01*
X227331934Y-31615435D01*
X227368364Y-31555497D01*
X227447409Y-31503236D01*
X227711390Y-31338191D01*
X227907944Y-31116701D01*
X228034054Y-30843693D01*
X228086701Y-30524095D01*
X228088151Y-30457037D01*
X228082614Y-30291545D01*
X228061122Y-30146369D01*
X228016360Y-30009885D01*
X227941010Y-29870466D01*
X227827754Y-29716484D01*
X227669275Y-29536313D01*
X227458255Y-29318326D01*
X227228440Y-29091026D01*
X227005110Y-28871297D01*
X226838788Y-28703803D01*
X226721964Y-28579523D01*
X226647127Y-28489433D01*
X226606769Y-28424511D01*
X226593380Y-28375735D01*
X226599161Y-28334979D01*
X226619595Y-28277204D01*
X226646474Y-28230781D01*
X226688977Y-28194457D01*
X226756281Y-28166980D01*
X226857565Y-28147097D01*
X227002007Y-28133556D01*
X227198784Y-28125105D01*
X227457077Y-28120490D01*
X227786062Y-28118460D01*
X228190864Y-28117765D01*
X228534510Y-28118426D01*
G37*
G36*
X230015134Y-26426778D02*
G01*
X230574501Y-26427548D01*
X231054911Y-26429022D01*
X231461369Y-26431286D01*
X231798880Y-26434422D01*
X232072448Y-26438514D01*
X232287077Y-26443645D01*
X232447773Y-26449901D01*
X232559539Y-26457363D01*
X232627379Y-26466116D01*
X232656299Y-26476244D01*
X232657838Y-26481587D01*
X232631379Y-26546434D01*
X232580005Y-26670045D01*
X232513375Y-26829213D01*
X232491219Y-26881937D01*
X232346219Y-27226683D01*
X229447460Y-27226683D01*
X226548702Y-27226683D01*
X226318595Y-27341350D01*
X226049769Y-27519042D01*
X225854636Y-27745953D01*
X225734980Y-28018921D01*
X225692583Y-28334782D01*
X225695746Y-28446294D01*
X225707369Y-28589252D01*
X225726644Y-28711937D01*
X225760620Y-28824233D01*
X225816344Y-28936023D01*
X225900866Y-29057191D01*
X226021233Y-29197621D01*
X226184495Y-29367195D01*
X226397699Y-29575797D01*
X226667893Y-29833310D01*
X226720288Y-29882935D01*
X226929629Y-30086241D01*
X227075620Y-30243109D01*
X227163646Y-30363580D01*
X227199094Y-30457697D01*
X227187352Y-30535503D01*
X227133806Y-30607039D01*
X227117135Y-30622766D01*
X227085947Y-30643597D01*
X227037125Y-30660142D01*
X226961099Y-30672883D01*
X226848302Y-30682298D01*
X226689163Y-30688868D01*
X226474114Y-30693072D01*
X226193584Y-30695391D01*
X225838005Y-30696305D01*
X225649184Y-30696386D01*
X225308137Y-30695358D01*
X224997505Y-30692446D01*
X224727960Y-30687907D01*
X224510172Y-30681998D01*
X224354812Y-30674974D01*
X224272552Y-30667093D01*
X224262163Y-30663023D01*
X224279120Y-30616844D01*
X224327967Y-30496739D01*
X224405414Y-30310497D01*
X224508175Y-30065909D01*
X224632963Y-29770765D01*
X224776490Y-29432855D01*
X224935467Y-29059970D01*
X225106609Y-28659900D01*
X225162951Y-28528468D01*
X226064158Y-26427276D01*
X229371807Y-26426629D01*
X230015134Y-26426778D01*
G37*
G36*
X231411611Y-31519328D02*
G01*
X231513370Y-31519328D01*
X231548670Y-31663928D01*
X231639337Y-31774981D01*
X231762528Y-31837638D01*
X231895395Y-31837048D01*
X231958204Y-31808470D01*
X231992277Y-31773017D01*
X231976841Y-31764667D01*
X231922917Y-31728904D01*
X231869237Y-31652778D01*
X231807767Y-31561515D01*
X231767788Y-31551939D01*
X231754194Y-31624718D01*
X231754497Y-31637155D01*
X231734766Y-31721758D01*
X231702424Y-31752070D01*
X231668486Y-31735695D01*
X231650862Y-31649822D01*
X231646820Y-31523035D01*
X231648644Y-31408119D01*
X231758029Y-31408119D01*
X231773777Y-31441105D01*
X231844370Y-31452603D01*
X231929216Y-31437696D01*
X231958204Y-31408119D01*
X231921064Y-31371619D01*
X231871862Y-31363636D01*
X231786706Y-31384062D01*
X231758029Y-31408119D01*
X231648644Y-31408119D01*
X231649061Y-31381822D01*
X231663354Y-31307844D01*
X231701058Y-31279370D01*
X231773529Y-31274670D01*
X231776632Y-31274669D01*
X231896931Y-31283712D01*
X231976807Y-31301670D01*
X232035308Y-31362279D01*
X232041139Y-31449421D01*
X231993961Y-31518603D01*
X231978525Y-31526220D01*
X231935025Y-31554114D01*
X231954394Y-31600128D01*
X231984470Y-31634983D01*
X232062812Y-31693259D01*
X232113964Y-31667725D01*
X232135568Y-31560003D01*
X232136137Y-31530690D01*
X232102573Y-31389301D01*
X232017328Y-31268430D01*
X231903579Y-31195560D01*
X231845240Y-31185703D01*
X231699900Y-31225822D01*
X231582244Y-31328756D01*
X231518272Y-31468370D01*
X231513370Y-31519328D01*
X231411611Y-31519328D01*
X231411378Y-31518328D01*
X231439191Y-31365407D01*
X231521579Y-31233480D01*
X231648483Y-31138564D01*
X231809844Y-31096676D01*
X231995602Y-31123831D01*
X231998310Y-31124771D01*
X232110261Y-31202407D01*
X232202103Y-31331227D01*
X232254728Y-31476552D01*
X232253936Y-31588721D01*
X232164239Y-31767437D01*
X232016044Y-31886617D01*
X231876178Y-31928837D01*
X231749728Y-31933371D01*
X231650592Y-31895199D01*
X231559715Y-31823091D01*
X231448199Y-31676229D01*
X231411611Y-31519328D01*
G37*
%LPC*%
D15*
X201720000Y-60460000D03*
X201720000Y-65160000D03*
X201720000Y-69860000D03*
D16*
X206050000Y-40390000D03*
X208350000Y-40390000D03*
X210650000Y-40390000D03*
D17*
X208350000Y-34090000D03*
D18*
X202075000Y-36160000D03*
D19*
X199535000Y-36160000D03*
D20*
X223640000Y-34230000D03*
X222090000Y-34230000D03*
D21*
X223360000Y-37360000D03*
X223360000Y-40160000D03*
D22*
X219040000Y-30396500D03*
X216540000Y-30396500D03*
X214540000Y-30396500D03*
X212040000Y-30396500D03*
D23*
X222110000Y-27686500D03*
X208970000Y-27686500D03*
D18*
X230825000Y-36250000D03*
D19*
X228285000Y-36250000D03*
D24*
X195140000Y-37575000D03*
X195140000Y-35925000D03*
D25*
X223080000Y-45135000D03*
X223080000Y-46785000D03*
D26*
X211915000Y-45610000D03*
X211915000Y-46410000D03*
X211915000Y-47210000D03*
X211915000Y-48010000D03*
X211915000Y-48810000D03*
X211915000Y-49610000D03*
X211915000Y-50410000D03*
X211915000Y-51210000D03*
D27*
X213290000Y-52585000D03*
X214090000Y-52585000D03*
X214890000Y-52585000D03*
X215690000Y-52585000D03*
X216490000Y-52585000D03*
X217290000Y-52585000D03*
X218090000Y-52585000D03*
X218890000Y-52585000D03*
D26*
X220265000Y-51210000D03*
X220265000Y-50410000D03*
X220265000Y-49610000D03*
X220265000Y-48810000D03*
X220265000Y-48010000D03*
X220265000Y-47210000D03*
X220265000Y-46410000D03*
X220265000Y-45610000D03*
D27*
X218890000Y-44235000D03*
X218090000Y-44235000D03*
X217290000Y-44235000D03*
X216490000Y-44235000D03*
X215690000Y-44235000D03*
X214890000Y-44235000D03*
X214090000Y-44235000D03*
X213290000Y-44235000D03*
D28*
X236470000Y-34520000D03*
X234820000Y-34520000D03*
D15*
X229750000Y-60150000D03*
X229750000Y-64850000D03*
X229750000Y-69550000D03*
D29*
X223260000Y-42860000D03*
X224810000Y-42860000D03*
D30*
X230710000Y-55320000D03*
D31*
X230710000Y-52780000D03*
X230710000Y-50240000D03*
X230710000Y-47700000D03*
X230710000Y-45160000D03*
D32*
X212815000Y-41280000D03*
X214465000Y-41280000D03*
D15*
X215650000Y-60160000D03*
X215650000Y-64860000D03*
X215650000Y-69560000D03*
D18*
X217015000Y-36050000D03*
D19*
X214475000Y-36050000D03*
D30*
X219400000Y-75440000D03*
D31*
X216860000Y-75440000D03*
X214320000Y-75440000D03*
X211780000Y-75440000D03*
D24*
X226750000Y-46805000D03*
X226750000Y-45155000D03*
D30*
X202140000Y-45360000D03*
D31*
X202140000Y-47900000D03*
X202140000Y-50440000D03*
X202140000Y-52980000D03*
X202140000Y-55520000D03*
D28*
X236470000Y-37030000D03*
X234820000Y-37030000D03*
M02*
