G04 #@! TF.GenerationSoftware,KiCad,Pcbnew,7.0.1*
G04 #@! TF.CreationDate,2023-08-25T12:02:58+10:00*
G04 #@! TF.ProjectId,firetruck controller,66697265-7472-4756-936b-20636f6e7472,rev?*
G04 #@! TF.SameCoordinates,Original*
G04 #@! TF.FileFunction,Paste,Top*
G04 #@! TF.FilePolarity,Positive*
%FSLAX46Y46*%
G04 Gerber Fmt 4.6, Leading zero omitted, Abs format (unit mm)*
G04 Created by KiCad (PCBNEW 7.0.1) date 2023-08-25 12:02:58*
%MOMM*%
%LPD*%
G01*
G04 APERTURE LIST*
G04 Aperture macros list*
%AMRoundRect*
0 Rectangle with rounded corners*
0 $1 Rounding radius*
0 $2 $3 $4 $5 $6 $7 $8 $9 X,Y pos of 4 corners*
0 Add a 4 corners polygon primitive as box body*
4,1,4,$2,$3,$4,$5,$6,$7,$8,$9,$2,$3,0*
0 Add four circle primitives for the rounded corners*
1,1,$1+$1,$2,$3*
1,1,$1+$1,$4,$5*
1,1,$1+$1,$6,$7*
1,1,$1+$1,$8,$9*
0 Add four rect primitives between the rounded corners*
20,1,$1+$1,$2,$3,$4,$5,0*
20,1,$1+$1,$4,$5,$6,$7,0*
20,1,$1+$1,$6,$7,$8,$9,0*
20,1,$1+$1,$8,$9,$2,$3,0*%
G04 Aperture macros list end*
%ADD10R,1.500000X2.000000*%
%ADD11R,3.800000X2.000000*%
%ADD12RoundRect,0.225000X0.225000X0.250000X-0.225000X0.250000X-0.225000X-0.250000X0.225000X-0.250000X0*%
%ADD13RoundRect,0.250000X-1.075000X0.375000X-1.075000X-0.375000X1.075000X-0.375000X1.075000X0.375000X0*%
%ADD14RoundRect,0.200000X0.275000X-0.200000X0.275000X0.200000X-0.275000X0.200000X-0.275000X-0.200000X0*%
%ADD15RoundRect,0.200000X-0.275000X0.200000X-0.275000X-0.200000X0.275000X-0.200000X0.275000X0.200000X0*%
%ADD16RoundRect,0.125000X-0.625000X-0.125000X0.625000X-0.125000X0.625000X0.125000X-0.625000X0.125000X0*%
%ADD17RoundRect,0.125000X-0.125000X-0.625000X0.125000X-0.625000X0.125000X0.625000X-0.125000X0.625000X0*%
%ADD18RoundRect,0.200000X0.200000X0.275000X-0.200000X0.275000X-0.200000X-0.275000X0.200000X-0.275000X0*%
%ADD19RoundRect,0.225000X-0.225000X-0.250000X0.225000X-0.250000X0.225000X0.250000X-0.225000X0.250000X0*%
%ADD20RoundRect,0.200000X-0.200000X-0.275000X0.200000X-0.275000X0.200000X0.275000X-0.200000X0.275000X0*%
G04 APERTURE END LIST*
D10*
X206050000Y-40390000D03*
X208350000Y-40390000D03*
X210650000Y-40390000D03*
D11*
X208350000Y-34090000D03*
D12*
X223640000Y-34230000D03*
X222090000Y-34230000D03*
D13*
X223360000Y-37360000D03*
X223360000Y-40160000D03*
D14*
X195140000Y-37575000D03*
X195140000Y-35925000D03*
D15*
X223080000Y-45135000D03*
X223080000Y-46785000D03*
D16*
X211915000Y-45610000D03*
X211915000Y-46410000D03*
X211915000Y-47210000D03*
X211915000Y-48010000D03*
X211915000Y-48810000D03*
X211915000Y-49610000D03*
X211915000Y-50410000D03*
X211915000Y-51210000D03*
D17*
X213290000Y-52585000D03*
X214090000Y-52585000D03*
X214890000Y-52585000D03*
X215690000Y-52585000D03*
X216490000Y-52585000D03*
X217290000Y-52585000D03*
X218090000Y-52585000D03*
X218890000Y-52585000D03*
D16*
X220265000Y-51210000D03*
X220265000Y-50410000D03*
X220265000Y-49610000D03*
X220265000Y-48810000D03*
X220265000Y-48010000D03*
X220265000Y-47210000D03*
X220265000Y-46410000D03*
X220265000Y-45610000D03*
D17*
X218890000Y-44235000D03*
X218090000Y-44235000D03*
X217290000Y-44235000D03*
X216490000Y-44235000D03*
X215690000Y-44235000D03*
X214890000Y-44235000D03*
X214090000Y-44235000D03*
X213290000Y-44235000D03*
D18*
X236470000Y-34520000D03*
X234820000Y-34520000D03*
D19*
X223260000Y-42860000D03*
X224810000Y-42860000D03*
D20*
X212815000Y-41280000D03*
X214465000Y-41280000D03*
D14*
X226750000Y-46805000D03*
X226750000Y-45155000D03*
D18*
X236470000Y-37030000D03*
X234820000Y-37030000D03*
M02*
